<?xml version="1.0" encoding="utf-8"?>
<!-- Generator: Adobe Illustrator 24.0.3, SVG Export Plug-In . SVG Version: 6.00 Build 0)  -->
<svg version="1.1" id="Layer_1" xmlns="http://www.w3.org/2000/svg" xmlns:xlink="http://www.w3.org/1999/xlink" x="0px" y="0px"
	 viewBox="0 0 592.27 316.79" style="enable-background:new 0 0 592.27 316.79;" xml:space="preserve">
<style type="text/css">
	.st0{fill:#EEF6FB;}
	.st1{fill:#1DA7E0;}
	.st2{fill:#FFFFFF;}
	.st3{fill:#333333;}
	.st4{fill:#FED09D;}
	.st5{fill:#1A1A1A;}
	.st6{fill:#231F20;}
	.st7{opacity:0.25;fill:#77562F;enable-background:new    ;}
	.st8{fill:none;stroke:#231F20;stroke-width:1.252;stroke-miterlimit:10;}
</style>
<g id="Group_4860" transform="translate(-603.666 -2085.852)">
	<path id="Path_9457" class="st0" d="M978.21,2085.85c-11.19,0.01-22.37,0.65-33.48,1.91c-44.52,5.08-90.4,12.13-130.25,27.86
		c-52.77,20.82-135.22,59.58-121.01,111.24c2.62,9.52,8.44,16.38,15.27,24.53c2.95,3.52,8.6,8.26,7.34,12.79
		c-1.2,4.35-9.04,8-11.78,12.06c-3.25,4.82-3.89,9.95-4.11,15.2c-0.53,12.22,1.09,25.31,9.78,35.94c9.81,12,23.99,19.31,38.83,27.68
		c14.92,8.41,31.34,14.05,47.98,20.5c7.18,2.79,17.71,6.69,26.56,6.69c0.67,0,1.34-0.02,1.99-0.07c0,0,64.74,20.31,119.39,20.46
		c54.65,0.15,99.21-19.86,99.21-19.86c1.73,0.11,3.45,0.16,5.17,0.16c24.96,0,49.36-11.01,71.81-16.89
		c36.3-9.51,73.47-26.4,74.95-57.33c1.65-34.57-24.57-74.43-66.03-92.12c-3.67-1.57-12.43-3.2-14.2-6
		c-2.22-3.49,4.05-10.26,5.9-13.24c9.05-14.6,8.51-29.89-0.61-44.59c-4.98-8.03-13.77-14.83-20.2-22.25
		c-6-6.97-13.14-12.88-21.12-17.46c-17.7-10.3-31.29-17.14-53.19-22.27C1011.53,2087.32,994.79,2085.85,978.21,2085.85"/>
	<g id="Group_4781" transform="translate(-1655.586 50.121)">
		<g id="Group_4752" transform="translate(2675.495 2085.879)">
			<path id="Path_9436" class="st1" d="M78.67,0.5C70.82,5.42,37.38,25.24,4.4,26.92C1.94,27.04,0,29.07,0,31.54V146.6
				c0,16.2,8.4,31.24,22.2,39.73c26.07,16.05,55.44,31.34,58.01,32.67c0.11,0.06,0.25,0.06,0.36,0
				c2.56-1.33,31.94-16.62,58.01-32.67c13.79-8.49,22.2-23.53,22.2-39.73V29.13c0-1.16-0.92-2.1-2.08-2.12
				C124.97,26.18,90.13,5.54,82.1,0.5C81.05-0.17,79.72-0.17,78.67,0.5z"/>
			<path id="Path_9437" class="st2" d="M78.05,25.27c-7.39,4.53-31.21,18.06-55.11,19.85c-2.89,0.21-5.13,2.62-5.14,5.52v86.68
				c0,13.32,6.93,25.68,18.29,32.63c18.37,11.24,38.51,21.87,43.26,24.35c0.65,0.34,1.43,0.34,2.08,0
				c4.74-2.48,24.89-13.1,43.26-24.35c11.36-6.95,18.29-19.31,18.29-32.63V50.64c0-2.9-2.24-5.31-5.14-5.52
				c-23.9-1.79-47.73-15.31-55.11-19.85C81.29,24.39,79.49,24.39,78.05,25.27z"/>
			<g id="Group_4751" transform="translate(45.174 65.501)">
				<path id="Path_9438" class="st1" d="M60.77,25.8h-4.01C56.06,11.42,46.66,0,35.21,0S14.36,11.42,13.65,25.8H9.65
					C4.32,25.8,0,30.11,0,35.44l0,0v33c0,5.33,4.32,9.64,9.64,9.64c0,0,0,0,0,0h51.13c5.33,0,9.64-4.32,9.64-9.64l0,0v-33
					C70.42,30.11,66.1,25.8,60.77,25.8C60.77,25.8,60.77,25.8,60.77,25.8z M35.21,9.29c6.28,0,11.64,7.4,12.25,16.51H22.95
					C23.57,16.68,28.93,9.29,35.21,9.29L35.21,9.29z"/>
				<path id="Path_9439" class="st0" d="M43.92,48.11c0-5.01-4.05-9.06-9.06-9.07c-5.01,0-9.06,4.05-9.07,9.06
					c0,3.24,1.72,6.23,4.53,7.85v10c0,1.32,1.07,2.38,2.38,2.38H37c1.32,0,2.38-1.07,2.38-2.38v-10
					C42.19,54.33,43.92,51.34,43.92,48.11z"/>
			</g>
		</g>
		<g id="Group_4780" transform="translate(2423.891 2119.04)">
			<g id="Group_4753">
				<path id="Rectangle_3198" d="M38.19,0h265.94c3.59,0,6.5,2.91,6.5,6.5v187.24c0,3.59-2.91,6.5-6.5,6.5H38.19
					c-3.59,0-6.5-2.91-6.5-6.5V6.5C31.69,2.91,34.6,0,38.19,0z"/>
				<path id="Rectangle_3199" class="st2" d="M43.32,6.76H298.8c1.73,0,3.13,1.4,3.13,3.13v176.62c0,1.73-1.4,3.13-3.13,3.13H43.32
					c-1.73,0-3.13-1.4-3.13-3.13V9.89C40.19,8.16,41.59,6.76,43.32,6.76z"/>
				<path id="Rectangle_3200" d="M1.89,176.29h338.53c1.04,0,1.89,0.85,1.89,1.89v6.35c0,8.68-7.04,15.72-15.71,15.72H15.72
					C7.04,200.25,0,193.21,0,184.53v-6.35C0,177.14,0.85,176.29,1.89,176.29C1.89,176.29,1.89,176.29,1.89,176.29z"/>
				<g id="Group_4789" transform="translate(204.881 200.263) rotate(180)">
					<path d="M-136.92-0.71h306.65c0.39,0,0.71,0.32,0.71,0.71s-0.32,0.71-0.71,0.71h-306.65c-0.39,0-0.71-0.32-0.71-0.71
						S-137.31-0.71-136.92-0.71z"/>
					<path d="M-155.31-0.71h11.98c0.39,0,0.71,0.32,0.71,0.71s-0.32,0.71-0.71,0.71h-11.98c-0.39,0-0.71-0.32-0.71-0.71
						S-155.7-0.71-155.31-0.71z"/>
				</g>
			</g>
			<path id="Path_9440" class="st3" d="M130.13,176.29v2.03c0,3.64,2.41,6.59,5.39,6.59h71.29c2.98,0,5.39-2.95,5.39-6.59v-2.03
				H130.13z"/>
			<g id="Group_4779" transform="translate(62.493 16.311)">
				<g id="Group_4769" transform="translate(129.33)">
					<path id="Rectangle_3201" class="st0" d="M4.2,0h79.6C86.12,0,88,1.88,88,4.2V148c0,2.32-1.88,4.2-4.2,4.2H4.2
						c-2.32,0-4.2-1.88-4.2-4.2V4.2C0,1.88,1.88,0,4.2,0z"/>
					<g id="Group_4766" transform="translate(13.07 32.401)">
						<ellipse id="Ellipse_322" class="st2" cx="30.93" cy="38.14" rx="30.93" ry="38.14"/>
						<g id="Group_4765" transform="translate(4.298 4.7)">
							<g id="Group_4754">
								<path id="Path_9441" class="st1" d="M4.25,49.3c-0.71,0-1.35-0.44-1.6-1.1C0.87,43.53-0.03,38.57,0,33.57
									c-0.13-8.49,2.57-16.79,7.67-23.58C9.96,7,12.84,4.52,16.13,2.7c6.55-3.61,14.5-3.61,21.05,0c3.29,1.82,6.18,4.29,8.47,7.28
									c5.1,6.79,7.8,15.09,7.67,23.58c0,2.75-0.27,5.5-0.8,8.2c-0.18,0.93-1.08,1.53-2.01,1.34s-1.53-1.08-1.34-2.01
									c0.49-2.48,0.74-5,0.73-7.53c0-16.63-10.43-30.16-23.24-30.16S3.41,16.94,3.41,33.57c-0.02,4.58,0.8,9.13,2.43,13.41
									c0.34,0.88-0.1,1.87-0.98,2.21C4.66,49.26,4.45,49.3,4.25,49.3L4.25,49.3z"/>
							</g>
							<g id="Group_4755" transform="translate(7.773 54.974)">
								<path id="Path_9442" class="st1" d="M18.89,12.17c-6.94,0-13.51-3.33-18.5-9.38c-0.6-0.73-0.5-1.8,0.23-2.41
									s1.8-0.5,2.41,0.23c4.33,5.25,9.96,8.13,15.86,8.13c0.94,0.02,1.69,0.81,1.67,1.75C20.53,11.42,19.8,12.15,18.89,12.17
									L18.89,12.17z"/>
							</g>
							<g id="Group_4756" transform="translate(29.963 48.16)">
								<path id="Path_9443" class="st1" d="M1.71,18.34c-0.94,0-1.71-0.77-1.7-1.71c0-0.78,0.53-1.45,1.28-1.65
									c6.35-1.65,11.94-6.75,15.32-14c0.4-0.86,1.42-1.23,2.27-0.83c0.86,0.4,1.23,1.42,0.83,2.27
									C15.89,10.59,9.49,16.37,2.14,18.29C2,18.32,1.85,18.34,1.71,18.34z"/>
							</g>
							<g id="Group_4757" transform="translate(6.316 31.865)">
								<path id="Path_9444" class="st1" d="M9.73,24.23c-0.44,0-0.86-0.17-1.17-0.47C3.2,18.71,0,10.46,0,1.71
									C0,0.76,0.76,0,1.71,0s1.71,0.76,1.71,1.71c0,7.83,2.8,15.15,7.49,19.57c0.69,0.65,0.72,1.73,0.07,2.42
									C10.65,24.04,10.2,24.23,9.73,24.23L9.73,24.23z"/>
							</g>
							<g id="Group_4758" transform="translate(19.672 22.276)">
								<path id="Path_9445" class="st1" d="M6.99,38.32c-2.03,0-4.04-0.39-5.92-1.15c-0.88-0.35-1.3-1.35-0.95-2.22
									c0.35-0.88,1.35-1.3,2.22-0.95c1.48,0.6,3.05,0.91,4.65,0.91c4.42,0,8.61-2.39,11.8-6.72c3.45-4.95,5.24-10.86,5.13-16.89
									c0.01-3.08-0.43-6.14-1.31-9.09c-0.27-0.9,0.24-1.86,1.14-2.13c0.9-0.27,1.86,0.24,2.13,1.14l0,0
									c0.98,3.27,1.47,6.67,1.46,10.08c0.11,6.76-1.91,13.38-5.79,18.92C17.69,35.44,12.52,38.32,6.99,38.32z"/>
							</g>
							<g id="Group_4759" transform="translate(7.409 6.546)">
								<path id="Path_9446" class="st1" d="M1.71,20.17C0.76,20.17,0,19.4,0,18.46c0-0.15,0.02-0.29,0.06-0.43
									C1.24,13.18,3.72,8.75,7.23,5.2c3.16-3.26,7.49-5.13,12.02-5.2C25.95,0,32.21,4.35,36,11.65c0.43,0.84,0.11,1.87-0.73,2.3
									s-1.87,0.11-2.3-0.73c-3.19-6.15-8.32-9.82-13.72-9.82c-7.06,0-13.44,6.22-15.89,15.48C3.16,19.64,2.48,20.17,1.71,20.17z"
									/>
							</g>
							<g id="Group_4760" transform="translate(12.944 13.693)">
								<path id="Path_9447" class="st1" d="M2.48,28.02c-0.78,0-1.47-0.53-1.66-1.29C0.27,24.49-0.01,22.19,0,19.88
									c-0.09-4.87,1.23-9.66,3.8-13.79C6.4,2.16,9.92,0,13.72,0c3.34,0.09,6.46,1.65,8.53,4.27c0.62,0.71,0.55,1.79-0.16,2.41
									c-0.71,0.62-1.79,0.55-2.41-0.17c-1.45-1.84-3.62-2.97-5.96-3.09c-2.61,0-5.12,1.62-7.07,4.56
									c-2.2,3.57-3.33,7.71-3.24,11.91c-0.01,2.03,0.24,4.05,0.72,6.02c0.23,0.91-0.32,1.84-1.24,2.07
									C2.77,28.01,2.62,28.03,2.48,28.02L2.48,28.02z"/>
							</g>
							<g id="Group_4761" transform="translate(16.201 41.731)">
								<path id="Path_9448" class="st1" d="M10.46,11.72c-3.9,0-7.62-2.38-10.2-6.54C-0.27,4.4-0.07,3.34,0.71,2.81
									s1.84-0.33,2.37,0.45C3.11,3.3,3.14,3.34,3.16,3.39c1.97,3.17,4.56,4.92,7.3,4.92c3.38,0,6.57-2.72,8.52-7.27
									c0.36-0.87,1.35-1.29,2.23-0.94c0.87,0.36,1.29,1.35,0.94,2.23c-0.01,0.02-0.02,0.04-0.02,0.06
									C19.61,8.23,15.26,11.72,10.46,11.72z"/>
							</g>
							<g id="Group_4762" transform="translate(35.547 23.299)">
								<path id="Path_9449" class="st1" d="M3.12,11.98c-0.94,0-1.71-0.76-1.71-1.71c0,0,0,0,0,0c0.01-2.72-0.43-5.42-1.32-8
									C-0.22,1.39,0.25,0.41,1.14,0.1s1.87,0.15,2.18,1.04c1.01,2.94,1.52,6.03,1.51,9.14C4.83,11.22,4.07,11.98,3.12,11.98
									C3.13,11.98,3.12,11.98,3.12,11.98z"/>
							</g>
							<g id="Group_4763" transform="translate(19.673 21.055)">
								<path id="Path_9450" class="st1" d="M6.99,25.04C3.01,25.04,0,19.65,0,12.52c0.02-0.94,0.81-1.69,1.75-1.67
									c0.91,0.02,1.64,0.76,1.67,1.67c-0.05,2.37,0.42,4.72,1.37,6.89c0.67,1.36,1.51,2.21,2.2,2.21s1.53-0.85,2.2-2.21
									c1.83-4.41,1.83-9.37,0-13.79c-0.67-1.36-1.51-2.21-2.2-2.21c-0.81,0-1.79,1.13-2.49,2.87c-0.35,0.88-1.35,1.3-2.22,0.95
									s-1.3-1.35-0.95-2.22l0,0C2.61,1.83,4.67,0,6.99,0c3.98,0,6.99,5.38,6.99,12.52S10.97,25.04,6.99,25.04z"/>
							</g>
							<g id="Group_4764" transform="translate(24.953 28.862)">
								<path id="Path_9451" class="st1" d="M1.71,9.01C0.76,9.01,0,8.24,0,7.3V1.71C0,0.77,0.76,0,1.71,0s1.71,0.76,1.71,1.71V7.3
									C3.42,8.24,2.65,9.01,1.71,9.01z"/>
							</g>
						</g>
					</g>
					<g id="Group_4767" transform="translate(12.376 7.808)">
						<rect id="Rectangle_3202" x="0" y="0" width="63.31" height="7.65"/>
						<rect id="Rectangle_3203" x="7.79" y="11.77" width="47.73" height="3.33"/>
					</g>
					<g id="Group_4768" transform="translate(27.956 113.989)">
						<path id="Path_9452" class="st1" d="M10.64,27.87c-0.79,0-1.53-0.4-1.96-1.06L0.38,14.01c-0.71-1.07-0.41-2.52,0.66-3.23
							c1.07-0.71,2.52-0.41,3.23,0.66c0.01,0.01,0.01,0.02,0.02,0.03l5.9,9.08L27.6,1.44c0.48-1.2,1.84-1.77,3.03-1.29
							c1.2,0.48,1.77,1.84,1.29,3.03c-0.01,0.02-0.01,0.03-0.02,0.05L12.8,26.43c-0.33,0.8-1.08,1.35-1.94,1.43
							C10.79,27.86,10.71,27.87,10.64,27.87z"/>
					</g>
				</g>
				<g id="Group_4778">
					<path id="Rectangle_3204" class="st0" d="M4.2,0h111.34c2.32,0,4.2,1.88,4.2,4.2V148c0,2.32-1.88,4.2-4.2,4.2H4.2
						c-2.32,0-4.2-1.88-4.2-4.2V4.2C0,1.88,1.88,0,4.2,0z"/>
					<g id="Group_4770" transform="translate(10.669 7.808)">
						<rect id="Rectangle_3205" x="0" y="0" width="98.4" height="7.65"/>
						<rect id="Rectangle_3206" x="12.11" y="11.77" width="74.18" height="3.33"/>
					</g>
					<path id="Path_9453" class="st1" d="M80.51,117.76H39.23c-3.45,0-6.24,3.3-6.24,7.36l0,0c0,4.06,2.8,7.36,6.24,7.36h41.28
						c3.45,0,6.24-3.3,6.24-7.36l0,0C86.75,121.05,83.96,117.76,80.51,117.76z"/>
					<g id="Group_4777" transform="translate(11.654 43.038)">
						<g id="Group_4771" transform="translate(0 17.071)">
							<path id="Path_9454" class="st1" d="M9.36,3.97H8.74C8.63,1.76,7.19,0,5.42,0S2.21,1.76,2.1,3.97H1.49
								C0.67,3.97,0,4.64,0,5.46v5.08c0,0.82,0.66,1.48,1.48,1.49c0,0,0,0,0,0h7.87c0.82,0,1.48-0.66,1.48-1.48c0,0,0,0,0,0V5.46
								C10.84,4.64,10.18,3.97,9.36,3.97z M5.42,1.43c0.97,0,1.79,1.14,1.89,2.54H3.54C3.63,2.57,4.46,1.43,5.42,1.43L5.42,1.43z"/>
							<path id="Path_9455" class="st1" d="M6.76,7.41C6.77,6.63,6.14,6,5.37,6s-1.4,0.62-1.41,1.39c0,0.51,0.27,0.97,0.71,1.22
								v1.54c0,0.2,0.16,0.37,0.37,0.37H5.7c0.2,0,0.37-0.16,0.37-0.37V8.61C6.5,8.36,6.76,7.9,6.76,7.41z"/>
						</g>
						<g id="Group_4773" transform="translate(14.945 0)">
							<g id="Group_4772">
								<rect id="Rectangle_3207" x="0" y="0" class="st2" width="70.45" height="12.02"/>
							</g>
						</g>
						<g id="Group_4775" transform="translate(14.945 17.071)">
							<g id="Group_4774">
								<rect id="Rectangle_3208" x="0" y="0" class="st2" width="70.45" height="12.02"/>
							</g>
						</g>
						<g id="Group_4776" transform="translate(1.92)">
							<path id="Path_9456" class="st1" d="M0,12.02h8.92c-0.07-2.07-1.04-4.01-2.66-5.3c0.87-0.69,1.38-1.74,1.36-2.85l0,0
								C7.73,2.28,7.24,0.03,4.47,0C1.82-0.03,1.26,2.23,1.31,3.87l0,0C1.29,4.98,1.8,6.03,2.67,6.72C1.04,8.01,0.07,9.95,0,12.02z"
								/>
						</g>
						<circle id="Ellipse_323" class="st1" cx="69.76" cy="23.08" r="2.64"/>
						<circle id="Ellipse_324" class="st1" cx="60.39" cy="23.08" r="2.64"/>
						<circle id="Ellipse_325" class="st1" cx="51.01" cy="23.08" r="2.64"/>
						<circle id="Ellipse_326" class="st1" cx="41.63" cy="23.08" r="2.64"/>
						<circle id="Ellipse_327" class="st1" cx="32.26" cy="23.08" r="2.64"/>
						<circle id="Ellipse_328" class="st1" cx="22.88" cy="23.08" r="2.64"/>
						<circle id="Ellipse_329" class="st1" cx="60.39" cy="6.01" r="2.64"/>
						<circle id="Ellipse_330" class="st1" cx="51.01" cy="6.01" r="2.64"/>
						<circle id="Ellipse_331" class="st1" cx="41.63" cy="6.01" r="2.64"/>
						<circle id="Ellipse_332" class="st1" cx="32.26" cy="6.01" r="2.64"/>
						<circle id="Ellipse_333" class="st1" cx="22.88" cy="6.01" r="2.64"/>
					</g>
				</g>
			</g>
		</g>
	</g>
	<g id="Group_4783" transform="translate(618.954 2111.62)">
		<g id="Group_4787" transform="translate(14.393 0)">
			<path id="Path_9478" class="st0" d="M295.73,284.58L295.73,284.58z"/>
			<path id="Path_9458" class="st4" d="M160.22,69.01c2.63-1.28,6.27-0.99,6.33,4.06c0.04,3.72-1.15,5.38-2,7.35
				c-1.3,2.98-2.35,5.25-4.98,5.25L160.22,69.01z"/>
			<path id="Path_9459" class="st4" d="M106.6,69.01c-2.63-1.28-6.27-0.99-6.34,4.06c-0.04,3.72,1.15,5.38,2,7.35
				c1.3,2.98,2.35,5.25,4.98,5.25L106.6,69.01z"/>
			<path id="Path_9460" class="st4" d="M109.18,89.75c0,5.29-1.93,23.5-1.93,23.5s4.83,7.78,26.17,7.78s26.17-7.78,26.17-7.78
				s-1.93-18.21-1.93-23.5H109.18z"/>
			<path id="Path_9461" class="st4" d="M158.42,101.47c-0.33-3.71-0.63-7.5-0.74-10.05h-48.55c-0.11,2.56-0.41,6.37-0.74,10.09
				c5.57,7.53,15.16,12.06,25,12.06C143.25,113.57,152.86,109.02,158.42,101.47z"/>
			<path id="Path_9462" class="st4" d="M133.41,110.92c-1.91,0.02-3.82-0.16-5.69-0.56c-9.13-2.13-19.7-16.19-20.6-23.14
				c-1.2-9.3-3.15-17.96-3.15-33.62c0-10.48,11.48-23,29.44-23s29.44,12.52,29.44,23c0,15.66-1.95,24.32-3.15,33.62
				c-0.9,6.94-11.46,21-20.6,23.13C137.22,110.75,135.32,110.94,133.41,110.92z"/>
			<path id="Path_9463" class="st5" d="M133.41,70.22c-5.56,0-3.83,7.4-11.89,7.4c-8.29,0-10.72-1.49-12.31-5.72
				c-1.26-3.35-5.23-2.92-5.23-2.92l-0.22-2.55c0,0,11.9-0.74,17.17-0.74s10.96,0.74,12.48,0.74s7.21-0.74,12.48-0.74
				s17.17,0.74,17.17,0.74l-0.22,2.55c0,0-3.97-0.43-5.23,2.92c-1.59,4.23-4.03,5.72-12.31,5.72
				C137.23,77.62,138.97,70.22,133.41,70.22z"/>
			<path id="Path_9464" d="M217.71,149.05c-2.82-17.35-17.43-23.96-27.85-23.34c-6.62-6.5-15.11-10.74-24.28-12.14
				c-4.93-0.7-2.02-3.27-6-4.36c-6.66,6.66-17.65,7.16-26.16,7.16s-19.51-0.5-26.17-7.16c-3.98,1.09-1.07,3.65-6,4.36
				c-9.17,1.39-17.66,5.64-24.28,12.14c-10.43-0.62-25.03,5.99-27.85,23.34c-2.18,13.38,2.76,13.84,1.4,18.21
				c-3.58,11.52-2.45,37.04,7.16,47.15c2.12,2.23,12.06,2.06,22.66,1.07c4.68,11.23,9.46,18.69,9.46,24.37v24.65
				c-0.1-0.31,86.59-0.06,87.22,0v-24.65c0-5.68,4.78-13.14,9.46-24.37c10.61,0.99,20.55,1.15,22.66-1.07
				c9.61-10.11,10.74-35.64,7.16-47.15C214.95,162.88,219.89,162.42,217.71,149.05z"/>
			<path id="Path_9465" class="st6" d="M138.19,63.01c3.33-2.05,7.31-2.8,11.16-2.1c3.72,0.71,7.76,2.71,7.15,3.32
				c-0.61,0.61-8.71-3.52-15.38,0C139.15,65.27,138.19,65.01,138.19,63.01z"/>
			<path id="Path_9466" class="st5" d="M138.52,69.48c0-1.4,3.71-2.06,8.53-2.06c5.25,0,9.39,0.32,9.39,2.3s-2.07,6.48-9.36,6.48
				C140.64,76.19,138.52,72.2,138.52,69.48z"/>
			<path id="Path_9467" class="st6" d="M128.63,63.01c-3.33-2.05-7.31-2.8-11.16-2.1c-3.72,0.71-7.76,2.71-7.15,3.32
				c0.61,0.61,8.71-3.52,15.37,0C127.67,65.27,128.63,65.01,128.63,63.01z"/>
			<path id="Path_9468" class="st5" d="M128.3,69.48c0-1.4-3.71-2.06-8.53-2.06c-5.25,0-9.38,0.32-9.38,2.3s2.07,6.48,9.36,6.48
				C126.17,76.19,128.3,72.2,128.3,69.48z"/>
			<path id="Path_9469" class="st6" d="M133.41,30.61c-17.96,0-29.44,12.52-29.44,23c0,5.16,0.21,9.55,0.54,13.46
				c7.53-2.76,2.02-21.78,8.49-26.21c6.98-4.79,13.87,0,20.41,0s13.42-4.79,20.41,0c6.47,4.44,0.96,23.45,8.49,26.21
				c0.33-3.91,0.54-8.3,0.54-13.46C162.85,43.13,151.37,30.61,133.41,30.61z"/>
			<path class="st6" d="M199.03,216.78c-12.1,0-30.55-2.87-36.3-3.95l0.23-1.23c14.61,2.74,42.39,5.88,45.73,2.36
				c9.23-9.72,10.62-34.93,7.01-46.53l1.2-0.37c1.88,6.05,2.41,15.39,1.39,24.36c-1.19,10.45-4.28,18.76-8.69,23.41
				C208.25,216.25,204.22,216.78,199.03,216.78z"/>
			<path id="Path_9471" class="st4" d="M75.06,188.61c3-4.87,11.58-12.84,22.88-13.52s34.46-7.93,46.88-11.98
				c11.61-3.79,24.44,3.64,28.98,5.58c3.53,1.51,6.1,3.92,4.8,8.87c-5.36-2.23-13.88-2.68-19.59-2.92
				c-7.74,4.2-30.57,30.12-55.04,37.58c-13.93,4.25-42.43,6.25-46.3,2.18c-5.29-5.57-8.01-15.81-8.79-25.81
				c6.3-9.41,21.82-17.45,35.44-15.81l2.29,5.56"/>
			<path id="Path_9472" class="st4" d="M191.76,188.61c-3-4.87-11.58-12.84-22.88-13.52s-28.72-1.57-43.81-5.1
				c0,0-7.74-2.94-15.88-6.76c-4.43-2.08-13.57-5.42-19.18-5.42c-6.55,0.09-12.91,2.17-18.24,5.98c-4.6,3.23-1.62,4.7,0.18,3.79
				s3.92-2.95,7.86-3.7c2.9-0.55,5.23-0.21,5.23,0.33s-1.25,0.33-3.43,0.39c-3.07,0.09-7.3,2.62-10.01,5.33s0.58,5.09,2.38,3.29
				c1.47-1.78,3.4-3.12,5.57-3.9c3.01-1.08,5.72-1.37,5.72-0.88s-4.58,0.39-10.85,6.67c-2.88,2.87-0.81,5.65,2.16,2.68
				c3.42-3.42,9.86-6.51,10.46-5.9s-5.07,2.29-8.68,5.9s-0.95,5.37,1.08,3.34s8.67-6.5,12.07-4.84
				c4.46,2.18,46.87,28.45,71.34,35.92c13.93,4.25,42.43,6.25,46.3,2.18c5.29-5.57,8.01-15.81,8.79-25.81
				c-6.3-9.41-21.82-17.45-35.44-15.81l-2.29,5.56"/>
			<path id="Path_9473" class="st4" d="M191.76,188.61c-3-4.87-11.58-12.84-22.88-13.52s-28.72-1.57-43.81-5.1
				c0,0-7.74-2.94-15.88-6.76c-4.43-2.08-13.57-5.42-19.18-5.42c-6.55,0.09-12.91,2.17-18.24,5.98c-4.6,3.23-1.62,4.7,0.18,3.79
				s3.92-2.95,7.86-3.7c2.9-0.55,5.23-0.21,5.23,0.33s-1.25,0.33-3.43,0.39c-3.07,0.09-7.3,2.62-10.01,5.33s0.58,5.09,2.38,3.29
				c1.47-1.78,3.4-3.12,5.57-3.9c3.01-1.08,5.72-1.37,5.72-0.88s-4.58,0.39-10.85,6.67c-2.88,2.87-0.81,5.65,2.16,2.68
				c3.42-3.42,9.86-6.51,10.46-5.9s-5.07,2.29-8.68,5.9s-0.95,5.37,1.08,3.34s8.67-6.5,12.07-4.84
				c4.46,2.18,46.87,28.45,71.34,35.92c13.93,4.25,42.43,6.25,46.3,2.18L191.76,188.61z"/>
			<path id="Path_9474" class="st7" d="M180.08,178.29c-3.47-1.84-7.29-2.93-11.21-3.19c-3.59-0.22-7.8-0.45-12.35-0.79
				c-2.37,1.67-5.5,4.39-9.26,7.68c-5.11,4.46-11.46,10.01-18.52,15.15c1.07,0.56,2.14,1.11,3.21,1.66
				c6.64-4.94,12.59-10.14,17.45-14.38c4.34-3.79,7.82-6.83,10.01-8.14C168.51,173.77,180.08,178.29,180.08,178.29z"/>
			<path id="Path_9475" class="st4" d="M57.67,214.4c3.87,4.07,32.37,2.07,46.3-2.18c24.47-7.47,47.3-33.38,55.04-37.58
				c5.71,0.24,14.22,0.69,19.59,2.92c1.3-4.95-1.27-7.36-4.8-8.87c-4.53-1.94-17.37-9.37-28.98-5.58
				c-12.42,4.05-35.57,11.3-46.88,11.98s-19.88,8.65-22.88,13.52L57.67,214.4z"/>
			<path id="Path_9476" class="st8" d="M48.88,184.8"/>
			<path id="Path_9477" class="st6" d="M162.66,68.46c-1.85,8.03-4.06,15.14-5.38,16.99c-1.16,1.63-4.37,2.41-8.3,4.84
				c-1.6,0.99-3.51,0.33-5.27-0.1c-2.98-0.65-6.02-0.97-9.07-0.94l0.3,2.32c0.07,0.37,0.4,0.64,0.79,0.63
				c7.92,0.22,12.7,2.28,12.59,5.41c-0.05,1.46-0.96,2.3-2.84,3.34c-2.59,1.44-5.76,2.93-7.65,0.8c-0.95-1.08-2.37-1.26-3.95-1.25
				s-3,0.22-3.92,1.32c-1.84,2.17-5.04,0.73-7.66-0.66c-1.9-1.01-2.83-1.83-2.92-3.29c-0.19-3.03,4.26-5.14,11.76-5.6
				c0.37,0,0.69-0.27,0.76-0.63l0.3-2.36c-2.83,0.06-5.65,0.42-8.4,1.09c-1.75,0.46-3.64,1.15-5.27,0.19
				c-3.99-2.36-7.21-3.08-8.41-4.69c-1.4-1.88-3.87-9.26-5.95-17.51c-0.1,1.56-0.15,2.83-0.18,3.58c0.32,1.46,0.68,2.88,1.07,4.21
				c1.01,3.43,1.18,7.62,1.88,11.46c0.62,2.66,1.2,5.32,1.79,7.49c0.92,2.34,2.45,4.39,4.43,5.95c3.32,3,6.87,5.74,10.61,8.19
				c3.12,1.46,6.48,2.35,9.92,2.64H134c0.11,0,0.21-0.01,0.32-0.01c3.43-0.35,6.76-1.3,9.85-2.82c3.69-2.51,7.17-5.32,10.41-8.38
				c1.82-1.75,3.15-3.95,3.85-6.37c0.54-2.18,1.11-4.73,1.66-7.39c0.61-3.85,1.06-7.83,1.99-11.27c0.27-1.01,0.52-2.06,0.75-3.15
				C162.84,72,162.8,70.48,162.66,68.46z"/>
		</g>
		<g id="Group_4788" transform="translate(219.689 264.804)">
			<path d="M-18.14,0.78L-18.14,0.78l-118.77-0.08c-0.39,0-0.71-0.32-0.71-0.71c0-0.39,0.32-0.71,0.71-0.71h0l118.77,0.08
				c0.39,0,0.71,0.32,0.71,0.71C-17.44,0.47-17.75,0.78-18.14,0.78z"/>
			<path d="M-143.33,0.71h-2.86c-0.39,0-0.71-0.32-0.71-0.71s0.32-0.71,0.71-0.71h2.86c0.39,0,0.71,0.32,0.71,0.71
				S-142.94,0.71-143.33,0.71z"/>
		</g>
	</g>
</g>
</svg>
