<?xml version="1.0" encoding="utf-8"?>
<!-- Generator: Adobe Illustrator 16.0.0, SVG Export Plug-In . SVG Version: 6.00 Build 0)  -->
<!DOCTYPE svg PUBLIC "-//W3C//DTD SVG 1.1//EN" "http://www.w3.org/Graphics/SVG/1.1/DTD/svg11.dtd">
<svg version="1.1" id="Layer_1" xmlns="http://www.w3.org/2000/svg" xmlns:xlink="http://www.w3.org/1999/xlink" x="0px" y="0px"
	 width="389.052px" height="233.366px" viewBox="0 0 389.052 233.366" enable-background="new 0 0 389.052 233.366"
	 xml:space="preserve">
<g>
	<path fill-rule="evenodd" clip-rule="evenodd" fill="#A6C1D8" d="M2.895,112.627L183.72,6.689
		c3.955-2.317,10.479-2.24,14.572,0.173l187.121,110.312c4.093,2.413,4.205,6.247,0.25,8.564L204.838,231.677
		c-3.955,2.317-10.479,2.239-14.572-0.174L3.145,121.192C-0.949,118.78-1.061,114.945,2.895,112.627z"/>
	<path fill-rule="evenodd" clip-rule="evenodd" fill="#A6C1D8" d="M0.052,112.09v5l389,5v-5L0.052,112.09z"/>
	<path fill-rule="evenodd" clip-rule="evenodd" fill="#F3F5FB" d="M2.895,107.627L183.72,1.689
		c3.955-2.317,10.479-2.24,14.572,0.173l187.121,110.312c4.093,2.413,4.205,6.247,0.25,8.564L204.838,226.677
		c-3.955,2.317-10.479,2.239-14.572-0.174L3.145,116.192C-0.949,113.78-1.061,109.945,2.895,107.627z"/>
</g>
</svg>
