<?xml version="1.0" encoding="utf-8"?>
<!-- Generator: Adobe Illustrator 16.0.0, SVG Export Plug-In . SVG Version: 6.00 Build 0)  -->
<!DOCTYPE svg PUBLIC "-//W3C//DTD SVG 1.1//EN" "http://www.w3.org/Graphics/SVG/1.1/DTD/svg11.dtd">
<svg version="1.1" id="Layer_1" xmlns="http://www.w3.org/2000/svg" xmlns:xlink="http://www.w3.org/1999/xlink" x="0px" y="0px"
	 width="77.564px" height="50.683px" viewBox="0 0 77.564 50.683" enable-background="new 0 0 77.564 50.683" xml:space="preserve">
<g>
	<path fill-rule="evenodd" clip-rule="evenodd" fill="#8EB1DD" d="M38.782,3.288c21.419,0,38.782,10.609,38.782,23.697
		c0,13.087-17.363,23.697-38.782,23.697S0,40.072,0,26.985C0,13.897,17.363,3.288,38.782,3.288z"/>
	<path fill-rule="evenodd" clip-rule="evenodd" fill="#E3EBF7" d="M38.782,0c21.419,0,38.782,10.608,38.782,23.697
		c0,13.087-17.363,23.697-38.782,23.697S0,36.784,0,23.697C0,10.608,17.363,0,38.782,0z"/>
	<radialGradient id="SVGID_1_" cx="38.7822" cy="23.6973" r="32.1374" gradientUnits="userSpaceOnUse">
		<stop  offset="0" style="stop-color:#5FCCF5;stop-opacity:0.6"/>
		<stop  offset="1" style="stop-color:#5FCCF5;stop-opacity:0"/>
	</radialGradient>
	<path fill-rule="evenodd" clip-rule="evenodd" fill="url(#SVGID_1_)" d="M38.782,0c21.419,0,38.782,10.608,38.782,23.697
		c0,13.087-17.363,23.697-38.782,23.697S0,36.784,0,23.697C0,10.608,17.363,0,38.782,0z"/>
</g>
</svg>
