<svg xmlns="http://www.w3.org/2000/svg" viewBox="0 0 159.3 176.78"><defs><style>.cls-1{fill:#ffcb29;}.cls-2{fill:#ffa800;}.cls-3{fill:#ffaf04;}.cls-4{fill:#fab406;}.cls-5{fill:#fff1de;}.cls-6{fill:#ffc261;}</style></defs><title>Asset 1</title><g id="Layer_2" data-name="Layer 2"><g id="Layer_1-2" data-name="Layer 1"><path class="cls-1" d="M31.36,143.19c-10-6.08-16.52-13.36-19.42-21a26.14,26.14,0,0,1-1.79-9.14v-.3c0-11.2,7.51-22.28,22.48-30.5,29.48-16.2,76.71-15.2,105.48,2.23,14.65,8.88,21.7,20.32,21.17,31.55a26.26,26.26,0,0,1-2.19,9.23c-3.24,7.46-10,14.45-20.28,20.11-29.47,16.2-76.69,15.19-105.45-2.23"/><path class="cls-2" d="M45.79,135.25c-7.32-4.43-12-9.74-14.16-15.28a19.38,19.38,0,0,1-1.31-6.67v-.22c0-8.16,5.49-16.25,16.4-22.24,21.51-11.82,56-11.1,77,1.62,10.69,6.48,15.83,14.83,15.44,23a19.07,19.07,0,0,1-1.6,6.73c-2.36,5.45-7.28,10.54-14.79,14.67-21.5,11.82-55.95,11.08-76.93-1.63"/><path class="cls-3" d="M47.19,136.1c-7.15-4.33-11.77-9.52-13.84-14.93a18.74,18.74,0,0,1-1.27-6.52v-.21c0-8,5.35-15.88,16-21.74,21-11.55,54.68-10.84,75.19,1.58,10.45,6.33,15.47,14.49,15.09,22.5a18.39,18.39,0,0,1-1.56,6.57c-2.3,5.33-7.12,10.31-14.45,14.34-21,11.55-54.67,10.83-75.18-1.59"/><path class="cls-4" d="M30.92,163c-13.69-8.3-20.75-18.83-21.17-29.33v-.06l.05-2.94.34-17.6a26.14,26.14,0,0,0,1.79,9.14c2.9,7.59,9.38,14.87,19.42,21,28.76,17.42,76,18.43,105.45,2.23,10.29-5.66,17-12.65,20.28-20.11a26.26,26.26,0,0,0,2.19-9.23l-.5,16.52v0l-.17,5.7c-1.43,10-8.86,19.57-22.22,26.93C106.92,181.46,59.69,180.46,30.92,163"/><path class="cls-5" d="M70.67,143.83C43.08,139,26.86,122.1,34.5,106.11S71,81,98.86,85.93s43.83,22,35.91,38-36.55,24.8-64.1,19.93"/><path class="cls-6" d="M74.28,123.3s-3.07,3.25,4.37,7.53c7.64,4.52,17.92,0,20.74-1.39l9.22,5.62,5.52-3-9.21-5.61,4-2.18,9.21,5.62,5.52-3-9.2-5.63,10.47-5.77-5.23-3.19-4.08,2.25a5.34,5.34,0,0,1-4.73.18S88.43,101,87.31,100.27s-.1-1.36-.1-1.36l4.63-2.56-5.29-4.83-10.84,6-8.78-5.36L61.4,95.26l8.78,5.35-4,2.2-8.78-5.36-5.51,3.07,8.78,5.35-2.11,1.24c-8.6,5.35-8.18,10.53-.76,15s16.43,1.15,16.43,1.15m28.77-2.62-5.37,3s-7.08,3.55-11.88.62,2.09-7.11,2.09-7.11l4.92-2.72Zm-32.55-13,5.94-3.29,11.29,6.89-6.48,3.59s-8.49,4.3-13.79,1.07,3-8.26,3-8.26"/><path class="cls-1" d="M21.6,110.93C11.57,104.85,5.09,97.58,2.19,90A26.2,26.2,0,0,1,.4,80.84v-.3c0-11.19,7.51-22.27,22.48-30.49,29.48-16.21,76.7-15.21,105.47,2.22C143,61.15,150.06,72.6,149.52,83.83a26,26,0,0,1-2.18,9.22c-3.24,7.47-10,14.46-20.28,20.11-29.48,16.21-76.69,15.2-105.46-2.23"/><path class="cls-2" d="M36,103c-7.32-4.44-12-9.75-14.16-15.28a19.2,19.2,0,0,1-1.31-6.67v-.22c0-8.17,5.48-16.25,16.4-22.25,21.51-11.82,56-11.09,76.94,1.62,10.7,6.48,15.84,14.83,15.45,23a19,19,0,0,1-1.6,6.73c-2.36,5.45-7.29,10.55-14.79,14.67C91.47,116.45,57,115.71,36,103"/><path class="cls-3" d="M37.44,103.85c-7.15-4.34-11.77-9.53-13.84-14.94a18.73,18.73,0,0,1-1.27-6.51v-.22c0-8,5.35-15.88,16-21.74C59.36,48.89,93,49.6,113.54,62,124,68.36,129,76.52,128.63,84.52a18.44,18.44,0,0,1-1.56,6.58c-2.3,5.32-7.12,10.3-14.45,14.33-21,11.56-54.68,10.84-75.18-1.58"/><path class="cls-4" d="M21.17,130.77C7.48,122.48.42,112,0,101.44v0l0-3L.4,80.84A26.2,26.2,0,0,0,2.19,90c2.9,7.59,9.38,14.86,19.41,20.94,28.76,17.43,76,18.44,105.46,2.23,10.29-5.65,17-12.64,20.28-20.11a26,26,0,0,0,2.18-9.22L149,100.35v0l-.18,5.69c-1.43,10-8.85,19.58-22.21,26.93C97.17,149.2,49.94,148.2,21.17,130.77"/><path class="cls-5" d="M60.92,111.57C33.33,106.7,17.1,89.84,24.75,73.85S61.28,48.71,89.1,53.67s43.84,22,35.91,38-36.54,24.8-64.09,19.93"/><path class="cls-6" d="M64.53,91.05s-3.08,3.24,4.37,7.52c7.64,4.52,17.92,0,20.73-1.39l9.23,5.62,5.51-3-9.2-5.61,4-2.18,9.2,5.62,5.53-3-9.2-5.62,10.47-5.78L109.89,80l-4.08,2.25a5.36,5.36,0,0,1-4.73.17S78.67,68.74,77.55,68s-.09-1.35-.09-1.35l4.62-2.57L76.8,59.26,66,65.29l-8.78-5.37L51.65,63l8.78,5.36-4,2.19L47.7,65.2l-5.52,3.07L51,73.62l-2.12,1.23c-8.59,5.36-8.17,10.53-.75,15s16.43,1.16,16.43,1.16M93.3,88.42l-5.37,3S80.85,94.93,76,92s2.09-7.11,2.09-7.11l4.93-2.72Zm-32.55-13,5.93-3.29L78,79.07,71.5,82.65S63,87,57.71,83.73s3-8.26,3-8.26"/><path class="cls-1" d="M27.75,72.42c-10-6.08-16.52-13.36-19.42-21a26.14,26.14,0,0,1-1.79-9.14V42c0-11.19,7.51-22.27,22.48-30.49C58.5-4.68,105.73-3.68,134.5,13.75c14.65,8.88,21.7,20.33,21.17,31.56a26.26,26.26,0,0,1-2.19,9.23C150.24,62,143.49,69,133.2,74.65c-29.47,16.2-76.69,15.19-105.45-2.23"/><path class="cls-2" d="M42.18,64.48c-7.32-4.43-12-9.74-14.16-15.28a19.38,19.38,0,0,1-1.31-6.67v-.22c0-8.16,5.48-16.25,16.4-22.24,21.51-11.83,56-11.1,76.94,1.62,10.7,6.48,15.84,14.83,15.45,23a19.07,19.07,0,0,1-1.6,6.73c-2.36,5.44-7.28,10.54-14.79,14.67-21.5,11.82-55.95,11.08-76.93-1.63"/><path class="cls-3" d="M43.58,65.33C36.43,61,31.81,55.81,29.74,50.4a18.78,18.78,0,0,1-1.27-6.52v-.22c0-8,5.35-15.87,16-21.73,21-11.56,54.68-10.84,75.19,1.58C130.13,29.84,135.15,38,134.77,46a18.39,18.39,0,0,1-1.56,6.57c-2.3,5.33-7.12,10.31-14.45,14.34-21,11.55-54.67,10.83-75.18-1.59"/><path class="cls-4" d="M27.31,92.25C13.62,84,6.56,73.43,6.14,62.93v-.06l0-2.94.34-17.6a26.14,26.14,0,0,0,1.79,9.14c2.9,7.59,9.38,14.87,19.42,21,28.76,17.42,76,18.43,105.45,2.23,10.29-5.66,17-12.65,20.28-20.11a26.26,26.26,0,0,0,2.19-9.23l-.5,16.52v0l-.17,5.7c-1.43,10-8.86,19.57-22.22,26.93-29.48,16.2-76.71,15.21-105.48-2.23"/><path class="cls-5" d="M95.12,15.13c27.59,4.87,43.81,21.73,36.17,37.72S94.76,78,66.93,73s-43.83-22-35.91-38,36.55-24.8,64.1-19.93"/></g></g></svg>