<svg width="167" height="45" viewBox="0 0 167 40" fill="none" xmlns="http://www.w3.org/2000/svg">
    <g clip-path="url(#clip0)">
        <path d="M45.1918 22.4668L42.9949 28.3668C42.9616 28.4668 42.895 28.5668 42.8617 28.6001C42.7286 28.7334 42.5954 28.7668 42.3957 28.7668C42.196 28.7668 42.0628 28.7001 41.9297 28.5668C41.7966 28.4334 41.73 28.2668 41.73 28.0668C41.73 27.9668 41.7633 27.8668 41.7966 27.7668L47.8214 11.6001C47.8547 11.4668 47.9213 11.3668 47.9879 11.3001C48.121 11.1668 48.2541 11.1001 48.4539 11.1001C48.6536 11.1001 48.7867 11.1668 48.9199 11.3001C48.9865 11.3668 49.053 11.4668 49.0863 11.6001L55.1112 27.7668C55.1445 27.8668 55.1777 27.9668 55.1777 28.0668C55.1777 28.2668 55.1112 28.4334 54.978 28.5668C54.8449 28.7001 54.7117 28.7668 54.512 28.7668C54.3123 28.7668 54.1792 28.7001 54.046 28.6001C53.9794 28.5334 53.9461 28.4334 53.8796 28.3334L51.6827 22.4334L45.1918 22.4668ZM51.2166 21.1001L48.4539 13.7001L45.6911 21.1001H51.2166Z" fill="white"/>
        <path d="M58.5723 11.8338C58.5723 11.6338 58.6388 11.4671 58.772 11.3338C58.9051 11.2005 59.0383 11.1338 59.238 11.1338C59.4377 11.1338 59.5709 11.2005 59.704 11.3338C59.8372 11.4671 59.9037 11.6338 59.9037 11.8338V27.4338H68.7912C68.991 27.4338 69.1241 27.5005 69.2572 27.6338C69.3904 27.7671 69.457 27.9338 69.457 28.1005C69.457 28.3005 69.3904 28.4671 69.2572 28.6005C69.1241 28.7338 68.991 28.8005 68.7912 28.8005H59.238C59.0716 28.8005 58.9051 28.7338 58.772 28.6005C58.6388 28.4671 58.5723 28.3005 58.5723 28.1005V11.8338Z" fill="white"/>
        <path d="M70.1897 12.5005C70.0232 12.5005 69.8568 12.4338 69.7236 12.3005C69.5905 12.1671 69.5239 12.0005 69.5239 11.8338C69.5239 11.6338 69.5905 11.4671 69.7236 11.3338C69.8568 11.2005 69.9899 11.1338 70.1897 11.1338H81.4738C81.6735 11.1338 81.8067 11.2005 81.9398 11.3338C82.0729 11.4671 82.1395 11.6338 82.1395 11.8338C82.1395 12.0338 82.0729 12.1671 81.9398 12.3005C81.8067 12.4338 81.6735 12.5005 81.4738 12.5005H76.4808V28.1005C76.4808 28.3005 76.4142 28.4671 76.2811 28.6005C76.1479 28.7338 76.0148 28.8005 75.8151 28.8005C75.6154 28.8005 75.4822 28.7338 75.3491 28.6005C75.2159 28.4671 75.1494 28.3005 75.1494 28.1005V12.5005H70.1897Z" fill="white"/>
        <path d="M96.6196 11.1338C96.786 11.1338 96.9524 11.2005 97.0856 11.3338C97.2187 11.4671 97.2853 11.6338 97.2853 11.8338C97.2853 12.0338 97.2187 12.1671 97.0856 12.3005C96.9524 12.4338 96.8193 12.5005 96.6196 12.5005H86.8333V19.2671H93.9899C94.1897 19.2671 94.3228 19.3338 94.4559 19.4671C94.5891 19.6005 94.6557 19.7671 94.6557 19.9671C94.6557 20.1671 94.5891 20.3338 94.4559 20.4671C94.3228 20.6005 94.1897 20.6671 93.9899 20.6671H86.8333V27.4338H96.6196C96.786 27.4338 96.9524 27.5005 97.0856 27.6338C97.2187 27.7671 97.2853 27.9338 97.2853 28.1005C97.2853 28.3005 97.2187 28.4671 97.0856 28.6005C96.9524 28.7338 96.8193 28.8005 96.6196 28.8005H86.2009C86.0012 28.8005 85.868 28.7338 85.7349 28.6005C85.6017 28.4671 85.5352 28.3005 85.5352 28.1005V11.8338C85.5352 11.6338 85.6017 11.4671 85.7349 11.3338C85.868 11.2005 86.0012 11.1338 86.2009 11.1338H96.6196Z" fill="white"/>
        <path d="M105.706 11.1338C107.104 11.1338 108.27 11.6338 109.235 12.6671C110.2 13.6671 110.699 14.9005 110.699 16.3338C110.699 17.7671 110.2 19.0005 109.235 20.0005C108.769 20.4671 108.203 20.8671 107.537 21.2005L111.432 27.7338C111.498 27.8671 111.565 27.9671 111.565 28.1005C111.565 28.3005 111.498 28.4671 111.365 28.6005C111.232 28.7338 111.099 28.8005 110.899 28.8005C110.666 28.8005 110.466 28.6671 110.333 28.4338L106.206 21.5338C106.073 21.5338 105.906 21.5671 105.706 21.5671H102.012V28.1005C102.012 28.3005 101.945 28.4671 101.812 28.6005C101.679 28.7338 101.546 28.8005 101.346 28.8005C101.179 28.8005 101.013 28.7338 100.88 28.6005C100.747 28.4671 100.68 28.3005 100.68 28.1005V11.8338C100.68 11.6338 100.747 11.4671 100.88 11.3338C101.013 11.2005 101.146 11.1338 101.346 11.1338H105.706ZM102.012 12.5005V20.2005H105.706C106.705 20.2005 107.604 19.8338 108.303 19.0671C109.035 18.3338 109.368 17.4005 109.368 16.3338C109.368 15.2671 109.002 14.3338 108.303 13.6338C107.57 12.8671 106.705 12.5005 105.706 12.5005H102.012Z" fill="white"/>
        <path d="M119.154 11.1338C121.485 11.1338 123.482 12.0005 125.113 13.7338C126.777 15.4671 127.609 17.5338 127.609 19.9671C127.609 22.4004 126.777 24.4671 125.113 26.2004C123.448 27.9338 121.485 28.7671 119.154 28.7671H115.659C115.493 28.7671 115.327 28.7004 115.193 28.5671C115.06 28.4338 114.994 28.2671 114.994 28.0671V11.8338C114.994 11.6338 115.06 11.4671 115.193 11.3338C115.327 11.2005 115.46 11.1338 115.659 11.1338H119.154ZM119.154 27.4338C121.118 27.4338 122.783 26.7004 124.214 25.2671C125.612 23.8004 126.311 22.0338 126.311 20.0004C126.311 17.9671 125.612 16.2005 124.214 14.7338C122.783 13.2671 121.118 12.5338 119.154 12.5338H116.325V27.4671L119.154 27.4338Z" fill="white"/>
        <path d="M132.069 11.8338C132.069 11.6338 132.135 11.4671 132.269 11.3338C132.402 11.2005 132.535 11.1338 132.735 11.1338C132.901 11.1338 133.067 11.2005 133.201 11.3338C133.334 11.4671 133.4 11.6338 133.4 11.8338V28.1005C133.4 28.3005 133.334 28.4671 133.201 28.6005C133.067 28.7338 132.934 28.8005 132.735 28.8005C132.535 28.8005 132.402 28.7338 132.269 28.6005C132.135 28.4671 132.069 28.3005 132.069 28.1005V11.8338Z" fill="white"/>
        <path d="M151.009 25.666C151.209 25.666 151.342 25.7327 151.475 25.866C151.609 25.9993 151.675 26.166 151.675 26.366C151.675 26.566 151.609 26.6993 151.509 26.8327C150.71 27.466 149.878 27.966 148.979 28.2993C148.08 28.6327 147.148 28.7993 146.183 28.7993C145.018 28.7993 143.953 28.566 142.954 28.1327C141.955 27.6993 141.023 27.0327 140.191 26.2327C139.392 25.366 138.793 24.4327 138.36 23.366C137.928 22.2993 137.728 21.1993 137.728 19.9993C137.728 17.566 138.56 15.4993 140.191 13.766C141.856 12.0327 143.853 11.166 146.183 11.166C148.18 11.166 149.977 11.8327 151.542 13.166C151.675 13.2993 151.742 13.466 151.742 13.666C151.742 13.866 151.675 13.9993 151.542 14.1327C151.409 14.266 151.276 14.3327 151.076 14.3327C150.876 14.3327 150.71 14.2327 150.543 14.066C149.312 13.0327 147.88 12.5327 146.183 12.5327C144.219 12.5327 142.521 13.266 141.123 14.7327C139.725 16.1993 139.026 17.9327 139.026 19.9993C139.026 22.066 139.725 23.8327 141.123 25.266C142.521 26.7327 144.219 27.4327 146.183 27.4327C147.88 27.4327 149.378 26.8993 150.676 25.7993C150.743 25.6993 150.876 25.666 151.009 25.666Z" fill="white"/>
        <path d="M166.055 11.1338C166.222 11.1338 166.388 11.2005 166.521 11.3338C166.654 11.4671 166.721 11.6338 166.721 11.8338C166.721 12.0338 166.654 12.1671 166.521 12.3005C166.388 12.4338 166.255 12.5005 166.055 12.5005H156.269V19.2671H163.425C163.625 19.2671 163.758 19.3338 163.891 19.4671C164.025 19.6005 164.091 19.7671 164.091 19.9671C164.091 20.1671 164.025 20.3338 163.891 20.4671C163.758 20.6005 163.625 20.6671 163.425 20.6671H156.269V27.4338H166.055C166.222 27.4338 166.388 27.5005 166.521 27.6338C166.654 27.7671 166.721 27.9338 166.721 28.1005C166.721 28.3005 166.654 28.4671 166.521 28.6005C166.388 28.7338 166.255 28.8005 166.055 28.8005H155.636C155.437 28.8005 155.304 28.7338 155.17 28.6005C155.037 28.4671 154.971 28.3005 154.971 28.1005V11.8338C154.971 11.6338 155.037 11.4671 155.17 11.3338C155.304 11.2005 155.437 11.1338 155.636 11.1338H166.055Z" fill="white"/>
        <path d="M33.8075 9.76667L17.7634 0.1C17.5637 -0.0333333 17.3307 -0.0333333 17.0977 0.1L1.05357 9.76667C0.853849 9.9 0.720703 10.1 0.720703 10.3667V29.7C0.720703 29.9333 0.853849 30.1667 1.05357 30.3L17.0977 39.9667C17.1975 40.0333 17.2974 40.0667 17.4305 40.0667C17.5304 40.0667 17.6636 40.0333 17.7634 39.9667L33.8075 30.3C34.0073 30.1667 34.1404 29.9667 34.1404 29.7V10.3333C34.1404 10.1 34.0073 9.86667 33.8075 9.76667ZM29.9796 13.2333L32.8089 11.5333V19.8667L30.6786 21.1L30.0129 20.4V13.2333H29.9796ZM17.4305 1.46667L32.1765 10.3333L29.3471 12.0333L27.0504 10.6333C27.1169 10.5 27.1169 10.3667 27.1169 10.2333C27.1169 9.83333 26.8506 9.43333 26.4179 9.16667C26.0518 8.96667 25.5858 8.83333 25.0865 8.83333C24.5872 8.83333 24.1211 8.96667 23.755 9.16667C23.3223 9.43333 23.0893 9.8 23.0893 10.2333C23.0893 10.6333 23.3556 11.0333 23.7883 11.3C24.1544 11.5 24.6204 11.6333 25.1197 11.6333C25.386 11.6333 25.6523 11.6 25.9186 11.5333L28.049 12.8333L17.4305 19.2333L14.5013 17.4667L16.665 16.1C16.898 16.1667 17.1643 16.2 17.4305 16.2C17.9298 16.2 18.3959 16.0667 18.762 15.8667C19.1947 15.6 19.461 15.2333 19.461 14.8C19.461 14.4 19.1947 14 18.762 13.7333C18.3959 13.5 17.9298 13.4 17.4305 13.4C16.9313 13.4 16.4652 13.5333 16.0991 13.7333C15.6664 14 15.4001 14.3667 15.4001 14.8C15.4001 14.9667 15.4334 15.1 15.4999 15.2333L13.2032 16.6667L10.7067 15.1667L17.7634 10.9333C17.9631 10.8 18.0963 10.6 18.0963 10.3333V7.03333C18.3626 6.96667 18.5956 6.9 18.7953 6.76667C19.228 6.5 19.4943 6.13333 19.4943 5.73333C19.4943 5.33333 19.2613 4.93333 18.7953 4.66667C18.4291 4.46667 17.9631 4.33333 17.4638 4.33333C16.9645 4.33333 16.4985 4.43333 16.1324 4.66667C15.6996 4.93333 15.4334 5.3 15.4334 5.7C15.4334 6.1 15.6664 6.5 16.1324 6.76667C16.3321 6.9 16.5651 6.96667 16.8314 7.03333V9.96667L9.40849 14.4L6.07984 12.4L2.68461 10.3333L5.64711 8.56667L7.81074 9.83333C7.77745 9.96667 7.74416 10.0667 7.74416 10.2C7.74416 10.6 7.97717 11 8.4099 11.2667C8.77605 11.5 9.24206 11.6 9.74136 11.6C10.2407 11.6 10.7067 11.4667 11.0728 11.2667C11.5055 11 11.7718 10.6333 11.7718 10.2C11.7718 9.8 11.5388 9.4 11.1061 9.13333C10.74 8.9 10.2739 8.8 9.77464 8.8C9.47507 8.8 9.20877 8.83333 8.94248 8.93333L6.97857 7.76667L17.4305 1.46667ZM2.01888 11.5L5.41411 13.5333L8.74276 15.5333V18.3667L5.1811 22.1333C5.04795 22.2667 4.98138 22.4333 4.98138 22.6V25.3333C4.51537 25.4 4.08264 25.8 4.08264 26.6C4.08264 27.5 4.64852 28.5667 5.41411 29C5.64711 29.1333 5.88012 29.2333 6.11312 29.2333C6.64571 29.2333 7.17829 28.8333 7.17829 27.9333C7.17829 27.2 6.81214 26.4 6.27956 25.8667V22.8667L9.84122 19.1333C9.97436 19 10.0409 18.8333 10.0409 18.6667V16.3333L12.5374 17.8333V20.6333C12.0714 20.7 11.6387 21.1 11.6387 21.9C11.6387 22.8 12.2046 23.8667 12.9702 24.3C13.2032 24.4333 13.4362 24.5333 13.6692 24.5333C14.2018 24.5333 14.7343 24.1333 14.7343 23.2333C14.7343 22.5 14.3682 21.7 13.8356 21.1667V18.6L16.7648 20.3667V38.1333L12.7371 35.7V30.3667C12.7371 30.2667 12.7039 30.1667 12.6706 30.0667L10.8065 26.2667C10.9064 26.0667 10.9397 25.8333 10.9397 25.5667C10.9397 24.6667 10.3738 23.6 9.60821 23.1667C9.37521 23.0333 9.1422 22.9333 8.90919 22.9333C8.37661 22.9333 7.84402 23.3333 7.84402 24.2333C7.84402 25.1333 8.4099 26.2 9.17549 26.6333C9.30863 26.7333 9.47507 26.7667 9.60821 26.8L11.439 30.5V34.8667L2.01888 29.2V11.5ZM21.7245 35.9667V29.5333L22.823 27.2667L24.1877 26.4667C24.3874 26.7667 24.687 26.9 24.9866 26.9C25.2196 26.9 25.4526 26.8333 25.6856 26.6667C26.4179 26.2 27.0171 25.1667 27.0171 24.2333C27.0171 23.3333 26.4845 22.9333 25.9519 22.9333C25.7189 22.9333 25.4859 23 25.2529 23.1667C24.687 23.5333 24.1877 24.2667 24.0213 25L22.0241 26.1667C21.9242 26.2333 21.8244 26.3333 21.7578 26.4333L20.4929 29.0333C20.4596 29.1333 20.4263 29.2333 20.4263 29.3333V36.7L18.0963 38.1V20.4L28.6814 14V20.6667C28.6814 20.8333 28.748 21.0333 28.8811 21.1333L30.1127 22.4C30.2459 22.5333 30.4123 22.6 30.5787 22.6C30.6786 22.6 30.8117 22.5667 30.9116 22.5L32.8755 21.3333V29.2L21.7245 35.9667Z" fill="#00AEFF"/>
    </g>
    <defs>
        <clipPath id="clip0">
            <rect width="166" height="40" fill="white" transform="translate(0.720703)"/>
        </clipPath>
    </defs>
</svg>