<svg data-v-49ba2dc8="" width="150" height="35" viewBox="0 0 92 14" fill="none" xmlns="http://www.w3.org/2000/svg"
     class="exchange-header__logo">
    <path fill-rule="evenodd" clip-rule="evenodd"
          d="M85.0266 0.918874H79.7832V0H91.3484V0.918874H86.1048V14H85.0425L85.0266 0.918874Z" fill="white"></path>
    <path fill-rule="evenodd" clip-rule="evenodd" d="M75.8691 0H76.7822V14H75.8691V0Z" fill="white"></path>
    <path fill-rule="evenodd" clip-rule="evenodd"
          d="M72.0469 7.95932C72.5968 8.55896 72.871 9.33912 72.8696 10.3003C72.8696 11.4863 72.4183 12.3992 71.5162 13.0396C70.614 13.68 69.2743 14 67.4975 14H61V0H67.0804C68.6646 0 69.8973 0.310001 70.7781 0.930003C71.659 1.54973 72.0996 2.43278 72.0996 3.5794C72.1248 4.30446 71.8934 5.01621 71.4433 5.59875C70.9888 6.15768 70.3672 6.57002 69.6617 6.78012C70.7036 6.97258 71.4988 7.36565 72.0469 7.95932ZM62.0615 0.879513V6.46062H67.0395C68.3153 6.46062 69.2973 6.22364 69.9852 5.74968C70.6734 5.27572 71.0173 4.57917 71.0173 3.66029C71.0173 2.75174 70.6734 2.0617 69.9852 1.59045C69.2973 1.11948 68.3153 0.882499 67.0395 0.879513H62.0615ZM70.7188 12.4095C71.4478 11.9369 71.8125 11.2075 71.8125 10.2216C71.8125 9.2357 71.4478 8.5063 70.7188 8.0337C69.9897 7.56571 68.9175 7.33226 67.502 7.33361H62.0615V13.1205H67.4975C68.9055 13.1205 69.9777 12.8835 70.7143 12.4095H70.7188Z"
          fill="white"></path>
    <path fill-rule="evenodd" clip-rule="evenodd"
          d="M49.8815 13.4711C49.0407 13.1938 48.278 12.7319 47.6523 12.1218L48.1317 11.3781C48.7039 11.9338 49.3956 12.3609 50.158 12.6284C51.01 12.9512 51.9177 13.1149 52.833 13.1111C54.1926 13.1111 55.2189 12.8619 55.9115 12.3634C56.57 11.9242 56.9595 11.1968 56.9501 10.4233C56.9786 9.87905 56.7802 9.3463 56.3996 8.94459C56.0159 8.56749 55.5497 8.27812 55.0353 8.09759C54.3148 7.85074 53.5793 7.64721 52.833 7.48755C51.9829 7.2883 51.1462 7.03931 50.3274 6.74164C49.705 6.51271 49.152 6.13695 48.7179 5.64886C48.2723 5.15729 48.0492 4.49697 48.0492 3.66789C48.044 3.01559 48.2353 2.37586 48.5997 1.82706C49.0116 1.23253 49.5965 0.769844 50.2805 0.497049C51.1747 0.141881 52.1364 -0.0263421 53.1027 0.00334437C53.8898 0.00307692 54.6728 0.116474 55.4253 0.339791C56.131 0.536364 56.7989 0.843124 57.4026 1.24723L57.0148 2.05332C56.4385 1.6706 55.8027 1.37935 55.1312 1.19107C54.4735 0.996906 53.7903 0.896881 53.1027 0.893671C51.7845 0.893671 50.7859 1.15015 50.1068 1.66311C49.4531 2.12713 49.0733 2.86903 49.0881 3.65264C49.0618 4.19556 49.2599 4.7259 49.6387 5.12707C50.0196 5.5047 50.4836 5.79408 50.9961 5.97434C51.7264 6.2244 52.4705 6.43461 53.2252 6.60364C54.0761 6.7962 54.9137 7.04038 55.7331 7.3343C56.3475 7.56484 56.8956 7.93445 57.3313 8.41211C57.7772 8.89057 58 9.53966 58 10.3522C58.0061 11.0031 57.8112 11.641 57.4407 12.1844C57.0129 12.779 56.4135 13.2387 55.7174 13.5056C54.812 13.857 53.8416 14.0242 52.8665 13.9972C51.8464 14.0009 50.8346 13.8225 49.8815 13.4711Z"
          fill="white"></path>
    <path fill-rule="evenodd" clip-rule="evenodd"
          d="M44.6524 0V14H43.7553L33.5673 1.83963V13.9978H32.4785V0H33.3969L43.5637 12.1582V0H44.6524Z"
          fill="white"></path>
    <path fill-rule="evenodd" clip-rule="evenodd"
          d="M22 14C25.866 14 29 10.866 29 7C29 3.13401 25.866 0 22 0C18.134 0 15 3.13401 15 7C15 10.866 18.134 14 22 14Z"
          fill="#9C7C4D"></path>
    <path opacity="0.392043" fill-rule="evenodd" clip-rule="evenodd"
          d="M22 14C25.866 14 29 10.866 29 7C29 3.13401 25.866 0 22 0C18.134 0 15 3.13401 15 7C15 10.866 18.134 14 22 14Z"
          fill="#9C7C4D"></path>
    <path d="M22 14C25.866 14 29 10.866 29 7C29 3.13401 25.866 0 22 0C18.134 0 15 3.13401 15 7C15 10.866 18.134 14 22 14Z"
          fill="url(#paint0_linear)"></path>
    <mask id="mask_1" mask-type="alpha" maskUnits="userSpaceOnUse" x="15" y="0" width="14" height="14">
        <path d="M22 14C25.866 14 29 10.866 29 7C29 3.13401 25.866 0 22 0C18.134 0 15 3.13401 15 7C15 10.866 18.134 14 22 14Z"
              fill="white"></path>
    </mask>
    <g mask="url(#mask_1)">
        <path d="M18.4431 13.0158C15.0981 11.144 13.233 6.79703 15.1122 3.46514C15.8003 2.24512 17.8873 -0.241992 19.8102 -0.634711C21.3883 -0.957009 25.79 0.98116 25.79 0.98116L18.4431 13.0158Z"
              fill="url(#paint1_linear)"></path>
    </g>
    <path opacity="0.6117" fill-rule="evenodd" clip-rule="evenodd"
          d="M17.0044 9.14815C17.8556 11.1781 19.8582 12.4994 22.0771 12.4951C25.0942 12.4855 27.5376 10.0649 27.5472 7.07607C27.5516 4.87794 26.2178 2.89402 24.1687 2.05081C22.1196 1.2076 19.7595 1.67146 18.1905 3.22577C16.6215 4.78009 16.1533 7.11818 17.0044 9.14815ZM17.5801 7.06545C17.5801 4.60534 19.5932 2.61104 22.0765 2.61104C24.5588 2.61343 26.5705 4.60634 26.5729 7.06545C26.5729 9.52555 24.5598 11.5199 22.0765 11.5199C19.5932 11.5199 17.5801 9.52555 17.5801 7.06545Z"
          fill="white"></path>
    <rect opacity="0.6117" x="21.6035" y="4.3833" width="0.990566" height="4.90654" fill="white"></rect>
    <path fill-rule="evenodd" clip-rule="evenodd"
          d="M3.61707 13.0972C2.51535 12.5107 1.59962 11.6447 0.967671 10.5921C0.316552 9.50211 -0.0176357 8.26137 0.000717207 7.00216C-0.0176357 5.74349 0.316552 4.50356 0.967671 3.41433C1.59962 2.36178 2.51535 1.4958 3.61707 0.909565C4.77659 0.29281 6.08212 -0.0203862 7.4049 0.00102894C8.37569 -0.00780479 9.34018 0.156021 10.2502 0.484475C11.096 0.789908 11.8581 1.27924 12.4783 1.91474L11.8252 2.56201C10.6772 1.47466 9.2139 0.930177 7.43585 0.928838C6.29742 0.915186 5.17461 1.18636 4.17615 1.71638C3.21687 2.22526 2.42057 2.97987 1.87464 3.89751C1.31282 4.84084 1.0241 5.91347 1.03917 7.00216C1.02437 8.09166 1.31282 9.16482 1.87464 10.109C2.42029 11.0266 3.21659 11.7807 4.17615 12.2879C5.17406 12.8196 6.29715 13.0915 7.43585 13.0776C9.20075 13.0776 10.6599 12.5254 11.8143 11.4206L12.467 12.0679C11.846 12.7045 11.0843 13.1965 10.2389 13.507C9.33087 13.8403 8.36693 14.007 7.39586 13.999C6.07691 14.0199 4.77495 13.7091 3.61707 13.0972Z"
          fill="white"></path>
    <defs>
        <linearGradient id="paint0_linear" x1="32.9813" y1="19.9778" x2="32.9813" y2="-1.9567"
                        gradientUnits="userSpaceOnUse">
            <stop stop-color="#FB9112"></stop>
            <stop offset="0.1823" stop-color="#FB9C2A"></stop>
            <stop offset="0.5684" stop-color="#FBB869"></stop>
            <stop offset="1" stop-color="#FBDBB5"></stop>
        </linearGradient>
        <linearGradient id="paint1_linear" x1="7.73151" y1="22.1074" x2="37.1074" y2="27.2862"
                        gradientUnits="userSpaceOnUse">
            <stop stop-color="#FB9112"></stop>
            <stop offset="1" stop-color="#FBDBB5"></stop>
        </linearGradient>
    </defs>
</svg>