<?xml version="1.0" encoding="utf-8"?>
<!-- Generator: Adobe Illustrator 16.0.0, SVG Export Plug-In . SVG Version: 6.00 Build 0)  -->
<!DOCTYPE svg PUBLIC "-//W3C//DTD SVG 1.1//EN" "http://www.w3.org/Graphics/SVG/1.1/DTD/svg11.dtd">
<svg version="1.1" id="Layer_1" xmlns="http://www.w3.org/2000/svg" xmlns:xlink="http://www.w3.org/1999/xlink" x="0px" y="0px"
	 width="110.053px" height="146.002px" viewBox="0 0 110.053 146.002" enable-background="new 0 0 110.053 146.002"
	 xml:space="preserve">
<g id="New_Symbol_6">
</g>
<g>
	<g>
		<linearGradient id="SVGID_1_" gradientUnits="userSpaceOnUse" x1="0" y1="73.001" x2="110.0527" y2="73.001">
			<stop  offset="0" style="stop-color:#F87908"/>
			<stop  offset="1" style="stop-color:#FDCB03"/>
		</linearGradient>
		<path fill="url(#SVGID_1_)" d="M98.305,70.873c7.152,6.59,11.687,15.981,11.738,26.423l0.01,2.011
			c0.097,19.878-16.004,36.057-35.89,36.057h-0.88l0.052,10.639H50.181l-0.052-10.639h-9.49l0.052,10.639H17.536l-0.052-10.639
			H12.08H0.597l-0.113-23.154h11.483l-0.136-27.814L11.718,61.23l-0.122-25.049H0.113L0,13.019h11.482h5.405L16.824,0h23.154
			l0.063,13.019h9.49L49.469,0h23.154l0.063,13.127c18.178,1.104,32.706,16.188,32.796,34.628l0.009,1.903
			C105.53,57.648,102.828,64.993,98.305,70.873z M86.897,99.307l-0.01-2.011c-0.034-7.12-5.854-12.901-12.973-12.901h-2.99H34.985
			l0.136,27.814h4.92h34.01C81.17,112.209,86.933,106.418,86.897,99.307 M34.75,36.182l0.123,25.049h35.939
			c6.384,0,11.557-5.189,11.525-11.572l-0.009-1.903c-0.031-6.384-5.255-11.573-11.639-11.573H39.67H34.75"/>
	</g>
</g>
</svg>
