<?xml version="1.0" encoding="utf-8"?>
<!-- Generator: Adobe Illustrator 16.0.0, SVG Export Plug-In . SVG Version: 6.00 Build 0)  -->
<!DOCTYPE svg PUBLIC "-//W3C//DTD SVG 1.1//EN" "http://www.w3.org/Graphics/SVG/1.1/DTD/svg11.dtd">
<svg version="1.1" id="content" xmlns="http://www.w3.org/2000/svg" xmlns:xlink="http://www.w3.org/1999/xlink" x="0px" y="0px"
	 width="175.305px" height="152.984px" viewBox="0 0 175.305 152.984" enable-background="new 0 0 175.305 152.984"
	 xml:space="preserve">
<g id="_x32_">
	<path fill="#C2DDF3" d="M109.562,21.119h-0.094c-0.656,0-1.188-0.532-1.188-1.188v-6c0-0.656,0.531-1.188,1.188-1.188h0.094
		c0.656,0,1.188,0.532,1.188,1.188v6C110.749,20.587,110.218,21.119,109.562,21.119z"/>
	<g>
		<path fill="#17223F" d="M168.465,96.545c0,0-4.406,2.927-8.218-0.813c-3.812-3.74-21.829-11.016-21.829-11.016l26.681-12.647
			c0,0-0.174-0.346,0.173,2.079C165.618,76.573,168.465,96.545,168.465,96.545z"/>
		<path fill="#1A2228" d="M152.411,112.32c0,0-3.796,0.81-8.704-1.838c-5.228-2.819-10.054-5.571-10.054-5.571l12.246-24.104
			l3.662,0.307l9.537,5.62l-1.388,9.709L152.411,112.32z"/>
		<path fill="#2D363F" d="M162.542,100.626c-1.681,7.162-7.104,12.345-12.266,11.774c-5.277-0.583-8.527-6.966-7.105-14.474
			c1.472-7.772,7.299-13.494,12.846-12.548C161.434,86.302,164.28,93.223,162.542,100.626z"/>
		<path fill="#637E96" d="M159.396,100.443c-1.073,4.721-4.539,8.161-7.802,7.77c-3.31-0.396-5.258-4.585-4.29-9.447
			c0.99-4.972,4.617-8.64,8.034-8.098C158.707,91.202,160.494,95.619,159.396,100.443z"/>
		<path fill="#425668" d="M156.079,100.059c-0.666,2.931-2.818,5.066-4.844,4.823c-2.056-0.246-3.266-2.847-2.664-5.865
			c0.615-3.087,2.866-5.365,4.988-5.028C155.651,94.321,156.761,97.063,156.079,100.059z"/>
		<path fill="#17223F" d="M93.2,136.239c0,0-5.474,2.184-7.276-1.974C84.309,130.541,66,128.201,66,128.201l28.146-20.443
			c0,0,10.315,4.158,10.315,7.45S93.2,136.239,93.2,136.239z"/>
		<path fill="#1A2228" d="M76.528,152.86c0,0-3.796,0.81-8.704-1.837c-5.228-2.82-10.053-5.571-10.053-5.571l12.246-24.105
			l3.663,0.308l9.536,5.619l-1.387,9.709L76.528,152.86z"/>
		<path fill="#2D363F" d="M86.659,141.167c-1.681,7.162-7.104,12.345-12.266,11.774c-5.277-0.583-8.527-6.966-7.105-14.474
			c1.472-7.772,7.299-13.494,12.846-12.548C85.551,126.842,88.397,133.762,86.659,141.167z"/>
		<path fill="#2088CE" d="M122.306,120.448l-28.21,15.34c0,0-4.011,1.423-4.011-3.948s0-7.003,0-7.003s-0.512-8.936-11.427-3.565
			c-10.915,5.371-13.952,11.435-14.125,18.884c-0.173,7.45-0.393,9.823-6.138,9.819c-2.108-0.001-8.311,0.402-20.612-5.834
			c-12.3-6.237-17.509-9.183-17.509-9.183s-10.574-6.41-13.866-9.875s-6.56-8.489-6.387-12.82s1.063-2.771,1.063-3.465
			s0-8.908,0-8.908s0.156-4.778,2.235-7.031s3.188-2.599,3.188-2.599s1.074-1.732,3.846-3.465s22.193-12.82,22.193-12.82
			s4.34-1.213,7.978-8.143c2.458-4.683,9.706-15.766,14.037-19.75c4.331-3.985,27.549-18.191,36.731-23.215
			c9.182-5.024,26.162-6.583,26.162-6.583l33.61,19.75c0,0,2.079-0.693,4.332,1.559c2.252,2.252,10.048,15.939,10.048,15.939
			s3.466,0.866,4.505,2.599c1.04,1.732,1.906,3.638,1.906,3.638s1.559,3.465,1.559,5.197s-0.692,3.292,0.693,6.41
			c1.386,3.119,2.252,10.915-1.386,18.365c-3.639,7.449-4.678,7.894-7.104,6.805s-1.906-5.073-1.906-5.073
			s1.732-16.112-9.875-10.222c-11.607,5.89-11.607,12.647-12.127,19.057s0.52,8.143-2.772,10.395
			C135.646,112.956,122.306,120.448,122.306,120.448z"/>
		<path opacity="0.5" fill="#4A85DD" d="M124.658,71.592L98.441,86.36l-32.819,20.835l-4.256,3.085l1.529,12.948
			c0,0,13.853-10.51,23.723-10.683c6.719-0.118,6.973,4.784,28.152-7.43c21.18-12.214,21.439-12.084,22.999-16.242
			c1.559-4.158,3.508-8.766,13.729-14.053c9.356-4.839,15.896-8.556,19.274-4.138c2.441,3.193,3.9,6.552,4.389,10.388
			c0.426-4.201-0.215-7.808-1.054-9.695c-1.386-3.118-0.693-4.678-0.693-6.41s-1.559-5.197-1.559-5.197s-0.866-1.906-1.906-3.638
			c-1.039-1.732-4.505-2.599-4.505-2.599s-0.252-0.442-0.673-1.173l-1.535-0.542L124.658,71.592z"/>
		<path fill="#1F74C9" d="M138.938,110.703c3.292-2.252,2.253-3.984,2.772-10.395s0.52-13.167,12.127-19.057
			c11.607-5.891,9.875,10.221,9.875,10.221s-0.52,3.985,1.906,5.073s3.465,0.644,7.104-6.805c3.366-6.893,2.874-14.075,1.685-17.582
			l-0.992-1.606l-9.015-4.548l-12.987,4.548l-13.86,17.116c0,0-0.347,6.749-1.386,11.773c-1.04,5.024-7.562,7.859-18.878,14.206
			s-20.623,11.607-20.623,6.713c0-4.896-8.938-4.573-8.938-4.573l-14.25,4.573L66,128.201l-11.088,16.979l9.068,1.21
			c0.331-1.496,0.397-3.526,0.46-6.234c0.173-7.449,3.302-13.513,14.217-18.884c10.915-5.37,11.427,3.565,11.427,3.565
			s0,1.632,0,7.003s4.011,3.948,4.011,3.948l28.302-15.34C122.397,120.448,135.646,112.956,138.938,110.703z"/>
		<path fill="#48B2ED" d="M149.506,67.474c-9.292,5.934-14.553,21.747-15.938,24.233c-0.705,1.264-7.682,5.304-15.235,9.302
			c-7.301,3.864-15.14,7.689-18.375,8.935c-6.583,2.532-13.34-6.117-25.814,0.336c-4.682,2.423-14.938,7.07-17.166,9.227
			l4.877,4.762c0,0,14.893-10.51,24.762-10.684c6.72-0.117,6.974,4.785,28.153-7.43c21.18-12.213,21.439-12.083,22.999-16.242
			c1.559-4.158,3.508-8.766,13.729-14.053c9.356-4.839,15.896-8.556,19.274-4.138c2.441,3.192,3.807,6.369,4.295,10.205
			c0.426-4.201,0.178-7.881-0.661-9.769c-1.386-3.118-0.992-4.421-0.992-6.154c0-0.124-0.01-0.259-0.024-0.398
			c-1.365-0.378-2.778-0.821-3.44-1.797C166.484,58.699,158.798,61.54,149.506,67.474z"/>
		<path fill="#17223F" d="M39.126,68.2c0,0,0.931-1.935-1.408-3.234s-4.158-3.118-3.378-5.197s2.663-2.989,4.969-1.819
			c2.307,1.169,5.426,2.859,5.426,2.859l-5.847,9.745L39.126,68.2z"/>
		<path fill="#39A2EA" d="M62.03,112.545c-3.393-0.283-27.171-10.028-28.34-10.808c-1.066-0.711-18.444-13.737-21.496-16.025
			c-0.822,0.484-1.451,0.86-1.806,1.082c-2.772,1.732-3.812,3.465-3.812,3.465s-1.177,0.346-3.256,2.599s-2.235,7.031-2.235,7.031
			s0,8.215,0,8.908s-0.893-0.866-1.066,3.465s3.023,9.355,6.315,12.82s13.895,9.875,13.895,9.875s5.215,2.945,17.515,9.183
			c9.925,5.032,15.87,5.74,18.901,5.827l2.803-8.229c0,0-4.71-0.906-4.971-4.926c-0.26-4.02,1.041-3.76,3.379-5.06
			c2.339-1.299,4.966-2.729,4.173-6.236c-0.794-3.509,2.761-1.245,2.631-6.41S65.422,112.829,62.03,112.545z"/>
		<path fill="#17223F" d="M84.365,99.442l7.008-2.896l43.093-25.111l10.06-5.559l8.705-5.717c0,0,2.242-1.689,8.042-5.95
			c0.898-0.66,2.285-0.994,3.679-1.538c-1.746-3.032-7.645-13.167-9.555-15.078c-2.252-2.252-4.331-1.559-4.331-1.559l-33.61-19.75
			c-1.782,0.462,19.759,16.006,14.415,19.404c-10.084,6.41-33.429,22.522-33.429,22.522L84.365,99.442z"/>
		<path fill="#53ADEA" d="M117.639,15.367c-3.484,0.382-18.359,3.13-26.344,7.499c-9.182,5.024-32.397,19.23-36.729,23.215
			c-4.331,3.984-11.575,15.067-14.033,19.75c-3.639,6.93-7.97,8.143-7.97,8.143S13.16,85.062,10.388,86.795
			s-2.549,1.891-2.549,1.891s-0.596,0.711-0.396,1.574l0,0c0,0-1.04,2.447,3.378,5.5c0.972,0.672,29.05,17.342,29.05,17.342
			l7.281,3.155c5.378,1.657,9.059,0.546,13.607-1.984s23.605-14.831,23.605-14.831s0.365-0.35,4.6-10.264
			c4.235-9.915,10.213-19.535,10.213-19.535l28.954-16.507c0,0,14.126-7.97,18.637-10.37c4.512-2.399,10.825-4.484,5.297-7.733
			l-32.658-19.191L117.639,15.367z"/>
		<path opacity="0.5" fill="#78C8F4" d="M151.065,36.033l-32.658-19.191l-1.313-0.353c-3.604,2.066-33.339,19.286-38.935,27.953
			c-5.958,9.229,8.59,15.017,13.866,20.454c5.256,5.418-4.231,26.992-4.295,27.155c0.372-0.86,0.777-1.801,1.235-2.874
			c4.235-9.915,10.213-19.535,10.213-19.535l28.954-16.507c0,0,12.186-6.929,16.696-9.328
			C149.34,41.408,156.594,39.282,151.065,36.033z"/>
		<path fill="#2D4877" d="M167.523,94.461c-3.124,0.752-1.429-10.265-3.124-15.852c-1.696-5.587-6.361-4.028-16.26,1.499
			c-9.899,5.527-8.973,13.575-8.812,21.369c0.131,6.28-2.338,7.427-2.338,7.427s-30.665,17.238-38.548,21.396
			c-7.882,4.158-6.28-0.367-6.28-6.993c0-6.627-2.859-9.034-10.005-6.757c-6.125,1.952-11.044,4.678-16.155,9.553
			c-4.345,4.145-4.267,16.879-4.267,16.879l-6.085,3.323l0.48,3.641c0.984,0.049,1.721,0.028,2.22,0.028
			c5.745,0.004,6.01-2.369,6.184-9.819c0.173-7.449,3.21-13.513,14.125-18.884c10.915-5.37,11.427,3.565,11.427,3.565
			s0,1.632,0,7.003s4.011,3.948,4.011,3.948l28.302-15.34c0,0,13.295-7.492,16.586-9.745c3.292-2.252,2.229-3.984,2.749-10.395
			c0.521-6.41,0.509-13.167,12.116-19.057c11.607-5.891,9.869,10.221,9.869,10.221s-0.522,3.985,1.903,5.073
			c2.077,0.932,3.142,0.725,5.69-4.033C170.199,93.334,168.852,94.141,167.523,94.461z"/>
		<path opacity="0.5" fill="#78C8F4" d="M172.722,89.74c3.638-7.45,2.771-15.246,1.386-18.365c-1.386-3.118-0.693-4.678-0.693-6.41
			s-1.559-5.197-1.559-5.197s-0.866-1.906-1.906-3.638c-1.039-1.732-4.505-2.599-4.505-2.599s0.39,0.563-1.329-2.333l-2.337,2.698
			l-8.548,6.262l-7.498,4.813l-15.155,8.574c0,0,0.045,4.241,0.316,8.052c0.272,3.812-13.611,37.075-14.732,38.96l10.828-2.764
			c4.179-2.384,9.938-5.715,11.948-7.091c3.292-2.252,2.253-3.984,2.772-10.395s0.52-13.167,12.127-19.057
			c11.607-5.891,9.875,10.221,9.875,10.221s-0.52,3.985,1.906,5.073S169.083,97.189,172.722,89.74z"/>
		<path opacity="0.5" fill="#78C8F4" d="M36.288,136.95c0,0-8.952-12.57-7.536-20.314s2.469-8.673,2.469-8.673l14.682-8.521
			L23.295,90.26c0,0-16.449-1.906-19.793,10.048c-3.345,11.954,4.38,26.141,4.38,26.141L36.288,136.95z"/>
		<polygon opacity="0.5" fill="#78C8F4" points="98.441,130.3 118.331,96.15 119.312,91.517 120.292,88.874 121.936,97.635 
			111.356,123.228 		"/>
		<path fill="#293859" d="M58.312,119.994c0,0-2.924-1.364-8.121-1.624s-16.242-7.146-16.242-7.146L8.872,95.76
			c0,0-3.032-2.166-2.295-5.5c0,0-1.177,0.346-3.256,2.599s-2.235,7.031-2.235,7.031s0,2.016,0,4.134
			c1,0.78,1.688,1.575,2.582,2.234c2.858,2.106,4.039,2.646,4.039,2.646s1.349-1.752,4.251,0
			c2.033,1.229,26.004,14.663,26.004,14.663s1.926,0.887,2.564,1.949c0.679,1.13,0.917,2.472,0.917,2.472s5.893,2.742,12.517,2.255
			c5.067-0.374,6.151-0.959,6.671-2.908c0.52-1.948-0.692-3.118-0.692-3.118L58.312,119.994z"/>
		<path fill="#2B3E5E" d="M114.51,67.174c-1.429-3.638-1.819-5.327-4.288-3.898s-11.044,6.367-11.044,6.367
			s-4.116,5.925-7.805,13.488c-3.861,7.916-4.242,12.144-4.242,12.144s-0.185,3.875,4.242,1.271
			c4.426-2.604,24.177-14.168,24.177-14.168s3.638-1.299,2.729-3.768C117.368,76.14,114.51,67.174,114.51,67.174z"/>
		<path fill="#2B3E5E" d="M117.889,62.77c0,0-1.657-2.353,0.535-3.912c2.193-1.559,18.435-10.655,18.435-10.655
			s1.819-1.299,2.989,1.04c1.169,2.339,6.366,13.527,6.366,13.527s1.17,1.416-1.688,3.105s-17.542,9.615-17.542,9.615
			s-2.793,2.079-4.027,0C121.531,73.091,117.889,62.77,117.889,62.77z"/>
		<path fill="#2B3E5E" d="M142.793,44.869l2.396-1.228c0,0,2.028-1.006,4.209,3.068c2.112,3.945,5.328,9.55,5.328,9.55
			s0.86,2.339-1.495,3.898c-2.354,1.56-3.768,3.054-4.678,1.429c-1.079-1.927-6.302-13.448-6.302-13.448
			S141.244,45.674,142.793,44.869z"/>
		<path fill="#2B3E5E" d="M165.444,53.531c0,0-6.193-11.088-10.048-15.939l-2.338,2.382c0,0-1.192,1.147,0.042,3.356
			s4.854,7.979,4.854,7.979s1.772,3.001,5.281,1.961c0.688-0.204,1.715,0.39,2.22,0.263
			C165.454,53.534,165.444,53.531,165.444,53.531z"/>
		<path fill="#DD291B" d="M166.831,56.13c-2.513,1.299-2.945,2.079-1.906,4.591c1.04,2.512,2.249,4.158,2.249,4.158
			s1.822,3.378,4.941,2.425c0.364-0.111,0.876-0.396,1.282-0.6c0.051-0.647,0.017-1.125,0.017-1.739
			c0-1.732-1.559-5.197-1.559-5.197s-0.866-1.906-1.906-3.638c-0.03-0.052-0.07-0.1-0.105-0.15
			C169.586,55.681,168.788,55.118,166.831,56.13z"/>
		<path fill="#293859" d="M55.909,141.368c-3.895-0.343-5.717-0.39-11.694-3.118s-5.544-6.758-5.458-9.355
			c0.065-1.949-3.378-3.508-3.378-3.508s-7.926-4.548-15.203-8.836s-11.824-8.316-12.084-3.509c-0.26,4.808-3.898,1.949-5.587,0.91
			c-1.536-0.945-1.226-4.421-1.156-5.048c-0.116,0.411-1.14-0.941-1.336,3.112c-0.243,5.026,3.099,9.602,6.391,13.066
			c3.292,3.465,13.86,9.875,13.86,9.875s5.198,2.945,17.498,9.183c12.301,6.236,18.481,5.833,20.589,5.834
			c1.388,0.001,2.445-0.141,3.262-0.455c0.43-0.699,0.492-1.767,0.664-4.123C62.565,141.432,59.015,141.641,55.909,141.368z"/>
		<path fill="#17223F" d="M36.938,140.978c0,0-6.797-3.288-16.451-8.99c-11.616-6.862-14.344-9.591-14.344-9.591
			s0.52-3.248,1.819-2.858c1.3,0.39,2.989,1.819,2.989,1.819s0.26-1.949,2.339-0.91c2.079,1.04,8.965,5.068,8.965,5.068l8.187,4.548
			c0,0,2.079,0.909,1.949,2.339c-0.13,1.429-0.13,1.429-0.13,1.429s3.378,1.689,4.028,3.118
			C36.938,138.379,36.938,140.978,36.938,140.978z"/>
		<path fill="#647187" d="M87.131,95.275c0,0-0.185,3.875,4.242,1.271c0.638-0.375,1.603-0.942,2.773-1.629l-4.113-8.557
			C87.681,92.288,87.131,95.275,87.131,95.275z"/>
		<path fill="#121C33" d="M91.373,90.953l2.282-3.703c0,0,0.714-1.779,3.054-0.89c2.339,0.89,6.993,2.956,6.993,2.956
			s2.037,1.052,0.933,3.131c-1.104,2.079-3.425,2.806-5.782,1.949s-3.629-1.658-4.706-1.689c-1.077-0.031-1.466,1.235-2.246,1.3
			s-1.559-0.325-1.559-1.104C90.342,92.122,91.373,90.953,91.373,90.953z"/>
		<path fill="#C2DDF3" d="M98.77,62.887h-0.094c-0.656,0-1.188-0.532-1.188-1.188v-6c0-0.656,0.531-1.188,1.188-1.188h0.094
			c0.656,0,1.188,0.532,1.188,1.188v6C99.957,62.355,99.426,62.887,98.77,62.887z"/>
		<path fill="#C2DDF3" d="M139.699,39.563h-0.094c-0.655,0-1.188-0.532-1.188-1.188v-6c0-0.656,0.532-1.188,1.188-1.188h0.094
			c0.656,0,1.188,0.532,1.188,1.188v6C140.887,39.031,140.355,39.563,139.699,39.563z"/>
		<path fill="#C2DDF3" d="M68.632,44.442h-0.094c-0.656,0-1.188-0.532-1.188-1.188v-5.999c0-0.656,0.531-1.188,1.188-1.188h0.094
			c0.656,0,1.188,0.532,1.188,1.188v5.999C69.819,43.911,69.288,44.442,68.632,44.442z"/>
		<path fill="#DCF1FF" d="M115.646,11.309L62.69,41.764c-0.634,0.361-1.44,0.14-1.802-0.494l0,0c-0.361-0.634-0.14-1.44,0.494-1.802
			l52.955-30.455c0.634-0.361,1.44-0.14,1.802,0.494l0,0C116.501,10.141,116.28,10.948,115.646,11.309z"/>
		<path fill="#293859" d="M117.182,92.183c-2.757,1.509-4.327,1.163-4.693-0.326s1.093-2.608,2.859-3.589s3.812-0.769,3.952,0.733
			S118.293,91.574,117.182,92.183z"/>
		<path fill="#C2DDF3" d="M114.821,88.571c0,0-0.857,2.316,0,2.901c0.858,0.584,5.016-1.495,5.471-2.599
			c0.455-1.104,1.819-1.904,1.624-0.302c-0.194,1.602-3.991,4.126-6.045,4.785c-3.439,1.104-4.998-0.946-3.439-2.844
			C113.99,88.614,114.821,88.571,114.821,88.571z"/>
		<path fill="#293859" d="M144.208,76.59c-2.757,1.509-4.326,1.163-4.692-0.326s1.093-2.608,2.858-3.589
			c1.767-0.981,3.812-0.769,3.952,0.733C146.467,74.909,145.319,75.982,144.208,76.59z"/>
		<path fill="#C2DDF3" d="M141.849,72.979c0,0-0.857,2.316,0,2.901c0.857,0.585,5.016-1.494,5.47-2.599
			c0.455-1.104,1.819-1.904,1.624-0.302c-0.194,1.602-3.99,4.126-6.044,4.785c-3.439,1.104-4.998-0.946-3.439-2.844
			C141.017,73.021,141.849,72.979,141.849,72.979z"/>
		<path fill="#61BEF2" d="M7.659,88.958c-0.157,0.285-0.341,0.763-0.217,1.301c0,0-1.04,2.447,3.378,5.5
			c0.972,0.672,29.05,17.342,29.05,17.342l7.281,3.155c5.378,1.657,9.059,0.546,13.607-1.984c3.358-1.869,14.621-9.06,20.288-12.696
			c3.265-3.583-3.882-6.821-3.882-6.821S44.394,76.017,40.79,73.545c-3.604-2.472-5.856-0.863-5.856-0.863
			c-1.4,1.013-2.37,1.292-2.37,1.292S13.16,85.062,10.388,86.795C9.146,87.571,8.268,88.338,7.659,88.958z"/>
		<path fill="#8E2537" d="M50.062,55.09c0,0,4.288-5.328,5.587-6.107c1.299-0.78,2.599-1.169,5.717,0.52
			c3.119,1.689,29.273,15.853,29.273,15.853s3.211,1.299,2.821,3.768c-0.39,2.469-2.339,6.756-2.339,6.756L61.366,65.745
			L50.062,55.09z"/>
		<path fill="#17223F" d="M85.794,87.574c-2.469,5.198-4.028,9.875-9.745,6.627C70.332,90.953,46.033,77.18,43.565,75.49
			c-2.469-1.689-5.068-2.599-2.859-6.237s9.355-14.163,9.355-14.163s2.642-4.115,4.678-3.119c1.845,0.903,5.442,3.171,15.159,8.576
			c11.114,6.182,20.791,11.082,18.364,10.005c0,0,4.158,1.689,2.858,5.327C89.822,79.518,85.794,87.574,85.794,87.574z"/>
		<path fill="#647187" d="M81.506,86.36c-0.13-1.864-1.039-2.943-3.289-4.243s-3.467-2.729-6.456-1.43
			c-2.988,1.3-8.056-0.58-8.056-0.58s-12.474-7.216-14.683-8.646s-2.988-1.429-1.949-5.328c1.04-3.898,7.667-14.163,7.667-14.163
			c-2.036-0.996-4.678,3.119-4.678,3.119s-7.146,10.525-9.355,14.163s0.39,4.548,2.859,6.237
			c2.469,1.689,26.767,15.462,32.484,18.711c4.698,2.669,6.589-0.016,8.483-3.942C84.526,90.255,81.636,88.222,81.506,86.36z"/>
		<path fill="#C2DDF3" d="M98.441,55.386L68.558,38.155c-0.529-0.328-0.692-1.023-0.364-1.553l0,0
			c0.329-0.529,1.024-0.692,1.553-0.364L99.63,53.469c0.529,0.328,0.693,1.023,0.364,1.553l0,0
			C99.666,55.551,98.972,55.714,98.441,55.386z"/>
		<path fill="#C2DDF3" d="M103.509,52.351L73.625,35.12c-0.529-0.329-0.693-1.024-0.364-1.553l0,0
			c0.328-0.529,1.023-0.692,1.553-0.364l29.884,17.231c0.529,0.328,0.692,1.023,0.363,1.553l0,0
			C104.733,52.516,104.039,52.679,103.509,52.351z"/>
		<path fill="#C2DDF3" d="M108.577,49.316L78.693,32.085c-0.53-0.328-0.693-1.023-0.365-1.553l0,0
			c0.328-0.529,1.023-0.692,1.553-0.364l29.884,17.231c0.529,0.328,0.692,1.023,0.364,1.553l0,0
			C109.802,49.481,109.106,49.645,108.577,49.316z"/>
		<path fill="#C2DDF3" d="M113.969,46.541L84.085,29.31c-0.53-0.328-0.693-1.023-0.364-1.553l0,0
			c0.328-0.53,1.023-0.693,1.553-0.364l29.883,17.231c0.529,0.328,0.693,1.023,0.364,1.553l0,0
			C115.193,46.706,114.498,46.869,113.969,46.541z"/>
		<path fill="#C2DDF3" d="M119.036,43.506L89.153,26.274c-0.529-0.328-0.692-1.023-0.364-1.553l0,0
			c0.328-0.529,1.023-0.692,1.553-0.364l29.884,17.231c0.529,0.328,0.692,1.023,0.364,1.553l0,0
			C120.261,43.671,119.566,43.834,119.036,43.506z"/>
		<path fill="#C2DDF3" d="M124.104,40.327L94.22,23.095c-0.529-0.328-0.692-1.023-0.364-1.553l0,0
			c0.328-0.529,1.023-0.692,1.553-0.364l29.884,17.231c0.529,0.329,0.692,1.023,0.364,1.553l0,0
			C125.329,40.492,124.634,40.655,124.104,40.327z"/>
		<path fill="#C2DDF3" d="M129.172,37.292L99.288,20.06c-0.529-0.328-0.692-1.023-0.364-1.553l0,0
			c0.328-0.529,1.023-0.692,1.553-0.364l29.884,17.231c0.529,0.328,0.692,1.023,0.364,1.553l0,0
			C130.396,37.457,129.701,37.62,129.172,37.292z"/>
		<path fill="#C2DDF3" d="M134.563,34.516l-29.883-17.231c-0.529-0.329-0.693-1.023-0.365-1.553l0,0
			c0.329-0.53,1.023-0.693,1.554-0.365l29.884,17.231c0.529,0.328,0.692,1.023,0.364,1.553l0,0
			C135.789,34.681,135.094,34.845,134.563,34.516z"/>
		<path fill="#C2DDF3" d="M139.632,31.481L109.748,14.25c-0.529-0.328-0.692-1.023-0.364-1.553l0,0
			c0.328-0.53,1.023-0.693,1.553-0.365l29.884,17.231c0.529,0.328,0.692,1.023,0.364,1.553l0,0
			C140.856,31.646,140.161,31.81,139.632,31.481z"/>
		<path fill="#DCF1FF" d="M145.784,29.753L92.828,60.208c-0.634,0.361-1.44,0.14-1.802-0.494l0,0
			c-0.361-0.634-0.14-1.441,0.494-1.802l52.955-30.456c0.635-0.361,1.441-0.14,1.802,0.494l0,0
			C146.639,28.585,146.418,29.392,145.784,29.753z"/>
		<path fill="#DCF1FF" d="M36.578,146.524L3.355,125.978c-0.517-0.348-0.655-1.048-0.308-1.565l0,0
			c0.348-0.517,1.048-0.654,1.565-0.307l33.223,20.545c0.517,0.348,0.655,1.049,0.308,1.565l0,0
			C37.796,146.734,37.095,146.872,36.578,146.524z"/>
		<path fill="#DCF1FF" d="M10.085,127.955v-9.355c0,0-0.204-3.089,2.369-1.52c2.35,1.433,16.626,10.062,16.626,10.062
			s3.384,1.622,3.291,5.724c-0.101,4.431-0.022,9.535-0.022,9.535l-2.631-1.726l0.075-7.536c0,0,0.288-2.142-2.368-3.713
			c-2.655-1.571-13.571-8.415-13.571-8.415s-1.344-0.866-1.647-0.466c-0.497,0.657-0.356,2.935-0.356,2.935l0.127,5.946
			L10.085,127.955z"/>
		<path opacity="0.5" fill="#78C8F4" d="M77.165,94.756c0,0-18.404-10.523-29.145-16.838c-0.053,0.053-0.11,0.104-0.163,0.157
			c-15.197,15.448-16.637,29.888-16.637,29.888c4.849,2.884,8.65,5.14,8.65,5.14l7.281,3.155c5.378,1.657,9.059,0.546,13.607-1.984
			c3.358-1.869,14.621-9.06,20.288-12.696C84.312,97.994,77.165,94.756,77.165,94.756z"/>
		<path fill="#F4731C" d="M103.702,89.316c0,0-1.298,0.121-1.198,2.036c-0.354,2.269-0.477,2.24-1.313,3.364
			c1.451-0.127,2.715-0.896,3.444-2.269C105.739,90.368,103.702,89.316,103.702,89.316z"/>
		<path fill="#F4731C" d="M35.509,60.547c0.649-1.385,1.007-1.624,0.712-2.89c-0.841,0.347-1.497,1.084-1.881,2.111
			c-0.601,1.602,0.343,3.047,1.876,4.222C36.198,63.956,34.863,61.924,35.509,60.547z"/>
		<path fill="#C2DDF3" d="M98.449,135.657l-2.47-1.52c-0.529-0.328-0.692-1.023-0.364-1.553l0,0
			c0.328-0.529,1.023-0.692,1.553-0.364l3.086,1.898c0.529,0.328,0.053,0.396-0.275,0.926l0,0
			C99.65,135.574,98.979,135.985,98.449,135.657z"/>
		<path fill="#C2DDF3" d="M136.437,114.327l-2.213-1.362c-0.529-0.328-0.692-1.023-0.364-1.553l0,0
			c0.328-0.529,1.023-0.692,1.553-0.364l3.086,1.898c0.529,0.328-0.77,0.173-1.098,0.702l0,0
			C137.072,114.177,136.966,114.655,136.437,114.327z"/>
		<path fill="#DCF1FF" d="M143.17,111.402l-50.281,28.041c-0.638,0.355-1.442,0.126-1.796-0.512l0,0
			c-0.354-0.638-0.125-1.442,0.513-1.797l50.281-28.042c0.638-0.354,1.441-0.125,1.797,0.513l0,0
			C144.037,110.243,143.808,111.047,143.17,111.402z"/>
		<path fill="#F4731C" d="M50.032,145.829l-3.683-0.84c-0.72-0.165-1.17-0.881-1.006-1.601l0.023-0.104
			c0.164-0.72,0.881-1.17,1.6-1.006l3.683,0.84c0.72,0.164,1.17,0.881,1.006,1.601l-0.023,0.103
			C51.468,145.542,50.752,145.993,50.032,145.829z"/>
		<path fill="#F4731C" d="M1.409,117.808c0.457-0.048,0.886-0.296,1.106-0.737c0.343-0.687,0.063-1.521-0.623-1.864l-1.562-0.779
			C0.534,115.546,0.908,116.683,1.409,117.808z"/>
		<path opacity="0.5" fill="#FFFFFF" d="M83.633,69.519c-3.4-1.811-7.914-4.232-12.695-6.892
			c-9.717-5.405-13.314-7.672-15.159-8.576c-2.036-0.996-4.678,3.119-4.678,3.119s-5.067,7.406-7.276,11.044s0.39,4.548,2.858,6.237
			c1.117,0.765,6.709,4.006,13.023,7.625L83.633,69.519z"/>
		<polygon fill="#17223F" points="6.143,102.777 41.605,123.228 48.372,122.285 39.306,114.273 15.357,99.759 9.132,99.442 		"/>
		<path fill="#B8DCF4" d="M12.38,102.777c0.728-0.56,1.89-1.794,2.977-3.018L8.872,95.76c0,0-3.032-2.166-2.295-5.5
			c0,0-1.04,0.346-3.119,2.599c-0.806,0.873-1.3,2.125-1.605,3.332c0.845,3.355,2.029,5.294,4.291,6.586
			C8.872,104.336,10.691,104.077,12.38,102.777z"/>
		<path fill="#B8DCF4" d="M61.929,118.153c-0.173-3.194-3.779-0.855-3.779-0.855l0,0c0,0-2.761,1.332-7.958,1.072
			c-2.81-0.141-7.327-2.218-10.886-4.097l0,0c0,0,0.173,8.298,3.393,9.856c2.614,1.267,7.947,3.639,15.939,1.387
			c0.688-0.194,1.151-0.633,1.573-0.949C62.304,122.997,62.101,121.321,61.929,118.153z"/>
		<path fill="#293859" d="M174.8,83.495c-0.686,1.899-1.036,2.835-2.533,4.027c-3.847,3.062-8.484,2.891-8.484,2.891
			c-0.026,0.655-0.07,1.059-0.07,1.059s-0.52,3.985,1.906,5.073s3.465,0.644,7.104-6.805
			C173.743,87.647,174.399,85.531,174.8,83.495z"/>
		<path opacity="0.5" fill="#FFFFFF" d="M162.426,48.317c-1.888-3.174-4.33-7.118-6.334-9.817c-1.896,1.915-2.198,2.61-1.213,4.277
			c1.211,2.048,1.86,3.035,1.86,3.035L162.426,48.317L162.426,48.317z"/>
		<path fill="#F4731C" d="M58.637,125.516c0.688-0.194,1.151-0.633,1.573-0.949c2.094-1.57,1.89-3.246,1.718-6.414
			c-0.173-3.194-3.779-0.855-3.779-0.855s-0.421,0.103-0.833,0.243l-0.232,0.02v6.237c0,0-0.161,2.096-2.376,2.306
			c-0.464,0.044,0.802,0.008,0.771,0.117C56.853,126.093,57.055,125.961,58.637,125.516z"/>
		<path fill="#F4731C" d="M6.581,92.321C6.442,91.7,6.41,91.011,6.576,90.26c0,0-1.04,0.346-3.119,2.599
			c-0.806,0.873-1.3,2.125-1.605,3.332c0.428,1.701,0.946,3.036,1.645,4.109c-0.025-0.05-1.195-2.354,0.004-4.539
			C4.121,94.631,5.439,93.328,6.581,92.321z"/>
		<path fill="#F4731C" d="M165.811,56.715c-1.574,1.002-1.761,1.891-0.886,4.005c1.04,2.512,2.249,4.158,2.249,4.158
			s1.822,3.378,4.941,2.425c0.364-0.111,0.876-0.396,1.282-0.6c0,0-2.041-3.948-3.729-7.326
			C168.067,56.177,166.151,56.572,165.811,56.715z"/>
		<path fill="#DCF1FF" d="M167.174,64.879c0,0,1.822,3.378,4.941,2.425c0.364-0.111,0.876-0.396,1.282-0.6
			c0.051-0.647,0.017-1.125,0.017-1.739c0-0.612-0.196-1.441-0.448-2.257c-0.376,0.274-0.77,0.549-1.199,0.818
			C169.188,65.141,167.174,64.879,167.174,64.879z"/>
		<path fill="#39A2EA" d="M24.456,109.659L24.456,109.659c-0.673-0.368-2.286-2.373-1.918-3.046l0,0
			c0.368-0.674,0.958-0.598,1.631-0.229l3.223,1.759c0.674,0.367,1.092,0.935,0.724,1.608l0,0
			C27.747,110.423,25.129,110.026,24.456,109.659z"/>
		<path fill="#637E96" d="M83.514,140.983c-1.073,4.721-4.539,8.161-7.802,7.77c-3.31-0.396-5.258-4.585-4.29-9.447
			c0.99-4.972,4.617-8.641,8.035-8.098C82.824,131.742,84.611,136.159,83.514,140.983z"/>
		<path fill="#425668" d="M80.196,140.599c-0.667,2.931-2.818,5.066-4.844,4.824c-2.055-0.247-3.265-2.848-2.664-5.866
			c0.615-3.088,2.867-5.365,4.989-5.028C79.769,134.861,80.878,137.603,80.196,140.599z"/>
		<path fill="#56442C" d="M79.049,16.955l30.313-16.393c0,0,1.564-1.271,4.417,0.009s15.27,7.924,15.27,7.924
			s3.036,0.882,3.036,3.122s0,11.93,0,11.93s-0.666,1.759-3.207,3.392c-2.541,1.632-28.083,15.673-28.083,15.673
			s-1.238,1.438-5.827-0.861c-4.589-2.3-16.061-8.832-16.061-8.832s-1.646-0.827-1.812-3.226c-0.167-2.399-0.002-9.438-0.002-9.438
			S77.421,17.835,79.049,16.955z"/>
		<path fill="#3A2B1C" d="M132.085,23.547c0,0,0-9.691,0-11.93c0-1.195-0.918-2-1.705-2.495c-1.331-0.627-4.376,1.016-4.376,1.016
			s-12.269,7.32-23.496,12.353c-6.599,2.958-5.423,6.172-5.423,6.172v5.442l0.034,5.249l0.109,3.363
			c2.668,0.813,3.492-0.104,3.492-0.104s25.598-14.042,28.139-15.673C131.401,25.306,132.085,23.547,132.085,23.547z"/>
		<path fill="#8E2537" d="M113.136,34.994c0,0-0.099-3.047-4.213-5.855c-4.115-2.808-5.761-2.857-5.761-2.857
			s-1.846-0.812-3.2-0.081l-0.005-0.007l-11.443,6.241l12.551,18.763l10.562-5.503c0.05-0.023,0.099-0.049,0.146-0.077l0.088-0.045
			l-0.007-0.01c0.728-0.453,1.257-1.368,1.281-3.093C113.22,36.561,113.136,34.994,113.136,34.994z"/>
		<path fill="#511928" d="M89.875,47.844l5.818,3.354c0,0,5.925,3.417,6.009-2.492s0-7.476,0-7.476s-0.099-3.047-4.213-5.854
			c-4.115-2.808-5.761-2.858-5.761-2.858s-4.403-1.958-4.597,2.858s0,6.487,0,6.487S86.621,45.968,89.875,47.844z"/>
		<path fill="#8E2537" d="M86.433,31.208c0,0-0.049-1.507-2.083-2.895c-2.035-1.389-2.849-1.413-2.849-1.413
			s-0.913-0.402-1.583-0.04l-0.002-0.003l-5.658,3.086l6.206,9.278l5.223-2.721c0.025-0.012,0.049-0.024,0.073-0.038l0.043-0.022
			l-0.003-0.005c0.36-0.224,0.621-0.677,0.633-1.53C86.474,31.983,86.433,31.208,86.433,31.208z"/>
		<path fill="#511928" d="M74.931,37.562l2.876,1.659c0,0,2.93,1.689,2.972-1.232c0.042-2.922,0-3.697,0-3.697
			s-0.048-1.507-2.083-2.895c-2.035-1.389-2.849-1.413-2.849-1.413s-2.177-0.969-2.273,1.413c-0.096,2.382,0,3.208,0,3.208
			S73.322,36.635,74.931,37.562z"/>
		<polygon fill="#39A2EA" points="93.82,8.967 111.79,17.974 124.224,42.152 125.284,41.938 126.659,41.252 127.104,40.496 
			114.631,16.32 96.925,7.363 95.604,7.363 94.402,8.059 		"/>
		<path fill="#39A2EA" d="M79.133,27.284l17.861,1.379c0,0,5.456,1.248,8.237,2.988c2.781,1.741,3.104,3.819,3.982,7.913
			c0.878,4.093,1.535,10.339,1.535,10.339l-0.287,1.131l-1.248,0.165l-0.934,0.124l-1.826-10.97c0,0-1.765-4.694-2.714-5.738
			c-1.863-2.05-4.303-3.064-7.812-3.46c-3.508-0.396-19.178-2.588-19.178-2.588l0.285-0.857L79.133,27.284z"/>
		<path fill="#DCF1FF" d="M41.09,117.458c0,0-0.668,3.303,1.899,4.771c2.568,1.468,6.639-1.868,6.639-1.868l-5.804-3.179
			L41.09,117.458L41.09,117.458z"/>
		<path fill="#293859" d="M58.15,117.297c0,0-2.761,1.332-7.958,1.072c-2.81-0.141-7.327-2.218-10.886-4.097l0,0
			c0,0,0.024,1.001,0.184,2.362c0.003,0.003,5.498,3.078,10.139,3.726c5.284,0.737,9.182,0.044,12.3-2.208
			C61.756,114.958,58.15,117.297,58.15,117.297z"/>
		<path fill="#DCF1FF" d="M7.04,96.284c0,0-0.392,3.937,1.564,4.977c1.957,1.039,4.688-0.962,4.688-0.962l-0.913-2.157L7.04,96.284
			L7.04,96.284z"/>
		<path fill="#293859" d="M6.576,90.26c0,0-0.54,0.19-1.599,1.11C4.97,91.414,4.524,94,6.581,95.89
			c2.074,1.906,7.755,4.991,7.755,4.991c0.001-0.001,0.002-0.002,0.003-0.003l1.018-1.119L8.872,95.76
			C8.872,95.76,5.84,93.595,6.576,90.26z"/>
		<g opacity="0.3">
			<path fill="#A6CDDD" d="M56.042,149.942c-0.1-0.005-0.21-0.014-0.315-0.021C55.832,149.928,55.941,149.937,56.042,149.942z"/>
			<path fill="#A6CDDD" d="M151.065,36.033c5.528,3.249-1.172,4.92-6.237,7.774c-4.451,2.508-16.696,9.328-16.696,9.328
				L99.178,69.643c0,0-5.978,9.62-10.213,19.535c-4.235,9.915-4.6,10.264-4.6,10.264s-14.24,9.19-21.037,13.316
				c1.828,0.526,1.224,1.998,1.333,6.348c0.13,5.165-3.425,2.901-2.631,6.41c0.793,3.508-1.833,4.938-4.172,6.236
				c-2.338,1.3-3.638,1.04-3.378,5.06s4.973,4.926,4.973,4.926l-2.798,8.229c0.726,0.021,1.289,0.007,1.696,0.007
				c5.745,0.004,5.918-2.369,6.092-9.819c0.173-7.449,3.302-13.513,14.217-18.884c10.915-5.37,11.427,3.565,11.427,3.565
				s0,1.632,0,7.003s4.011,3.948,4.011,3.948l28.302-15.34c0,0,13.295-7.492,16.586-9.745c3.292-2.252,2.229-3.984,2.75-10.395
				c0.52-6.41,0.508-13.167,12.115-19.057c11.607-5.891,9.869,10.221,9.869,10.221s-0.522,3.985,1.903,5.073
				s3.464,0.644,7.102-6.805c3.639-7.45,2.771-15.246,1.386-18.365c-1.387-3.118-0.693-4.678-0.693-6.41s-1.56-5.197-1.56-5.197
				s-0.866-1.906-1.906-3.638c-1.039-1.732-4.504-2.599-4.504-2.599s-7.797-13.687-10.049-15.939S151.065,36.033,151.065,36.033
				L151.065,36.033z"/>
		</g>
	</g>
</g>
</svg>
