<svg xmlns="http://www.w3.org/2000/svg" viewBox="0 0 327.24 243.12"><defs><style>.cls-1{fill:#7070cc;}.cls-2{fill:#ff9e26;}.cls-3{fill:#f3aa66;}.cls-4{fill:#ef6100;}.cls-5{fill:#ff7e27;}.cls-6{fill:#dd905b;}.cls-7{fill:#e55c00;}</style></defs><title>Asset 3</title><g id="Layer_2" data-name="Layer 2"><g id="INVESTMENT_PROTECTION" data-name="INVESTMENT PROTECTION"><g id="Coin"><ellipse class="cls-1" cx="262.93" cy="75.58" rx="64.31" ry="33.18"/><ellipse class="cls-1" cx="134.18" cy="116.19" rx="68.63" ry="35.41"/><ellipse class="cls-2" cx="262.93" cy="47.02" rx="59.37" ry="34.18"/><path class="cls-3" d="M203.57,46.76h0v.17C203.56,46.88,203.57,46.82,203.57,46.76Z"/><path class="cls-3" d="M322.29,46.75v-.21h0C322.28,46.61,322.29,46.68,322.29,46.75Z"/><path class="cls-4" d="M322.29,47.26c-.24,18.76-26.72,33.93-59.36,33.93s-59.3-15.26-59.37-34.1V63.35c0,18.88,26.58,34.18,59.37,34.18s59.36-15.3,59.36-34.18Z"/><ellipse class="cls-5" cx="262.93" cy="48.37" rx="43.94" ry="23.94"/><path class="cls-4" d="M286.28,57.92l-5.45,3.14-3.17-1.82s-9.77,4.15-12.78,4.63l-9.13-5.32s17.47-3.49,19.25-7.19-7.49-2-9.93-1.41c-5.93,1.37-17.28,6.24-24.06-1.08-5-5.4.78-11,.78-11l-3.25-1.69,5.17-2.85L246.83,35a32.71,32.71,0,0,1,13.74-4.7l8.11,4.46s-22.3,4.25-18.25,8.8c0,0,2.59,2.22,9.86-.61,6.87-1.77,18.65-5.48,25.66,2.55a6.87,6.87,0,0,1,.61,7.22,6.61,6.61,0,0,1-3.31,3.32Z"/><path class="cls-4" d="M262.93,24.43c23.86,0,43.28,10.36,43.92,23.28,0-.23,0-.46,0-.69,0-14-19.68-25.3-43.94-25.3S219,33.05,219,47c0,.23,0,.46,0,.69C219.65,34.79,239.06,24.43,262.93,24.43Z"/><path class="cls-2" d="M207.13,75V58.71a23.49,23.49,0,0,1-3-6.91V68.11A23.6,23.6,0,0,0,207.13,75Z"/><path class="cls-2" d="M213.12,81.93V65.62a37.88,37.88,0,0,1-3-3V79A37.88,37.88,0,0,0,213.12,81.93Z"/><path class="cls-2" d="M219.11,86.38V70.07c-1-.65-2-1.33-3-2V84.35C217.08,85.05,218.07,85.73,219.11,86.38Z"/><path class="cls-2" d="M225.11,89.67V73.36c-1-.49-2-1-3-1.53V88.14C223.08,88.67,224.08,89.18,225.11,89.67Z"/><path class="cls-2" d="M231.1,92.18V75.87c-1-.38-2-.77-3-1.17V91C229.08,91.41,230.08,91.8,231.1,92.18Z"/><path class="cls-2" d="M237.09,94.1V77.79c-1-.28-2-.58-3-.89V93.21C235.08,93.52,236.07,93.82,237.09,94.1Z"/><path class="cls-2" d="M243.08,95.54V79.23c-1-.2-2-.42-3-.66V94.88C241.07,95.12,242.07,95.34,243.08,95.54Z"/><path class="cls-2" d="M249.07,96.56V80.25c-1-.14-2-.29-3-.46V96.1C247.07,96.27,248.06,96.42,249.07,96.56Z"/><path class="cls-2" d="M255.06,97.2V80.89c-1-.07-2-.17-3-.27V96.93C253.06,97,254.06,97.13,255.06,97.2Z"/><path class="cls-2" d="M261.05,97.48V81.17c-1,0-2,0-3-.09V97.39C259.05,97.43,260.05,97.46,261.05,97.48Z"/><path class="cls-2" d="M267,97.42V81.11c-1,0-2,.06-3,.07V97.49C265.06,97.48,266.05,97.46,267,97.42Z"/><path class="cls-2" d="M273,97V80.7c-1,.09-2,.18-3,.25V97.26C271.05,97.19,272.05,97.1,273,97Z"/><path class="cls-2" d="M279,96.23V79.92c-1,.16-2,.3-3,.43V96.66C277,96.53,278,96.39,279,96.23Z"/><path class="cls-2" d="M285,95.05V78.75c-1,.22-2,.44-3,.63V95.69C283,95.5,284,95.28,285,95.05Z"/><path class="cls-2" d="M291,93.44V77.13c-1,.31-2,.59-3,.86V94.3C289,94,290,93.75,291,93.44Z"/><path class="cls-2" d="M297.1,91.27V75c-1,.4-2,.78-3,1.14V92.41C295.13,92.05,296.13,91.67,297.1,91.27Z"/><path class="cls-2" d="M303,88.54V72.23c-1,.51-2,1-3,1.48V90C301,89.54,302,89.05,303,88.54Z"/><path class="cls-2" d="M309,84.89V68.58c-1,.67-2,1.33-3,2v16.3C307,86.21,308,85.56,309,84.89Z"/><path class="cls-2" d="M315,79.78V63.47a40.25,40.25,0,0,1-3,2.8V82.58A40.25,40.25,0,0,0,315,79.78Z"/><path class="cls-2" d="M321,70.54V54.23a24.47,24.47,0,0,1-3,5.6V76.14A24.68,24.68,0,0,0,321,70.54Z"/><ellipse class="cls-2" cx="134.18" cy="90.19" rx="59.37" ry="34.18"/><path class="cls-3" d="M74.82,89.93h0v0Z"/><path class="cls-3" d="M193.54,89.92v-.21h0Z"/><path class="cls-4" d="M193.54,90.44c-.23,18.76-26.71,33.92-59.36,33.92S74.89,109.1,74.82,90.26v16.27c0,18.87,26.58,34.17,59.36,34.17s59.37-15.3,59.37-34.17C193.55,100.6,193.55,92.82,193.54,90.44Z"/><ellipse class="cls-5" cx="134.18" cy="91.54" rx="43.94" ry="23.94"/><path class="cls-6" d="M157.54,101.09l-5.45,3.14-3.18-1.82s-9.76,4.15-12.78,4.63L127,101.72s17.46-3.49,19.25-7.19-7.49-2-9.93-1.41c-5.94,1.37-17.28,6.24-24.06-1.08-5-5.4.78-11,.78-11l-3.25-1.69L115,76.46l3.12,1.72a32.55,32.55,0,0,1,13.74-4.69l8.1,4.45s-22.29,4.25-18.24,8.8c0,0,2.59,2.22,9.86-.61,6.87-1.77,18.64-5.48,25.66,2.55a6.9,6.9,0,0,1,.61,7.22,6.62,6.62,0,0,1-3.31,3.32Z"/><path class="cls-6" d="M134.18,67.6c23.87,0,43.29,10.36,43.93,23.28,0-.23,0-.46,0-.69,0-14-19.67-25.3-43.94-25.3S90.25,76.22,90.25,90.19c0,.23,0,.46,0,.69C90.9,78,110.32,67.6,134.18,67.6Z"/><path class="cls-2" d="M78.39,118.19v-16.3a23,23,0,0,1-3-6.92v16.31A23.08,23.08,0,0,0,78.39,118.19Z"/><path class="cls-2" d="M84.38,125.1V108.79a36.39,36.39,0,0,1-3-3v16.31A36.39,36.39,0,0,0,84.38,125.1Z"/><path class="cls-2" d="M90.37,129.56V113.25c-1-.66-2-1.34-3-2v16.31C88.33,128.22,89.33,128.9,90.37,129.56Z"/><path class="cls-2" d="M96.36,132.84V116.53c-1-.49-2-1-3-1.53v16.31C94.34,131.84,95.34,132.35,96.36,132.84Z"/><path class="cls-2" d="M102.35,135.35V119c-1-.38-2-.77-3-1.17v16.31C100.34,134.58,101.34,135,102.35,135.35Z"/><path class="cls-2" d="M108.34,137.27V121c-1-.28-2-.58-3-.89v16.31C106.34,136.69,107.33,137,108.34,137.27Z"/><path class="cls-2" d="M114.34,138.71V122.4c-1-.2-2-.42-3-.66v16.31C112.33,138.29,113.33,138.51,114.34,138.71Z"/><path class="cls-2" d="M120.33,139.73V123.42c-1-.13-2-.29-3-.46v16.31C118.32,139.44,119.32,139.59,120.33,139.73Z"/><path class="cls-2" d="M126.32,140.37V124.06c-1-.07-2-.16-3-.27V140.1C124.32,140.21,125.31,140.3,126.32,140.37Z"/><path class="cls-2" d="M132.31,140.65V124.34c-1,0-2,0-3-.09v16.31C130.31,140.6,131.31,140.64,132.31,140.65Z"/><path class="cls-2" d="M138.3,140.59V124.28c-1,0-2,.06-3,.07v16.31C136.31,140.65,137.31,140.63,138.3,140.59Z"/><path class="cls-2" d="M144.29,140.18V123.87c-1,.09-2,.18-3,.25v16.31C142.31,140.36,143.3,140.27,144.29,140.18Z"/><path class="cls-2" d="M150.28,139.4V123.09c-1,.16-2,.3-3,.43v16.31C148.3,139.7,149.3,139.56,150.28,139.4Z"/><path class="cls-2" d="M156.27,138.23V121.92c-1,.22-2,.44-3,.63v16.31C154.29,138.67,155.29,138.45,156.27,138.23Z"/><path class="cls-2" d="M162.26,136.61V120.3c-1,.31-2,.59-3,.87v16.31C160.29,137.2,161.28,136.92,162.26,136.61Z"/><path class="cls-2" d="M168.36,134.44V118.13c-1,.39-2,.77-3,1.13v16.32C166.38,135.22,167.38,134.84,168.36,134.44Z"/><path class="cls-2" d="M174.25,131.71v-16.3c-1,.51-2,1-3,1.47v16.31C172.28,132.71,173.28,132.22,174.25,131.71Z"/><path class="cls-2" d="M180.24,128.06V111.75c-1,.68-2,1.33-3,2V130C178.29,129.39,179.28,128.73,180.24,128.06Z"/><path class="cls-2" d="M186.23,123V106.64a40.25,40.25,0,0,1-3,2.8v16.31A40.25,40.25,0,0,0,186.23,123Z"/><path class="cls-2" d="M192.22,113.71V97.4a24.66,24.66,0,0,1-3,5.6v16.31A25.08,25.08,0,0,0,192.22,113.71Z"/><ellipse class="cls-2" cx="141.68" cy="59.87" rx="59.37" ry="34.18"/><path class="cls-3" d="M82.32,59.62h0v0Z"/><path class="cls-3" d="M201,59.61v-.22h0A1.62,1.62,0,0,1,201,59.61Z"/><path class="cls-4" d="M201,60.12c-.23,18.76-26.72,33.93-59.36,33.93S82.39,78.79,82.32,60c0,1.78,0,10.61,0,16.26,0,18.88,26.58,34.18,59.37,34.18S201,95.09,201,76.21Z"/><ellipse class="cls-5" cx="141.68" cy="61.22" rx="43.94" ry="23.94"/><path class="cls-6" d="M165,70.78l-5.45,3.14-3.17-1.82s-9.77,4.14-12.78,4.62l-9.12-5.31s17.46-3.49,19.24-7.2-7.48-2-9.93-1.4c-5.93,1.36-17.28,6.24-24.06-1.09-5-5.39.78-11,.78-11L117.29,49l5.17-2.85,3.12,1.72a32.72,32.72,0,0,1,13.75-4.7l8.1,4.46s-22.3,4.24-18.24,8.8c0,0,2.58,2.21,9.86-.61,6.86-1.78,18.64-5.49,25.65,2.54a6.89,6.89,0,0,1,.61,7.23A6.61,6.61,0,0,1,162,68.91Z"/><path class="cls-7" d="M141.68,37.28c23.86,0,43.28,10.37,43.92,23.29,0-.23,0-.47,0-.7,0-14-19.67-25.29-43.94-25.29S97.74,45.9,97.74,59.87c0,.23,0,.47,0,.7C98.4,47.65,117.82,37.28,141.68,37.28Z"/><path class="cls-2" d="M85.88,87.88V71.57a23.2,23.2,0,0,1-3-6.91V81A23.25,23.25,0,0,0,85.88,87.88Z"/><path class="cls-2" d="M91.88,94.79V78.48a38.06,38.06,0,0,1-3-3V91.83A38.06,38.06,0,0,0,91.88,94.79Z"/><path class="cls-2" d="M97.87,99.24V82.93c-1-.65-2-1.33-3-2V97.21C95.83,97.91,96.83,98.59,97.87,99.24Z"/><path class="cls-2" d="M103.86,102.52V86.22c-1-.49-2-1-3-1.53V101C101.84,101.53,102.83,102,103.86,102.52Z"/><path class="cls-2" d="M109.85,105V88.72c-1-.37-2-.76-3-1.17v16.31C107.84,104.27,108.83,104.66,109.85,105Z"/><path class="cls-2" d="M115.84,107V90.65c-1-.28-2-.58-3-.9v16.31C113.83,106.38,114.83,106.68,115.84,107Z"/><path class="cls-2" d="M121.83,108.4V92.09c-1-.21-2-.43-3-.66v16.31C119.83,108,120.82,108.19,121.83,108.4Z"/><path class="cls-2" d="M127.82,109.42V93.11c-1-.14-2-.29-3-.46V109C125.82,109.13,126.82,109.28,127.82,109.42Z"/><path class="cls-2" d="M133.81,110.06V93.75c-1-.08-2-.17-3-.27v16.31C131.81,109.89,132.81,110,133.81,110.06Z"/><path class="cls-2" d="M139.8,110.34V94c-1,0-2,0-3-.1v16.31C137.8,110.29,138.8,110.32,139.8,110.34Z"/><path class="cls-2" d="M145.79,110.28V94c-1,0-2,.06-3,.07v16.31C143.81,110.34,144.8,110.31,145.79,110.28Z"/><path class="cls-2" d="M151.79,109.86V93.55c-1,.1-2,.18-3,.25v16.31C149.8,110,150.8,110,151.79,109.86Z"/><path class="cls-2" d="M157.78,109.09V92.78c-1,.16-2,.3-3,.43v16.31C155.79,109.39,156.79,109.25,157.78,109.09Z"/><path class="cls-2" d="M163.77,107.91V91.6c-1,.23-2,.44-3,.64v16.31C161.79,108.35,162.78,108.14,163.77,107.91Z"/><path class="cls-2" d="M169.76,106.3V90c-1,.3-2,.59-3,.86v16.31C167.78,106.89,168.78,106.6,169.76,106.3Z"/><path class="cls-2" d="M175.85,104.13V87.81c-1,.4-2,.77-3,1.13v16.33C173.88,104.9,174.88,104.53,175.85,104.13Z"/><path class="cls-2" d="M181.74,101.4V85.09c-1,.51-2,1-3,1.47v16.31C179.78,102.4,180.77,101.91,181.74,101.4Z"/><path class="cls-2" d="M187.73,97.75V81.44c-.95.67-1.95,1.33-3,2V99.7C185.78,99.07,186.78,98.42,187.73,97.75Z"/><path class="cls-2" d="M193.72,92.63V76.32a34.88,34.88,0,0,1-3,2.8V95.43A34.88,34.88,0,0,0,193.72,92.63Z"/><path class="cls-2" d="M199.71,83.4V67.09a25,25,0,0,1-3,5.6V89A25,25,0,0,0,199.71,83.4Z"/><ellipse class="cls-2" cx="121.83" cy="34.18" rx="59.37" ry="34.18"/><path class="cls-3" d="M62.47,33.92h0v0Z"/><path class="cls-3" d="M181.19,33.91V33.7h0Z"/><path class="cls-4" d="M181.19,34.43c-.23,18.76-26.72,33.92-59.36,33.92S62.54,53.09,62.47,34.25c0,1.78,0,10.61,0,16.27,0,18.87,26.58,34.17,59.37,34.17s59.37-15.3,59.37-34.17C181.2,44.59,181.19,36.81,181.19,34.43Z"/><ellipse class="cls-5" cx="121.83" cy="35.53" rx="43.94" ry="23.94"/><path class="cls-4" d="M145.18,45.08l-5.45,3.14-3.17-1.82s-9.77,4.15-12.78,4.63l-9.12-5.32s17.46-3.49,19.24-7.19-7.48-2-9.93-1.41C118,38.48,106.69,43.35,99.91,36c-5-5.4.78-11,.78-11L97.44,23.3l5.17-2.85,3.12,1.72a32.63,32.63,0,0,1,13.75-4.69l8.1,4.45s-22.29,4.25-18.24,8.8c0,0,2.58,2.22,9.86-.61,6.86-1.77,18.64-5.48,25.65,2.55a6.87,6.87,0,0,1,.61,7.22,6.59,6.59,0,0,1-3.3,3.32Z"/><path class="cls-4" d="M121.83,11.59c23.86,0,43.28,10.36,43.92,23.28,0-.23,0-.46,0-.69,0-14-19.67-25.3-43.94-25.3S77.89,20.21,77.89,34.18c0,.23,0,.46,0,.69C78.55,22,98,11.59,121.83,11.59Z"/><path class="cls-2" d="M66,62.18V45.88a23,23,0,0,1-3-6.92V55.27A23.08,23.08,0,0,0,66,62.18Z"/><path class="cls-2" d="M72,69.09V52.78a36.39,36.39,0,0,1-3-3V66.13A36.39,36.39,0,0,0,72,69.09Z"/><path class="cls-2" d="M78,73.55V57.24c-1-.66-2-1.34-3-2V71.51C76,72.21,77,72.89,78,73.55Z"/><path class="cls-2" d="M84,76.83V60.52c-1-.49-2-1-3-1.53V75.3C82,75.83,83,76.34,84,76.83Z"/><path class="cls-2" d="M90,79.34V63c-1-.38-2-.77-3-1.17V78.17C88,78.57,89,79,90,79.34Z"/><path class="cls-2" d="M96,81.26V65c-1-.28-2-.58-3-.89V80.37C94,80.68,95,81,96,81.26Z"/><path class="cls-2" d="M102,82.7V66.39c-1-.2-2-.42-3-.66V82C100,82.28,101,82.5,102,82.7Z"/><path class="cls-2" d="M108,83.72V67.41c-1-.13-2-.29-3-.46V83.26C106,83.43,107,83.58,108,83.72Z"/><path class="cls-2" d="M114,84.36V68.05c-1-.07-2-.16-3-.27V84.09C112,84.2,113,84.29,114,84.36Z"/><path class="cls-2" d="M120,84.64V68.33c-1,0-2,0-3-.09V84.55C118,84.59,119,84.63,120,84.64Z"/><path class="cls-2" d="M126,84.58V68.27c-1,0-2,.06-3,.07V84.65C124,84.64,125,84.62,126,84.58Z"/><path class="cls-2" d="M131.94,84.17V67.86c-1,.09-2,.18-3,.25V84.42C130,84.35,131,84.26,131.94,84.17Z"/><path class="cls-2" d="M137.93,83.39V67.08c-1,.16-2,.3-3,.43V83.82C136,83.69,136.94,83.55,137.93,83.39Z"/><path class="cls-2" d="M143.92,82.22V65.91c-1,.22-2,.44-3,.63V82.85C141.94,82.66,142.94,82.44,143.92,82.22Z"/><path class="cls-2" d="M149.91,80.6V64.29c-1,.31-2,.59-3,.87V81.47C147.93,81.19,148.93,80.91,149.91,80.6Z"/><path class="cls-2" d="M156,78.43V62.12c-1,.39-2,.77-3,1.13V79.57C154,79.21,155,78.83,156,78.43Z"/><path class="cls-2" d="M161.89,75.7V59.4c-1,.51-2,1-3,1.47V77.18C159.93,76.7,160.92,76.21,161.89,75.7Z"/><path class="cls-2" d="M167.88,72.05V55.74c-.95.68-1.95,1.33-3,2V74C165.93,73.38,166.93,72.72,167.88,72.05Z"/><path class="cls-2" d="M173.87,66.94V50.63a40.07,40.07,0,0,1-3,2.8V69.74A40.07,40.07,0,0,0,173.87,66.94Z"/><path class="cls-2" d="M179.86,57.7V41.39a24.61,24.61,0,0,1-3,5.6V63.3A25,25,0,0,0,179.86,57.7Z"/><ellipse class="cls-1" cx="200.46" cy="167.1" rx="64.31" ry="33.18"/><ellipse class="cls-1" cx="71.72" cy="207.71" rx="68.63" ry="35.41"/><ellipse class="cls-2" cx="200.46" cy="138.53" rx="59.37" ry="34.18"/><path class="cls-3" d="M141.1,138.28h0v0Z"/><path class="cls-3" d="M259.82,138.27v-.22h0Z"/><path class="cls-4" d="M259.82,138.78c-.23,18.76-26.72,33.92-59.36,33.92s-59.29-15.26-59.36-34.1v16.27c0,18.87,26.58,34.17,59.36,34.17s59.37-15.3,59.37-34.17C259.83,148.94,259.82,141.16,259.82,138.78Z"/><ellipse class="cls-5" cx="200.46" cy="139.88" rx="43.94" ry="23.94"/><path class="cls-4" d="M223.82,149.43l-5.45,3.15-3.18-1.82s-9.76,4.14-12.78,4.62l-9.12-5.32s17.46-3.49,19.24-7.19-7.48-2-9.92-1.41c-5.94,1.37-17.29,6.25-24.06-1.08-5-5.39.78-11,.78-11l-3.25-1.7,5.17-2.84,3.12,1.71a32.55,32.55,0,0,1,13.74-4.69l8.1,4.46s-22.29,4.24-18.24,8.79c0,0,2.59,2.22,9.86-.6,6.87-1.78,18.64-5.49,25.66,2.54a6.93,6.93,0,0,1,.61,7.23,6.64,6.64,0,0,1-3.31,3.31Z"/><path class="cls-4" d="M200.46,115.94c23.87,0,43.28,10.36,43.92,23.28,0-.23,0-.46,0-.69,0-14-19.67-25.3-43.94-25.3s-43.94,11.33-43.94,25.3c0,.23,0,.46,0,.69C157.18,126.3,176.6,115.94,200.46,115.94Z"/><path class="cls-2" d="M144.67,166.53v-16.3a23.08,23.08,0,0,1-3-6.91v16.3A23,23,0,0,0,144.67,166.53Z"/><path class="cls-2" d="M150.66,173.44V157.13a34.87,34.87,0,0,1-3-3v16.31A34.87,34.87,0,0,0,150.66,173.44Z"/><path class="cls-2" d="M156.65,177.9V161.59c-1-.66-2-1.33-3-2v16.3C154.61,176.56,155.61,177.24,156.65,177.9Z"/><path class="cls-2" d="M162.64,181.18V164.87c-1-.49-2-1-3-1.52v16.31C160.62,180.18,161.62,180.69,162.64,181.18Z"/><path class="cls-2" d="M168.63,183.69V167.38c-1-.37-2-.76-3-1.17v16.31C166.62,182.93,167.61,183.32,168.63,183.69Z"/><path class="cls-2" d="M174.62,185.61V169.3c-1-.28-2-.58-3-.89v16.31C172.61,185,173.61,185.33,174.62,185.61Z"/><path class="cls-2" d="M180.61,187.05V170.74c-1-.2-2-.42-3-.66v16.31C178.61,186.63,179.61,186.85,180.61,187.05Z"/><path class="cls-2" d="M186.6,188.08V171.77c-1-.14-2-.3-3-.46v16.31C184.6,187.78,185.6,187.94,186.6,188.08Z"/><path class="cls-2" d="M192.6,188.72V172.41c-1-.08-2-.17-3-.28v16.31C190.6,188.55,191.59,188.64,192.6,188.72Z"/><path class="cls-2" d="M198.59,189V172.69c-1,0-2-.05-3-.1V188.9C196.59,189,197.58,189,198.59,189Z"/><path class="cls-2" d="M204.58,188.93V172.62c-1,0-2,.07-3,.08V189C202.59,189,203.59,189,204.58,188.93Z"/><path class="cls-2" d="M210.57,188.52V172.21c-1,.1-2,.18-3,.25v16.31C208.59,188.7,209.58,188.62,210.57,188.52Z"/><path class="cls-2" d="M216.56,187.74V171.43c-1,.16-2,.31-3,.44v16.31C214.58,188.05,215.57,187.9,216.56,187.74Z"/><path class="cls-2" d="M222.55,186.57V170.26c-1,.23-2,.44-3,.64v16.31C220.57,187,221.57,186.8,222.55,186.57Z"/><path class="cls-2" d="M228.54,185V168.65c-1,.3-2,.59-3,.86v16.31C226.57,185.55,227.56,185.26,228.54,185Z"/><path class="cls-2" d="M234.64,182.79V166.47c-1,.39-2,.77-3,1.13v16.32C232.66,183.56,233.66,183.18,234.64,182.79Z"/><path class="cls-2" d="M240.52,180.06V163.75c-1,.51-2,1-3,1.47v16.31C238.56,181.06,239.56,180.57,240.52,180.06Z"/><path class="cls-2" d="M246.52,176.4V160.09c-1,.68-2,1.33-3,2v16.31C244.57,177.73,245.56,177.08,246.52,176.4Z"/><path class="cls-2" d="M252.51,171.29V155a38.25,38.25,0,0,1-3,2.8v16.31A38.25,38.25,0,0,0,252.51,171.29Z"/><path class="cls-2" d="M258.5,162.05v-16.3a24.8,24.8,0,0,1-3,5.59v16.31A24.87,24.87,0,0,0,258.5,162.05Z"/><ellipse class="cls-2" cx="71.72" cy="181.7" rx="59.37" ry="34.18"/><path class="cls-3" d="M12.36,181.45h0v0Z"/><path class="cls-3" d="M131.08,181.44v-.22h0A1.55,1.55,0,0,1,131.08,181.44Z"/><path class="cls-4" d="M131.08,182c-.23,18.76-26.72,33.93-59.36,33.93s-59.29-15.27-59.36-34.11c0,1.79,0,10.61,0,16.27,0,18.87,26.58,34.17,59.37,34.17s59.37-15.3,59.37-34.17C131.09,192.11,131.08,184.33,131.08,182Z"/><ellipse class="cls-5" cx="71.72" cy="183.05" rx="43.94" ry="23.94"/><path class="cls-6" d="M95.07,192.61l-5.45,3.14-3.17-1.82s-9.77,4.14-12.78,4.62l-9.12-5.31S82,189.74,83.79,186s-7.48-2-9.93-1.41c-5.93,1.37-17.28,6.25-24.06-1.08-5-5.39.78-11,.78-11l-3.25-1.7L52.5,168l3.12,1.71A32.63,32.63,0,0,1,69.37,165l8.1,4.46s-22.3,4.24-18.24,8.79c0,0,2.58,2.22,9.86-.6,6.86-1.78,18.64-5.49,25.65,2.54a6.89,6.89,0,0,1,.61,7.23,6.58,6.58,0,0,1-3.3,3.31Z"/><path class="cls-6" d="M71.72,159.11c23.86,0,43.28,10.37,43.92,23.28,0-.23,0-.46,0-.69,0-14-19.67-25.3-43.94-25.3s-43.94,11.33-43.94,25.3c0,.23,0,.46,0,.69C28.44,169.48,47.86,159.11,71.72,159.11Z"/><path class="cls-2" d="M15.92,209.7V193.4a23.31,23.31,0,0,1-3-6.91v16.3A23.2,23.2,0,0,0,15.92,209.7Z"/><path class="cls-2" d="M21.92,216.61V200.3a34.87,34.87,0,0,1-3-3v16.31A34.87,34.87,0,0,0,21.92,216.61Z"/><path class="cls-2" d="M27.91,221.07V204.76c-1-.66-2-1.33-3-2V219C25.87,219.73,26.87,220.41,27.91,221.07Z"/><path class="cls-2" d="M33.9,224.35V208c-1-.49-2-1-3-1.52v16.31C31.88,223.35,32.87,223.86,33.9,224.35Z"/><path class="cls-2" d="M39.89,226.86V210.55c-1-.37-2-.76-3-1.17v16.31C37.88,226.1,38.87,226.49,39.89,226.86Z"/><path class="cls-2" d="M45.88,228.79V212.48c-1-.29-2-.59-3-.9v16.31C43.87,228.2,44.87,228.5,45.88,228.79Z"/><path class="cls-2" d="M51.87,230.23V213.92c-1-.21-2-.43-3-.67v16.31C49.87,229.8,50.86,230,51.87,230.23Z"/><path class="cls-2" d="M57.86,231.25V214.94c-1-.14-2-.3-3-.46v16.31C55.86,231,56.86,231.11,57.86,231.25Z"/><path class="cls-2" d="M63.85,231.89V215.58c-1-.08-2-.17-3-.28v16.31C61.85,231.72,62.85,231.81,63.85,231.89Z"/><path class="cls-2" d="M69.84,232.17V215.86c-1,0-2-.05-3-.1v16.31C67.85,232.12,68.84,232.15,69.84,232.17Z"/><path class="cls-2" d="M75.83,232.1V215.79c-1,0-2,.07-3,.08v16.31C73.85,232.17,74.85,232.14,75.83,232.1Z"/><path class="cls-2" d="M81.83,231.69V215.38c-1,.1-2,.18-3,.25v16.31C79.84,231.87,80.84,231.79,81.83,231.69Z"/><path class="cls-2" d="M87.82,230.91V214.6c-1,.16-2,.31-3,.44v16.31C85.83,231.22,86.83,231.07,87.82,230.91Z"/><path class="cls-2" d="M93.81,229.74V213.43c-1,.23-2,.44-3,.64v16.31C91.83,230.18,92.82,230,93.81,229.74Z"/><path class="cls-2" d="M99.8,228.13V211.82c-1,.3-2,.59-3,.86V229C97.82,228.72,98.82,228.43,99.8,228.13Z"/><path class="cls-2" d="M105.89,226V209.64c-1,.39-2,.77-3,1.13v16.32C103.92,226.73,104.92,226.35,105.89,226Z"/><path class="cls-2" d="M111.78,223.23V206.92c-1,.51-2,1-3,1.47V224.7C109.82,224.23,110.81,223.74,111.78,223.23Z"/><path class="cls-2" d="M117.77,219.57V203.26c-1,.68-2,1.33-3,2v16.31C115.82,220.9,116.82,220.25,117.77,219.57Z"/><path class="cls-2" d="M123.76,214.46V198.15a36.54,36.54,0,0,1-3,2.8v16.31A36.54,36.54,0,0,0,123.76,214.46Z"/><path class="cls-2" d="M129.75,205.22v-16.3a24.76,24.76,0,0,1-3,5.59v16.31A24.61,24.61,0,0,0,129.75,205.22Z"/><ellipse class="cls-2" cx="79.21" cy="151.39" rx="59.37" ry="34.18"/><path class="cls-3" d="M19.85,151.13h0v0Z"/><path class="cls-3" d="M138.57,151.12v-.21h0Z"/><path class="cls-4" d="M138.57,151.63c-.23,18.76-26.71,33.93-59.36,33.93s-59.29-15.26-59.36-34.1v16.26c0,18.88,26.58,34.18,59.36,34.18s59.37-15.3,59.37-34.18C138.58,161.8,138.58,154,138.57,151.63Z"/><ellipse class="cls-5" cx="79.21" cy="152.74" rx="43.94" ry="23.94"/><path class="cls-6" d="M102.57,162.29l-5.45,3.14-3.18-1.82s-9.76,4.15-12.78,4.63L72,162.92s17.46-3.49,19.25-7.19-7.49-2-9.93-1.41c-5.94,1.37-17.28,6.24-24.06-1.08-5-5.4.78-11,.78-11l-3.25-1.69L60,137.66l3.12,1.72a32.55,32.55,0,0,1,13.74-4.69l8.1,4.45s-22.29,4.25-18.24,8.8c0,0,2.59,2.22,9.86-.61,6.87-1.77,18.64-5.48,25.66,2.55a6.9,6.9,0,0,1,.61,7.22,6.62,6.62,0,0,1-3.31,3.32Z"/><path class="cls-7" d="M79.21,128.8c23.87,0,43.29,10.36,43.93,23.28,0-.23,0-.46,0-.69,0-14-19.67-25.3-43.94-25.3s-43.93,11.33-43.93,25.3c0,.23,0,.46,0,.69C35.93,139.16,55.35,128.8,79.21,128.8Z"/><path class="cls-2" d="M23.42,179.39V163.08a23,23,0,0,1-3-6.91v16.31A23.08,23.08,0,0,0,23.42,179.39Z"/><path class="cls-2" d="M29.41,186.3V170a36.39,36.39,0,0,1-3-3v16.31A36.39,36.39,0,0,0,29.41,186.3Z"/><path class="cls-2" d="M35.4,190.76V174.45c-1-.66-2-1.34-3-2v16.31C33.36,189.42,34.36,190.1,35.4,190.76Z"/><path class="cls-2" d="M41.39,194V177.73c-1-.49-2-1-3-1.53v16.31C39.37,193,40.37,193.55,41.39,194Z"/><path class="cls-2" d="M47.38,196.55V180.24c-1-.38-2-.77-3-1.17v16.31C45.37,195.78,46.37,196.17,47.38,196.55Z"/><path class="cls-2" d="M53.37,198.47V182.16c-1-.28-2-.58-3-.89v16.31C51.37,197.89,52.36,198.19,53.37,198.47Z"/><path class="cls-2" d="M59.37,199.91V183.6c-1-.2-2-.42-3-.66v16.31C57.36,199.49,58.36,199.71,59.37,199.91Z"/><path class="cls-2" d="M65.36,200.93V184.62c-1-.14-2-.29-3-.46v16.31C63.35,200.64,64.35,200.79,65.36,200.93Z"/><path class="cls-2" d="M71.35,201.57V185.26c-1-.07-2-.17-3-.27V201.3C69.35,201.4,70.34,201.5,71.35,201.57Z"/><path class="cls-2" d="M77.34,201.85V185.54c-1,0-2,0-3-.09v16.31C75.34,201.8,76.34,201.83,77.34,201.85Z"/><path class="cls-2" d="M83.33,201.79V185.48c-1,0-2,.06-3,.07v16.31C81.34,201.85,82.34,201.83,83.33,201.79Z"/><path class="cls-2" d="M89.32,201.38V185.07c-1,.09-2,.18-3,.25v16.31C87.34,201.56,88.33,201.47,89.32,201.38Z"/><path class="cls-2" d="M95.31,200.6V184.29c-1,.16-2,.3-3,.43V201C93.33,200.9,94.33,200.76,95.31,200.6Z"/><path class="cls-2" d="M101.3,199.43V183.12c-1,.22-2,.44-3,.63v16.31C99.32,199.87,100.32,199.65,101.3,199.43Z"/><path class="cls-2" d="M107.29,197.81V181.5c-1,.31-2,.59-3,.87v16.3C105.32,198.4,106.31,198.12,107.29,197.81Z"/><path class="cls-2" d="M113.39,195.64V179.32c-1,.4-2,.78-3,1.14v16.32C111.42,196.42,112.41,196,113.39,195.64Z"/><path class="cls-2" d="M119.28,192.91v-16.3c-1,.5-2,1-3,1.47v16.31C117.31,193.91,118.31,193.42,119.28,192.91Z"/><path class="cls-2" d="M125.27,189.26V173c-1,.68-2,1.33-3,2v16.31C123.32,190.59,124.31,189.93,125.27,189.26Z"/><path class="cls-2" d="M131.26,184.15V167.84a40.25,40.25,0,0,1-3,2.8V187A40.25,40.25,0,0,0,131.26,184.15Z"/><path class="cls-2" d="M137.25,174.91V158.6a24.66,24.66,0,0,1-3,5.6v16.31A25.08,25.08,0,0,0,137.25,174.91Z"/><ellipse class="cls-2" cx="59.37" cy="125.69" rx="59.37" ry="34.18"/><path class="cls-3" d="M0,125.44H0v.17A1,1,0,0,1,0,125.44Z"/><path class="cls-3" d="M118.73,125.43v-.22h0A1.7,1.7,0,0,0,118.73,125.43Z"/><path class="cls-4" d="M118.73,125.94c-.24,18.76-26.72,33.93-59.36,33.93S.07,144.6,0,125.76V142C0,160.9,26.58,176.2,59.37,176.2s59.36-15.3,59.36-34.17Z"/><ellipse class="cls-5" cx="59.37" cy="127.04" rx="43.94" ry="23.94"/><path class="cls-4" d="M82.72,136.6l-5.45,3.14-3.17-1.82s-9.77,4.14-12.78,4.62l-9.13-5.31s17.46-3.5,19.25-7.2-7.49-2-9.93-1.41c-5.93,1.37-17.28,6.25-24.06-1.08-5-5.39.78-11,.78-11L35,114.81,40.15,112l3.12,1.71A32.62,32.62,0,0,1,57,109l8.1,4.46s-22.29,4.24-18.24,8.79c0,0,2.59,2.22,9.86-.6,6.87-1.78,18.64-5.49,25.66,2.54a6.91,6.91,0,0,1,.61,7.23,6.6,6.6,0,0,1-3.31,3.31Z"/><path class="cls-4" d="M59.37,103.1c23.86,0,43.28,10.37,43.92,23.28,0-.23,0-.46,0-.69,0-14-19.67-25.3-43.93-25.3s-43.94,11.33-43.94,25.3c0,.23,0,.46,0,.69C16.08,113.47,35.5,103.1,59.37,103.1Z"/><path class="cls-2" d="M3.57,153.69v-16.3a23.34,23.34,0,0,1-3-6.91v16.3A23,23,0,0,0,3.57,153.69Z"/><path class="cls-2" d="M9.56,160.6V144.29a34.87,34.87,0,0,1-3-3v16.31A34.87,34.87,0,0,0,9.56,160.6Z"/><path class="cls-2" d="M15.55,165.06V148.75c-1-.66-2-1.33-3-2V163C13.52,163.73,14.51,164.4,15.55,165.06Z"/><path class="cls-2" d="M21.54,168.34V152c-1-.49-2-1-3-1.52v16.31C19.52,167.34,20.52,167.85,21.54,168.34Z"/><path class="cls-2" d="M27.53,170.85V154.54c-1-.37-2-.76-3-1.17v16.31C25.52,170.09,26.52,170.48,27.53,170.85Z"/><path class="cls-2" d="M33.53,172.78V156.47c-1-.29-2-.59-3-.9v16.31C31.52,172.19,32.51,172.49,33.53,172.78Z"/><path class="cls-2" d="M39.52,174.22V157.91c-1-.21-2-.43-3-.67v16.31C37.51,173.79,38.51,174,39.52,174.22Z"/><path class="cls-2" d="M45.51,175.24V158.93c-1-.14-2-.3-3-.46v16.31C43.51,174.94,44.5,175.1,45.51,175.24Z"/><path class="cls-2" d="M51.5,175.88V159.57c-1-.08-2-.17-3-.28V175.6C49.5,175.71,50.49,175.8,51.5,175.88Z"/><path class="cls-2" d="M57.49,176.16V159.85c-1,0-2,0-3-.1v16.31C55.49,176.11,56.49,176.14,57.49,176.16Z"/><path class="cls-2" d="M63.48,176.09V159.78c-1,0-2,.07-3,.08v16.31C61.5,176.16,62.49,176.13,63.48,176.09Z"/><path class="cls-2" d="M69.47,175.68V159.37c-1,.1-2,.18-3,.25v16.31C67.49,175.86,68.48,175.78,69.47,175.68Z"/><path class="cls-2" d="M75.46,174.9V158.59c-1,.16-2,.31-3,.44v16.31C73.48,175.21,74.48,175.06,75.46,174.9Z"/><path class="cls-2" d="M81.45,173.73V157.42c-1,.23-2,.44-3,.64v16.31C79.47,174.17,80.47,174,81.45,173.73Z"/><path class="cls-2" d="M87.44,172.12V155.81c-1,.3-2,.59-3,.86V173C85.47,172.71,86.47,172.42,87.44,172.12Z"/><path class="cls-2" d="M93.54,170V153.63c-1,.39-2,.77-3,1.13v16.32C91.57,170.72,92.56,170.34,93.54,170Z"/><path class="cls-2" d="M99.43,167.22V150.91c-1,.51-2,1-3,1.47v16.31C97.46,168.22,98.46,167.73,99.43,167.22Z"/><path class="cls-2" d="M105.42,163.56V147.25c-1,.68-2,1.33-3,2v16.31C103.47,164.89,104.46,164.24,105.42,163.56Z"/><path class="cls-2" d="M111.41,158.45V142.14a38.25,38.25,0,0,1-3,2.8v16.31A38.25,38.25,0,0,0,111.41,158.45Z"/><path class="cls-2" d="M117.4,149.21v-16.3a24.8,24.8,0,0,1-3,5.59v16.31A24.66,24.66,0,0,0,117.4,149.21Z"/></g></g></g></svg>