<svg xmlns="http://www.w3.org/2000/svg" xmlns:xlink="http://www.w3.org/1999/xlink" viewBox="0 0 360.85 488.3"><defs><style>.cls-1,.cls-2,.cls-22{fill:#fff;}.cls-10,.cls-13,.cls-14,.cls-15,.cls-16,.cls-17,.cls-18,.cls-19,.cls-2,.cls-21,.cls-22,.cls-27,.cls-28,.cls-4,.cls-5,.cls-6,.cls-7,.cls-8,.cls-9{fill-rule:evenodd;}.cls-3{mask:url(#mask);}.cls-4{fill:#f5f6f8;fill-opacity:0.05;}.cls-5{fill:#ffb500;}.cls-6{fill:url(#linear-gradient);}.cls-7{fill:#fff2ca;}.cls-8{fill:url(#linear-gradient-2);}.cls-9{fill:url(#linear-gradient-3);}.cls-10{fill:url(#linear-gradient-4);}.cls-11{mask:url(#mask-3);}.cls-12,.cls-20,.cls-23,.cls-24,.cls-25,.cls-26{fill:none;stroke-linecap:round;}.cls-12{stroke:#ffd047;stroke-width:6.6px;}.cls-12,.cls-20,.cls-25,.cls-26{stroke-linejoin:round;}.cls-13{fill:url(#linear-gradient-5);}.cls-14{fill:url(#linear-gradient-6);}.cls-15{fill:url(#linear-gradient-7);}.cls-16,.cls-17{fill:#bf98ff;}.cls-16{opacity:0.25;}.cls-16,.cls-19,.cls-22{isolation:isolate;}.cls-18{fill:url(#linear-gradient-8);}.cls-19{opacity:0.35;fill:url(#linear-gradient-9);}.cls-20,.cls-23,.cls-25{stroke:#fff;}.cls-20{stroke-width:4.32px;}.cls-21{fill:#6342ff;}.cls-22{opacity:0.73;}.cls-23,.cls-24,.cls-25{stroke-width:3.96px;}.cls-24{stroke:#6142ff;}.cls-26{stroke:#6d44ff;stroke-width:4.62px;}.cls-27{fill:url(#linear-gradient-10);}.cls-28{fill:url(#linear-gradient-11);}</style><mask id="mask" x="-872.15" y="-202" width="1440" height="1027" maskUnits="userSpaceOnUse"><g id="mask-2"><rect id="path-1" class="cls-1" x="-872.15" y="-202" width="1440" height="1027"/></g></mask><linearGradient id="linear-gradient" x1="-1195.4" y1="691.21" x2="-1195.63" y2="690.5" gradientTransform="translate(-52301.64 37216.57) rotate(180) scale(44.02 53.44)" gradientUnits="userSpaceOnUse"><stop offset="0" stop-color="#ffe764"/><stop offset="1" stop-color="#ffad1b"/></linearGradient><linearGradient id="linear-gradient-2" x1="-1195.4" y1="691.21" x2="-1195.63" y2="690.5" gradientTransform="translate(-52310.78 37084.96) rotate(180) scale(44.02 53.44)" xlink:href="#linear-gradient"/><linearGradient id="linear-gradient-3" x1="-1195.4" y1="691.21" x2="-1195.63" y2="690.5" gradientTransform="translate(-52430.39 36974.17) rotate(180) scale(44.02 53.44)" xlink:href="#linear-gradient"/><linearGradient id="linear-gradient-4" x1="-1195.4" y1="691.21" x2="-1195.63" y2="690.5" gradientTransform="translate(-52605.57 37159.76) rotate(180) scale(44.02 53.44)" xlink:href="#linear-gradient"/><mask id="mask-3" x="3.99" y="222.72" width="34.04" height="37.44" maskUnits="userSpaceOnUse"><g id="mask-18"><path id="path-17" class="cls-2" d="M22.93,259a25.85,25.85,0,0,0,14.48-24.5l0-1.11a11.24,11.24,0,0,0-11.78-10.68,11,11,0,0,0-4.37,1.12A25.79,25.79,0,0,0,6.72,248.33l0,1.15A11.25,11.25,0,0,0,22.93,259Z"/></g></mask><linearGradient id="linear-gradient-5" x1="-1186.41" y1="690.96" x2="-1186.46" y2="688.38" gradientTransform="matrix(167.3, 0, 0, -415.45, 198687.59, 286600.34)" gradientUnits="userSpaceOnUse"><stop offset="0" stop-color="#022eff"/><stop offset="1" stop-color="#b253ff"/></linearGradient><linearGradient id="linear-gradient-6" x1="-1186.24" y1="690.97" x2="-1186.36" y2="688.82" gradientTransform="matrix(158.33, 0, 0, -405.87, 188022.05, 279999.59)" xlink:href="#linear-gradient-5"/><linearGradient id="linear-gradient-7" x1="-1185.96" y1="688.88" x2="-1186.11" y2="689.37" gradientTransform="matrix(139.24, 0, 0, -371.95, 165338.66, 256629.7)" gradientUnits="userSpaceOnUse"><stop offset="0" stop-color="#fff"/><stop offset="1" stop-color="#e2f9ff"/></linearGradient><linearGradient id="linear-gradient-8" x1="-1201.02" y1="691.26" x2="-1201.83" y2="689.27" gradientTransform="translate(-25895.29 26357.84) rotate(170) scale(25.21 30.48)" gradientUnits="userSpaceOnUse"><stop offset="0" stop-color="#b54bff"/><stop offset="1" stop-color="#18b9f8"/></linearGradient><linearGradient id="linear-gradient-9" x1="-1206.25" y1="691.88" x2="-1207.13" y2="689.89" gradientTransform="matrix(-17.7, 3.12, -3.65, -20.72, -18547.31, 18444.73)" xlink:href="#linear-gradient-8"/><linearGradient id="linear-gradient-10" x1="-1191.8" y1="690.28" x2="-1192.04" y2="689.57" gradientTransform="translate(-104841.95 74054.48) rotate(180) scale(88.04 106.89)" xlink:href="#linear-gradient"/><linearGradient id="linear-gradient-11" x1="-1195.4" y1="691.21" x2="-1195.63" y2="690.5" gradientTransform="translate(-52390.99 37159.76) rotate(180) scale(44.02 53.44)" xlink:href="#linear-gradient"/></defs><title>Asset 1</title><g id="Layer_2" data-name="Layer 2"><g id="Layer_1-2" data-name="Layer 1"><g id="Artboard"><g id="Group-30"><g class="cls-3"><g id="Group-29"><polygon id="Path-19-Copy-3" class="cls-4" points="218.91 140 120.85 83.1 259.81 0 360.85 59.57 218.91 140"/></g></g><g class="cls-3"><g id="Group-28"><g id="Group-15"><path id="Path-110-Copy-17" class="cls-5" d="M330,319.59a37,37,0,0,1-20.73-35l.07-1.47a16.1,16.1,0,0,1,16.88-15.3,15.91,15.91,0,0,1,6.24,1.59,36.88,36.88,0,0,1,20.74,35l-.08,1.54A16.1,16.1,0,0,1,330,319.59Z"/><path id="Path-110-Copy-14" class="cls-6" d="M324.71,323.11a36.94,36.94,0,0,1-20.73-35l.07-1.46a16.11,16.11,0,0,1,23.13-13.71,36.85,36.85,0,0,1,20.73,35l-.07,1.54a16.09,16.09,0,0,1-23.13,13.68Z"/><path id="Path-136-Copy" class="cls-7" d="M320.27,283.91v8.51a1.18,1.18,0,0,1-.82,1.12l-.72.22a1.18,1.18,0,0,0-.82,1.12v2.24a.93.93,0,0,0,.93.93,1.09,1.09,0,0,0,.25,0,.93.93,0,0,1,1.15.64,1.07,1.07,0,0,1,0,.25v6a1.18,1.18,0,0,0,.59,1l11.83,6.83a1.17,1.17,0,0,0,1.6-.43,1.21,1.21,0,0,0,.16-.58V309a1.17,1.17,0,0,0-.59-1L325,302.82a1.18,1.18,0,0,1-.58-1v-17a1.16,1.16,0,0,0-.65-1.05l-1.82-.9a1.18,1.18,0,0,0-1.57.54A1.32,1.32,0,0,0,320.27,283.91Z"/></g><g id="Group-16"><path id="Path-110-Copy-18" class="cls-5" d="M320.49,187.63a36.94,36.94,0,0,1-20.73-35l.07-1.47A16.11,16.11,0,0,1,323,137.43a36.89,36.89,0,0,1,20.73,35l-.07,1.53a16.11,16.11,0,0,1-23.13,13.69Z"/><path id="Path-110-Copy-13" class="cls-8" d="M315.57,191.51a36.93,36.93,0,0,1-20.73-35l.07-1.47A16.1,16.1,0,0,1,318,141.31a36.88,36.88,0,0,1,20.74,35l-.08,1.53a16.1,16.1,0,0,1-23.12,13.69Z"/><g id="Group-13"><path id="Path-133" class="cls-7" d="M308.61,160.2l5.77-9.42a1.62,1.62,0,0,1,2.9.28L324,168.87A1.62,1.62,0,0,1,323,171l-.07,0-5.48,1.77a1.61,1.61,0,0,1-1.83-.62l-7-10.17A1.63,1.63,0,0,1,308.61,160.2Z"/><path id="Path-134-Copy" class="cls-7" d="M311.87,170.28l3.1,4.52a1.63,1.63,0,0,0,1.88.62l3.27-1.17a1.52,1.52,0,0,1,1.94.92,1.54,1.54,0,0,1-.19,1.38L318,182.14a1.61,1.61,0,0,1-2.25.41,1.55,1.55,0,0,1-.58-.71l-4.52-10.9a.7.7,0,0,1,1.22-.66Z"/></g></g><g id="Group-16-Copy-2"><path class="cls-5" d="M200.89,76.84a36.93,36.93,0,0,1-20.73-35l.07-1.47a16.1,16.1,0,0,1,23.12-13.7,36.88,36.88,0,0,1,20.74,35L224,63.16a16.08,16.08,0,0,1-23.12,13.68Z"/><path class="cls-9" d="M196,80.72a36.94,36.94,0,0,1-20.73-35l.07-1.47a16.11,16.11,0,0,1,23.13-13.7,36.87,36.87,0,0,1,20.73,35L219.09,67A16.09,16.09,0,0,1,196,80.72Z"/><g id="Group-54"><path class="cls-7" d="M192.83,38.58l2.83,1.4v3.2l1.86,1.13v-3.5l3.3,1.91v2.91l.12,0a6,6,0,0,1,3.89,5.62h0v.85a6.33,6.33,0,0,1-2.72,5.2h0l.22.18a7.26,7.26,0,0,1,2.5,5.48h0v3.41a3.69,3.69,0,0,1-.48,1.84,3.79,3.79,0,0,1-5.16,1.48h0v2.46l-2.53-1.42V68.15l-2-1.22v2.8L192,68.26V65.4l-1.79-.88V60.65L192,61.7V43.9l-1.79-.72V40l2.61,1.28Zm2.91,18.73v6.28l2.45,1.64a1.73,1.73,0,0,0,2.4-.47,1.75,1.75,0,0,0,.29-1,5.85,5.85,0,0,0-2.74-5Zm0-10.54V52l2.8,1.46a1.6,1.6,0,0,0,2.16-.68,1.59,1.59,0,0,0,.18-.74,4.31,4.31,0,0,0-2.34-3.84Z"/></g></g><g id="Group-16-Copy"><path class="cls-5" d="M25.7,262.43A36.94,36.94,0,0,1,5,227.4L5,225.93a16.13,16.13,0,0,1,23.13-13.71,36.9,36.9,0,0,1,20.73,35l-.07,1.53A16.11,16.11,0,0,1,25.7,262.43Z"/><path class="cls-10" d="M20.78,266.31A37,37,0,0,1,0,231.28l.08-1.47a16.1,16.1,0,0,1,23.12-13.7,36.87,36.87,0,0,1,20.74,35l-.08,1.53a16.1,16.1,0,0,1-23.12,13.69Z"/><g id="Group-18"><g id="Path-110-Copy-19"><path class="cls-7" d="M21.21,259a25.84,25.84,0,0,1-14.49-24.5l0-1.11a11.25,11.25,0,0,1,11.79-10.68,11.13,11.13,0,0,1,4.37,1.12,25.82,25.82,0,0,1,14.49,24.47l-.06,1.15a11.22,11.22,0,0,1-11.77,10.67A11,11,0,0,1,21.21,259Z"/></g><g class="cls-11"><polyline id="Path-136" class="cls-12" points="7.29 241.81 12.69 244.39 12.69 231.22 20.31 241.81 29.73 236.46 29.73 252.88 34.73 255.22"/></g></g></g><g id="Group"><path id="Path-129-Copy" class="cls-13" d="M153.79,76.76l100,49.24a48,48,0,0,1,26.78,42.8l1.6,298.05a16,16,0,0,1-8.16,14q-9.44,5.31-13.55,7.33-5.26,2.6-107.64-72.49A48,48,0,0,1,133.26,380L114.83,79.56h0l4.51-2.36A38,38,0,0,1,153.79,76.76Z"/><path id="Path-129" class="cls-14" d="M131.8,81.92l109.33,54.53a48,48,0,0,1,26.58,43V471.21A15,15,0,0,1,246,484.64L136,429.77a48,48,0,0,1-26.58-43.08l.73-291.38A15,15,0,0,1,131.8,81.92Z"/><path id="Path-129-Copy-2" class="cls-15" d="M138.15,98.67l11.39,5.68A20.38,20.38,0,0,1,159.7,116a20,20,0,0,0,10.2,11.52l27.31,13.27a22.42,22.42,0,0,0,16.83,1.1,20.76,20.76,0,0,1,16.6,1.53l9.62,5.31a34,34,0,0,1,17.59,29.8V456a13.21,13.21,0,0,1-19.09,11.82L142,419.6a42.24,42.24,0,0,1-23.39-37.9l.64-271.37a13.07,13.07,0,0,1,18.9-11.66Z"/><path id="Path-77-Copy-8" class="cls-16" d="M191.87,238.17l-72.73-38h0l-.59,41.52,71.91,36.91a3.7,3.7,0,0,0,5.39-3.29V244.73A7.41,7.41,0,0,0,191.87,238.17Z"/><path class="cls-16" d="M191.87,167.61l-72.73-38h0l-.59,41.51,71.91,36.91a3.7,3.7,0,0,0,5.39-3.29V174.16A7.4,7.4,0,0,0,191.87,167.61Z"/></g><g id="Group-3"><path id="Path-110-Copy-9" class="cls-16" d="M257.85,456l-55.12-27.71a24,24,0,0,1-13.22-21.44V338.65a11,11,0,0,1,15.93-9.83l39.16,19.61a24,24,0,0,1,13.25,21.46V456Z"/><path id="Path-110-Copy-8" class="cls-17" d="M287,453l-91.38-46.28a24,24,0,0,1-13.15-21.41V317.56a11,11,0,0,1,16-9.82l91.36,46.17A24,24,0,0,1,303,375.33v67.81A11,11,0,0,1,287,453Z"/><g id="Group-29-Copy-4"><path id="Path-77-Copy-15" class="cls-18" d="M279.93,358.14A10.37,10.37,0,0,0,266.84,368l0,2.66a16.84,16.84,0,0,0,12.56,16.57,10.45,10.45,0,0,0,12.75-7.45,10.94,10.94,0,0,0,.34-2.41l.05-2.43A17,17,0,0,0,279.93,358.14Z"/><path id="Path-77-Copy-16" class="cls-19" d="M290.07,354.1a7.56,7.56,0,0,0-9.19,5.47,7.32,7.32,0,0,0-.24,1.68l0,1.3a11.75,11.75,0,0,0,8.91,11.67,7.61,7.61,0,0,0,9.2-5.55,7.8,7.8,0,0,0,.22-1.6l0-1.14A11.82,11.82,0,0,0,290.07,354.1Z"/><polyline id="Path-88" class="cls-20" points="275.25 372.77 278.09 376.13 284.01 371.78"/></g><g id="Group-30-Copy-2"><path id="Path-77-Copy-10" class="cls-2" d="M267.5,396l-8.59-4.42a2.09,2.09,0,0,0-2.8.9,2,2,0,0,0-.23.92l-.2,17.59a4.15,4.15,0,0,0,2.31,3.77l8.82,4.35a1.94,1.94,0,0,0,2.59-.88,2,2,0,0,0,.2-.86V399.4A3.89,3.89,0,0,0,267.5,396Z"/><path id="Path-77-Copy-11" class="cls-2" d="M242.52,372l-8.58-4.42a2.08,2.08,0,0,0-2.79.9,2,2,0,0,0-.23.93l-.23,29.78a4.15,4.15,0,0,0,2.32,3.75l8.82,4.36a1.94,1.94,0,0,0,2.8-1.74V375.42A3.87,3.87,0,0,0,242.52,372Z"/><path id="Path-77-Copy-12" class="cls-21" d="M217.55,342.32,209,337.91a2.08,2.08,0,0,0-2.8.9,2,2,0,0,0-.23.94l-.24,46a4.15,4.15,0,0,0,2.31,3.75l8.83,4.36a2,2,0,0,0,2.6-.88,2,2,0,0,0,.2-.86V345.77A3.89,3.89,0,0,0,217.55,342.32Z"/></g></g><g id="Group-8-Copy-3"><path id="Path-77-Copy-2" class="cls-17" d="M183.19,150.24,50.58,81.6a3.69,3.69,0,0,0-5.4,3.28v31.43a7.4,7.4,0,0,0,4,6.58l132.6,67.81a3.69,3.69,0,0,0,5-1.61,3.63,3.63,0,0,0,.41-1.68v-30.6A7.39,7.39,0,0,0,183.19,150.24Z"/><path id="Path-146" class="cls-2" d="M164.19,167.52l9.15,4.72a2,2,0,0,0,2.69-.87,2,2,0,0,0,.06-1.69l-4.57-10.78a2,2,0,0,0-3.44-.42l-4.57,6.06a2,2,0,0,0,.39,2.8A1.41,1.41,0,0,0,164.19,167.52Z"/><path id="Path-77-Copy-3" class="cls-22" d="M98.2,106.47,50.59,81.62a3.71,3.71,0,0,0-5,1.57,3.79,3.79,0,0,0-.42,1.71v31.41a7.4,7.4,0,0,0,4,6.58l47.48,24.28a4,4,0,0,0,5.33-1.72,4,4,0,0,0,.43-1.8V113.49A7.93,7.93,0,0,0,98.2,106.47Z"/><g id="Group-4"><line id="Path-78" class="cls-23" x1="147.12" y1="148.73" x2="123.22" y2="136.31"/><line id="Path-78-Copy" class="cls-24" x1="147.12" y1="158.28" x2="135.76" y2="152.38"/></g><path id="Path-79" class="cls-25" d="M92.7,127.19q-5.58-10.26-13.73-8c-8.16,2.27-13.31-1.39-14.33-11.66q-1-10.28-9.42-10.65"/><path id="Path-79-Copy" class="cls-26" d="M64.64,107.54q-1-10.28-9.42-10.65"/></g><g id="Group-8-Copy-4"><path class="cls-17" d="M183.19,220.81,50.58,152.16a3.69,3.69,0,0,0-5.4,3.28v31.43a7.41,7.41,0,0,0,4,6.59l132.6,67.81a3.7,3.7,0,0,0,5.38-3.29V227.37A7.38,7.38,0,0,0,183.19,220.81Z"/><path id="Path-146-Copy" class="cls-2" d="M164.19,238.09l9.15,4.71a2,2,0,0,0,2.75-2.56l-4.57-10.77a2,2,0,0,0-2.62-1.06,2,2,0,0,0-.82.63l-4.57,6.06a2,2,0,0,0,.39,2.81A2,2,0,0,0,164.19,238.09Z"/><path class="cls-22" d="M98.2,177,50.59,152.19a3.7,3.7,0,0,0-5.41,3.28v31.4a7.41,7.41,0,0,0,4,6.59l47.48,24.28a4,4,0,0,0,5.76-3.53V184.06A7.92,7.92,0,0,0,98.2,177Z"/><line class="cls-23" x1="147.12" y1="219.29" x2="123.22" y2="206.87"/><line class="cls-24" x1="147.12" y1="228.85" x2="135.76" y2="222.95"/><path class="cls-25" d="M92.7,197.75q-5.58-10.26-13.73-8c-8.16,2.27-13.31-1.38-14.33-11.66q-1-10.28-9.42-10.64"/><path class="cls-26" d="M64.64,178.1q-1-10.28-9.42-10.64"/></g><g id="Group-25"><path id="Path-110-Copy-11" class="cls-16" d="M127.76,363.65l-26.19-8.12h0l5-92.55,30.94,14.73a57.83,57.83,0,0,1,32.71,57.66,32.85,32.85,0,0,1-42.44,28.28Z"/><g id="Group-11"><g id="Group-10"><path id="Path-110-Copy-12" class="cls-5" d="M103.92,362.08A73.87,73.87,0,0,1,62.45,292l.14-2.94a32.23,32.23,0,0,1,46.25-27.41,73.75,73.75,0,0,1,41.47,70l-.15,3.07a32.19,32.19,0,0,1-46.24,27.37Z"/><path id="Path-110-Copy-10" class="cls-27" d="M94.07,367A73.87,73.87,0,0,1,52.6,297l.14-2.94A32.23,32.23,0,0,1,99,266.61a73.75,73.75,0,0,1,41.47,70l-.15,3.07A32.19,32.19,0,0,1,94.07,367Z"/></g><g id="Group-12"><path id="Path-132" class="cls-2" d="M131.82,288l-.35.63a21.44,21.44,0,0,1-8.79,8.66h0a26.27,26.27,0,0,1,9.7,9.93l.3.54h0l.25-.62a20.77,20.77,0,0,1,8-9.85h0a22,22,0,0,1-8.73-8.55l-.42-.74Z"/><path id="Path-132-Copy" class="cls-2" d="M61.82,305l-.21.37a14,14,0,0,1-5.77,5.6h0a17.14,17.14,0,0,1,6.37,6.42l.17.31h0l.14-.36a13.54,13.54,0,0,1,5.28-6.37h0a14.38,14.38,0,0,1-5.73-5.53l-.25-.44Z"/></g><g id="Group-9"><path id="Path-130" class="cls-7" d="M91.72,286.89,79.42,310.1a1.09,1.09,0,0,0,.16,1.26L91.12,324a1.09,1.09,0,0,0,1.25.27l13.5-5.94a1.1,1.1,0,0,0,.57-1.44L93.71,287a1.12,1.12,0,0,0-1.45-.59A1.14,1.14,0,0,0,91.72,286.89Z"/><path id="Path-131" class="cls-7" d="M83.77,324l6.56,7a1.11,1.11,0,0,0,1.28.24l11.26-5.39a1.09,1.09,0,0,1,1.44,1.5L94,346.85a1.09,1.09,0,0,1-1.48.46,1.08,1.08,0,0,1-.48-.51L82,325.23a1.1,1.1,0,0,1,1.8-1.21Z"/></g></g></g><g id="Group-14"><path id="Path-110-Copy-16" class="cls-5" d="M241,263.13a36.93,36.93,0,0,1-20.73-35l.07-1.47a16.1,16.1,0,0,1,23.12-13.7,36.88,36.88,0,0,1,20.74,35l-.08,1.54A16.08,16.08,0,0,1,241,263.13Z"/><path id="Path-110-Copy-15" class="cls-28" d="M235.36,266.31a36.94,36.94,0,0,1-20.73-35l.07-1.47a16.11,16.11,0,0,1,23.13-13.7,36.88,36.88,0,0,1,20.73,35l-.07,1.53a16.11,16.11,0,0,1-23.13,13.69Z"/><g id="Group-53-Copy"><path class="cls-7" d="M227.44,230.57c2-1.15,4.94.22,6.58,3.05a6.49,6.49,0,0,1,.65,5.75l1.06,1.77L237.4,240c-.87-2.48-.29-5,1.56-6.09,2.17-1.25,5.26,0,6.9,2.87s1.21,6.13-1,7.38a4.64,4.64,0,0,1-5.23-.87l-2.13,1.17a8.65,8.65,0,0,1,2.11,2.46c1.79,3.09,1.48,6.61-.69,7.85s-5.38-.24-7.17-3.33-1.48-6.6.69-7.85a2.92,2.92,0,0,1,.63-.27l-1.52-2.11a6.46,6.46,0,0,1-4.78-3.45C225.17,234.93,225.46,231.71,227.44,230.57Z"/></g></g></g></g></g></g></g></g></svg>