<?xml version="1.0" encoding="utf-8"?>
<!-- Generator: Adobe Illustrator 16.0.0, SVG Export Plug-In . SVG Version: 6.00 Build 0)  -->
<!DOCTYPE svg PUBLIC "-//W3C//DTD SVG 1.1//EN" "http://www.w3.org/Graphics/SVG/1.1/DTD/svg11.dtd">
<svg version="1.1" id="Layer_1" xmlns="http://www.w3.org/2000/svg" xmlns:xlink="http://www.w3.org/1999/xlink" x="0px" y="0px"
	 width="256.271px" height="254.559px" viewBox="0 0 256.271 254.559" enable-background="new 0 0 256.271 254.559"
	 xml:space="preserve">
<g>
	<g>
		<polygon fill="#9ED8D6" points="43.956,53.723 43.621,171.144 165.135,241.3 165.468,123.878 		"/>
	</g>
	<g>
		<g enable-background="new    ">
			<g>
				<polygon fill="#75A3A1" points="55.721,221.967 93.833,199.818 94.002,140.966 55.886,163.115 				"/>
			</g>
			<g>
				<polygon fill="#87BDBA" points="55.886,163.115 94.002,140.966 43.846,112.009 5.729,134.158 				"/>
			</g>
			<g>
				<polygon fill="#9ED8D6" points="5.729,134.158 5.563,193.006 55.721,221.967 55.886,163.115 				"/>
			</g>
		</g>
	</g>
	<polygon fill="#75A3A1" points="152.04,248.458 152.208,189.609 165.302,182.25 165.468,123.878 248.048,75.888 247.716,193.309 
		165.135,241.3 165.137,241.097 	"/>
	<g>
		<polygon fill="#9ED8D6" points="82.391,147.771 82.225,206.623 152.04,248.458 152.208,189.609 		"/>
	</g>
	<g>
		<g>
			<polygon fill="#223847" points="56.451,166.48 99.792,141.291 43.342,108.538 0,133.723 			"/>
		</g>
		<g>
			<polygon fill="#2D4C60" points="56.451,166.48 50.852,120.783 0,133.723 			"/>
		</g>
		<g>
			<polygon fill="#172630" points="99.792,141.291 50.852,120.783 43.342,108.538 			"/>
		</g>
	</g>
	<g>
		<g>
			<polygon fill="#223847" points="161.978,126.058 256.271,71.259 133.462,0 39.169,54.798 			"/>
		</g>
		<g>
			<polygon fill="#2D4C60" points="161.978,126.058 149.803,26.644 39.169,54.798 			"/>
		</g>
		<g>
			<polygon fill="#172630" points="256.271,71.259 149.803,26.644 133.462,0 			"/>
		</g>
	</g>
	<g>
		<polygon fill="#2D4C60" points="80.851,150.187 157.343,194.842 167.948,180.674 91.456,136.023 		"/>
		<polygon fill="#223847" points="157.262,194.842 167.865,180.674 170.548,185.289 		"/>
	</g>
	<g>
		<g>
			<g>
				<polygon fill="#172630" points="105.309,9.816 105.335,19.187 115.649,25.754 115.587,3.881 				"/>
			</g>
			<g>
				<polygon fill="#2D4C60" points="115.587,3.881 115.649,25.754 125.832,21.275 125.8,9.816 				"/>
			</g>
			<g>
				<polygon fill="#172630" points="115.509,17.507 115.573,31.428 128.865,22.178 128.829,9.816 				"/>
			</g>
			<g>
				<polygon fill="#2D4C60" points="102.276,9.816 102.276,28.148 115.573,31.428 115.509,17.507 				"/>
			</g>
		</g>
		<g>
			<g>
				<polygon fill="#054B4F" points="105.262,9.299 105.268,12.031 115.525,6.11 115.519,3.375 				"/>
			</g>
			<g>
				<polygon fill="#07959C" points="115.519,3.375 115.525,6.11 125.737,12.044 125.731,9.309 				"/>
			</g>
			<g>
				<polygon fill="#054B4F" points="115.454,18.621 115.462,21.353 131.586,12.044 131.579,9.309 				"/>
			</g>
			<g>
				<polygon fill="#07959C" points="99.435,9.309 99.442,12.044 115.462,21.353 115.454,18.621 				"/>
			</g>
			<path fill="#046F75" d="M99.435,9.309l16.02,9.312l16.125-9.312L115.558,0L99.435,9.309z M105.262,9.299l10.257-5.925
				l10.211,5.935l-10.256,5.924L105.262,9.299z"/>
		</g>
	</g>
	<g>
		<polygon fill="#2D4C60" points="79.032,210.205 79.217,204.209 148.865,244.437 148.865,244.47 152.024,246.308 152.04,252.138 
			148.865,250.292 148.849,250.263 148.849,250.321 		"/>
		<polygon fill="#172630" points="250.92,189.164 250.937,194.994 152.04,252.138 152.024,246.308 		"/>
		<polygon fill="#2D4C60" points="2.371,194.857 2.388,188.973 52.544,217.93 52.544,217.939 55.704,219.777 55.721,225.607 
			52.544,223.764 52.527,223.734 52.527,223.814 		"/>
		<polygon fill="#223847" points="2.388,188.973 5.563,187.127 55.905,216.166 82.099,202.475 82.16,202.51 82.225,202.475 
			152.04,242.589 152.036,242.618 247.743,187.316 250.92,189.164 152.024,246.308 148.849,244.46 148.892,244.437 148.865,244.437 
			82.014,206.025 55.704,219.777 52.527,217.93 52.537,217.926 		"/>
		<g>
			<polygon fill="#172630" points="55.704,219.777 55.721,225.607 82.127,211.982 82.18,205.938 			"/>
		</g>
	</g>
	<g>
		<g>
			<polygon fill="#EDF8FB" points="49.975,67.95 49.881,101.044 79.471,118.129 79.564,85.035 			"/>
			<g>
				<g>
					<polygon fill="#223847" points="50.712,100.563 64.792,108.693 63.116,109.671 49.033,101.541 					"/>
					<polygon fill="#223847" points="80.306,117.648 78.626,118.626 64.513,110.476 66.192,109.502 					"/>
				</g>
				<g>
					<polygon fill="#172630" points="49.127,68.447 50.807,67.469 50.712,100.563 49.033,101.541 					"/>
					<polygon fill="#172630" points="66.286,76.408 66.192,109.502 64.513,110.476 64.607,77.382 					"/>
				</g>
				<g>
					<polygon fill="#172630" points="80.507,121.706 82.183,120.731 82.29,83.651 80.61,84.628 					"/>
				</g>
				<path fill="#2D4C60" d="M47.113,102.424l15.997,9.237l1.396,0.806l16,9.238l0.104-37.077l-15.996-9.237l-1.4-0.809
					l-15.997-9.234L47.113,102.424z M64.513,110.476l0.095-33.094l14.112,8.149l-0.094,33.095L64.513,110.476z M49.033,101.541
					l0.094-33.094l14.08,8.13l-0.091,33.095L49.033,101.541z"/>
				<polygon fill="#223847" points="48.896,64.374 64.894,73.608 66.293,74.417 82.29,83.651 80.61,84.628 64.614,75.391 
					63.214,74.582 47.217,65.348 				"/>
			</g>
		</g>
		<g>
			<polygon fill="#EDF8FB" points="89.818,91.508 89.725,124.602 119.316,141.687 119.409,108.592 			"/>
			<g>
				<g>
					<polygon fill="#223847" points="90.556,124.122 104.638,132.251 102.961,133.226 88.88,125.099 					"/>
					<polygon fill="#223847" points="120.149,141.207 118.47,142.184 104.359,134.035 106.038,133.06 					"/>
				</g>
				<g>
					<polygon fill="#172630" points="88.975,92.005 90.65,91.027 90.556,124.122 88.88,125.099 					"/>
					<polygon fill="#172630" points="106.131,99.966 106.038,133.06 104.359,134.035 104.453,100.94 					"/>
				</g>
				<g>
					<polygon fill="#172630" points="120.351,145.263 122.028,144.289 122.134,107.208 120.454,108.187 					"/>
				</g>
				<path fill="#2D4C60" d="M86.957,125.983l15.997,9.237l1.4,0.806l15.997,9.237l0.104-37.08l-15.996-9.234l-1.398-0.809
					l-15.998-9.234L86.957,125.983z M104.359,134.035l0.094-33.095l14.111,8.149l-0.095,33.095L104.359,134.035z M88.88,125.099
					l0.095-33.094l14.078,8.13l-0.092,33.091L88.88,125.099z"/>
				<polygon fill="#223847" points="88.74,87.932 104.739,97.166 106.137,97.975 122.134,107.208 120.454,108.183 104.458,98.949 
					103.06,98.14 87.062,88.906 				"/>
			</g>
		</g>
		<g>
			<polygon fill="#EDF8FB" points="128.823,114.563 128.729,147.658 158.32,164.742 158.415,131.648 			"/>
			<g>
				<g>
					<polygon fill="#223847" points="129.562,147.176 143.644,155.306 141.965,156.281 127.885,148.154 					"/>
					<polygon fill="#223847" points="159.155,164.261 157.476,165.239 143.364,157.089 145.042,156.115 					"/>
				</g>
				<g>
					<polygon fill="#172630" points="127.979,115.06 129.656,114.082 129.562,147.176 127.885,148.154 					"/>
					<polygon fill="#172630" points="145.137,123.021 145.042,156.115 143.364,157.089 143.459,123.995 					"/>
				</g>
				<g>
					<polygon fill="#172630" points="159.354,168.318 161.034,167.343 161.14,130.264 159.46,131.238 					"/>
				</g>
				<path fill="#2D4C60" d="M125.964,149.038l15.996,9.237l1.398,0.806l15.996,9.237l0.105-37.08l-15.996-9.233l-1.4-0.81
					l-15.996-9.234L125.964,149.038z M143.364,157.089l0.095-33.095l14.111,8.149l-0.095,33.095L143.364,157.089z M127.885,148.154
					l0.094-33.094l14.081,8.129l-0.095,33.092L127.885,148.154z"/>
				<polygon fill="#223847" points="127.747,110.983 143.743,120.221 145.142,121.03 161.14,130.264 159.46,131.238 
					143.464,122.004 142.063,121.195 126.067,111.96 				"/>
			</g>
		</g>
		<g>
			<polygon fill="#EDF8FB" points="13.499,152.971 13.405,186.066 42.995,203.15 43.089,170.056 			"/>
			<g>
				<g>
					<polygon fill="#223847" points="14.236,185.588 28.316,193.719 26.641,194.693 12.557,186.562 					"/>
					<polygon fill="#223847" points="43.829,202.674 42.15,203.648 28.037,195.502 29.717,194.523 					"/>
				</g>
				<g>
					<polygon fill="#172630" points="12.651,153.468 14.33,152.494 14.236,185.588 12.557,186.562 					"/>
					<polygon fill="#172630" points="29.811,161.432 29.717,194.523 28.037,195.502 28.132,162.407 					"/>
				</g>
				<g>
					<polygon fill="#172630" points="44.03,206.73 45.707,205.752 45.813,168.675 44.135,169.65 					"/>
				</g>
				<path fill="#2D4C60" d="M10.638,187.449l15.996,9.234l1.396,0.809l16,9.238l0.104-37.081l-15.997-9.234l-1.399-0.809
					l-15.997-9.237L10.638,187.449z M28.037,195.502l0.095-33.095l14.112,8.146l-0.094,33.095L28.037,195.502z M12.557,186.562
					l0.095-33.094l14.08,8.13l-0.091,33.095L12.557,186.562z"/>
				<polygon fill="#223847" points="12.421,149.395 28.417,158.632 29.817,159.438 45.813,168.675 44.135,169.65 28.138,160.416 
					26.738,159.607 10.741,150.37 				"/>
			</g>
		</g>
		<g>
			<polygon fill="#EDF8FB" points="87.133,163.881 87.038,196.977 116.63,214.061 116.724,180.967 			"/>
			<g>
				<g>
					<polygon fill="#223847" points="87.873,196.498 101.954,204.629 100.274,205.604 86.194,197.473 					"/>
					<polygon fill="#223847" points="117.463,213.584 115.786,214.559 101.674,206.412 103.352,205.434 					"/>
				</g>
				<g>
					<polygon fill="#172630" points="86.288,164.378 87.964,163.404 87.873,196.498 86.194,197.473 					"/>
					<polygon fill="#172630" points="103.446,172.342 103.352,205.434 101.674,206.412 101.767,173.317 					"/>
				</g>
				<g>
					<polygon fill="#172630" points="117.665,217.641 119.344,216.662 119.448,179.586 117.771,180.561 					"/>
				</g>
				<path fill="#2D4C60" d="M84.271,198.359l15.996,9.238l1.4,0.805l15.997,9.238l0.105-37.08l-15.997-9.235l-1.4-0.809
					l-15.995-9.237L84.271,198.359z M101.674,206.412l0.093-33.095l14.111,8.146l-0.092,33.096L101.674,206.412z M86.194,197.473
					l0.094-33.094l14.08,8.13l-0.094,33.095L86.194,197.473z"/>
				<polygon fill="#223847" points="86.055,160.305 102.053,169.542 103.451,170.348 119.448,179.586 117.771,180.561 
					101.773,171.326 100.373,170.517 84.378,161.28 				"/>
			</g>
		</g>
	</g>
	<g>
		<g>
			<g>
				<g enable-background="new    ">
					<g>
						<polygon fill="#223847" points="138.192,248.688 143.169,246.226 118.149,231.782 113.573,234.452 						"/>
					</g>
					<polygon fill="#2D4C60" points="113.573,234.452 138.192,248.688 138.177,254.558 113.558,240.321 					"/>
				</g>
			</g>
			<polygon fill="#172630" points="138.177,254.558 138.192,248.688 142.423,246.22 142.428,240.665 147.86,237.618 
				147.853,249.011 142.751,251.872 142.751,251.892 			"/>
			<polygon fill="#223847" points="123.241,223.383 147.86,237.618 142.428,240.665 117.81,226.434 			"/>
			<polygon fill="#2D4C60" points="117.81,226.434 142.428,240.665 142.41,246.538 117.793,232.302 			"/>
		</g>
		<g>
			<g>
				<g enable-background="new    ">
					<polygon fill="#172630" points="141.806,192.25 144.307,190.795 144.182,234.962 141.681,236.417 					"/>
					<polygon fill="#223847" points="126.873,180.729 144.307,190.795 141.806,192.25 124.372,182.184 					"/>
					<polygon fill="#2D4C60" points="124.372,182.184 141.806,192.25 141.681,236.417 124.247,226.352 					"/>
				</g>
			</g>
			<g>
				<g enable-background="new    ">
					<path fill="#023E3C" d="M138.097,211.924c-0.181-0.312-0.429-0.582-0.7-0.738c-0.279-0.162-0.531-0.178-0.712-0.074
						l1.251-0.725c0.002-0.002,0.003-0.002,0.003-0.002c0.019-0.01,0.035-0.02,0.053-0.027c0.016-0.006,0.033-0.012,0.052-0.02
						c0.018-0.002,0.036-0.006,0.056-0.01c0.02-0.002,0.039-0.006,0.059-0.01c0.021,0,0.043,0,0.066,0
						c0.023,0.004,0.049,0.004,0.072,0.01c0.029,0.004,0.059,0.01,0.09,0.018c0.039,0.012,0.078,0.025,0.118,0.041
						c0.046,0.02,0.095,0.043,0.144,0.072c0.115,0.064,0.227,0.152,0.331,0.256c0.037,0.037,0.073,0.074,0.108,0.117
						c0.027,0.033,0.056,0.064,0.082,0.098c0.021,0.029,0.045,0.062,0.066,0.092c0.02,0.029,0.039,0.057,0.059,0.086
						c0.018,0.027,0.035,0.057,0.051,0.086l0.002,0.002l0.002,0.004c0.015,0.025,0.029,0.053,0.044,0.078s0.029,0.055,0.042,0.084
						c0.015,0.029,0.027,0.059,0.041,0.088c0.012,0.029,0.023,0.059,0.035,0.088c0.014,0.033,0.024,0.062,0.034,0.094
						c0.012,0.033,0.021,0.068,0.031,0.102c0.01,0.039,0.02,0.078,0.027,0.113c0.01,0.045,0.019,0.094,0.024,0.139
						c0.008,0.066,0.014,0.131,0.014,0.195c-0.002,0.309-0.114,0.529-0.295,0.635l-1.25,0.727c0.18-0.104,0.292-0.324,0.292-0.637
						c0.002-0.318-0.11-0.668-0.29-0.98C138.099,211.924,138.099,211.924,138.097,211.924z"/>
					<g>
						<path fill="#068E93" d="M137.396,211.186c-0.556-0.32-0.999-0.068-1.001,0.568c-0.001,0.625,0.439,1.4,0.994,1.723
							c0.543,0.314,0.998,0.055,0.999-0.572C138.392,212.268,137.94,211.498,137.396,211.186z"/>
					</g>
				</g>
			</g>
			<path fill="#172630" d="M125.874,225.166l14.932,8.62l0.049-16.962l0.003-1.354l0.063-22.039l-14.932-8.619l-0.063,22.037
				l-0.003,1.355L125.874,225.166z M139.86,214.896l-12.949-7.475l0.061-20.869l12.949,7.477L139.86,214.896z M126.863,224.564
				l0.046-15.791l12.947,7.477l-0.043,15.788L126.863,224.564z"/>
		</g>
	</g>
</g>
</svg>
