<?xml version="1.0" encoding="utf-8"?>
<!-- Generator: Adobe Illustrator 16.0.0, SVG Export Plug-In . SVG Version: 6.00 Build 0)  -->
<!DOCTYPE svg PUBLIC "-//W3C//DTD SVG 1.1//EN" "http://www.w3.org/Graphics/SVG/1.1/DTD/svg11.dtd">
<svg version="1.1" id="Layer_1" xmlns="http://www.w3.org/2000/svg" xmlns:xlink="http://www.w3.org/1999/xlink" x="0px" y="0px"
	 width="55.865px" height="36.341px" viewBox="0 0 55.865 36.341" enable-background="new 0 0 55.865 36.341" xml:space="preserve">
<g>
	<path fill-rule="evenodd" clip-rule="evenodd" fill="#8EB1DD" d="M27.933,2.658c15.427,0,27.933,7.54,27.933,16.841
		c0,9.302-12.506,16.842-27.933,16.842S0,28.801,0,19.499C0,10.198,12.506,2.658,27.933,2.658z"/>
	<path fill-rule="evenodd" clip-rule="evenodd" fill="#E3EBF7" d="M27.933,0c15.427,0,27.933,7.541,27.933,16.842
		S43.359,33.683,27.933,33.683S0,26.143,0,16.842S12.506,0,27.933,0z"/>
	<radialGradient id="SVGID_1_" cx="27.9326" cy="16.8413" r="23.0636" gradientUnits="userSpaceOnUse">
		<stop  offset="0" style="stop-color:#898989;stop-opacity:0.3"/>
		<stop  offset="1" style="stop-color:#898989;stop-opacity:0"/>
	</radialGradient>
	<path fill-rule="evenodd" clip-rule="evenodd" fill="url(#SVGID_1_)" d="M27.933,0c15.427,0,27.933,7.541,27.933,16.842
		S43.359,33.683,27.933,33.683S0,26.143,0,16.842S12.506,0,27.933,0z"/>
</g>
</svg>
