<?xml version="1.0" encoding="utf-8"?>
<!-- Generator: Adobe Illustrator 16.0.0, SVG Export Plug-In . SVG Version: 6.00 Build 0)  -->
<!DOCTYPE svg PUBLIC "-//W3C//DTD SVG 1.1//EN" "http://www.w3.org/Graphics/SVG/1.1/DTD/svg11.dtd">
<svg version="1.1" id="Layer_1" xmlns="http://www.w3.org/2000/svg" xmlns:xlink="http://www.w3.org/1999/xlink" x="0px" y="0px"
	 width="195px" height="92.825px" viewBox="0 0 195 92.825" enable-background="new 0 0 195 92.825" xml:space="preserve">
<g>
	<path fill-rule="evenodd" clip-rule="evenodd" fill="#DE4126" d="M6.158,26.913c3.401,0,6.158,1.838,6.158,4.105
		s-2.757,4.105-6.158,4.105C2.756,35.123,0,33.285,0,31.018S2.756,26.913,6.158,26.913z"/>
	<path fill-rule="evenodd" clip-rule="evenodd" fill="#DE4126" d="M102.632,92.825l2.053-16.421c0,0-46.39,0.411-47.211-26.684
		c0,0,4.516-26.685,55.421-28.737c0,0,37.77-2.463,51.316,22.579l28.736-4.105c0,0-30.379-52.546-121.105-26.684
		c0,0-2.909,1.026-6.158,0L47.21,4.562c0,0-9.75-2.053-8.21,6.158l22.579,12.315c0,0-0.171,6.501-6.158,4.105L14.368,8.667
		c0,0-8.724,1.369-4.105,8.21L47.21,31.246c0,0,2.395,8.724-8.21,6.158l-14.368-6.158c0,0-7.014-1.369-6.158,6.158l16.421,6.158
		C34.895,43.562,24.888,88.633,102.632,92.825z"/>
	<path fill-rule="evenodd" clip-rule="evenodd" fill="#EF5D2A" d="M6.158,22.807c3.401,0,6.158,1.838,6.158,4.105
		s-2.757,4.105-6.158,4.105C2.756,31.018,0,29.18,0,26.913S2.756,22.807,6.158,22.807z"/>
	<linearGradient id="SVGID_1_" gradientUnits="userSpaceOnUse" x1="10.9668" y1="44.2456" x2="195" y2="44.2456">
		<stop  offset="0" style="stop-color:#EF4343"/>
		<stop  offset="1" style="stop-color:#FFC741"/>
	</linearGradient>
	<path fill-rule="evenodd" clip-rule="evenodd" fill="url(#SVGID_1_)" d="M104.685,88.492l2.052-16.421
		c0,0-46.389,0.41-47.21-26.685c0,0,4.516-26.684,55.421-28.737c0,0,37.77-2.463,51.316,22.579L195,35.123
		c0,0-30.379-52.546-121.105-26.684c0,0-2.908,1.026-6.158,0L49.263,0.228c0,0-9.75-2.052-8.21,6.158l22.579,12.316
		c0,0-0.172,6.5-6.158,4.105L16.421,4.333c0,0-8.724,1.369-4.105,8.21l36.947,14.369c0,0,2.395,8.724-8.21,6.158l-14.369-6.158
		c0,0-7.014-1.369-6.158,6.158l16.421,6.158C36.947,39.228,26.941,84.3,104.685,88.492z"/>
</g>
</svg>
