<?xml version="1.0" encoding="utf-8"?>
<!-- Generator: Adobe Illustrator 16.0.0, SVG Export Plug-In . SVG Version: 6.00 Build 0)  -->
<!DOCTYPE svg PUBLIC "-//W3C//DTD SVG 1.1//EN" "http://www.w3.org/Graphics/SVG/1.1/DTD/svg11.dtd">
<svg version="1.1" id="Layer_1" xmlns="http://www.w3.org/2000/svg" xmlns:xlink="http://www.w3.org/1999/xlink" x="0px" y="0px"
	 width="346.428px" height="402.031px" viewBox="0 0 346.428 402.031" enable-background="new 0 0 346.428 402.031"
	 xml:space="preserve">
<g>
	<g>
		<path fill="#010101" d="M212.751,301.089c-0.711,2.634-6.057,6.279-10.748,6.663l-0.007,0.021
			c-4.704-1.102-16.832-8.315-24.339-13.268c-2.655-1.742-4.732-3.217-5.701-4.028c-0.042-0.018-0.06-0.049-0.087-0.062
			c-0.087,1.593,0.01,2.773,0.045,4.108c0.537,0.457,1.439,1.122,2.586,1.931c0.934,0.648,2.028,1.388,3.248,2.199
			c0.533-0.931,2.038-0.68,2.951-0.171c1.384,0.83,1.858,2.161,2.272,3.492c7.022,4.37,15.31,9.022,19.024,9.88l0.007-0.018
			c1.433-0.125,2.938-0.554,4.35-1.164l4.234-2.597c1.328-1.143,2.199-2.376,2.244-3.384
			C212.849,304.351,212.922,301.375,212.751,301.089z"/>
		<path fill="#1C191B" d="M201.996,307.773l0.007-0.021c4.691-0.384,10.037-4.029,10.748-6.663c0.14-0.51,0.104-0.99-0.15-1.401
			c-0.438-4.635-5.819-4.308-9.402-8.587c-0.01-0.024-0.034-0.053-0.052-0.07c-0.175-0.209-0.345-0.425-0.491-0.654l-0.008-0.008
			c-1.791-2.265-5.032-5.781-5.586-7.792c-0.251,0.157-0.509,0.327-0.753,0.48c-1.962,1.262-3.941,2.572-5.959,3.632
			c-5.572,2.955-11.508,4.102-18.442-2.353c0.035,2.349,0.132,4.632,0.049,6.141c0.969,0.812,3.046,2.286,5.701,4.028
			C185.164,299.458,197.292,306.671,201.996,307.773z"/>
		<path fill="#110F1A" d="M197.062,282.556c-0.586-5.729-2.053-15.731-4.032-28.104l-2.38,1.443l5.648,27.134L197.062,282.556z"/>
		<path fill="#010101" d="M190.35,286.689l5.948-3.659l-5.648-27.134l-23.492,14.257c1.676,6.154,2.889,10.218,3.983,13.452
			c0.251,0.254,0.509,0.498,0.767,0.731C178.842,290.791,184.777,289.644,190.35,286.689z"/>
		<path fill="#010101" d="M172.583,326.689l-0.003,0.028c-4.708-1.102-22.541-12.344-30.044-17.3l-0.843,4.025
			c0.938,0.635,5.422,3.342,6.642,4.144c0.537-0.927,2.039-0.676,2.952-0.167c1.384,0.829,1.854,2.16,2.276,3.492
			c7.022,4.366,15.306,9.019,19.018,9.887l0.003-0.024c1.443-0.126,2.945-0.547,4.356-1.153l4.234-2.6
			c1.327-1.154,2.195-2.388,2.244-3.385c0.014-0.348,0.094-3.317-0.08-3.604C182.627,322.654,177.28,326.306,172.583,326.689z"/>
		<path fill="#1C191B" d="M172.583,326.689c4.697-0.383,10.044-4.035,10.755-6.656c0.14-0.522,0.107-1.007-0.15-1.407
			c-0.442-4.636-5.819-4.308-9.402-8.587c-0.014-0.024-0.042-0.049-0.059-0.06c-0.174-0.213-0.334-0.439-0.491-0.662l-0.003-0.011
			c-1.792-2.258-5.029-5.785-5.583-7.785c-0.251,0.149-0.505,0.32-0.76,0.48c-1.952,1.252-3.938,2.565-5.942,3.625
			c-5.586,2.948-11.525,4.102-18.46-2.356c0.045,2.35,0.136,4.636,0.049,6.147c0.976,0.809,3.053,2.276,5.708,4.025
			c7.503,4.959,19.627,12.173,24.335,13.274L172.583,326.689z"/>
		<path fill="#110F1A" d="M167.648,301.5c-0.593-5.882-2.126-16.274-4.196-29.099l-2.422,1.467l5.848,28.1L167.648,301.5z"/>
		<path fill="#010101" d="M160.947,305.626l5.931-3.659l-5.848-28.1l-23.416,14.212v0.547c1.746,6.416,2.994,10.598,4.112,13.919
			c0.254,0.244,0.509,0.495,0.76,0.725C149.422,309.728,155.36,308.575,160.947,305.626z"/>
	</g>
	<g>
		<g id="XMLID_13_">
			<g>
				<path fill="#18272A" d="M107.327,133.904l-0.115,17.204c-0.073,9.15-5.59,19.547-12.333,23.228l-34.445,18.77l-22.147-13.907
					l-0.182-0.929v-0.009l0.391-0.254l64.34-38.944l-0.314-2.081L107.327,133.904z"/>
				<polygon fill="#18272A" points="102.8,136.981 103.117,139.062 38.763,178.006 				"/>
				<path fill="#3C4F53" d="M92.251,67.025l10.549,69.956l-64.037,41.025l-0.387,0.235l-0.062-0.303l-0.035-0.014l-10.138-75.26
					c-1.167-8.66,2.959-18.498,9.211-21.973l41.481-23.067c4.154-2.309,8.183-1.228,10.79,2.281c0,0.014,0,0.014,0,0.014
					C90.937,61.706,91.857,64.114,92.251,67.025z"/>
				<path fill="#7B8186" d="M89.623,59.906c-2.606-3.509-6.635-4.59-10.79-2.281L37.352,80.692
					c-6.252,3.475-10.378,13.312-9.211,21.973l10.235,75.577l-14.511-7.164l-9.984-74.113c-1.157-8.664,2.958-18.49,9.214-21.976
					L64.57,51.921C69.365,49.264,86.163,53.336,89.623,59.906z"/>
				<path fill="#7B8186" d="M60.701,193.105l-10.288,5.601c-0.735,0.402-1.457,0.723-2.167,0.92
					c-5.702,1.737-9.992-2.684-9.932-10.826l0.251-9.601L60.701,193.105z"/>
				<path fill="#7B8186" d="M38.314,188.799c-0.06,8.143,4.23,12.563,9.932,10.826c-1.311,0.723-3.025,0.862-4.907,0.54
					l-15.08-9.449c-2.07-2.563-3.416-5.341-3.398-7.949l-0.997-11.689l13.863,7.603l0.599-0.411l0.049-0.028v0.019v0.009v0.812
					L38.314,188.799z"/>
				<polygon fill="#A66F72" points="38.565,179.198 38.314,188.799 38.376,179.082 				"/>
				<polygon fill="#7B8186" points="38.279,177.924 38.328,178.27 37.729,178.681 23.865,171.078 				"/>
			</g>
		</g>
	</g>
	<g>
		<path fill="#5F787E" d="M10.695,330.478c-3.395,2.062-4.489,6.485-2.425,9.887c2.042,3.401,6.464,4.481,9.894,2.446
			c0,0,22.454-13.577,46.204-27.911c-2.384-4.154-4.778-8.333-7.162-12.504C33.369,316.785,10.695,330.478,10.695,330.478z"/>
		<path fill="#5F787E" d="M68.954,295.296c2.398,4.112,4.823,8.288,7.249,12.449c15.114-9.121,29.288-17.676,36.934-22.312
			l-14.215-8.225C91.056,281.963,80.263,288.477,68.954,295.296z"/>
		<path fill="#5F787E" d="M324.183,272.861c1.97,3.443,6.392,4.635,9.817,2.635c3.437-1.994,4.607-6.413,2.628-9.842
			c0,0-18.561-31.923-39.45-67.931l-12.068,6.964C306.089,241.322,324.183,272.861,324.183,272.861z"/>
		<path fill="#7F8E93" d="M37.979,241.931l-23.221-13.424c8.179,14.208,25.029,43.545,42.447,73.889
			c2.384,4.171,4.778,8.35,7.162,12.504c24.479,42.666,47.894,83.524,47.894,83.524c1.993,3.446,6.392,4.635,9.834,2.635
			c3.426-1.993,4.614-6.413,2.621-9.835c0,0-24.224-41.659-48.514-83.479c-2.426-4.161-4.851-8.337-7.249-12.449
			C57.094,274.882,45.8,255.443,37.979,241.931z"/>
		<polygon fill="#C8CCCE" points="129.178,281.75 31.874,225.472 0.286,207.183 0,219.927 0,219.98 14.759,228.507 37.979,241.931 
			98.921,277.209 113.136,285.434 128.871,294.537 129.227,294.321 129.227,281.726 		"/>
		<polygon fill="#A1AAAE" points="346.428,156.797 279.662,195.205 129.227,281.726 129.227,294.321 285.109,204.687 
			297.178,197.723 346.121,169.586 		"/>
		<polygon fill="#E4E5E6" points="129.178,281.75 129.227,281.726 279.662,195.205 346.428,156.797 216.393,82.401 0.286,207.183 
			31.874,225.472 		"/>
	</g>
	<g id="XMLID_12_">
		<g>
			<polygon fill="#566261" points="225.015,152.997 225.015,153.019 157.56,194.213 176.511,139.602 244.844,99.69 245.579,99.253 
							"/>
			<path fill="#6E7C7A" d="M168.342,149.025l1.478-4.264l1.952-5.597l0.241-0.688l9.594-5.595l3.077-1.8l56.391-32.959
				c0,0,4.806-1.058,3.771,1.568l-68.333,39.912l-18.951,54.611l-4.116-2.237l3.161-9.129l4.743-13.635l0.505-1.46L168.342,149.025z
				"/>
			<path fill="#4E5959" d="M118.27,173.324c0.018-0.017,0.039-0.03,0.052-0.03c0.854,0.317,1.68,0.603,2.471,0.893l32.65,17.789
				l4.116,2.237l67.455-41.194c1.199,1.969,0.589,4.559,0.589,4.559l-68.044,41.565l-51.362-27.984c0,0-0.373-1.209-0.202-2.554
				c3.14,1.251,6.182,2.422,8.977,3.466c1.144,0.434,2.272,0.84,3.314,1.225C118.287,173.294,118.27,173.294,118.27,173.324z"/>
			<path fill="#313A3A" d="M184.683,131.081l-3.077,1.8c-0.136-0.272-0.265-0.546-0.383-0.826l0.031-0.018
				c-0.349-1.094-0.651-2.188-0.944-3.279C181.605,129.447,183.069,130.224,184.683,131.081z"/>
			<path fill="#0C0B11" d="M162.755,142.799c-0.589,0.465-0.99,0.988-1.105,1.56c-0.808-0.803-1.955-2.743-3.108-4.823
				c-0.589-1.06-1.181-2.175-1.732-3.197l17.875-10.541c0,0,2.164,1.143,5.625,2.96c0.293,1.091,0.596,2.185,0.944,3.279
				l-0.031,0.018c0.118,0.28,0.247,0.554,0.383,0.826l-9.594,5.595l-0.241,0.688C169.583,140.018,164.906,141.076,162.755,142.799z"
				/>
			<path fill="#0C0B11" d="M175.1,113.825c2.773,4.844,3.837,9.87,5.21,14.933c-3.461-1.817-5.625-2.96-5.625-2.96l-17.875,10.541
				c-0.606-1.122-1.164-2.145-1.617-2.908c-1.394-2.518-6.13-10.91-7.844-14.059c0.428,0.729,0.889,1.446,1.341,2.14l6.723-3.868
				c0.188-13.903,0.317-24.898,0.317-24.898l3.45-1.866c2.872,3.966,6.419,7.566,9.193,11.732
				C170.865,106.09,172.914,110.025,175.1,113.825z M161.584,95.533c-0.021-0.031-0.021-0.063-0.031-0.1c0,0.037,0,0.068,0,0.1
				H161.584z"/>
			<path fill="#CBE5F2" d="M165.752,145.976c-0.519,0.389-1.059,0.786-1.596,1.192c-0.704-1.406-1.366-2.675-1.401-4.369
				c2.15-1.723,6.827-2.781,9.016-3.635l-1.952,5.597c-0.92,0.072-1.878,0.572-2.774,1.195c-0.317,0.22-0.638,0.457-0.92,0.671
				C165.969,146.396,165.854,146.176,165.752,145.976z"/>
			<path fill="#F9B685" d="M169.819,144.761l-1.478,4.264c-0.773-0.594-1.666-1.518-2.216-2.398c0.282-0.214,0.603-0.451,0.92-0.671
				C167.941,145.333,168.899,144.833,169.819,144.761z"/>
			<path fill="#2A2A26" d="M159.044,165.224c-0.153-0.146-0.317-0.317-0.471-0.469c-0.679-1.241-1.512-2.907-2.15-3.715
				c-0.488-0.559-1.077-1.077-1.568-1.634c0-0.166,0-0.336,0-0.497c-0.938-1.045-1.882-2.072-2.878-3.068
				c3.837-2.518,8.144-5.663,12.18-8.672c0.098,0.188,0.185,0.375,0.286,0.549v0.291c0.463-0.385,1.042-0.876,1.683-1.38
				c0.55,0.88,1.443,1.804,2.216,2.398l-6.489,18.727c-0.62-0.558-1.296-1.081-1.85-1.568
				C159.682,165.863,159.361,165.549,159.044,165.224z"/>
			<path fill="#CBE5F2" d="M165.752,145.976c0.101,0.2,0.216,0.42,0.373,0.651c-0.641,0.504-1.22,0.995-1.683,1.38v-0.291
				c-0.102-0.174-0.188-0.361-0.286-0.549C164.693,146.762,165.233,146.365,165.752,145.976z"/>
			<path fill="#657170" d="M162.755,142.799c0.035,1.694,0.697,2.962,1.401,4.369c-4.036,3.009-8.343,6.154-12.18,8.672
				c-1.224-1.224-2.506-2.403-3.91-3.483c-5.001,0.211-8.831,2.091-13.163,3.666c-0.017-0.061-0.038-0.129-0.069-0.191
				c-0.087-0.289-0.188-0.54-0.321-0.777c7.346-4.335,16.425-9.918,23.911-15.452l0.118-0.066c1.153,2.081,2.3,4.02,3.108,4.823
				C161.766,143.788,162.167,143.265,162.755,142.799z"/>
			<path fill="#F9B685" d="M161.853,167.752l-0.505,1.46c-0.401,0.232-0.875,0.166-1.397,0.22c-0.122,0-0.216-0.037-0.331-0.072
				c-1.666-0.434-3.381-2.371-4.844-3.26c0-0.202,0-0.385,0-0.591c0.014-1.246,0.031-2.572,0.07-4.018
				c0.202,0.132,0.38,0.267,0.533,0.388c1.146,0.861,2.182,1.87,3.195,2.875c0.216,0.388,0.422,0.737,0.589,1.005
				c-0.038-0.166-0.083-0.349-0.118-0.537c0.317,0.326,0.638,0.639,0.958,0.96C160.557,166.671,161.232,167.194,161.853,167.752z"/>
			<path fill="#77829B" d="M161.553,95.433c0.01,0.037,0.01,0.068,0.031,0.1h-0.031C161.553,95.501,161.553,95.47,161.553,95.433z"
				/>
			<path fill="#2A2A26" d="M159.95,169.432c0.522-0.054,0.997,0.012,1.397-0.22l-4.743,13.635
				c-7.315-3.26-15.787-7.275-23.907-10.575c0.014-0.031,0.045-0.068,0.066-0.103c3.077-0.55,6.165-1.68,9.263-1.971
				c0.809,0.408,1.683,0.809,2.554,1.251c0.812,0.397,1.596,0.823,2.391,1.286c1.035,0.625,2.032,1.349,2.875,2.206
				c1.394,0.671,2.457,0.773,3.596,0.425c0.509-0.157,1.039-0.394,1.61-0.711c-0.296-0.361-0.436-0.638-0.436-0.638
				c0-0.049,0.017-0.202,0.017-0.438c-0.603-0.469-1.192-1.005-1.781-1.56c-1.279-1.215-2.551-2.541-3.928-3.652
				c0.568,0.061,1.342,0.254,2.182,0.486c0.053,0.014,0.084,0.035,0.133,0.054c1.136,0.486,2.335,0.655,3.394,1.277
				c2.203,1.263,3.464,1.566,4.949-0.742l0.035-0.084C159.734,169.395,159.828,169.432,159.95,169.432z"/>
			<path fill="#F9B685" d="M159.619,169.36l-0.035,0.084c-1.484,2.309-2.746,2.005-4.949,0.742
				c-1.059-0.622-2.258-0.791-3.394-1.277c0.369,0.098,0.735,0.218,1.136,0.352c0.815,0.274,1.624,0.572,2.335,0.876
				c0.014-1.145,0.031-2.483,0.063-4.037C156.238,166.989,157.953,168.926,159.619,169.36z"/>
			<path fill="#0C0B11" d="M159.18,90.878l-3.45,1.866c0,0-0.129,10.995-0.317,24.898l-6.723,3.868
				c-0.453-0.693-0.913-1.411-1.341-2.14c-4.865-8.049-8.514-17.578-13.104-26.179c0.017-0.179,0.035-0.368,0.069-0.545
				c4.907-13.166,3.98-30.208-0.397-43.414c4.074,4.337,16.519,23.956,19.614,29.622c2.251,4.154,4.182,8.103,5.917,11.889
				L159.18,90.878z"/>
			<path fill="#F9B685" d="M159.044,165.224c0.035,0.188,0.08,0.371,0.118,0.537c-0.167-0.269-0.373-0.617-0.589-1.005
				C158.727,164.906,158.891,165.077,159.044,165.224z"/>
			<path fill="#313A3A" d="M156.81,136.338c0.551,1.022,1.143,2.138,1.732,3.197l-0.118,0.066
				c-7.486,5.534-16.564,11.117-23.911,15.452c-0.422-0.772-1.108-1.229-2.084-1.646c-0.355-0.153-0.721-0.305-1.115-0.479
				c-0.014-0.043-0.031-0.106-0.045-0.174c-0.087,0.014-0.157,0.045-0.237,0.068c-0.383-0.174-0.791-0.34-1.227-0.532
				L156.81,136.338z"/>
			<path fill="#F9B685" d="M156.423,161.04c0.638,0.809,1.471,2.475,2.15,3.715c-1.014-1.005-2.049-2.015-3.195-2.875
				c-0.153-0.122-0.331-0.256-0.533-0.388c0-0.134,0-0.283,0-0.417c0-0.54,0.01-1.098,0.01-1.669
				C155.346,159.963,155.936,160.48,156.423,161.04z"/>
			<path fill="#313A3A" d="M156.604,182.847l-3.161,9.129l-32.65-17.789c1.038,0.371,2.021,0.688,2.906,0.991
				c0.997,0.334,1.889,0.603,2.645,0.84c2.771,0.031,4.653-1.211,6.353-3.746C140.817,175.572,149.29,179.587,156.604,182.847z"/>
			<path fill="#F9B685" d="M149.167,158.837c-1.606-0.709-2.969-1.532-4.886-1.515v0.02c-0.233,0.96-0.725,2.138-1.195,2.84
				l0.07,0.223c0.69-0.206,1.425-0.474,2.182-0.746c0.254-0.085,0.526-0.166,0.794-0.254c0.366-0.099,0.725-0.197,1.091-0.286
				c0.387-0.082,0.777-0.171,1.161-0.211c0.083-0.022,0.171-0.022,0.269-0.035C148.833,158.854,149.004,158.837,149.167,158.837z
				 M154.845,161.491c-0.039,1.446-0.056,2.772-0.07,4.018c0,0.206,0,0.389,0,0.591c-0.032,1.554-0.049,2.893-0.063,4.037
				c-0.711-0.305-1.52-0.603-2.335-0.876c-0.23-1.26-0.439-2.505-0.666-3.729c-1.042,0.835-2.07,1.688-3.108,2.568
				c-0.739,0.621-1.481,1.229-2.216,1.849c-0.593,0.509-1.195,0.986-1.806,1.5c-0.871-0.442-1.746-0.843-2.554-1.251
				c-3.098,0.291-6.186,1.42-9.263,1.971c-0.083,0.023-0.153,0.035-0.23,0.035c-2.126,0.354-4.259,0.457-6.377-0.218
				c-0.321-1.431-0.188-3.363,0.286-5.377c1.38-1.148,2.736-2.274,4.084-3.386c1.195-0.986,2.349-1.946,3.53-2.877
				c-0.422-1.075-0.889-2.272-1.376-3.563c0.76-0.237,1.495-0.491,2.223-0.76c4.332-1.575,8.162-3.455,13.163-3.666
				c1.404,1.08,2.687,2.26,3.91,3.483c0.997,0.997,1.941,2.023,2.878,3.068c0,0.16,0,0.331,0,0.497c0,0.572-0.01,1.129-0.01,1.669
				C154.845,161.208,154.845,161.357,154.845,161.491z"/>
			<path fill="#F9B685" d="M154.618,174.018c0,0,0.139,0.277,0.436,0.638c-0.572,0.317-1.102,0.554-1.61,0.711
				c-0.202-1.131-0.408-2.237-0.589-3.346c0.589,0.554,1.178,1.091,1.781,1.56C154.635,173.816,154.618,173.969,154.618,174.018z"/>
			<path fill="#F9B685" d="M152.854,172.021c0.181,1.108,0.387,2.215,0.589,3.346c-1.14,0.348-2.202,0.246-3.596-0.425
				c-0.843-0.857-1.84-1.581-2.875-2.206l-0.585-2.786c0.735-0.621,1.478-1.229,2.216-1.849c0.098,0.08,0.223,0.187,0.324,0.269
				C150.304,169.48,151.576,170.806,152.854,172.021z"/>
			<path fill="#F9B685" d="M151.108,168.855c-0.84-0.232-1.613-0.425-2.182-0.486c-0.101-0.082-0.226-0.188-0.324-0.269
				c1.039-0.88,2.066-1.733,3.108-2.568c0.227,1.224,0.436,2.469,0.666,3.729c-0.4-0.134-0.767-0.254-1.136-0.352
				C151.192,168.89,151.161,168.869,151.108,168.855z"/>
			<path fill="#838E93" d="M149.167,158.837c-0.164,0-0.334,0.017-0.516,0.036C148.826,158.854,149.004,158.837,149.167,158.837z"/>
			<path fill="#172727" d="M145.337,159.66c-0.756,0.272-1.492,0.54-2.182,0.746l-0.07-0.223c0.471-0.703,0.962-1.88,1.195-2.84
				v-0.02c1.917-0.017,3.28,0.805,4.886,1.515c-0.164,0-0.341,0.017-0.516,0.036c-0.087,0-0.167,0-0.269,0.035
				c-0.383,0.031-0.773,0.094-1.161,0.211c-0.366,0.071-0.739,0.169-1.091,0.286C145.864,159.494,145.592,159.574,145.337,159.66z"
				/>
			<path fill="#F9B685" d="M148.652,158.874c-0.098,0.013-0.185,0.013-0.269,0.035C148.484,158.874,148.564,158.874,148.652,158.874
				z"/>
			<path fill="#F9B685" d="M148.383,158.909c-0.383,0.04-0.773,0.129-1.161,0.211C147.61,159.003,148,158.94,148.383,158.909z"/>
			<path fill="#F9B685" d="M146.387,169.949l0.585,2.786c-0.794-0.463-1.578-0.889-2.391-1.286
				C145.191,170.935,145.794,170.458,146.387,169.949z"/>
			<path fill="#F9B685" d="M146.132,159.405c0.352-0.117,0.725-0.214,1.091-0.286C146.857,159.208,146.498,159.306,146.132,159.405z
				"/>
			<path fill="#151226" d="M133.917,49.233c4.377,13.206,5.304,30.248,0.397,43.414c-0.052,0.134-0.108,0.263-0.157,0.402
				c-0.875,2.246-1.896,4.367-3.126,6.35c-3.297,2.457-6.939,5.012-10.811,7.566c1.847-5.212,3.207-10.741,3.83-14.001
				c1.314-6.995,1.819-11.269,2.997-20.164c0.453-3.395-0.457-8.401-0.878-8.401c-0.683,0-6.084-2.028-6.321-2.743
				c-0.353-0.942,0.237-1.769,0.47-2.492c0.355-1.174,0.965-0.688,0.021-1.872c-0.237-0.231-0.955-0.746-1.969-1.383
				c1.094-0.828,2.22-1.634,3.388-2.457c3.094-2.277,8.301-5.32,10.545-8.543C132.896,46.285,133.44,47.733,133.917,49.233z"/>
			<path fill="#0C0B11" d="M134.834,155.832c0.031,0.062,0.052,0.131,0.069,0.191c-0.728,0.269-1.463,0.523-2.223,0.76
				c-0.081-0.214-0.146-0.438-0.251-0.651c0.676-0.389,1.355-0.558,2.039-0.474C134.601,155.725,134.729,155.777,134.834,155.832z"
				/>
			<path fill="#0C0B11" d="M134.513,155.054c0.132,0.237,0.233,0.488,0.321,0.777c-0.104-0.054-0.233-0.106-0.366-0.174
				c-0.206-0.066-0.411-0.146-0.627-0.218C134.057,155.323,134.28,155.188,134.513,155.054z"/>
			<path fill="#0C0B11" d="M134.513,155.054c-0.233,0.134-0.457,0.269-0.672,0.385c-0.572-0.183-1.195-0.354-1.833-0.5
				c-0.233-0.657-0.47-1.332-0.693-2.011c0.394,0.174,0.76,0.326,1.115,0.479C133.405,153.826,134.091,154.282,134.513,155.054z"/>
			<path fill="#CBE5F2" d="M133.841,155.439c0.216,0.071,0.421,0.151,0.627,0.218c-0.683-0.083-1.362,0.085-2.039,0.474
				c-0.132-0.406-0.29-0.809-0.422-1.192C132.646,155.085,133.269,155.256,133.841,155.439z"/>
			<path fill="#110F1A" d="M134.314,92.647c-0.035,0.178-0.052,0.366-0.069,0.545c-0.039-0.045-0.053-0.094-0.087-0.143
				C134.207,92.91,134.262,92.781,134.314,92.647z"/>
			<path fill="#110F1A" d="M134.158,93.049c0.035,0.049,0.049,0.098,0.087,0.143c-1.614,12.847-2.861,25.879-3.932,38.876
				l-16.581,9.516c-0.018-6.944,0.212-14.207,0.955-21.321c0,0,0-0.017,0-0.03c0.101-0.777,0.188-1.542,0.275-2.328
				c0-0.043,0.01-0.106,0.031-0.174c0.07-0.174,0.136-0.357,0.202-0.54c1.899-2.426,3.597-6.226,5.025-10.227
				c3.872-2.555,7.514-5.109,10.811-7.566C132.262,97.417,133.283,95.295,134.158,93.049z"/>
			<path fill="#F9B685" d="M132.68,156.783c0.488,1.291,0.955,2.488,1.376,3.563c-1.182,0.931-2.335,1.891-3.53,2.877
				c-1.349,1.112-2.704,2.237-4.084,3.386c0.958-4.274,3.38-8.981,5.987-10.478C132.534,156.345,132.6,156.568,132.68,156.783z"/>
			<path fill="#0C0B11" d="M132.764,172.169c-0.021,0.035-0.052,0.072-0.066,0.103c-0.052-0.014-0.125-0.051-0.164-0.068
				C132.61,172.204,132.68,172.192,132.764,172.169z"/>
			<path fill="#0C0B11" d="M132.534,172.204c0.039,0.018,0.112,0.054,0.164,0.068c-1.7,2.535-3.583,3.777-6.353,3.746
				c-0.756-0.237-1.648-0.505-2.645-0.84c-0.683-0.843-1.178-1.915-1.481-3.144c1.418,0.626,3.014,1.229,4.625,1.532
				c-0.334-0.402-0.554-0.943-0.687-1.581C128.275,172.661,130.408,172.558,132.534,172.204z"/>
			<path fill="#CBE5F2" d="M132.007,154.939c0.132,0.383,0.29,0.786,0.422,1.192c-2.607,1.497-5.029,6.203-5.987,10.478
				c-0.421,0.343-0.822,0.683-1.248,1.022c-1.07,0.906-2.164,1.812-3.272,2.724c-0.596-5.681,2.035-13.281,6.622-16.395
				C129.554,154.336,130.812,154.617,132.007,154.939z"/>
			<path fill="#181433" d="M132.074,44.338c0.087,0.183,0.167,0.389,0.23,0.571c-2.244,3.224-7.451,6.266-10.545,8.543
				c-1.167,0.823-2.293,1.629-3.388,2.457c-1.798-1.131-4.454-2.577-6.524-3.154c1.617-0.992,2.872-2.166,2.795-3.286
				c0.397-2.943-0.09-5.163-0.17-8.329C120.524,39.224,129.836,42.101,132.074,44.338z"/>
			<path fill="#0C0B11" d="M131.314,152.928c0.223,0.68,0.46,1.354,0.693,2.011c-1.195-0.323-2.453-0.603-3.464-0.979
				c0.773-0.5,1.617-0.911,2.488-1.138C131.136,152.854,131.216,152.897,131.314,152.928z"/>
			<path fill="#838E93" d="M131.269,152.754c0.014,0.068,0.031,0.13,0.045,0.174c-0.098-0.031-0.178-0.075-0.282-0.106
				C131.112,152.799,131.182,152.768,131.269,152.754z"/>
			<path fill="#16132B" d="M129.805,152.291c0.436,0.192,0.844,0.357,1.227,0.532c-0.872,0.227-1.715,0.638-2.488,1.138
				c-4.586,3.114-7.217,10.714-6.622,16.395c-1.077,0.866-2.175,1.777-3.279,2.648l-3.715-2.031
				c-0.15-2.792-0.355-5.994-0.554-9.563L129.805,152.291z"/>
			<path fill="#16132B" d="M129.805,152.291l-15.431,9.119c-0.258-4.773-0.509-10.141-0.589-15.804
				C119.841,148.154,125.7,150.585,129.805,152.291z"/>
			<path fill="#2F2A47" d="M126.17,64.399c0.422,0,1.332,5.006,0.878,8.401c-1.178,8.896-1.683,13.169-2.997,20.164
				c-0.624,3.26-1.983,8.789-3.83,14.001c-0.554,0.357-1.112,0.728-1.666,1.094c0.526-1.68,0.909-3.38,1.056-5.025
				c0.666-5.413,0.913-11.053,0.572-16.516c-0.011-0.5-0.063-1.003-0.098-1.495c-0.474-6.406-1.415-12.578-3.314-18.744
				c-0.467-1.648-1.341-3.698-2.523-5.618c-0.014-0.228-0.167-0.371-0.317-0.5c-0.132-0.206-0.268-0.408-0.421-0.608
				c0.223-0.152,0.436-0.317,0.638-0.492c0.495-0.348,0.983-0.714,1.45-1.089c0.334-0.237,0.652-0.474,0.976-0.723
				c0.589-0.451,1.195-0.894,1.798-1.34c1.014,0.638,1.732,1.152,1.969,1.383c0.944,1.184,0.334,0.697-0.021,1.872
				c-0.233,0.723-0.823,1.549-0.47,2.492C120.085,62.372,125.487,64.399,126.17,64.399z"/>
			<path fill="#CBE5F2" d="M125.194,167.631c0.425-0.34,0.826-0.679,1.248-1.022c-0.474,2.014-0.606,3.946-0.286,5.377
				c0.132,0.638,0.352,1.178,0.687,1.581c-1.61-0.303-3.206-0.906-4.625-1.532c-0.132-0.537-0.23-1.1-0.296-1.68
				C123.03,169.444,124.125,168.538,125.194,167.631z"/>
			<path fill="#16132B" d="M122.218,172.035c0.303,1.229,0.798,2.3,1.481,3.144c-0.885-0.303-1.868-0.62-2.906-0.991l-2.15-1.184
				c1.104-0.871,2.203-1.782,3.279-2.648C121.988,170.935,122.086,171.498,122.218,172.035z"/>
			<path fill="#16132B" d="M118.643,173.003l2.15,1.184c-0.791-0.29-1.617-0.575-2.471-0.893c-0.014,0-0.014,0-0.035,0
				C118.402,173.195,118.517,173.112,118.643,173.003z"/>
			<path fill="#811934" d="M120.183,86.519c0.341,5.463,0.094,11.103-0.572,16.516c-0.146,1.645-0.53,3.345-1.056,5.025
				c-0.439,0.29-0.889,0.572-1.328,0.88c2.743-12.278,0.488-27.427-5.112-39.346c0.453-0.254,0.927-0.417,1.446-0.491
				c0.08,0.174,0.188,0.34,0.251,0.509C116.729,75.006,119.176,80.321,120.183,86.519z"/>
			<path fill="#2F2A47" d="M118.556,108.059c0.554-0.366,1.111-0.737,1.666-1.094c-1.429,4-3.126,7.801-5.025,10.227
				C116.207,114.419,117.604,111.257,118.556,108.059z"/>
			<path fill="#CBE5F2" d="M120.085,85.024c0.035,0.491,0.087,0.995,0.098,1.495c-1.007-6.198-3.454-11.512-6.371-16.907
				c-0.028-0.169-0.063-0.334-0.098-0.528c-0.324-1.678-0.512-3.867-0.944-5.662c0.3,0.235,0.603,0.438,0.923,0.603
				c0.61-1.157,0.627-2.256,0.554-3.363c1.182,1.92,2.056,3.97,2.523,5.618C118.67,72.446,119.611,78.618,120.085,85.024z"/>
			<path fill="#16132B" d="M118.643,173.003c-0.125,0.108-0.24,0.192-0.355,0.291c-1.042-0.385-2.171-0.791-3.314-1.225
				c-0.01-0.352-0.027-0.723-0.045-1.098L118.643,173.003z"/>
			<path fill="#811934" d="M117.228,108.939c0.439-0.309,0.889-0.591,1.328-0.88c-0.952,3.198-2.349,6.36-3.36,9.133
				c-0.052,0.062-0.101,0.129-0.157,0.183c0.091-0.809,0.209-1.598,0.321-2.403C116.137,113.052,116.754,111.034,117.228,108.939z"
				/>
			<path fill="#2F2A47" d="M118.371,55.91c-0.603,0.446-1.209,0.889-1.798,1.34c-0.324,0.25-0.641,0.486-0.976,0.723
				c-0.467,0.375-0.955,0.741-1.45,1.089c-0.202,0.175-0.415,0.34-0.638,0.492c-1.631-2.366-3.726-4.358-5.963-4.829
				c1.314-0.42,2.941-1.124,4.3-1.969C113.917,53.333,116.572,54.779,118.371,55.91z"/>
			<path fill="#838E93" d="M118.322,173.294c-0.014,0-0.035,0.013-0.052,0.03c0-0.03,0.018-0.03,0.018-0.03
				C118.308,173.294,118.308,173.294,118.322,173.294z"/>
			<path fill="#A02643" d="M112.115,69.594c5.601,11.919,7.855,27.068,5.112,39.346c-0.32,0.195-0.638,0.397-0.955,0.603
				c-0.408,0.271-0.826,0.535-1.234,0.786c0-3.077-0.129-6.168-0.958-9.043c0-4.743,0.241-10.098-0.08-14.675
				c-0.307-5.369-2.123-10.832-3.496-15.792c0-0.014,0.021-0.014,0.021-0.026C111.038,70.281,111.568,69.883,112.115,69.594z"/>
			<path fill="#A02643" d="M116.273,109.542c0.317-0.206,0.634-0.408,0.955-0.603c-0.474,2.094-1.091,4.112-1.868,6.032
				C115.635,113.137,115.931,111.323,116.273,109.542z"/>
			<path fill="#A02643" d="M116.273,109.542c-0.342,1.78-0.638,3.595-0.913,5.429c-0.112,0.805-0.23,1.594-0.321,2.403
				c-0.031,0.032-0.066,0.068-0.077,0.1c-0.052-2.283,0.063-4.708,0.077-7.146C115.447,110.077,115.865,109.814,116.273,109.542z"/>
			<path fill="#811934" d="M115.196,117.192c-0.066,0.183-0.132,0.366-0.202,0.54c0.014-0.125,0.014-0.237,0.045-0.357
				C115.095,117.321,115.144,117.254,115.196,117.192z"/>
			<path fill="#2F2A47" d="M115.039,110.328c-0.014,2.438-0.129,4.863-0.077,7.146c-0.07,0.083-0.125,0.155-0.185,0.223
				c0-2.117-0.136-4.699-0.499-5.891c-0.077-0.286-0.164-0.572-0.24-0.84C114.374,110.751,114.705,110.546,115.039,110.328z"/>
			<path fill="#A02643" d="M114.962,117.474c0.01-0.031,0.045-0.068,0.077-0.1c-0.031,0.121-0.031,0.232-0.045,0.357
				c-0.021,0.068-0.031,0.131-0.031,0.174C114.962,117.777,114.962,117.629,114.962,117.474z"/>
			<path fill="#2F2A47" d="M115.039,110.328c-0.334,0.218-0.666,0.423-1,0.638c-2.3-7.646-4.712-13.447-11.26-17.247
				c-3.941-2.372-9.409-4.118-13.361-6.324c0,0,2.14-6.994,0.083-7.914c-1.275,0-4.272,2.368-5.698,0.634
				c-0.195-0.334-0.404-0.723-0.61-1.143c3.234-2.049,6.614-4.141,10.04-6.221c3.886,2.995,7.472,5.612,10.73,9.655
				c4.266,5.229,7.747,11.701,9.887,18.101c0.08,0.258,0.15,0.504,0.23,0.777C114.91,104.16,115.039,107.251,115.039,110.328z"/>
			<path fill="#16132B" d="M114.928,170.972c0.018,0.375,0.035,0.746,0.045,1.098c-2.795-1.044-5.837-2.215-8.977-3.466
				c0.09-0.692,0.321-1.424,0.809-2.032L114.928,170.972z"/>
			<path fill="#A02643" d="M114.962,117.474c0,0.155,0,0.303,0,0.432c-0.087,0.786-0.174,1.551-0.275,2.328
				c0.059-0.625,0.091-1.528,0.091-2.537C114.837,117.629,114.893,117.558,114.962,117.474z"/>
			<path fill="#16132B" d="M106.804,166.572l-0.606-0.34l8.176-4.823c0.199,3.569,0.404,6.771,0.554,9.563L106.804,166.572z"/>
			<path fill="#301611" d="M114.081,16.117c0,0,1.596,8.563,0.492,15.185c-0.039-0.112-0.063-0.244-0.08-0.384
				c-0.983-4.1-1.586-4.154-0.708-7.583c0,0-0.655-3.854-2.154-7.998c-3.496,5.783-12.089,10.07-19.317,10.758
				c-0.857,0.098-1.704,0.117-2.52,0.098c0.111,2.292-0.425,4.123-0.802,6.611c-0.261,1.969-1.101,3.604-1.101,6.475
				c0,1.157,0.132,2.523,0.505,4.203c-1.279-0.76-2.541-1.545-3.719-2.408c-0.484-2.246-0.937-4.6-1.31-5.917
				c-1.262-1.04-4.911-0.169-3.687,2.84c0.962,2.359,1.924,7.7,4.377,8.062c0.062,0.932,0.136,1.893,0.216,2.849h-0.202
				c-0.84-0.549-1.45-0.349-2.457-1.072c-0.366-1.3-0.938-2.462-1.648-3.703l-0.212,0.12c-4.088-6.355-7.42-12.509-11.068-19.99
				c-2.99-6.104,1.411-14.072,7.318-19.033l0.07,0.083C88.006-4.744,112.861-0.184,114.081,16.117z"/>
			<path fill="#F9B685" d="M114.471,41.141c0.08,3.166,0.568,5.386,0.17,8.329c0.077,1.12-1.178,2.294-2.795,3.286
				c-1.359,0.845-2.986,1.549-4.3,1.969c-0.352,0.117-0.676,0.202-0.979,0.269c-0.304,0.068-0.572,0.12-0.781,0.12
				c-1.317,0.103-6.346-0.789-11.187-2.317c0.401-2.817-0.387-4.895-0.062-8.629c0.146-2.353,0.634-4.104,0.077-6.141
				c-0.91-3.357-1.516-3.389-0.61-6.229c0,0-0.499-2.64-1.69-5.703c7.228-0.688,15.822-4.975,19.317-10.758
				c1.499,4.144,2.154,7.998,2.154,7.998c-0.878,3.429-0.275,3.483,0.708,7.583c0.017,0.14,0.042,0.272,0.08,0.384
				c0.453,2.328,0.038,4.359-0.063,7.071C114.454,39.398,114.454,40.301,114.471,41.141z"/>
			<path fill="#12111E" d="M114.778,117.697c0,1.009-0.032,1.912-0.091,2.537c0,0.013,0,0.03,0,0.03
				c-0.742,7.115-0.972,14.377-0.955,21.321l-4.025,2.3c-8.134-3.457-15.912-6.909-19.366-8.843c-1.018-2.452-2.08-5.212-3.161-8.15
				c8.427-4.748,17.941-10.272,26.859-15.926c0.077,0.268,0.164,0.554,0.24,0.84C114.642,112.998,114.778,115.58,114.778,117.697z"
				/>
			<path fill="#16132B" d="M113.785,145.605c0.08,5.663,0.331,11.031,0.589,15.804l-8.176,4.823l0.606,0.34
				c-0.488,0.608-0.718,1.34-0.809,2.032c-7.817-3.095-16.202-6.592-22.663-9.566l26.374-15.153
				C111.073,144.457,112.422,145.033,113.785,145.605z"/>
			<path fill="#E9F7FE" d="M114.248,60.662c0.073,1.107,0.056,2.206-0.554,3.363c-0.321-0.166-0.624-0.368-0.923-0.603
				c-0.722-0.542-1.46-1.145-2.237-1.653c0.997-0.714,1.993-1.478,2.976-2.215c0.021,0.303,0.24,0.438,0.421,0.608
				C114.053,60.322,114.147,60.497,114.248,60.662z"/>
			<path fill="#CBE5F2" d="M114,86.609c0.321,4.578,0.08,9.932,0.08,14.675c-0.08-0.273-0.15-0.52-0.23-0.777
				c-2.14-6.4-5.621-12.872-9.887-18.101c-3.258-4.043-6.845-6.66-10.73-9.655c1.397-0.863,2.802-1.711,4.207-2.568
				c2.467,0.495,5.078,0.754,6.409-0.108h0.032c0.146-1.206,0.467-2.566,0.875-3.912c1.544,1.765,3.649,3.565,5.75,4.628
				c0,0,0,0.012,0,0.026C111.878,75.778,113.694,81.241,114,86.609z"/>
			<path fill="#E9F7FE" d="M113.509,59.554c0.153,0.2,0.289,0.402,0.421,0.608C113.75,59.991,113.53,59.857,113.509,59.554z"/>
			<path fill="#6B1027" d="M113.715,69.083c-0.052,0-0.101,0.019-0.153,0.019c-0.52,0.075-0.993,0.237-1.446,0.491
				c-1.077-2.277-2.251-4.426-3.541-6.405c0.652-0.472,1.307-0.951,1.959-1.42c0.777,0.509,1.516,1.112,2.237,1.653
				C113.203,65.217,113.391,67.405,113.715,69.083z"/>
			<path fill="#E9F7FE" d="M113.509,59.554c-0.983,0.737-1.979,1.5-2.976,2.215c-1.028-0.646-2.112-1.107-3.381-0.938l-0.094,0.017
				c-0.039-0.455-0.07-0.911-0.101-1.38c0.049-0.286,0.031-0.571-0.07-0.852c-0.101-1.134-0.185-2.296-0.269-3.435l-0.052-0.188
				c0.303-0.066,0.627-0.151,0.979-0.269C109.784,55.196,111.878,57.188,113.509,59.554z"/>
			<path fill="#8A1B39" d="M112.115,69.594c-0.547,0.29-1.077,0.687-1.589,1.197h-0.021c-2.101-1.063-4.206-2.863-5.75-4.628
				c0.045-0.187,0.101-0.375,0.164-0.554c1.265-0.794,2.474-1.603,3.655-2.42C109.864,65.168,111.038,67.316,112.115,69.594z"/>
			<path fill="#151226" d="M102.779,93.719c6.548,3.8,8.96,9.601,11.26,17.247c-8.918,5.654-18.432,11.178-26.859,15.926
				c-4.196-11.5-8.771-25.791-13.477-35.705c-0.735-1.439-1.687-2.966-2.882-4.395c4.391-2.457,8.12-5.2,12.358-7.82h0.014
				c0.206,0.42,0.415,0.809,0.61,1.143c1.425,1.734,4.422-0.634,5.698-0.634c2.056,0.92-0.083,7.914-0.083,7.914
				C93.37,89.601,98.837,91.347,102.779,93.719z"/>
			<path fill="#6B1027" d="M110.533,61.769c-0.652,0.469-1.307,0.948-1.959,1.42c-0.491-0.763-0.997-1.483-1.502-2.169V61
				c-0.014-0.052-0.014-0.106-0.014-0.152l0.094-0.017C108.421,60.662,109.505,61.122,110.533,61.769z"/>
			<path fill="#16132B" d="M109.707,143.885l-26.374,15.153c-0.537-0.249-1.056-0.486-1.583-0.735
				c-0.049-2.76-0.136-5.417-0.32-7.839c-0.418-5.18-0.655-10.642-1.025-16.139h0.018c0.049-1.273,0.098-2.523,0.119-3.751
				c2.105-1.161,4.338-2.389,6.639-3.68c1.081,2.938,2.143,5.698,3.161,8.15C93.795,136.976,101.573,140.428,109.707,143.885z"/>
			<path fill="#8A1B39" d="M107.072,61.019c0.505,0.687,1.011,1.406,1.502,2.169c-1.181,0.817-2.391,1.626-3.655,2.42
				c0.522-1.706,1.167-3.384,1.763-4.778l0.153-0.117c0.091,0.103,0.153,0.179,0.237,0.286V61.019z"/>
			<path fill="#E9F7FE" d="M107.059,60.848c0,0.045,0,0.1,0.014,0.152c-0.083-0.106-0.146-0.183-0.237-0.286l-0.153,0.117
				c-0.596,1.394-1.241,3.072-1.763,4.778c-0.15,0.085-0.286,0.162-0.422,0.265c-2.314,1.429-4.688,2.858-7.057,4.31
				c-1.952-0.412-3.798-0.978-4.858-1.283c-2.241-0.692-4.708-1.678-6.562-3.129c-1.802-2.568-2.872-5.525-1.495-8.254l0.066-0.035
				c0.101,0.254,0.237,0.491,0.387,0.706c4.506,7.27,21.189,5.367,21.98,1.281C106.989,59.937,107.02,60.394,107.059,60.848z"/>
			<path fill="#F89C6B" d="M106.888,58.616c0.014,0.281,0.039,0.566,0.07,0.852c-0.791,4.086-17.474,5.989-21.98-1.281
				c-0.15-1.912-0.3-3.846-0.436-5.783c-0.08-0.988-0.153-1.983-0.233-2.971c-0.018-0.169-0.018-0.36-0.035-0.526
				c-0.081-0.957-0.154-1.917-0.216-2.849c0.484,0.062,1.056-0.077,1.676-0.479c0.575,1.551,1.568,3.565,3.635,5.231
				c1.583,0.74,3.377,1.415,5.231,1.986c4.841,1.528,9.87,2.42,11.187,2.317c0.209,0,0.477-0.052,0.781-0.12l0.052,0.188
				C106.703,56.32,106.787,57.482,106.888,58.616z"/>
			<path fill="#E9F7FE" d="M104.497,65.874c0.091,0.103,0.167,0.183,0.258,0.29c-0.408,1.345-0.729,2.706-0.875,3.912h-0.032
				c-1.331,0.863-3.941,0.603-6.409,0.108C99.81,68.731,102.183,67.302,104.497,65.874z"/>
			<path fill="#CBE5F2" d="M97.44,70.183c-1.404,0.857-2.809,1.706-4.207,2.568c-0.902-0.702-1.847-1.429-2.791-2.203
				c-1.391-1.209-3.109-2.894-4.423-4.778c1.854,1.451,4.321,2.438,6.562,3.129C93.642,69.206,95.488,69.771,97.44,70.183z"/>
			<path fill="#F9A873" d="M94.614,38.027c0.558,2.037,0.07,3.788-0.077,6.141C94.213,47.902,95,49.979,94.6,52.796
				c-1.854-0.572-3.648-1.246-5.231-1.986c-2.066-1.666-3.06-3.68-3.635-5.231c0.039-0.032,0.094-0.049,0.132-0.081
				c-0.415-1.129-0.815-2.737-1.188-4.426c1.178,0.863,2.439,1.648,3.719,2.408c-0.373-1.68-0.505-3.046-0.505-4.203
				c0-2.871,0.84-4.506,1.101-6.475c0.376-2.488,0.913-4.32,0.802-6.611c0.815,0.02,1.662,0,2.52-0.098
				c1.192,3.063,1.69,5.703,1.69,5.703C93.098,34.638,93.704,34.669,94.614,38.027z"/>
			<path fill="#2F2A47" d="M90.442,70.549c0.944,0.774,1.889,1.5,2.791,2.203c-3.426,2.08-6.806,4.171-10.04,6.221
				c-0.851-1.764-1.589-4.154-2.234-5.815c-1.328-3.234-4.426-11-3.189-14.983c0.265-0.237,0.53-0.469,0.805-0.692
				c2.032-1.746,4.015-3.42,5.966-5.078c0.136,1.938,0.286,3.872,0.436,5.783c-0.15-0.214-0.286-0.451-0.387-0.706l-0.066,0.035
				c-1.376,2.729-0.307,5.686,1.495,8.254C87.333,67.655,89.052,69.339,90.442,70.549z"/>
			<path fill="#F9A873" d="M85.866,45.499c-0.038,0.032-0.094,0.049-0.132,0.081c-0.62,0.402-1.192,0.542-1.676,0.479
				c-2.453-0.362-3.415-5.703-4.377-8.062c-1.224-3.009,2.425-3.88,3.687-2.84c0.373,1.317,0.826,3.671,1.31,5.917
				C85.051,42.761,85.452,44.37,85.866,45.499z"/>
			<path fill="#2F2A47" d="M84.309,49.433c0.08,0.988,0.153,1.983,0.233,2.971c-1.952,1.657-3.935,3.332-5.966,5.078
				C80.242,54.556,82.183,51.604,84.309,49.433z"/>
			<path fill="#12111E" d="M83.333,159.038l-1.547,0.894c-0.014-0.554-0.014-1.094-0.035-1.629
				C82.277,158.551,82.796,158.789,83.333,159.038z"/>
			<path fill="#181433" d="M83.193,78.972H83.18c-4.238,2.621-7.967,5.363-12.358,7.82c-2.997-3.703-7.395-6.838-12.626-6.392
				c-0.119,0-0.237,0.014-0.334,0.031c-2.123-0.214-3.917,0.603-4.872,3.166l-0.101-0.035c0.432-1.26,1.039-2.323,1.777-3.177
				l-0.199-0.186c6.816-7.535,15.261-15.132,23.304-22.027c-1.237,3.983,1.861,11.75,3.189,14.983
				C81.604,74.818,82.343,77.208,83.193,78.972z"/>
			<path fill="#16132B" d="M87.18,126.892c-2.3,1.291-4.534,2.52-6.639,3.68c0.317-18.409-3.816-30.584-11.905-42.623
				c0.118-0.062,0.237-0.117,0.355-0.183c0.62-0.322,1.241-0.639,1.83-0.974c1.195,1.429,2.146,2.955,2.882,4.395
				C78.409,101.102,82.984,115.392,87.18,126.892z"/>
			<path fill="#0C0B11" d="M81.75,158.302c0.021,0.535,0.021,1.075,0.035,1.629L61.273,171.7c0.962-5.048,1.662-9.92,1.662-16.494
				c0-7.583-5.917-26.385-7.008-34.942h0.045c-1.307-5.229-2.732-11.598-3.579-17.782c3.938,13.312,16.16,44.363,20.311,50.066
				l-0.439,0.274C72.791,153.791,76.495,155.832,81.75,158.302z"/>
			<path fill="#16132B" d="M81.43,150.463c0.185,2.422,0.271,5.08,0.32,7.839c-5.255-2.471-8.96-4.511-9.486-5.48l0.439-0.274
				c-4.151-5.703-16.373-36.754-20.311-50.066c-0.042-0.412-0.115-0.809-0.164-1.197c-0.774-6.226-0.927-12.14,0.254-16.444
				c1.408-2.577,3.443-4.123,5.377-4.409c3.833,0.397,8.66,4.238,11.131,7.334c-0.119,0.066-0.237,0.121-0.355,0.183
				c8.088,12.039,12.222,24.214,11.905,42.623c-0.136,0.072-0.254,0.134-0.37,0.206c0.08,1.175,0.167,2.366,0.233,3.546
				C80.775,139.821,81.012,145.283,81.43,150.463z"/>
			<path fill="#0C0B11" d="M80.172,130.778c0.115-0.071,0.233-0.134,0.37-0.206c-0.021,1.229-0.07,2.478-0.119,3.751h-0.018
				C80.339,133.144,80.252,131.953,80.172,130.778z"/>
			<path fill="#16132B" d="M70.822,86.792c-0.589,0.334-1.209,0.651-1.83,0.974c-2.471-3.096-7.298-6.937-11.131-7.334
				c0.097-0.018,0.216-0.031,0.334-0.031C63.427,79.955,67.825,83.089,70.822,86.792z"/>
			<path fill="#0C0B11" d="M52.989,83.598c0.955-2.563,2.75-3.38,4.872-3.166c-1.935,0.286-3.97,1.832-5.377,4.409
				c0.111-0.452,0.248-0.876,0.404-1.277L52.989,83.598z"/>
			<path fill="#16132B" d="M52.484,84.841c-1.182,4.304-1.028,10.218-0.254,16.444C49.654,94.242,50.449,88.512,52.484,84.841z"/>
		</g>
	</g>
</g>
</svg>
