<?xml version="1.0" encoding="utf-8"?>
<!-- Generator: Adobe Illustrator 16.0.0, SVG Export Plug-In . SVG Version: 6.00 Build 0)  -->
<!DOCTYPE svg PUBLIC "-//W3C//DTD SVG 1.1//EN" "http://www.w3.org/Graphics/SVG/1.1/DTD/svg11.dtd">
<svg version="1.1" id="Layer_1" xmlns="http://www.w3.org/2000/svg" xmlns:xlink="http://www.w3.org/1999/xlink" x="0px" y="0px"
	 width="207.264px" height="442.588px" viewBox="0 0 207.264 442.588" enable-background="new 0 0 207.264 442.588"
	 xml:space="preserve">
<g>
	<g id="XMLID_9_">
		<g>
			<path fill="#071C21" d="M154.038,77.946l0.074,0.035c-0.597,1.402-1.022,3.717-1.218,6.525c-0.101,1.331-0.149,2.782-0.138,4.291
				c-2.432-4.139-3.01-11.458,0.07-14.803l-0.07-0.057c0.899-1.066,1.753-2.189,2.71-3.264c-0.455,0.936-0.688,1.907-0.771,3.275
				C154.635,75.094,154.51,76.918,154.038,77.946z"/>
			<path fill="#273137" d="M180.662,73.047v0.013c-2.127,7.086,0.761,17.129,7.137,19.373c4.228,1.415,8.042,1.158,11.092-0.27
				c-0.046,1.918-0.581,3.59-0.862,5.531c-1.056,5.272-3.897,9.328-7.636,11.948c-2.272,0.069-4.516-0.257-6.326-1.133
				c0.961,1.461-0.364,1.239-1.312,0.876c-1.459-0.584-2.78-1.17-4.02-2.045c-2.34-1.394-4.454-3.065-6.207-5.04h-0.082
				c0.082,0.875,0.303,1.672,0,2.478c-2.411-1.087-4.164-5.554-5.042-7.82c-1.235-3.136-1.823-6.432-3.062-9.496
				c-0.364,0.727-0.364,1.895-0.948,2.562c-1.169-3.074-0.37-7.892,0.211-11.039c0.373-2.267,1.168-4.243,2.407-6.207
				c0.667-0.959,2.493-2.491,2.493-3.66c-1.979-0.07-4.022,1.975-5.849,1.684c1.168-2.924,5.417-5.11,8.186-6.21
				c2.479-0.901,5.226-1.66,7.798-2.231c3.099,0.419,6.011,1.577,8.195,3.882C183.645,67.226,181.646,69.832,180.662,73.047z"/>
			<path fill="#071C21" d="M198.891,92.163c-3.05,1.427-6.864,1.684-11.092,0.27c-6.376-2.244-9.264-12.287-7.137-19.373
				c0.152,2.701,2.037,5.833,2.68,7.903c0.36-0.443,0.293-1.098,0.293-1.682c1.393,1.821,2.561,3.507,4.521,4.746
				c1.321,0.876,2.995,2.338,4.678,2.338c0.29-1.24-0.435-2.27-0.793-3.286c1.307-0.151,2.616,1.32,4.008,1.391
				c1.979,0.142,2.42-1.391,2.196-3.073c1.756,1.318,4.387-2.046,5.338-3.287c1.001-1.438,1.597-3.403,1.551-5.285
				C208.355,81.255,205.263,89.229,198.891,92.163z"/>
			<path fill="#1E282C" d="M188.637,65.88c5.904-2.77,13.717,0.316,16.399,6.676c0.04,0.093,0.073,0.176,0.098,0.269
				c0.046,1.881-0.55,3.847-1.551,5.285c-0.951,1.241-3.582,4.605-5.338,3.287c0.224,1.682-0.217,3.215-2.196,3.073
				c-1.392-0.07-2.701-1.542-4.008-1.391c0.358,1.016,1.083,2.045,0.793,3.286c-1.683,0-3.356-1.462-4.678-2.338
				c-1.961-1.239-3.129-2.925-4.521-4.746c0,0.584,0.067,1.239-0.293,1.682c-0.643-2.069-2.527-5.202-2.68-7.903v-0.013
				c0.984-3.215,2.982-5.821,6.173-6.803c0.141,0.139,0.27,0.282,0.389,0.432c0.455-0.305,0.927-0.562,1.4-0.795
				C188.637,65.88,188.637,65.88,188.637,65.88z"/>
			<path fill="#424A4F" d="M181.705,112.928c-4.173,0.503-8.593-0.35-12.558-2.701c-0.716-0.42-1.429-0.899-2.104-1.425
				c-1.823-1.452-3.466-2.923-4.913-4.433c-0.059-0.059-0.116-0.116-0.162-0.162c-5.556-5.837-8.431-12.195-9.073-19.701
				c0.195-2.808,0.621-5.123,1.218-6.525l-0.074-0.035c0.472-1.028,0.597-2.853,0.658-3.998c0.083-1.368,0.315-2.339,0.771-3.275
				c0.563-0.655,1.169-1.309,1.836-1.918c3.111-3.121,5.846-4.291,10.324-5.458c3.344-0.915,7.309-1.451,11.013-0.936
				c-2.572,0.572-5.319,1.331-7.798,2.231c-2.769,1.1-7.018,3.286-8.186,6.21c1.826,0.291,3.869-1.754,5.849-1.684
				c0,1.169-1.826,2.701-2.493,3.66c-1.239,1.964-2.034,3.94-2.407,6.207c-0.581,3.146-1.38,7.964-0.211,11.039
				c0.584-0.667,0.584-1.835,0.948-2.562c1.238,3.063,1.826,6.36,3.062,9.496c0.878,2.267,2.631,6.733,5.042,7.82
				c0.303-0.806,0.082-1.603,0-2.478h0.082c1.753,1.975,3.867,3.646,6.207,5.04c1.239,0.875,2.561,1.461,4.02,2.045
				c0.948,0.362,2.273,0.584,1.312-0.876c1.811,0.876,4.054,1.202,6.326,1.133C187.823,111.443,184.828,112.565,181.705,112.928z"/>
			<path fill="#0F121E" d="M121.741,143.198c5.573,1.123,11.863,4.408,17.488,6.021c-1.242,3.636-2.142,6.981-2.166,8.677
				c-0.024,2.152,0.575,4.816,1.566,7.589c-5.638-3.239-14.72-7.403-21.162-12.947c-0.01-0.011-0.01-0.034,0-0.057
				c-0.435-2.492,2.07-7.659,4.099-9.425c0.052,0.048,0.102,0.095,0.159,0.141C121.726,143.198,121.726,143.211,121.741,143.198z"/>
			<path fill="#0B1E38" d="M150.426,207.351c0.26,4.339,0.621,11.132,0.753,18.463c-0.658-0.187-1.288-0.41-1.888-0.654
				c-2.16-0.902-4.289-1.707-6.216-2.689c-2.398-1.216-4.491-2.7-5.963-4.958c4.745-1.065,9.588-5.473,10.466-9.902
				c-0.049-0.222-0.095-0.443-0.141-0.666C148.478,207.095,149.343,207.166,150.426,207.351z"/>
			<path fill="#0B1E38" d="M187.327,204.487c1.64,4.431,5.029,8.222,9.027,10.888c-0.306,0.792-1.532,1.798-3.429,2.874
				c-2.105,1.193-5.039,2.482-8.44,3.696c-1.505-1.86-3.282-4.058-4.381-6.256c-0.366,2.794-1.336,5.917-2.961,8.498
				c-2.398,0.633-4.889,1.184-7.378,1.615c2.294-6.221,1.664-12.943,1.813-19.405c1.658-0.459,3.282-0.938,4.897-1.487
				c3.521-1.17,6.96-2.576,10.511-4.318C187.033,201.904,187.141,203.213,187.327,204.487z"/>
			<path fill="#101423" d="M180.104,215.688c1.099,2.198,2.876,4.396,4.381,6.256c-2.267,0.794-4.757,1.566-7.342,2.242
				C178.769,221.606,179.738,218.482,180.104,215.688z"/>
			<path fill="#0E1212" d="M139.229,149.219c0.826-2.432,1.809-5.003,2.769-7.284c-1.193,17.339,7.18,46.922,8.091,60.59
				c0,0,0.138,1.821,0.337,4.825c-1.083-0.185-1.948-0.255-2.988-0.407c-1.731-8.091-2.469-22.824-3.279-30.857
				c-2.23-3.132-4.228-6.968-5.528-10.601c-0.991-2.773-1.591-5.438-1.566-7.589C137.088,156.2,137.987,152.855,139.229,149.219z"/>
			<path fill="#0E1212" d="M183.084,130.114c1.044,9.822-0.994,19.631-3.38,29.454c-2.594,10.03-8.746,34.933-3.228,45.341
				c-1.615,0.549-3.239,1.028-4.897,1.487c0.037-0.975,0.07-1.935,0.138-2.89c1.462-15.785-0.584-32.152,0.878-48.23
				c0.875-9.646,1.172-17.538,9.064-23.968C182.09,130.923,182.57,130.524,183.084,130.114z"/>
			<path fill="#0B1E37" d="M206.887,129.704c-0.373,3.871-2.221,8.432-3.521,11.894c-1.928,5.739-4.629,11.224-6.77,16.939
				c-3.821,10.687-7.973,20.566-9.116,32.013c-0.34,3.24-0.605,6.666-0.493,10.042c-3.551,1.742-6.989,3.147-10.511,4.318
				c-5.519-10.409,0.634-35.311,3.228-45.341c2.386-9.823,4.424-19.632,3.38-29.454c5.685-4.548,16.122-10.452,23.105-8.815
				c1.156,2.305,1.248,5.811,0.887,8.429L206.887,129.704z"/>
			<path fill="#0F121E" d="M206.079,121.079c0.037,0.069,0.083,0.15,0.11,0.22c-6.983-1.637-17.421,4.267-23.105,8.815
				c-0.422-3.974-1.346-7.949-2.958-11.924c0.704-0.13,1.417-0.28,2.139-0.421C191.362,115.946,202.186,113.922,206.079,121.079z"/>
			<path fill="#FBB686" d="M198.398,332.572c1.954,7.412,1.954,10.605,1.954,18.003c0,14.817-2.34,30.798-3.894,45.601l-0.563,0.162
				c-1.122-0.795-2.839-1.076-5.424-0.547c-0.119,0.024-0.235,0.058-0.349,0.082c-0.046-12.291-0.646-24.579-2.034-36.868
				c-0.865-7.506-8.009-36.405,6.479-36.818C195.862,325.965,197.719,329.858,198.398,332.572z"/>
			<path fill="#0E1212" d="M198.398,228.771c4.771,16.112-0.312,28.869-1.928,43.424c-1.508,13.9-3.016,26.73-3.123,40.899
				c-3.539,2.955-8.452,6.008-13.863,8.462c1.4-8.801,1.856-17.85,1.587-27.146c-0.293-6.433-0.584-13.154-0.875-19.584
				c-0.049-0.961-0.165-1.823-0.352-2.594c-1.031-4.154-4.16-5.733-9.59-6.468c1.462-8.77,1.175-21.924,7.018-29.52
				C179.974,232.736,193.348,225.51,198.398,228.771z"/>
			<path fill="#0E1212" d="M181.732,416.394c0.438-2.423,0.872-5.17,1.609-8.128c0.009-0.034,0.021-0.083,0.036-0.116
				c0.45-1.392,1.016-3.463,1.771-5.519c1.138-3.038,2.683-6.036,4.974-6.758c0.113-0.024,0.229-0.058,0.349-0.082
				c2.585-0.529,4.302-0.248,5.424,0.547c3.041,2.154,1.78,8.07,1.652,12.197c-0.024,0.046-0.034,0.106-0.062,0.162
				c-1.027,1.217-1.774,1.627-2.695,3.756v0.013c-0.728,3.481-0.743,7.944-0.706,11.829c-1.193,0.059-2.863,0.141-4.408,0.248
				c0.245-4.821-0.538-10.337-1.508-14.689c-1.169,3.512-1.842,12.444-2.631,15.167l0.012,0.092
				c-2.805,0.352-5.292,0.623-7.797-0.092C176.187,421.138,178.324,416.675,181.732,416.394z"/>
			<path fill="#0E1122" d="M194.791,412.453c0.921-2.129,1.668-2.539,2.695-3.756c-1.447,4.595-1.811,10.254-1.811,15.54
				c-0.178,0-0.771,0.024-1.591,0.058c-0.037-3.885-0.021-8.348,0.706-11.829V412.453z"/>
			<path fill="#101423" d="M184.485,221.944c3.401-1.213,6.335-2.502,8.44-3.696l1.205,0.164c1.918,3.625,3.301,7.062,4.268,10.359
				c-5.051-3.262-18.425,3.965-21.126,7.474c-5.843,7.596-5.556,20.75-7.018,29.52c5.43,0.734,8.559,2.313,9.59,6.468h-3.31v-0.037
				c0,0-8.076-4.044-17.468-8.755c0.97-3.169,1.683-6.785,2.154-9.557c0.07-0.013,0.138-0.024,0.195-0.03
				c2.472-8.819,3.803-18.043,4.354-27.465c1.318-0.152,2.661-0.354,3.995-0.587c2.489-0.432,4.979-0.982,7.378-1.615
				C179.729,223.511,182.219,222.738,184.485,221.944z"/>
			<path fill="#0E1212" d="M194.085,424.295c0.016,1.318,0.036,2.573,0.036,3.695c-1.168,1.169-3.169,1.11-4.922,0.48
				c0.254-1.215,0.41-2.539,0.478-3.928C191.222,424.436,192.892,424.354,194.085,424.295z"/>
			<path fill="#F9A974" d="M179.484,321.557c5.411-2.454,10.324-5.507,13.863-8.462c-0.009,0.521-0.009,1.053-0.009,1.576
				c-0.328,2.126,0.306,4.793,1.229,7.516c-14.488,0.413-7.345,29.312-6.479,36.818c1.389,12.289,1.988,24.577,2.034,36.868
				c-2.291,0.722-3.836,3.72-4.974,6.758l-0.205-0.07c1.099-12.76-8.525-59.15-12.555-78.288
				C174.804,323.515,177.192,322.587,179.484,321.557z"/>
			<path fill="#0E1122" d="M188.169,409.854c0.97,4.353,1.753,9.868,1.508,14.689c-1.998,0.138-3.8,0.3-4.139,0.478
				C186.327,422.298,187,413.365,188.169,409.854z"/>
			<path fill="#0F121E" d="M163.91,121.815c4.864-1.519,9.811-2.409,14.897-3.367c0.432-0.083,0.875-0.164,1.318-0.258
				c1.612,3.975,2.536,7.95,2.958,11.924c-0.514,0.41-0.994,0.809-1.425,1.194c-7.893,6.43-8.189,14.322-9.064,23.968
				c-1.462,16.078,0.584,32.446-0.878,48.23c-0.067,0.955-0.101,1.915-0.138,2.89c-1.838,0.488-3.707,0.943-5.65,1.354
				c-0.654-19.572-3.625-39.459-5.91-57.969c-0.027-5.974-0.366-17.853-4.668-20.811c-1.3-0.936-3.252-1.263-5.182-1.029
				c3.463-2.01,7.216-3.752,10.795-5.133C161.949,122.445,162.925,122.119,163.91,121.815z"/>
			<path fill="#FBB686" d="M180.126,118.19c-0.443,0.095-0.887,0.176-1.318,0.258c-5.087,0.958-10.033,1.848-14.897,3.367
				c0-0.586-0.037-1.158-0.073-1.742c1.921-0.783,4.362-3.706,5.179-5.355c0.737-1.487,0.459-2.97,0.132-4.491
				c3.965,2.351,8.385,3.205,12.558,2.701c0.208,1.379,0.56,3.391,0.56,4.841C181.543,117.91,180.83,118.06,180.126,118.19z"/>
			<path fill="#101423" d="M168.26,325.414c-8.406,1.967-16.708,1.637-22.291-3.145c-0.019-6.593-0.676-13.644-1.572-20.958
				l10.502,5.411l21.637,11.15v-45.641h3.31c0.187,0.771,0.303,1.633,0.352,2.594c0.291,6.43,0.582,13.151,0.875,19.584
				c0.27,9.297-0.187,18.346-1.587,27.146c-2.292,1.03-4.681,1.958-7.095,2.716C171.02,324.713,169.643,325.09,168.26,325.414z"/>
			<path fill="#C3854E" d="M158.902,264.535c-0.046-0.024-0.101-0.058-0.159-0.079c0.104-0.33,0.221-0.667,0.324-1.016
				c9.392,4.711,17.468,8.755,17.468,8.755v0.037v45.641l-1.799-45.011C172.365,271.449,166.109,268.194,158.902,264.535z"/>
			<path fill="#D8AA80" d="M151.06,279.807l0.055-0.013c2.389-0.141,1.526-3.658,1.465-5.354c0.248,1.236,0.535,2.466,0.771,3.646
				l0.244-0.049c1.839-0.979,1.417-5.234,0.891-7.795c0.456-1.474,1.098-3.72,1.496-4.814c0.021,0.006,0.033,0.006,0.049,0.006
				c-0.272,1.242-0.646,2.423-0.539,3.836l-0.036,0.013c0.26,1.438,0.517,2.97,0.776,4.374h0.285c2.169,0,1.584-5.592,1.813-7.812
				c0.024-0.175,0.05-0.324,0.083-0.456v-0.009c0.116-0.294,0.221-0.609,0.33-0.924c0.059,0.021,0.113,0.055,0.159,0.079
				c7.207,3.659,13.463,6.914,15.834,8.327l1.799,45.011l-21.637-11.15c-3.735-14.362-11.857-33.139-26.241-38.431l-0.431-18.605
				c0.505,0.202,1.26,0.514,2.229,0.948c3.533,1.579,9.835,4.619,16.642,7.997c-0.364,0.786-0.691,1.59-0.976,2.397
				c-0.475,1.38-0.829,2.793-0.958,4.197c0,0.013,0,0.013,0,0.021c0.141,2.738,0.753,6.818,1.417,9.731
				c0.024,0.104,0.036,0.223,0.07,0.324c0.131,0.574,0.363,1.181,0.571,1.707c2.331-0.172,1.334-7.073,0.856-10.438
				c0.42-1.288,1.132-2.139,1.787-3.311c0.119,0.049,0.244,0.104,0.36,0.153c-0.465,2.349-0.697,5.374-0.584,7.61
				c0,0.046,0,0.092,0,0.141C149.542,273.96,150.478,277.142,151.06,279.807z"/>
			<path fill="#0F121E" d="M171.579,206.396c-0.149,6.462,0.48,13.185-1.813,19.405c-1.334,0.232-2.677,0.435-3.995,0.587
				c0.349-6.151,0.373-12.374,0.158-18.639C167.872,207.34,169.741,206.884,171.579,206.396z"/>
			<path fill="#FBB686" d="M168.291,328.62c0.409,9.868,3.147,19.314,2.224,29.498c-1.499,14.965-11.612,33.533-8.957,48.789
				c-1.566,0.144-2.934,0.462-4.127,0.912c0.318-14.124,1.136-28.26,1.136-42.384C158.566,357.299,155.682,328.923,168.291,328.62z"
				/>
			<path fill="#F9A974" d="M163.372,116.098c-0.563-3.812-1.367-7.613-1.404-11.424c0.073-0.104,0.119-0.199,0.162-0.304
				c1.447,1.509,3.09,2.981,4.913,4.433c0.676,0.526,1.389,1.005,2.104,1.425c0.327,1.521,0.605,3.004-0.132,4.491
				c-0.816,1.649-3.258,4.572-5.179,5.355C163.735,118.751,163.57,117.419,163.372,116.098z"/>
			<path fill="#F9A974" d="M150.977,413.469c-1.512,3.084-1.566,7.317-2.279,10.896c-1.401,5.586-2.79,8.455-7.262,9.257
				c0.505-0.924,0.984-1.902,1.44-2.912c1.318-2.896,2.515-6.039,3.729-8.987l-0.083-0.037c5.062-11.783-0.337-81.747-0.554-98.432
				c0-0.327,0-0.654,0-0.984c5.583,4.781,13.885,5.111,22.291,3.145c-0.024,1.079,0,2.142,0.031,3.206
				c-12.609,0.303-9.725,28.679-9.725,36.815c0,14.124-0.817,28.26-1.136,42.384C154.543,408.944,152.592,410.93,150.977,413.469z"
				/>
			<path fill="#0B1E38" d="M160.019,149.781c2.285,18.51,5.256,38.397,5.91,57.969c0.215,6.265,0.19,12.487-0.158,18.639
				c-2.096,0.245-4.151,0.395-6.131,0.407c-0.012-10.267-0.979-20.518-1.566-30.796c-0.771-12.464-0.97-25.136-2.337-37.602
				c-0.587-5.073-0.973-11.305-3.108-15.982c-1.168-2.49-5.157-9.379-8.855-8.698c0.517-1.146,1.15-2.117,1.921-2.913
				c1.404-1.005,2.915-1.964,4.476-2.865c1.93-0.234,3.882,0.093,5.182,1.029C159.652,131.928,159.991,143.807,160.019,149.781z"/>
			<path fill="#0E1212" d="M141.436,433.622c4.472-0.802,5.86-3.671,7.262-9.257c0.713-3.579,0.768-7.812,2.279-10.896
				c1.615-2.539,3.566-4.524,6.454-5.649c1.193-0.45,2.561-0.769,4.127-0.912c0.26-0.021,0.514-0.046,0.783-0.058
				c4.946,10.29-0.841,23.487,2.142,33.393c-2.337,1.762-6.853,1.168-5.274-2.142c-0.082-4.347-0.376-8.697-0.382-13.047
				c0-0.095,0-0.199,0-0.291c-4.2,2.68-11.426,11.753-12.044,16.859c-0.281,0.144-0.541,0.269-0.795,0.382
				c-5.167,0.719-9.994,0.997-14.827-0.486c-0.398-2.726,0-5.846,0.773-8.187c2.906-0.363,8.321-0.957,10.942-2.621
				C142.42,431.72,141.94,432.698,141.436,433.622z"/>
			<path fill="#F89C6A" d="M161.968,104.673c0.037,3.812,0.841,7.612,1.404,11.424c-1.285-0.094-2.444-0.621-3.473-1.485
				c-0.373-1.403-0.303-3.203-0.168-4.572C159.909,107.878,161.077,106.417,161.968,104.673z"/>
			<path fill="#F9A36D" d="M152.757,88.797c-0.012-1.508,0.037-2.96,0.138-4.291c0.643,7.505,3.518,13.864,9.073,19.701
				c0,0.151,0,0.315,0,0.466c-0.891,1.744-2.059,3.205-2.236,5.367c-0.135,1.369-0.205,3.169,0.168,4.572
				C154.883,110.414,152.794,98.268,152.757,88.797z"/>
			<path fill="#0B1E38" d="M161.222,253.884c-3.16,0.538-8.012-0.337-10.264-2.521c-0.281-0.272-0.532-0.563-0.731-0.878v-0.016
				c0.037-0.257,0.077-0.523,0.107-0.792c0.502,0.141,1.007,0.235,1.508,0.303c1.753,0.195,5.847,0.195,7.015-1.367
				c0.783-0.97,0.584-4.479,0.584-5.847c0.389-5.065,0.199-10.522,0.199-15.781c0-0.064,0-0.132,0-0.189
				c1.979-0.013,4.035-0.162,6.131-0.407c-0.551,9.422-1.882,18.646-4.354,27.465C161.359,253.859,161.292,253.871,161.222,253.884z
				"/>
			<path fill="#F9A974" d="M153.387,264.646c-0.819-0.294-1.591-0.587-2.224-0.832c-0.312-0.119-0.621-0.257-0.937-0.397
				c-0.116-0.049-0.241-0.104-0.36-0.153c-1.325-0.618-2.628-1.358-3.744-2.233c0.284-0.808,0.611-1.611,0.976-2.397
				c0.141-0.324,0.29-0.655,0.459-0.97c0.859-1.802,1.832-3.487,2.67-4.993c0.261-0.455,0.508-0.89,0.731-1.306
				c2.252,2.184,7.104,3.059,10.264,2.521c-0.472,2.771-1.185,6.388-2.154,9.557c-0.104,0.349-0.22,0.686-0.324,1.016
				c-0.109,0.314-0.214,0.63-0.33,0.924v0.009c-0.033,0.132-0.059,0.281-0.083,0.456c-0.663-0.043-1.462-0.187-2.3-0.41
				c0.009-0.089,0.03-0.187,0.049-0.27c-0.024,0.083-0.064,0.166-0.098,0.264C155.131,265.215,154.229,264.933,153.387,264.646z"/>
			<path fill="#132B50" d="M159.64,226.985c0,5.259,0.189,10.716-0.199,15.781c0,1.368,0.199,4.877-0.584,5.847
				c-1.168,1.562-5.262,1.562-7.015,1.367c-0.501-0.067-1.006-0.162-1.508-0.303c0.854-6.819,0.994-15.666,0.845-23.864
				c2.478,0.713,5.365,1.007,8.461,0.982C159.64,226.854,159.64,226.921,159.64,226.985z"/>
			<path fill="#132B50" d="M141.998,141.936c0.224-3.226,0.771-6.02,1.774-8.218c3.698-0.681,7.688,6.208,8.855,8.698
				c2.136,4.677,2.521,10.909,3.108,15.982c1.367,12.466,1.566,25.138,2.337,37.602c0.588,10.278,1.555,20.529,1.566,30.796
				c-3.096,0.024-5.983-0.27-8.461-0.982c-0.132-7.331-0.493-14.124-0.753-18.463c-0.199-3.004-0.337-4.825-0.337-4.825
				C149.178,188.857,140.805,159.274,141.998,141.936z"/>
			<path fill="#0E1122" d="M158.826,424.763c0,0.092,0,0.196,0,0.291c-3.255,3.662-5.17,9.015-5.029,14.054
				c-2.27,0.095-4.879,1.471-7.015,2.515C147.4,436.516,154.626,427.442,158.826,424.763z"/>
			<path fill="#FBB686" d="M158.33,265.845c-0.229,2.221,0.355,7.812-1.813,7.812h-0.285c-0.26-1.404-0.517-2.937-0.776-4.374
				l0.036-0.013c-0.106-1.413,0.267-2.594,0.539-3.836C156.868,265.658,157.667,265.802,158.33,265.845z"/>
			<path fill="#FBB686" d="M154.485,270.243c0.526,2.561,0.948,6.816-0.891,7.795l-0.244,0.049c-0.236-1.181-0.523-2.41-0.771-3.646
				c-0.339-1.648-0.605-3.312-0.605-4.876h0.162c0.116-1.719,0.875-3.273,1.251-4.919c0.842,0.287,1.744,0.569,2.595,0.783
				C155.583,266.523,154.941,268.77,154.485,270.243z"/>
			<path fill="#E2C09F" d="M144.396,301.312l-15.154-7.812l-0.585-25.207c14.384,5.292,22.506,24.068,26.241,38.431L144.396,301.312
				z"/>
			<path fill="#FBB686" d="M151.974,269.564c0,1.563,0.267,3.228,0.605,4.876c0.062,1.695,0.924,5.213-1.465,5.354l-0.055,0.013
				c-0.582-2.665-1.518-5.847-1.417-8.64c0-0.049,0-0.095,0-0.141c-0.113-2.236,0.119-5.262,0.584-7.61
				c0.315,0.141,0.624,0.278,0.937,0.397c0.633,0.245,1.404,0.538,2.224,0.832c-0.376,1.646-1.135,3.2-1.251,4.919H151.974z"/>
			<path fill="#101423" d="M149.829,249.537c0.083,0.327,0.227,0.639,0.397,0.933v0.016c0.199,0.314,0.45,0.605,0.731,0.878
				c-0.224,0.416-0.471,0.851-0.731,1.306c-0.936,1.147-2.511,2.797-3.903,4.384c-2.676-1.346-5.203-2.618-7.424-3.741
				c-0.373-11.162,0.562-21.723,4.176-30.841c1.927,0.982,4.056,1.787,6.216,2.689c0.6,0.244,1.229,0.468,1.888,0.654
				c0.149,8.198,0.009,17.045-0.845,23.864C150.169,249.629,149.994,249.583,149.829,249.537z"/>
			<path fill="#FBB686" d="M148.079,266.573c0.478,3.364,1.475,10.266-0.856,10.438c-0.208-0.526-0.44-1.133-0.571-1.707
				c-0.034-0.102-0.046-0.221-0.07-0.324c-0.664-2.913-1.276-6.993-1.417-9.731c0-0.009,0-0.009,0-0.021
				c0.129-1.404,0.483-2.817,0.958-4.197c1.116,0.875,2.419,1.615,3.744,2.233C149.211,264.435,148.499,265.285,148.079,266.573z"/>
			<path fill="#F89C6A" d="M150.227,252.669c-0.838,1.506-1.811,3.191-2.67,4.993c-0.416-0.199-0.823-0.407-1.233-0.609
				C147.716,255.466,149.291,253.816,150.227,252.669z"/>
			<path fill="#C3854E" d="M146.323,257.053c0.41,0.202,0.817,0.41,1.233,0.609c-0.169,0.314-0.318,0.646-0.459,0.97
				c-6.807-3.378-13.108-6.418-16.642-7.997v-1.542c0,0,3.438,1.72,8.443,4.219C141.12,254.435,143.647,255.707,146.323,257.053z"/>
			<path fill="#FBB686" d="M107.155,148.19c0.104-0.875,0.248-1.753,0.422-2.582c0.254-1.193,0.561-2.258,0.866-3.05l-0.016-0.318
				c2.236-0.058,4.47-0.27,6.491-0.713c-0.771-3.366-2.031-7.683,1.016-7.566c0.994,3.964,2.53,6.173,5.632,9.096
				c-2.028,1.767-4.533,6.934-4.099,9.425c-0.021,0-0.043,0-0.07,0c-3.763,0.283-6.957,0.747-10.145,0.667
				c-0.174-0.644-0.25-1.415-0.26-2.258c0.046,0,0.086,0.011,0.119,0.024c-0.033-0.024-0.082-0.034-0.119-0.049
				C106.981,150.016,107.039,149.104,107.155,148.19z"/>
			<path fill="#F9A36D" d="M95.405,142.203c-0.223-0.454-0.033-0.887,0.949-0.804c0.083,0,0.162,0.011,0.242,0.023
				c2.973,0.419,7.415,0.922,11.832,0.818l0.016,0.318c-0.306,0.792-0.612,1.857-0.866,3.05c-2.569-0.447-5.179-0.48-7.693-1.323
				c-1.245-0.442-2.713-0.806-3.812-1.391C95.77,142.719,95.521,142.45,95.405,142.203z"/>
			<path fill="#F9A36D" d="M94.999,144.31c-0.841-0.597-0.899-1.262,0.407-2.106c0.116,0.247,0.364,0.516,0.667,0.691
				c1.098,0.584,2.566,0.949,3.812,1.391c2.515,0.843,5.124,0.876,7.693,1.323c-0.174,0.829-0.317,1.707-0.422,2.582
				c-2.374-0.653-5.913-1.554-7.026-1.904C97.966,145.596,95.953,145,94.999,144.31z"/>
			<path fill="#F9A36D" d="M107.155,148.19c-0.116,0.915-0.174,1.826-0.162,2.677c-2.723-1.201-5.751-2.056-8.452-3.273
				c-1.417-0.62-3.909-1.274-3.542-3.284c0.955,0.69,2.967,1.286,5.13,1.976C101.242,146.636,104.781,147.537,107.155,148.19z"/>
			<path fill="#F9A36D" d="M106.993,150.891c0.01,0.843,0.086,1.614,0.26,2.258c-2.939-0.083-5.861-0.632-9.229-2.21
				c-1.098-1.823,3.298-0.678,4.093-0.549C103.206,150.518,105.604,150.565,106.993,150.891z"/>
		</g>
	</g>
	<g>
		<g id="XMLID_5_">
			<g>
				<path fill="#FBB686" d="M119.908,151.554c-1.679-0.719-9.81-5.345-11.459-6.041c2.809,2.432,9.016,6.233,11.42,9.612
					c0.349,0.415-0.27,1.236-0.774,1.247c-1.489,0-11.141-6.441-12.304-7.479c2.484,2.941,7.782,7.084,9.086,8.954
					c0,0,0.156,0.531-0.169,0.915c-0.388,0.456-0.835,0.415-0.835,0.415c-0.804-0.415-2.3-0.967-2.948-1.368
					c-1.857-0.979-4.595-3.461-6.155-5.199c2.671,3.109,5.986,6.006,5.986,7.274c-0.036,0.113-0.128,0.217-0.3,0.269
					c-0.009,0-0.009,0-0.009,0c-2.193-1.101-3.612-2.773-5.399-4.642c-1.985-2.077-4.341-3.502-6.204-5.838
					c-3.298-4.292-3.469-10.671-1.352-15.605c3.536-0.8,7.874-2.785,9.462-4.656c0,0,1.321,0.438,1.321,2.515
					c0,2.253-2.869,3.544-4.47,5.062c0,0,12.105,9.284,15.354,12.164C121.563,150.189,120.839,151.664,119.908,151.554z"/>
				<path fill="#F9A974" d="M98.492,134.066c-2.117,4.934-1.946,11.314,1.352,15.605c1.863,2.336,4.218,3.761,6.204,5.838
					c1.787,1.869,3.206,3.541,5.399,4.642c-0.502,0.127-1.723-0.24-4.695-2.15c-0.01-0.009-0.01-0.021-0.019-0.021
					c-2.126-1.818-4.173-3.46-6.889-5.017c-2.292-1.32-3.806-3.292-5.785-4.678h-0.174c0-4.215,0.058-10.144,2.227-13.866
					C96.825,134.377,97.632,134.254,98.492,134.066z"/>
				<path fill="#E9F7FE" d="M91.098,147.707c-0.471-4.457,1.545-11.675,3.035-15.531c1.734,0.517,0.994,0.612,2.732,1.132
					c-0.278,0.34-0.536,0.705-0.752,1.112c-2.169,3.723-2.227,9.651-2.227,13.866c0,0.115,0,0.233,0,0.346
					C92.472,148.381,92.181,148.371,91.098,147.707z"/>
				<path fill="#311111" d="M98.443,204.535l-7.874,6.087l0.339-3.813c0.177-0.167,0.355-0.329,0.535-0.486
					c0.009-0.021,0.021-0.021,0.021-0.021c2.215-2.005,4.39-3.541,6.99-5.632C98.443,201.607,98.443,202.944,98.443,204.535z"/>
				<path fill="#9F3B26" d="M90.569,210.623l7.874-6.087c0.027,6.693,0.217,17.756,0.293,21.456c0,0.021,0,0.03,0,0.049
					c0,0.043,0,0.073,0,0.113c-0.031,5.186-0.251,11.441-0.281,16.645c-3.31,2.337-6.853,5.341-9.859,7.201
					c0-13.84,0.245-27.897,0.275-41.753l2.573-1.922c-0.18,0.157-0.358,0.319-0.535,0.486L90.569,210.623z"/>
				<path fill="#AA5339" d="M98.456,200.67c-2.601,2.091-4.775,3.626-6.99,5.632c0,0-0.012,0-0.021,0.021l-2.573,1.922
					c0.016-0.875,0.016-1.734,0.016-2.609c0-0.021,0-0.029,0-0.05c3.46-2.972,7.271-5.805,11.123-8.584
					c0.055,0.031,0.113,0.061,0.159,0.097c0,9.413,0,18.938,0,28.443c-0.355,0.25-0.725,0.489-1.071,0.489l-0.361,0.009
					c0-0.019,0-0.027,0-0.049c-0.077-3.7-0.266-14.763-0.293-21.456C98.443,202.944,98.443,201.607,98.456,200.67z"/>
				<path fill="#64200D" d="M74.353,196.871c3.5-3.212,8.324-5.343,12.625-7.599c4.295,2.601,8.795,5.198,13.032,7.73
					c-3.851,2.779-7.663,5.612-11.123,8.584c-0.016,0-0.034,0.009-0.046,0.029c-4.108-2.68-9.085-5.536-13.76-8.308
					C74.842,197.16,74.595,197.014,74.353,196.871z"/>
				<path fill="#7A2A17" d="M88.596,249.999c-0.028,0.024-0.052,0.03-0.074,0.049h-0.006c-3.466-2.417-7.204-4.879-10.884-7.428
					c-4.356-13.793-6.39-32.339-2.551-45.313c4.674,2.772,9.651,5.628,13.76,8.308c0.012,0,0.03,0.011,0.046,0.021
					c0,0.875,0,1.734-0.016,2.609C88.841,222.102,88.596,236.159,88.596,249.999z"/>
				<path fill="#311111" d="M76.684,185.168c0.501-1.337,0.226-6.005-0.78-6.751c0.3-0.758,0.548-1.548,0.704-2.203l0.101,0.031
					c0.438,0.323,0.872,0.644,1.315,0.958c0.704,0.519,1.413,1.01,2.154,1.444c0.168,2.184,0.248,4.362,0.275,6.576
					c0.028,1.745,0.028,3.513,0.028,5.309h-0.168c-1.398,0-2.787-0.757-3.365-1.98l0.229-0.098c0-1.109,0-2.19,0-3.253
					c-0.171,0.034-0.34,0.046-0.493,0.023V185.168z"/>
				<path fill="#E8A578" d="M76.684,185.222c-0.985-0.054-1.86-0.737-2.319-1.618c-0.413-0.814-0.493-1.781-0.012-2.591
					c0.542-0.352,1.095-1.433,1.551-2.596c1.006,0.747,1.282,5.415,0.78,6.751V185.222z"/>
				<path fill="#191919" d="M16.696,77.205c4.711,5.716,11.912,9.873,17.125,15.064c2.157,2.12,4.534,4.012,6.898,5.883
					c1.973,1.556,3.94,3.105,5.757,4.766c3.261,3.181,6.137,6.764,9.633,9.872c0.128,0.103,0.248,0.216,0.379,0.319
					c0,0.334,0,0.634,0,0.895l0.413,0.085c0.848,0.724,1.83,1.423,2.894,2.066c4.05,2.493,9.321,4.468,13.246,6.274
					c0.166,0.073,0.333,0.157,0.493,0.229c1.202,0.624,2.414,1.164,3.631,1.632c4.479,1.753,9.015,3.471,13.43,5.139l-0.184,0.5
					c-2.478,2.078-4.965,8.051-4.714,11.687c-6.207-3.116-12.91-4.154-18.865-7.271c-5.706-3.116-16.134-7.793-17.128-14.547
					c-0.991,1.042-2.236,2.08-3.228,2.86c-0.743-2.079-0.991-4.416-1.242-6.754c-1.239,1.04-2.481,2.079-3.472,3.378
					c-5.209-2.599-9.431-7.274-14.148-10.653c-5.953-3.633-14.148-8.57-17.868-15.063C6.2,87.636,6.258,77.475,12.474,73.589
					c1.56,1.11,3.139,2.439,4.298,3.536L16.696,77.205z"/>
				<path fill="#CCE6F2" d="M71.857,164.351c0.04-1.641,0.07-3.357,0.088-5.103c1.836,0,3.634-0.103,5.06-1.09
					c0,1.587,0.024,3.409,0.288,4.977c-0.175,0.072-0.355,0.142-0.542,0.218C75.17,163.975,73.334,164.746,71.857,164.351z"/>
				<path fill="#DD966B" d="M71.676,172.777c0.019-1.218,0.049-2.608,0.089-4.139c0.725-0.047,1.526,0.198,2.145,0.374
					c0,1.584-0.321,3.16-0.633,4.741C72.756,173.411,72.224,173.077,71.676,172.777z"/>
				<path fill="#010101" d="M71.725,143.985c2.025,0.625,4.032,1.227,5.947,1.799c0.009,4.052,0.291,7.811,0.331,11.48
					c-0.309,0.355-0.636,0.655-0.997,0.894c-1.426,0.988-3.224,1.09-5.06,1.09c0.04-2.67,0.059-5.415,0.028-8.051
					c-0.028-1.599-0.058-3.157-0.116-4.656c-0.031-0.705-0.061-1.389-0.101-2.066C71.741,144.31,71.737,144.146,71.725,143.985z"/>
				<path fill="#311111" d="M70.125,176.59c0.517-0.574,1.034-1.175,1.539-1.811c0-0.592,0.012-1.263,0.012-2.002
					c0.548,0.3,1.08,0.633,1.6,0.976c0.037,0.021,0.07,0.052,0.107,0.072c-0.285,1.153-0.471,2.472-0.511,3.637h-0.006l-0.551,0.447
					L70.125,176.59z"/>
				<path fill="#FBB686" d="M71.765,168.638c0.031-1.336,0.061-2.782,0.092-4.287c1.478,0.395,3.313-0.376,4.895-0.998
					c0,2.244,1.272,11.594,1.272,13.849c-0.444-0.313-0.878-0.635-1.315-0.958l-0.101-0.031c-0.156,0.655-0.404,1.444-0.704,2.203
					c-0.456,1.163-1.009,2.244-1.551,2.596c-0.532,0.355-1.049-0.029-1.398-1.795c-0.083-0.491-0.11-1.102-0.083-1.755
					c0.04-1.165,0.226-2.483,0.511-3.637c-0.037-0.02-0.07-0.051-0.107-0.072c0.312-1.582,0.633-3.157,0.633-4.741
					C73.292,168.836,72.49,168.591,71.765,168.638z"/>
				<path fill="#0F0F0F" d="M70.058,64.355c2.003,17.132,2.955,40.787,2.982,58.075c-3.925-1.807-9.195-3.781-13.246-6.274
					c1.395-7.046,2.34-14.547,2.817-21.889c0.168-3.639,0.327-7.452,0.327-11.086c0-1.216,0.664-4.159,0.337-5.018
					c-0.664-1.559-3.644-2.432-4.638-3.471c0.823-0.863,2.157-1.207,3.151-1.903c-2.979-3.636-5.301-7.449-8.11-11.429
					c-1.701-2.513-4.126-6.234-6.237-9.038c2.233-1.258,11.673-6.138,15.28-6.534c3.778,0.611,5.616,4.644,6.5,9.165
					c0.639,3.24,0.792,6.721,0.82,9.402H70.058z"/>
				<path fill="#072336" d="M71.857,146.541c-5.375-0.154-10.407-1.721-15.283-3.758c0.009-1.331,0.043-2.672,0.08-4.003
					c4.276,1.727,9.74,3.555,15.072,5.205c0.012,0.161,0.016,0.324,0.031,0.489C71.796,145.152,71.826,145.836,71.857,146.541z"/>
				<path fill="#E8A578" d="M74.353,183.614c-1.04,0.307-2.099-0.949-2.658-2.091c-0.052-0.115-0.101-0.231-0.15-0.341l0.119-2.766
					l0.651-0.508l0.551-0.447h0.006c-0.028,0.653,0,1.264,0.083,1.755c0.349,1.767,0.866,2.15,1.398,1.795
					c-0.48,0.811-0.401,1.777,0.012,2.591L74.353,183.614z"/>
				<path fill="#010101" d="M73.041,122.43c-0.027-17.288-0.979-40.942-2.982-58.075h-0.015c-0.028-2.681-0.181-6.163-0.82-9.402
					c0.835,2.057,4.479,16.103,5.13,20.777c1.493,9.87,1.985,20.26,1.985,30.306c0,5.858-0.153,12.394,0.826,18.255
					c-1.217-0.468-2.429-1.008-3.631-1.632C73.374,122.587,73.206,122.503,73.041,122.43z"/>
				<path fill="#26180E" d="M78.012,318.65c-2.502,0.697-5.167,1.227-7.458,2.267l-0.027,0.08c-3.484-1.506-7.061-2.885-10.643-4.06
					c-4.231-1.39-10.113-3.408-13.393-6.88c5.329-1.288,10.994-2.304,16.133-4.537c1.276-0.551,2.521-1.187,3.71-1.912
					C67.008,309.497,72.86,316.23,78.012,318.65z"/>
				<path fill="#E8A578" d="M69.746,181.012c-0.031-1.837-0.083-3.157-0.162-3.81c0.187-0.211,0.364-0.405,0.542-0.612l2.19,1.318
					l-0.651,0.508l-0.119,2.766c0.049,0.11,0.098,0.226,0.15,0.341C71.159,181.636,70.138,181.397,69.746,181.012z"/>
				<path fill="#561C0C" d="M69.746,181.012c0.392,0.385,1.413,0.624,1.949,0.511c0.56,1.143,1.618,2.398,2.658,2.091l0.012-0.011
					c0.459,0.881,1.334,1.564,2.319,1.618c0.153,0.023,0.321,0.011,0.493-0.023c0,1.063,0,2.144,0,3.253l-0.229,0.098
					c0.578,1.224,1.967,1.98,3.365,1.98h0.168c0-1.795,0-3.563-0.028-5.309c2.074,1.343,4.28,2.701,6.525,4.05
					c-4.301,2.256-9.125,4.387-12.625,7.599c-1.572-0.95-3.111-1.884-4.561-2.796C69.816,188.64,69.807,184.09,69.746,181.012z"/>
				<path fill="#6D2513" d="M69.792,194.074c1.45,0.912,2.989,1.847,4.561,2.796c0.242,0.144,0.489,0.289,0.728,0.436
					c-3.839,12.975-1.805,31.521,2.551,45.313c-2.848-1.958-5.674-3.965-8.33-6.032C69.52,222.23,69.743,206,69.792,194.074z"/>
				<path fill="#010101" d="M69.584,177.202c0.08,0.653,0.131,1.973,0.162,3.81c0.061,3.078,0.07,7.628,0.046,13.062
					C69.743,206,69.52,222.23,69.303,236.588c-0.783-0.605-1.551-1.218-2.294-1.842l-2.741,0.013
					c-0.088-16.738-0.74-34.201-0.104-52.63C65.996,180.757,67.807,179.136,69.584,177.202z"/>
				<path fill="#010101" d="M69.303,236.588c-0.248,16.134-0.487,29.899-0.487,32.561c0,11.261-2.052,22.582-1.774,34.011
					c-0.229,0.159-0.474,0.312-0.707,0.449c-1.189,0.726-2.435,1.361-3.71,1.912c0.453-19.149,1.046-36.893,1.545-56.978
					c0.098-4.54,0.123-9.135,0.098-13.784l2.741-0.013C67.751,235.37,68.52,235.982,69.303,236.588z"/>
				<path fill="#0F0F0F" d="M60.138,184.746c-0.542-6.569-2.013-15.109-3.423-21.31c0-6.868-0.22-13.757-0.141-20.653
					c4.876,2.037,9.908,3.604,15.283,3.758c0.058,1.499,0.088,3.058,0.116,4.656c0.031,2.637,0.012,5.381-0.028,8.051
					c-0.018,1.745-0.049,3.461-0.088,5.103c-0.031,1.505-0.061,2.951-0.092,4.287c-0.04,1.531-0.07,2.921-0.089,4.139
					c0,0.739-0.012,1.41-0.012,2.002c-0.505,0.636-1.021,1.237-1.539,1.811c-0.177,0.207-0.355,0.401-0.542,0.612
					c-1.777,1.934-3.588,3.555-5.421,4.927C62.842,183.111,61.499,183.987,60.138,184.746z"/>
				<path fill="#010101" d="M55.124,187.092c1.321-7.845,1.603-15.739,1.59-23.656c1.41,6.201,2.882,14.74,3.423,21.31
					C58.501,185.657,56.834,186.425,55.124,187.092z"/>
				<path fill="#0B0B0B" d="M3.918,99.5c10.86,9.858,32.411,27.614,45.458,35.509c1.242,1.103,3.882,2.411,7.277,3.771
					c-0.037,1.331-0.07,2.672-0.08,4.003c-3.224-1.345-6.381-2.901-9.517-4.365c-9.098-4.333-17.538-12.643-27.464-14.378
					c0.327,6.931,5.956,12.644,8.936,18.357c-2.817-1.56-5.629-2.254-8.284-3.979c1.337,2.939,2.325,6.234,3.646,9.353
					c-1.321-0.874-2.655-1.736-3.971-2.077c-2.45,14.875-1.352,31.602,0.747,46.698c-2.178-0.655-4.271-1.625-6.369-2.878
					c-1.587-0.949-3.181-2.059-4.799-3.306c1.716-14.585,4.117-32.9,3.977-50.479c-1.26-3.357-2.459-6.747-3.484-10.211
					c-3.652-12.241-6.311-22.65-7.871-28.562C2.609,97.839,3.199,98.691,3.918,99.5z"/>
				<path fill="#CCE6F2" d="M47.546,73.151c-0.006-1.765-0.092-4.216,0.171-5.919c0.45,0.477,0.884,0.945,1.321,1.402
					c0.291-0.402,0.578-0.864,0.903-1.352c1.193,4.044,2.074,8.24,2.912,11.915c0.226,1.143,0.447,2.302,0.664,3.452
					c-1.37-3.689-3.527-9.121-5.867-9.486C47.614,73.145,47.58,73.145,47.546,73.151z"/>
				<path fill="#282561" d="M47.65,73.164c2.34,0.365,4.497,5.797,5.867,9.486c0,0.009,0,0.009,0,0.02
					c1.515,8.105,2.68,16.426,2.971,24.747c0,1.727,0,4.063,0,5.692c-0.132-0.104-0.251-0.217-0.379-0.319
					c-0.031-0.176-0.061-0.346-0.12-0.521c-1.508-5.62-4.405-11.302-7.642-16.713c-0.48-3.232-0.807-6.929-1.291-10.297
					c-0.331-3.629-1.814-7.427-1.652-11.054c0.055-0.011,0.085-0.034,0.138-0.052c0.685-0.231,1.361-0.552,2.003-0.935
					C47.58,73.195,47.62,73.183,47.65,73.164z"/>
				<path fill="#010101" d="M46.17,316.457c-0.168-0.612-0.205-2.668-0.107-3.938c0.07,0.062,0.137,0.123,0.208,0.19
					c5.788,4.925,23.246,13.242,26.433,11.894c2.729-1.206,4.185-1.812,6.657-2.304c0.138,1.172,0.177,2.126,0.168,2.802
					c-2.738,1.05-5.793,2.558-8.556,2.619v-0.053c-3.585-0.208-14.784-3.863-15.809-5.451c-1.052-1.633-2.9-6.143-4.384-3.288
					C49.565,318.348,46.17,316.457,46.17,316.457z"/>
				<path fill="#222222" d="M45.635,51.762c0.349-0.125,0.716-0.25,1.083-0.382c0.236,0.3,0.487,0.61,0.725,0.942
					c2.111,2.803,4.537,6.524,6.237,9.038c2.809,3.98,5.13,7.793,8.11,11.429c-0.994,0.696-2.328,1.04-3.151,1.903
					c0.994,1.039,3.974,1.912,4.638,3.471c0.327,0.859-0.337,3.802-0.337,5.018c0,3.634-0.159,7.447-0.327,11.086
					c-0.477,7.342-1.422,14.842-2.817,21.889c-1.064-0.644-2.046-1.343-2.894-2.066l-0.413-0.085c0-0.261,0-0.561,0-0.895
					c0-1.629,0-3.966,0-5.692c-0.291-8.321-1.456-16.642-2.971-24.747c0-0.011,0-0.011,0-0.02c-0.217-1.15-0.438-2.31-0.664-3.452
					c-0.838-3.675-1.719-7.871-2.912-11.915c-1.071-3.708-2.401-7.28-4.188-10.177l-0.012-0.015v-0.006c0-0.012,0-0.012,0-0.023
					C45.595,55.271,45.436,53.393,45.635,51.762z"/>
				<path fill="#33261D" d="M46.491,310.058c3.279,3.472,9.162,5.49,13.393,6.88c3.582,1.175,7.158,2.554,10.643,4.06l0.027-0.08
					c2.291-1.04,4.956-1.569,7.458-2.267c0.26,0.128,0.517,0.227,0.774,0.333c0.285,1.239,0.465,2.347,0.575,3.316
					c-2.472,0.492-3.928,1.098-6.657,2.304c-3.188,1.349-20.646-6.969-26.433-11.894c-0.26-0.615-0.227-1.126-0.062-2.588
					C46.298,310.104,46.387,310.079,46.491,310.058z"/>
				<path fill="#282561" d="M45.543,74.151c-1.386-1.394-3.999-3.472-4.944-4.136l-0.226-0.062c0.615-2.598,1.15-5.286,1.875-7.781
					c1.927,1.361,3.741,3.244,5.47,5.06c-0.263,1.704-0.177,4.154-0.171,5.919c0,0.026,0,0.044,0,0.065
					C46.904,73.6,46.228,73.92,45.543,74.151z"/>
				<path fill="#FBB686" d="M46.139,12.523c0.227-0.156,0.468-0.292,0.707-0.427C46.617,12.283,46.378,12.43,46.139,12.523z"/>
				<path fill="#010101" d="M46.209,310.122c-0.544,0.122-1.092,0.257-1.636,0.406c0.205-4.698-0.532-37.996-0.386-54.564
					c1.123-12.126,2.31-24.292,3.781-36.166c0.743-5.973,0.743-11.948,1.49-17.921c0.456-2.858,1.263-9.33,1.835-13.464
					c1.303-0.396,2.582-0.82,3.83-1.32c1.71-0.667,3.377-1.435,5.014-2.346c1.361-0.759,2.704-1.635,4.025-2.617
					c-0.636,18.429,0.016,35.892,0.104,52.63c0.025,4.649,0,9.244-0.098,13.784c-0.499,20.085-1.092,37.828-1.545,56.978
					c-5.139,2.233-10.805,3.249-16.133,4.537C46.387,310.079,46.298,310.104,46.209,310.122z"/>
				<path fill="#E9F7FE" d="M42.34,61.858c1.478-1.016,2.622-2.482,3.402-4.769l0.012,0.015c1.787,2.897,3.117,6.47,4.188,10.177
					c-0.325,0.488-0.612,0.95-0.903,1.352c-0.438-0.457-0.872-0.925-1.321-1.402c-1.729-1.815-3.542-3.699-5.47-5.06
					C42.27,62.07,42.3,61.964,42.34,61.858z"/>
				<path fill="#FBB686" d="M39.608,53.062c-0.364-0.167-0.737-0.335-1.114-0.51c-0.055-0.02-0.119-0.032-0.174-0.055
					c-2.766-2.969-3.325-9.11-5.494-12.174c-1.181-1.673-3.102-2.64-4.818-3.802c-0.63-1.819-1.129-3.679-1.756-5.547
					c-0.752-2.461-2.114-5.062-1.982-7.793l-0.009-0.052c3.157-0.728,6.222-2.079,9.248-3.252c3.359-1.309,6.1-2.701,9.07-4.821
					c1.208-0.851,2.312-1.756,3.533-2.524c0.012,0,0.021-0.009,0.027-0.009c0.239-0.093,0.478-0.24,0.707-0.427
					c0.028-0.011,0.049-0.033,0.083-0.04c0.771,3,1.447,6.28,2.597,8.964c-0.336,0.383-0.474,0.894-0.474,1.434
					c0,1.193,0.651,2.575,1.297,3.302c0.269,0.478,0.557,0.967,0.817,1.457c0.318,0.603,0.572,1.214,0.707,1.815
					c0.465,2.132,0.073,4.584,0,6.703c-0.22,4.073-0.242,8.485-0.918,12.478c-0.612,1.539-2.45,2.493-4.237,3.171
					c-0.367,0.133-0.734,0.257-1.083,0.382c-0.646,0.208-1.242,0.393-1.738,0.56C42.496,52.812,41.009,53.633,39.608,53.062z"/>
				<path fill="#191919" d="M23.065,160.578c5.173-3.51,12.303-5.245,18.058-7.666c-0.759,2.7-1.117,6.045-1.845,9.245
					c-1.545,0.387-4.448,1.228-7.345,2.06c-3.604,1.039-7.219,2.077-8.21,2.251C23.065,164.735,23.065,162.656,23.065,160.578z"/>
				<path fill="#F9A36D" d="M30.458,50.182c1.744,0.782,3.42,1.094,5.17,1.569c0.85,0.282,1.787,0.49,2.692,0.747
					c0.055,0.023,0.119,0.035,0.174,0.055c0.376,0.175,0.75,0.343,1.114,0.51c1.401,0.57,2.888-0.251,4.289-0.74
					c0.496-0.167,1.092-0.352,1.738-0.56c-0.199,1.63-0.04,3.509,0.107,5.298c0,0.011,0,0.011,0,0.023v0.006
					c-0.78,2.286-1.924,3.753-3.402,4.769c-1.569,1.095-3.515,1.675-5.84,2.233c-1.505-1.973-2.998-4.174-4.05-6.493
					C31.336,55.125,31.119,52.654,30.458,50.182z"/>
				<path fill="#010101" d="M36.329,318.274c-0.906,0.479-1.875,0.896-2.854,1.257c-0.48-21.839,2.331-42.852,2.824-65.709
					c0.462-10.6,3.747-53.414,4.221-62.833c3.815-0.792,7.391-1.548,10.774-2.577c-0.572,4.134-1.38,10.606-1.835,13.464
					c-0.747,5.973-0.747,11.949-1.49,17.921c-1.472,11.874-2.658,24.04-3.781,36.166c-0.4,4.319-0.795,8.633-1.184,12.922
					c-1.738,18.183-3.882,29.391-3.882,47.562v0.009C38.287,317.146,37.335,317.745,36.329,318.274z"/>
				<path fill="#CCE6F2" d="M31.336,72.096c1.49,1.389,5.962,1.559,8.113,1.389c0.346-1.143,0.646-2.326,0.924-3.531l0.226,0.062
					c0.945,0.664,3.558,2.742,4.944,4.136c-0.052,0.019-0.083,0.042-0.138,0.052c-0.162,3.626,1.321,7.424,1.652,11.054
					c0.483,3.368,0.811,7.065,1.291,10.297c-2.435-4.084-5.053-8.033-7.406-11.679c-2.738-4.332-6.198-8.04-9.636-11.75
					L31.336,72.096z"/>
				<path fill="#141414" d="M33.649,192.441c-4.867,1.227-9.045,1.124-12.982-0.049c-2.099-15.097-3.197-31.824-0.747-46.698
					c1.315,0.341,2.649,1.204,3.971,2.077c-1.321-3.119-2.31-6.414-3.646-9.353c2.655,1.725,5.467,2.419,8.284,3.979
					c-2.979-5.714-8.608-11.427-8.936-18.357c9.927,1.735,18.367,10.045,27.464,14.378c3.135,1.464,6.292,3.021,9.517,4.365
					c-0.08,6.896,0.141,13.786,0.141,20.653c0.012,7.917-0.269,15.811-1.59,23.656c-1.249,0.5-2.527,0.924-3.83,1.32
					c-3.383,1.029-6.959,1.785-10.774,2.577C38.32,191.443,36.035,191.913,33.649,192.441z M39.278,162.156
					c0.728-3.2,1.086-6.545,1.845-9.245c-5.754,2.421-12.885,4.156-18.058,7.666c0,2.079,0,4.157,0.658,5.89
					c0.991-0.174,4.607-1.213,8.21-2.251C34.83,163.384,37.733,162.543,39.278,162.156z"/>
				<path fill="#090909" d="M20.667,192.392c3.937,1.173,8.116,1.275,12.982,0.049c2.386-0.528,4.671-0.998,6.871-1.452
					c-0.474,9.419-3.759,52.233-4.221,62.833c-0.493,22.857-3.304,43.87-2.824,65.709c-2.059,0.765-4.194,1.261-6.112,1.561
					c-2.163,0.312-5.369,0.217-8.021-0.404c-0.116-0.03-0.238-0.064-0.355-0.092c-0.862-0.232-1.655-0.514-2.322-0.865l0.098-0.199
					c-0.208-11.165-2.554-21.037-2.554-30.389c0-10.643,1.432-22.591,2.982-35.32c-1.45-13.123-4.54-53.443-2.894-64.309
					C16.396,190.768,18.488,191.737,20.667,192.392z"/>
				<path fill="#E9F7FE" d="M31.336,72.096l-0.031,0.029c-2.53-2.732-5.053-5.456-7.225-8.426c-0.016-0.176-0.043-0.35-0.049-0.531
					c2.147,3.493,8.538,1.808,11.603,1.136c0.3-0.076,0.59-0.137,0.866-0.212c2.325-0.559,4.271-1.138,5.84-2.233
					c-0.04,0.105-0.07,0.211-0.092,0.314c-0.725,2.495-1.26,5.183-1.875,7.781c-0.278,1.205-0.578,2.389-0.924,3.531
					C37.299,73.654,32.826,73.484,31.336,72.096z"/>
				<path fill="#E8A578" d="M23.279,43.503c0.184,0.882,0.493,1.57,0.909,2.224c-0.425-0.635-0.762-1.298-1.062-1.975
					C23.172,43.68,23.227,43.596,23.279,43.503z"/>
				<path fill="#222222" d="M28.192,86.639c-2.643-3.281-4.301-7.792-5.46-11.947c-0.141-0.521-0.291-1.049-0.44-1.559
					c-0.97-3.417-2.071-6.981-2.441-10.474c-0.006-0.103-0.019-0.193-0.03-0.301c-0.019-0.196-0.031-0.352-0.037-0.499
					c-0.03-0.372-0.04-0.619-0.03-1.173c0.566-0.704,1.331-1.973,1.973-2.605c0.755-1.436,1.294-2.796,1.838-4.168l0.128-0.011
					c0.009,0.178,0.024,0.354,0.031,0.529c0.141,2.921,0.049,5.826,0.309,8.737c0.006,0.181,0.034,0.354,0.049,0.531
					c2.172,2.97,4.695,5.694,7.225,8.426c3.438,3.71,6.898,7.418,9.636,11.75c2.353,3.646,4.971,7.595,7.406,11.679
					c3.237,5.412,6.134,11.094,7.642,16.713c0.059,0.176,0.089,0.346,0.12,0.521c-3.497-3.108-6.372-6.69-9.633-9.872
					c-1.817-1.661-3.784-3.21-5.757-4.766c-1.083-1.115-2.172-2.195-3.255-3.203c-1.331-1.202-2.817-2.418-3.974-3.797
					c-1.83-2.259-1.331-3.121-1.487-6.234C30.669,85.434,29.357,85.774,28.192,86.639z"/>
				<path fill="#F89C6A" d="M25.154,47.015c1.633,1.714,3.129,2.202,5.151,3.105c0.049,0.021,0.098,0.042,0.153,0.062
					c0.661,2.472,0.878,4.943,1.992,7.417c1.052,2.319,2.545,4.52,4.05,6.493c-0.275,0.075-0.566,0.136-0.866,0.212
					c-3.065,0.671-9.456,2.357-11.603-1.136c-0.26-2.911-0.168-5.815-0.309-8.737c-0.006-0.176-0.021-0.352-0.031-0.529
					c-0.107-1.964-0.376-3.969-0.578-5.974c-0.125-1.277-0.227-2.566-0.232-3.832c0.076-0.096,0.156-0.209,0.245-0.344
					c0.3,0.676,0.636,1.34,1.062,1.975c0.024,0.032,0.03,0.054,0.052,0.073C24.5,46.195,24.805,46.588,25.154,47.015z"/>
				<path fill="#33261D" d="M29.682,345.166c-2.147-1.009-4.641-4.533-6.229-7.586c-0.238-0.569-0.535-1.175-0.862-1.809
					c-0.009-0.021-0.021-0.027-0.028-0.052c-0.278-0.526-0.578-1.083-0.884-1.64c-0.462-1.572-0.848-3.16-1.166-4.729
					c1.829,4.118,4.854,7.855,7.596,11.227c1.856,2.203,3.346,1.555,6.087,0.896c1.915-0.474,4.151-0.829,6.036-1.691
					c0.238,0.881,0.468,1.766,0.676,2.637C37.932,343.802,32.995,345.166,29.682,345.166z"/>
				<path fill="#010101" d="M23.453,337.58c1.588,3.053,4.081,6.577,6.229,7.586c3.313,0,8.25-1.364,11.227-2.747
					c0.288,1.196,0.535,2.368,0.725,3.536l-0.245,0.037c-3.218,2.08-9.174,3.117-12.652,1.817c-3.108-2.979-5.47-8.227-7.057-13.729
					c0.306,0.557,0.605,1.113,0.884,1.64c0.006,0.024,0.019,0.03,0.028,0.052C22.829,336.332,23.114,336.943,23.453,337.58z"/>
				<path fill="#222222" d="M22.291,73.133c-1.01-3.479-2.142-6.848-2.441-10.474C20.22,66.152,21.321,69.716,22.291,73.133z"/>
				<path fill="#FBB686" d="M20.309,42.767c-1.168-1.88-2.652-3.441-3.2-5.643c-0.009-0.052-0.016-0.104-0.031-0.158
					c0.447-2.751,3.842,2.07,4.329,2.837c0.679,1.267,1.135,2.64,1.719,3.948c-0.089,0.135-0.168,0.248-0.245,0.344
					C21.908,45.373,21.349,44.367,20.309,42.767z"/>
				<path fill="#26180E" d="M19.342,320.688c2.652,0.621,5.858,0.716,8.021,0.404c1.918-0.3,4.053-0.796,6.112-1.561
					c0.979-0.361,1.949-0.777,2.854-1.257c0.149,6.078,1.043,10.508,1.578,12.811c0.707,3.022,1.569,5.914,2.325,8.697
					c-1.885,0.862-4.121,1.218-6.036,1.691c-2.741,0.658-4.231,1.307-6.087-0.896c-2.741-3.371-5.767-7.108-7.596-11.227
					C19.871,326.243,19.474,323.245,19.342,320.688z"/>
				<path fill="#010101" d="M18.926,324.729c-0.058-1.007,0.092-2.371,0.061-4.133c0.117,0.027,0.239,0.062,0.355,0.092
					c0.132,2.558,0.529,5.556,1.172,8.663c0.318,1.569,0.704,3.157,1.166,4.729c-0.955-1.743-1.949-3.563-2.423-5.111
					C18.85,327.668,19.008,326.108,18.926,324.729z"/>
				<path fill="#F9A974" d="M28.008,36.522c1.716,1.163,3.637,2.129,4.818,3.802c2.169,3.064,2.729,9.205,5.494,12.174
					c-0.905-0.257-1.842-0.465-2.692-0.747c-1.75-0.476-3.426-0.788-5.17-1.569c-0.055-0.02-0.104-0.042-0.153-0.062
					c-2.022-0.903-3.518-1.391-5.151-3.105c-0.349-0.427-0.655-0.82-0.915-1.215c-0.021-0.02-0.027-0.041-0.052-0.073
					c-0.416-0.653-0.725-1.341-0.909-2.224c-0.052,0.093-0.107,0.177-0.153,0.249c-0.584-1.308-1.04-2.681-1.719-3.948
					c-0.486-0.768-3.882-5.589-4.329-2.837c-0.413-1.932-0.067-4.309,2.215-2.949c0.973,0.635,1.67,1.713,2.634,2.366
					c0.425,0.782,0.844,1.559,1.199,2.373c0.364,0.684,0.844,1.745,1.343,2.389c0.713-0.592,1.805-0.988,2.45-1.653
					c-0.875-2.077-2.352-4.592-3.249-6.95c-0.018-0.062-0.043-0.115-0.064-0.177c-1.086-2.837-1.915-5.661-3.258-8.281
					c-0.058-0.123-0.128-0.237-0.187-0.364v-0.081c1.389-0.011,2.747-0.207,4.099-0.509l0.009,0.052
					c-0.131,2.731,1.23,5.332,1.982,7.793C26.879,32.843,27.378,34.703,28.008,36.522z"/>
				<path fill="#1A161A" d="M47.191,9.406c-1.288-2.557-2.995-4.925-4.766-7.086c-0.894-1.08-8.599-2.472-11.566-2.307
					C25.154,0.419,19.452,2.3,14.995,6.311c-0.814,0.725-1.756,1.514-2.649,2.368c-1.003,0.968-1.924,2.027-2.502,3.191
					c-0.637,1.184-1.866,3.104-2.325,4.717c3.845,3.041,8.578,5.07,12.83,7.498c-0.058-0.123-0.128-0.237-0.187-0.364v-0.081
					c1.389-0.011,2.747-0.207,4.099-0.509c3.157-0.728,6.222-2.079,9.248-3.252c3.359-1.309,6.1-2.701,9.07-4.821
					c1.208-0.851,2.312-1.756,3.533-2.524c0.012,0,0.021-0.009,0.027-0.009c0.227-0.156,0.468-0.292,0.707-0.427
					c0.389-0.303,0.756-0.717,1.074-1.161C47.699,10.413,47.461,9.902,47.191,9.406z"/>
				<path fill="#121212" d="M33.82,92.269c-5.212-5.191-12.414-9.348-17.125-15.064l0.077-0.08c-1.16-1.097-2.738-2.426-4.298-3.536
					c-1.79-1.277-3.567-2.263-4.656-2.263l0.009-0.093c-0.049-0.011-0.092-0.011-0.141-0.011c3.802-2.943,7.595-6.226,11.569-8.822
					l0.526-0.542c0.006,0.147,0.019,0.303,0.037,0.499c0.012,0.108,0.024,0.199,0.03,0.301c0.3,3.626,1.432,6.995,2.441,10.474
					c0.15,0.509,0.3,1.037,0.44,1.559c1.159,4.156,2.817,8.667,5.46,11.947c1.166-0.864,2.478-1.205,3.812-1.722
					c0.156,3.114-0.343,3.975,1.487,6.234c1.156,1.379,2.643,2.595,3.974,3.797c1.083,1.008,2.172,2.088,3.255,3.203
					C38.354,96.281,35.977,94.389,33.82,92.269z"/>
				<path fill="#141414" d="M7.818,71.326c1.089,0,2.866,0.985,4.656,2.263C6.258,77.475,6.2,87.636,9.746,93.567
					c3.72,6.493,11.915,11.43,17.868,15.063c4.717,3.378,8.938,8.054,14.148,10.653c0.991-1.3,2.233-2.338,3.472-3.378
					c0.25,2.338,0.499,4.676,1.242,6.754c0.991-0.78,2.236-1.819,3.228-2.86c0.994,6.754,11.422,11.432,17.128,14.547
					c5.956,3.117,12.658,4.156,18.865,7.271c-0.251-3.636,2.236-9.609,4.714-11.687l0.184-0.5c1.355,0.513,2.707,1.03,4.038,1.541
					c-0.163,0.353-0.333,0.757-0.499,1.205c-1.49,3.856-3.505,11.074-3.035,15.531c0.067,0.664,0.187,1.267,0.376,1.787
					c-1.092-0.196-6.84-1.693-13.803-3.709c-1.915-0.572-3.921-1.173-5.947-1.799c-5.332-1.65-10.795-3.478-15.072-5.205
					c-3.396-1.36-6.036-2.667-7.277-3.771C36.329,127.115,14.778,109.358,3.918,99.5c-0.719-0.809-1.309-1.661-1.799-2.545
					c-1.915-3.428-2.294-7.335-2.056-11.521c0.168-4.156,0.823-6.932,3.304-10.224c0.967-1.349,2.365-3.099,4.32-3.987
					c0.049,0,0.092,0,0.141,0.011L7.818,71.326z"/>
				<g>
					<path fill="#010101" d="M49.525,16.688c-0.223-1.996-0.804-3.917-1.605-5.752c-0.318,0.443-0.686,0.858-1.074,1.161
						c0.028-0.011,0.049-0.033,0.083-0.04c0.771,3,1.447,6.28,2.597,8.964c-0.336,0.383-0.474,0.894-0.474,1.434
						c0,1.193,0.651,2.575,1.297,3.302c0.269,0.478,0.557,0.967,0.817,1.457C50.342,23.806,49.963,20.136,49.525,16.688z"/>
					<path fill="#010101" d="M23.606,32.365c-1.086-2.837-1.915-5.661-3.258-8.281c-4.252-2.428-8.984-4.457-12.83-7.498
						c-0.027,0.083-0.046,0.176-0.064,0.257L7.5,16.855c0,3.345,0.236,6.864,0.945,10.128c0.181,0.832,0.346,1.747,0.554,2.649
						c0.229,0.988,0.499,1.967,0.875,2.847l0.052-0.02c2.496,3.758,6.014,6.95,8.822,10.39c1.441,1.711,2.995,3.374,4.365,5.078
						c-0.125-1.277-0.227-2.566-0.232-3.832c-0.973,1.277-1.533,0.271-2.573-1.329c-1.168-1.88-2.652-3.441-3.2-5.643
						c-0.009-0.052-0.016-0.104-0.031-0.158c-0.413-1.932-0.067-4.309,2.215-2.949c0.973,0.635,1.67,1.713,2.634,2.366
						c0.425,0.782,0.844,1.559,1.199,2.373c0.364,0.684,0.844,1.745,1.343,2.389c0.713-0.592,1.805-0.988,2.45-1.653
						c-0.875-2.077-2.352-4.592-3.249-6.95C23.652,32.479,23.627,32.427,23.606,32.365z"/>
				</g>
			</g>
		</g>
		<path fill="#FBB686" d="M49.525,21.021c-0.217,0.309-5.479,3.062-5.479,3.062l0.82,1.566L49.525,21.021z"/>
		<polygon fill="#FBB686" points="39.529,28.051 38.599,26.302 29.688,29.025 29.165,30.65 30.156,29.674 		"/>
		<path fill="#FBB686" d="M44.54,39.28c0,0,2.487-2.071,3.343-2.322c0.854-0.25,1.272,0.633,1.272,0.633s-0.514,1.271-1.924,1.75
			C45.815,39.824,44.54,39.28,44.54,39.28z"/>
	</g>
</g>
</svg>
