<?xml version="1.0" encoding="utf-8"?>
<!-- Generator: Adobe Illustrator 16.0.0, SVG Export Plug-In . SVG Version: 6.00 Build 0)  -->
<!DOCTYPE svg PUBLIC "-//W3C//DTD SVG 1.1//EN" "http://www.w3.org/Graphics/SVG/1.1/DTD/svg11.dtd">
<svg version="1.1" id="Layer_1" xmlns="http://www.w3.org/2000/svg" xmlns:xlink="http://www.w3.org/1999/xlink" x="0px" y="0px"
	 width="257.264px" height="475.454px" viewBox="0 0 257.264 475.454" enable-background="new 0 0 257.264 475.454"
	 xml:space="preserve">
<g id="XMLID_2_">
	<g>
		<path fill="#5C6A78" d="M212.908,139.045c0.825-1.001,1.658-2.002,2.568-2.958c2.049,0.608,4.353,0,6.312-1.176
			c-0.74,0.74-1.437,1.524-2.088,2.307v0.044c4.133,2.523,8.315,5.875,11.666,9.227c1.173-0.87,2.351-1.828,3.481-2.785l0.259,0.349
			c-1.564,1.26-2.61,4.612-1.785,6.833c-0.952,0.827-1.913,1.654-2.869,2.438C224.314,148.927,217.831,144.748,212.908,139.045z"/>
		<path fill="#5C6A78" d="M234.849,143.705c5.837-4.876,11.405-10.404,16.719-15.803c-2.176-2.177-4.616-3.786-7.099-5.833
			c-1.216-1.088-3.266-3.003-4.617-3.003c-4.217,3.395-8.137,6.268-11.971,10.056c-0.74,0.785-1.521,1.524-2.305,2.264
			c1.131-1.785,1.174-3.526-0.739-4.266c4.829-4.179,9.88-8.271,14.322-12.581l0.259-0.523c6.313,2.657,12.843,9.316,17.846,13.365
			c-2.432,3.003-5.22,6.094-8.268,9.14c-0.175-0.172-0.392-0.347-0.608-0.479c-2.308-1.263-5.356,2.089-5.964,4.702
			c-1.696-0.61-4.354,1.35-4.612,3.482c-0.919-0.914-1.875-0.827-2.704-0.172L234.849,143.705z"/>
		<path fill="#A3CBE4" d="M234.849,143.705c-1.131,0.957-2.309,1.915-3.481,2.785c-3.351-3.352-7.533-6.704-11.666-9.227v-0.044
			c0.651-0.782,1.348-1.567,2.088-2.307c1.611-0.958,2.963-2.221,3.745-3.483c0-0.043,0-0.043,0.042-0.043
			c0.783-0.739,1.564-1.479,2.305-2.264c3.834-3.788,7.754-6.661,11.971-10.056c1.352,0,3.401,1.915,4.617,3.003
			c2.482,2.047,4.923,3.656,7.099,5.833C246.254,133.3,240.686,138.829,234.849,143.705z"/>
		<path fill="#F89C6A" d="M248.996,136.521c2.784,2.874-3.439,9.839-6.355,11.711c0.476-1.045,0.782-2.176,1.003-3.222
			c0.217-1.437,0.128-2.438-0.132-3.133C245.383,140.134,247.257,138.351,248.996,136.521z"/>
		<path fill="#F89C6A" d="M248.996,136.521c-1.739,1.83-3.613,3.613-5.484,5.356c-0.217-0.61-0.607-1.003-1.088-1.133
			c0.607-2.612,3.656-5.964,5.964-4.702C248.604,136.174,248.821,136.348,248.996,136.521z"/>
		<path fill="#F9A974" d="M243.512,141.877c0.26,0.695,0.349,1.696,0.132,3.133c-0.221,1.046-0.527,2.177-1.003,3.222
			c-0.825,2.219-2.305,4.134-5.008,4.309c-0.043,0-0.043,0-0.043,0c1.131-1.828,2.007-4.657,1.395-6.53
			C240.507,144.661,242.028,143.269,243.512,141.877z"/>
		<path fill="#F9A974" d="M243.512,141.877c-1.483,1.392-3.005,2.784-4.527,4.134c-0.085-0.261-0.221-0.522-0.349-0.739
			c-0.264-0.436-0.522-0.785-0.824-1.046c0.259-2.132,2.916-4.092,4.612-3.482C242.904,140.874,243.295,141.267,243.512,141.877z"/>
		<path fill="#FBB686" d="M233.322,150.887c-0.825-2.221,0.221-5.573,1.785-6.833c0.829-0.655,1.785-0.742,2.704,0.172
			c0.302,0.261,0.561,0.61,0.824,1.046c0.128,0.217,0.264,0.478,0.349,0.739C237.114,147.709,235.197,149.32,233.322,150.887z"/>
		<path fill="#FBB686" d="M221.789,134.911c-1.96,1.176-4.264,1.784-6.312,1.176c2.831-3.135,6.053-6.096,9.36-8.968
			c1.913,0.74,1.87,2.48,0.739,4.266c-0.042,0-0.042,0-0.042,0.043C224.271,132.561,223.009,133.736,221.789,134.911z"/>
		<path fill="#FBB686" d="M207.858,157.068c-1.479-5.571-0.519-13.538-0.217-19.066c0-0.045,0-0.087,0-0.132
			c1.135-2.568,2.874-6.572,4.748-7.573c0.999-0.784,4.523-0.262,6.003-0.523c1.003-0.261,5.53-3.003,6.271-2.742
			c0.042,0,0.132,0.042,0.174,0.087c-3.308,2.872-6.529,5.833-9.36,8.968c-0.91,0.956-1.743,1.958-2.568,2.958
			c4.923,5.703,11.406,9.882,17.545,14.279c0.956-0.784,1.917-1.611,2.869-2.438c1.875-1.566,3.792-3.178,5.662-4.876
			c0.612,1.873-0.264,4.702-1.395,6.53c-0.348,0.565-0.697,1.046-1.045,1.35l-0.128-0.129
			C228.408,156.416,216.521,160.507,207.858,157.068z"/>
		<path fill="#BAE4FA" d="M207.858,157.068c0.391,1.566,1.003,2.917,1.828,3.962c-1.564,1.088-3.393,1.35-5.263,1.218
			c-2.874-6.572-2.832-16.673-2.704-23.506c1.615,0.304,4.005,0,5.879-0.697c0.043,0,0.043-0.042,0.043-0.042
			C207.34,143.53,206.379,151.497,207.858,157.068z"/>
		<path fill="#0F0D18" d="M204.424,162.248c0.561,1.394,1.258,2.612,2.176,3.613c-11.409,3.265-18.637,3.178-31.169,5.703
			c-5.313,1.175-16.63,3.614-23.334,1.611c-2.963-3.439-6.355-9.229-8.616-14.758c0.476-12.581,1.173-25.162,2.087-37.611
			c4.527-14.364,3.872-31.821-0.089-47.144c2.006,3.658,3.443,7.966,4.658,11.667c2.525,6.878,4.354,14.496,6.53,21.766
			c1.437,5.441,3.613,10.882,5.05,16.672c0.867,3.569,2.262,11.231,4.354,16.105c8.664,0.045,17.28,0.087,25.685-1.609
			c0.128,0,0.302-0.044,0.434-0.087c2.483-0.349,6.794-1.741,9.573-2.002c0,0.782-0.042,1.654-0.042,2.568
			C201.592,145.575,201.55,155.676,204.424,162.248z"/>
		<path fill="#1C191B" d="M157.581,409.635l0.999-1.003l0.089-0.043c0.438,2.699,4.179,7.707,6.181,10.883
			c0.175,0.349,0.396,0.654,0.566,0.914c0.042,0.047,0.042,0.089,0.042,0.089c4.094,6.092,11.146,6.355,11.104,12.447
			c0.26,0.569,0.26,1.178,0.043,1.828c-1.306,3.354-8.706,7.358-14.93,7.227v0.047c-5.965-2.049-20.767-13.06-29.864-20.503
			c-3.265-2.656-5.745-4.833-6.878-6.011c0.306-1.956,0.48-4.961,0.74-8.009c8.185,9.36,16.022,8.621,23.683,5.573L157.581,409.635z
			"/>
		<path fill="#11101F" d="M149.525,267.33c4.226,56.199,9.19,122.235,9.144,141.217v0.042l-0.089,0.043l-0.999,1.003l-0.09-0.48
			l-16.673-162.718v-0.043l-0.739-7.27c0.179-0.087,0.264-0.262,0.396-0.522c-0.132-1.915-0.349-3.875-0.565-5.833
			c0.867-0.697,1.653-1.437,2.394-2.177c0.692-5.225,1.305-11.493,2.266-14.628c0.26-1.001,0.604-1.696,0.952-1.915
			c0.047,0.306,0.047,0.61,0.089,0.958c0.217,3.526,0.523,7.227,0.787,11.145c0.259,3.177,0.519,6.397,0.739,9.75
			c0.213,2.483,0.392,4.963,0.562,7.576c0.306,4.004,0.654,8.098,0.961,12.362C148.922,259.585,149.223,263.457,149.525,267.33z"/>
		<path fill="#0A090E" d="M149.355,413.074c-7.661,3.048-15.498,3.787-23.683-5.573c-0.259-0.349-0.565-0.697-0.87-1.046
			c-1.653-7.181-3.396-17.366-6.529-38.132c-1.611-10.402-7.183-56.374-8.402-61.726c-0.436-1.96-0.869-3.699-1.263-5.356
			c0.652-10.36,1.307-20.107,1.828-28.771c0.044-0.438,0.087-0.871,0.132-1.263c0.217-3.308,0.391-6.397,0.522-9.318
			c0.347-5.003,0.565-9.446,0.782-13.145c3.701-1.437,7.314-3.175,10.84-5.003c1.263-0.655,2.568-1.353,3.917-2.092
			c4.57-2.525,9.316-5.441,13.278-8.88c0.217,1.958,0.434,3.917,0.565,5.833c-0.132,0.261-0.217,0.436-0.396,0.522l0.739,7.27v0.043
			l16.673,162.718l0.09,0.48L149.355,413.074z"/>
		<path fill="#010101" d="M131.375,426.873c-1.479-1.174-2.829-2.262-3.917-3.265c-1.393-1.174-2.481-2.177-3.133-2.832
			c0.129-1.738,0.172-3.307,0.521-5.352c0,0,0.044,0.042,0.087,0.085c1.133,1.178,3.613,3.354,6.878,6.011
			c9.098,7.443,23.899,18.454,29.864,20.503v-0.047c6.224,0.132,13.624-3.872,14.93-7.227c0.174,0.438-0.349,4.269-0.434,4.702
			c-0.179,1.352-1.437,2.788-3.354,4.136l-5.832,2.789c-1.96,0.607-3.915,0.956-5.833,0.956c-4.748-1.653-14.892-8.795-23.419-15.41
			c-0.391-1.742-0.829-3.57-2.482-4.833C134.119,426.308,132.159,425.784,131.375,426.873z"/>
		<path fill="#14112C" d="M141.652,130.078c-4.532,3.745-9.625,7.662-14.979,11.58c0.132-0.349,0.219-0.74,0.349-1.088
			c2.002-6.442,4.398-13.146,5.312-19.98c0.739-6.355,2.438-14.845,1.653-21.33c-0.349-2.744-1.176-9.969-2.351-12.451l-8.836-3.091
			c-1.046-1.479,2.045-5.877,1.828-7.008c-0.219-0.914-1.479-2.221-3.136-3.613c1.524-1.218,3.048-2.48,4.659-3.701
			c3.917-3.265,10.709-7.661,13.493-12.101c1.479,3.046,2.789,6.398,3.962,9.924c0.697,2.089,1.31,4.224,1.871,6.443
			c3.961,15.323,4.616,32.78,0.089,47.144C144.521,124.071,143.217,127.162,141.652,130.078z"/>
		<path fill="#15133A" d="M139.646,57.295c-2.784,4.44-9.576,8.835-13.493,12.101c-1.611,1.22-3.135,2.482-4.659,3.701
			c-2.351-1.873-5.483-3.831-7.486-4.789c1.479-1.218,2.525-2.525,2.351-3.786c0.349-3.919-0.436-6.878-0.785-11.057
			c7.966-2.961,20.59,0.217,23.723,3.046C139.429,56.73,139.561,57.034,139.646,57.295z"/>
		<path fill="#12101E" d="M125.672,232.986l-0.13-0.13c-0.174-2.351-0.436-5.05-0.784-8.186c0-0.085,0-0.172,0-0.259
			c-0.217-1.959-0.434-4.049-0.695-6.27c0.042-0.042,0.042-0.085,0-0.085c-1.699-15.933-3.962-37.917-2.787-59.028c0,0,0,0,0-0.045
			c0.043-1.13,0.087-2.264,0.175-3.352c0.174-0.522,0.349-1.001,0.478-1.524c0.219-0.521,0.349-1.088,0.523-1.609
			c0.042-0.087,0.087-0.219,0.129-0.306c1.307-3.526,2.917-6.92,4.092-10.534c5.354-3.917,10.447-7.834,14.979-11.58
			c1.564-2.917,2.869-6.007,3.915-9.272c-0.914,12.449-1.611,25.03-2.087,37.611c-0.485,10.925-0.787,21.853-1.089,32.735
			c1.301,6.094,3.958,12.275,6.135,17.238c0.306,0.523,0.607,1.001,0.913,1.524c1.004,2.045,1.658,4.483,3.096,6.442
			c-0.744,0.565-1.136,1.35-1.526,2.177l-0.175-0.087c-1.003,1.262-1.309,3.613-2.308,5.05c-0.608,0.957-1.348,1.828-2.13,2.655
			c-0.264-3.917-0.57-7.618-0.787-11.145c-0.042-0.349-0.042-0.652-0.089-0.958c-0.349,0.219-0.692,0.914-0.952,1.915
			c-0.961,3.135-1.573,9.403-2.266,14.628c-0.74,0.74-1.526,1.479-2.394,2.177c-3.962,3.439-8.708,6.355-13.278,8.88
			c-0.652-2.787-1.001-5.616-1.218-8.445C125.498,233.117,125.585,233.073,125.672,232.986z"/>
		<path fill="#2C254D" d="M126.631,135.693c0.523-7.269,0.479-14.8-0.349-22.069c-0.042-0.652-0.13-1.35-0.217-2.002
			c-1.088-8.49-2.744-16.673-5.703-24.769c-0.74-2.177-2.047-4.876-3.743-7.314c-0.349-0.523-0.697-0.957-1.046-1.437
			c-2.393-3.046-5.267-5.571-8.315-6.049c2.089-0.784,4.833-2.221,6.749-3.745c2.002,0.958,5.135,2.916,7.486,4.789
			c1.656,1.392,2.917,2.699,3.136,3.613c0.217,1.131-2.874,5.528-1.828,7.008l8.836,3.091c1.175,2.482,2.002,9.707,2.351,12.451
			c0.784,6.485-0.914,14.975-1.653,21.33c-0.914,6.833-3.31,13.538-5.312,19.98c-0.129,0.349-0.217,0.74-0.349,1.088
			c-1.175,3.614-2.785,7.008-4.092,10.534c1.001-3.09,2.177-6.398,3.003-9.708C126.152,140.178,126.544,137.915,126.631,135.693z"/>
		<path fill="#BAE4FA" d="M126.065,111.622c0.087,0.652,0.174,1.35,0.217,2.002c-1.741-8.183-5.396-15.106-9.62-22.156
			c-0.087-0.219-0.13-0.48-0.174-0.697c-0.565-2.219-0.957-5.093-1.654-7.488c0.436,0.306,0.87,0.522,1.263,0.742
			c0.74-1.569,0.695-3.048,0.523-4.485c1.696,2.438,3.003,5.137,3.743,7.314C123.321,94.949,124.977,103.132,126.065,111.622z"/>
		<path fill="#38160E" d="M126.282,113.624c0.827,7.27,0.872,14.8,0.349,22.069c-0.087,2.221-0.479,4.485-1.046,6.791
			c-0.827,3.31-2.002,6.617-3.003,9.708c-0.042,0.087-0.087,0.219-0.129,0.306c-0.174,0.521-0.304,1.088-0.523,1.609
			c-0.129,0.523-0.304,1.001-0.478,1.524c0-0.087,0-0.129,0-0.217c0.129-1.175,0.217-2.308,0.349-3.483
			c0.869-2.61,1.566-5.354,2.089-8.184c2.829-16.585-1.22-36.652-9.49-52.192c0.565-0.349,1.175-0.567,1.873-0.742
			c0.129,0.219,0.261,0.436,0.391,0.655C120.886,98.518,124.542,105.441,126.282,113.624z"/>
		<path fill="#522A17" d="M120.886,145.836c-0.174-4.221-0.523-8.445-1.743-12.101c-0.304-6.355-0.391-13.495-1.088-19.589
			c-0.782-7.095-3.569-14.279-5.745-20.852c0.652-0.74,1.35-1.307,2.089-1.741c8.271,15.54,12.319,35.607,9.49,52.192
			c-0.522,2.829-1.22,5.573-2.089,8.184c-0.132,1.175-0.219,2.308-0.349,3.483c0,0.087,0,0.13,0,0.217
			c-0.087,1.088-0.132,2.222-0.175,3.352c0-0.436,0-1.001,0-1.611c-0.044-0.304-0.044-0.653-0.044-0.957
			c-0.042-0.785-0.087-1.654-0.172-2.525C120.973,151.365,120.973,148.579,120.886,145.836z"/>
		<path fill="#010101" d="M113.442,29.74c0,0-0.567-2.525-1.656-5.877c0.652-0.87,1.263-1.741,1.828-2.7
			c0.654,3.048,2.308,11.886,1.437,19.155c-0.042-0.174-0.087-0.349-0.129-0.522C113.354,34.397,112.526,34.354,113.442,29.74z"/>
		<path fill="#30130C" d="M107.084,80.498c-0.042-0.087-0.042-0.174-0.042-0.261l0.13-0.045c1.655-0.304,3.177,0.262,4.572,1.088
			c1.043,0.567,2.089,1.35,3.09,2.002c0.697,2.396,1.088,5.269,1.654,7.488c-0.087,0-0.129,0.042-0.217,0.042
			c-0.697,0.174-1.307,0.393-1.873,0.742c-1.611-2.961-3.352-5.748-5.225-8.272C108.479,82.281,107.782,81.367,107.084,80.498z"/>
		<path fill="#411F0F" d="M112.309,93.295c-2.874-1.307-5.79-3.571-8.009-5.79c0.043-0.261,0.13-0.523,0.174-0.74
			c0.608-2.308,1.35-4.572,2.045-6.529l0.219-0.132c0.129,0.087,0.217,0.219,0.346,0.393c0.697,0.87,1.394,1.783,2.089,2.785
			c1.873,2.525,3.613,5.312,5.225,8.272C113.659,91.988,112.961,92.556,112.309,93.295z"/>
		<path fill="#FBB686" d="M104.953,72.661c-1.741,0.262-8.532-0.608-15.106-2.306c0.349-3.788-0.827-6.529-0.652-11.535
			c0-3.135,0.565-5.486-0.349-8.186c-1.437-4.396-2.219-4.396-1.218-8.271c0,0-0.697-2.872-2.134-6.355
			c5.877-0.129,12.93-3.307,17.893-5.354c3.526-1.524,6.181-3.917,8.4-6.791c1.088,3.352,1.656,5.877,1.656,5.877
			c-0.916,4.615-0.087,4.657,1.479,10.056c0.042,0.174,0.087,0.349,0.129,0.522c0.74,3.091,0.306,5.833,0.394,9.446
			c0,1.35,0.042,2.567,0.129,3.7c0.349,4.179,1.133,7.138,0.785,11.057c0.174,1.26-0.872,2.568-2.351,3.786
			c-1.915,1.524-4.659,2.961-6.749,3.745c-0.434,0.174-0.869,0.304-1.305,0.391C105.562,72.574,105.214,72.661,104.953,72.661z"/>
		<path fill="#0F0D18" d="M97.031,308.383l0.521-55.502c0.349-0.09,0.697-0.132,1.046-0.217c4.615-0.829,9.01-2.177,13.276-3.92
			c-0.217,3.698-0.436,8.142-0.782,13.145c-0.131,2.921-0.306,6.011-0.522,9.318c-0.045,0.392-0.087,0.825-0.132,1.263
			c-0.521,8.664-1.176,18.411-1.828,28.771c-3.265,49.801-7.486,113.529-7.095,134.729c0,0.565,0,1.089,0.042,1.611c0,0,0,0,0,0.043
			c0,0.089,0,0.174,0,0.221c0,0.477-0.172,0.914-0.478,1.305c-0.129,0.175-0.304,0.303-0.478,0.434
			c-0.045-0.042-0.045-0.131-0.087-0.174c-1.133,1.131-1.262,1.046-4.049,1.7c-0.261,0.043-0.521,0.085-0.827,0.128l1.395-132.812
			V308.383z"/>
		<path fill="#131125" d="M97.551,251.92c-1.609,0.744-3.265,1.395-4.918,1.96c-1.524,0.264-3.09,0.391-4.57,0.217
			c-0.174,0-0.306,0-0.523-0.043c-0.871-1.696-1.653-3.438-2.308-5.31c-5.093-14.321-4.613-33.475-6.311-47.144
			c-0.914-6.878-1.611-14.19-2.48-21.504c0-1.698-0.044-3.352-0.087-5.005c12.753-7.837,28.729-18.065,43.399-28.427
			c0.087,0.348,0.261,0.74,0.391,1.088c0.436,1.307,0.742,3.745,0.916,6.138c0.085,0.872,0.13,1.741,0.172,2.525
			c0,0.304,0,0.652,0.044,0.957c0,0.61,0,1.175,0,1.611c0,0.045,0,0.045,0,0.045c-1.175,21.111,1.088,43.095,2.787,59.028
			c0.042,0,0.042,0.043,0,0.085c0.261,2.221,0.478,4.311,0.695,6.27c0,0.087,0,0.174,0,0.259c0.349,3.135,0.61,5.834,0.784,8.186
			l0.13,0.13c-0.087,0.087-0.174,0.131-0.259,0.219c0.217,2.829,0.565,5.658,1.218,8.445c-1.35,0.739-2.655,1.437-3.917,2.092
			c-3.526,1.828-7.14,3.566-10.84,5.003c-4.266,1.743-8.661,3.091-13.276,3.92c-0.349,0.085-0.697,0.127-1.046,0.217V251.92z"/>
		<path fill="#30130C" d="M95.549,1.489c-2.132-0.393-4.44-0.916-6.792-1.307C91.066,0.401,93.373,0.834,95.549,1.489z"/>
		<path fill="#151117" d="M103.386,30.654c-4.963,2.047-12.016,5.225-17.893,5.354c-0.914,0.045-1.741,0-2.567-0.129
			c-0.436-0.087-0.872-0.174-1.305-0.306c-10.013-2.306-19.589-10.141-27.862-16.411c1.786-4.047,4.747-7.922,8.054-11.013
			L61.9,8.236c3.048-2.829,6.878-4.963,10.97-6.313c5.006-1.653,10.492-2.264,15.846-1.741h0.042
			c2.351,0.391,4.659,0.914,6.792,1.307c1.915,0.391,3.658,0.74,5.267,0.914c4.397,0.521,9.839-0.784,14.234,1.043
			c5.964,2.612,3.135,9.097,0.785,13.756c-0.697,1.35-1.437,2.7-2.221,3.96c-0.565,0.959-1.176,1.83-1.828,2.7
			C109.567,26.736,106.912,29.13,103.386,30.654z"/>
		<path fill="#0A090E" d="M89.5,308.034c0.217,0.132,0.434,0.217,0.652,0.306l-0.652,0.302V308.034z"/>
		<polygon fill="#A97D51" points="89.5,308.642 89.5,317.522 89.106,377.335 73.131,386.606 73.131,356.05 73.131,320.83 
			73.131,320.481 73.131,316.043 73.131,315.911 74.742,315.214 74.83,315.172 88.192,309.254 88.237,309.207 		"/>
		<path fill="#11101F" d="M97.551,252.881l-0.521,55.502l-6.878-0.043c-0.219-0.089-0.436-0.174-0.652-0.306
			c-0.48-0.217-1.046-0.48-1.656-0.782c-2.264-1.088-5.484-2.614-9.272-4.485c-3.09-1.479-6.529-3.133-10.272-4.875
			c-1.698-0.872-3.439-1.697-5.225-2.568c0.652-8.357,1.741-16.196-4.918-20.46c-0.261-3.83-0.523-6.879-0.697-9.013
			c-0.436-4.612-0.74-8.659-0.869-12.447c0.129-2.699,0.346-5.488,0.565-8.272c0.784,0.392,1.611,0.786,2.48,1.22
			c8.357,4.005,21.07,9.183,28.427,8.707c-0.219-0.349-0.393-0.655-0.523-1.004c0.217,0.043,0.349,0.043,0.523,0.043
			c1.479,0.174,3.046,0.047,4.57-0.217c1.654-0.565,3.31-1.216,4.918-1.96V252.881z"/>
		<path fill="#BAE4FA" d="M85.538,94.339c-1.96-1.521-4.354-3.656-6.269-6.094c2.568,1.786,5.962,2.961,9.01,3.743
			c1.392,0.349,3.917,0.958,6.574,1.35c3.308,0.523,6.789,0.697,8.487-0.565h0.087c0.132-1.611,0.436-3.439,0.871-5.267
			c2.219,2.219,5.136,4.483,8.009,5.79c2.176,6.572,4.963,13.756,5.745,20.852c0.697,6.094,0.785,13.233,1.088,19.589
			c-0.13-0.349-0.259-0.697-0.391-1.001c-3.265-8.402-8.315-16.847-14.409-23.506c-4.615-5.138-9.576-8.402-14.975-12.146
			C88.105,96.212,86.843,95.253,85.538,94.339z"/>
		<path fill="#F9A974" d="M82.926,35.878c0.827,0.129,1.653,0.174,2.567,0.129c1.437,3.484,2.134,6.355,2.134,6.355
			c-1.001,3.875-0.219,3.875,1.218,8.271c0.914,2.699,0.349,5.05,0.349,8.186c-0.174,5.006,1.001,7.748,0.652,11.535
			c-2.48-0.61-4.961-1.392-7.095-2.308c-2.874-2.045-4.353-4.7-5.223-6.747c0.042,0,0.13-0.042,0.172-0.087
			c-0.653-1.479-1.261-3.614-1.871-5.833c1.611,1.044,3.352,2.002,5.135,2.959c-2.132-7.66-0.259-10.534,0.045-14.277
			c0.304-3.222,0.827-5.658,0.61-8.489C82.054,35.704,82.49,35.791,82.926,35.878z"/>
		<path fill="#14112C" d="M80.707,107.792c1.435-0.697,2.436-1.394,4.134-1.481c0.958,2.308,0.219,4.224-0.087,6.355
			c-0.478,3.222-0.478,3.222,2.134,4.527c5.441,2.7,11.231,4.311,16.673,7.227c8.965,4.614,12.579,12.232,16.192,22.244
			c-14.671,10.362-30.646,20.59-43.399,28.427c-0.829-24.595-7.14-40.528-18.762-56.067c0.129-0.044,0.217-0.132,0.349-0.219
			c0.042,0,0.085,0,0.129-0.042c6.747-3.962,12.101-8.402,18.327-12.668c0.304,0.523,0.61,1.043,0.914,1.437
			C79.312,109.794,77.788,109.01,80.707,107.792z"/>
		<path fill="#D4EFFB" d="M77.397,78.234c6.487,9.359,28.644,5.703,29.383,0.217c0.087-0.436,0.045-0.782-0.129-1.175
			c-0.219-1.524-0.393-3.046-0.567-4.57l-0.13-0.262c0.436-0.087,0.872-0.217,1.305-0.391c3.048,0.479,5.922,3.003,8.315,6.049
			c0.349,0.48,0.697,0.914,1.046,1.437c0.172,1.437,0.217,2.916-0.523,4.485c-0.393-0.219-0.827-0.436-1.263-0.742
			c-1.001-0.653-2.047-1.435-3.09-2.002c-1.395-0.827-2.917-1.392-4.572-1.088l-0.13,0.045c0,0.087,0,0.174,0.042,0.261
			c-0.129-0.174-0.217-0.306-0.346-0.393l-0.219,0.132c-0.695,1.958-1.437,4.221-2.045,6.529c-0.174,0.087-0.348,0.217-0.523,0.349
			c0.13,0.13,0.217,0.262,0.349,0.391c-0.436,1.828-0.739,3.656-0.871,5.267h-0.087c-1.698,1.263-5.18,1.088-8.487,0.565
			c-2.657-0.391-5.182-1.001-6.574-1.35c-3.048-0.782-6.442-1.958-9.01-3.743c-2.525-3.307-4.179-7.182-2.525-10.925l0.087-0.044
			C76.961,77.582,77.18,77.885,77.397,78.234z"/>
		<path fill="#2C254D" d="M79.27,88.245c1.915,2.438,4.309,4.572,6.269,6.094c1.305,0.914,2.567,1.873,3.83,2.744
			c5.399,3.743,10.36,7.008,14.975,12.146c6.094,6.659,11.144,15.104,14.409,23.506c0.132,0.304,0.261,0.652,0.391,1.001
			c1.22,3.656,1.569,7.879,1.743,12.101c0.087,2.742,0.087,5.529,0.174,8.054c-0.174-2.393-0.48-4.832-0.916-6.138
			c-0.129-0.349-0.304-0.74-0.391-1.088c-3.614-10.011-7.227-17.629-16.192-22.244c-5.441-2.917-11.231-4.527-16.673-7.227
			c-2.612-1.305-2.612-1.305-2.134-4.527c0.306-2.132,1.046-4.047,0.087-6.355c-1.698,0.087-2.7,0.785-4.134,1.481
			c-2.918,1.218-1.395,2.002-3.396-0.261c-0.304-0.394-0.61-0.914-0.914-1.437c-1.218-2.351-2.394-5.486-3.352-7.663
			c-2.002-4.221-6.659-14.364-5.267-19.761c0.304-0.307,0.653-0.655,1.001-0.959c2.047-4.049,4.44-8.096,7.14-11.144
			c0.129,1.307,0.304,2.612,0.478,3.962c0.349,2.568,0.652,5.135,1.001,7.705c-0.217-0.349-0.436-0.652-0.565-0.958l-0.087,0.044
			C75.091,81.063,76.745,84.938,79.27,88.245z"/>
		<path fill="#F89C6A" d="M82.751,68.046c2.134,0.916,4.614,1.698,7.095,2.308c6.575,1.698,13.366,2.568,15.106,2.306
			c0.261,0,0.61-0.087,1.001-0.217l0.13,0.262c0.174,1.524,0.348,3.045,0.567,4.57c0.042,0.393,0.087,0.74,0.129,1.175
			c-0.739,5.486-22.896,9.142-29.383-0.217c-0.349-2.57-0.652-5.137-1.001-7.705c-0.174-1.35-0.349-2.655-0.478-3.962
			c-0.045-0.217-0.087-0.478-0.132-0.697c-0.175-1.26-0.304-2.523-0.479-3.786c0.697,0.042,1.437-0.174,2.221-0.784
			C78.398,63.347,79.877,66.001,82.751,68.046z"/>
		<path fill="#FBB686" d="M75.831,55.38c0.61,2.219,1.218,4.354,1.871,5.833c-0.042,0.044-0.13,0.087-0.172,0.087
			c-0.784,0.61-1.524,0.827-2.221,0.784c-3.265-0.306-4.918-7.401-6.355-10.492c-1.828-3.917,2.961-5.354,4.702-4.004
			C74.264,49.286,75.004,52.377,75.831,55.38z"/>
		<polygon fill="#8B5F3D" points="73.131,320.83 73.131,356.05 72.87,355.961 65.904,352.348 62.161,350.477 61.118,349.954 
			60.986,349.864 60.986,346.256 53.5,342.468 53.5,346.034 24.724,331.279 17.28,327.448 17.28,323.661 9.794,319.873 
			9.794,323.618 0,318.61 0,279.433 0.087,279.391 27.814,293.274 60.376,309.646 66.297,312.604 73.001,316.001 73.131,316.043 
			73.131,320.481 		"/>
		<polygon fill="#0F0D18" points="73.131,315.911 73.131,316.043 73.001,316.001 		"/>
		<path fill="#010101" d="M101.252,475.454c-5.093-1.785-16.15-9.578-25.421-16.715c-0.393-1.96-0.74-3.963-2.612-5.314
			c-1.175-0.867-3.265-1.39-4.004,0.047c-3.091-2.525-5.573-4.659-7.008-6.054c0.129-1.827,0.172-3.481,0.521-5.743
			c5.964,5.701,30.69,25.158,39.091,28.032c0.087,0,0.132,0,0.219,0c6.617,0,14.409-4.222,15.844-7.793
			c0.174,0.438-0.346,4.57-0.434,5.051c-0.306,2.092-3.178,4.527-6.878,6.271c-2.829,1.348-6.226,2.219-9.316,2.176V475.454z"/>
		<path fill="#1C191B" d="M63.381,438.844c6.268,4.269,22.505,4.485,32.255,2.394c0.306-0.043,0.565-0.085,0.827-0.128
			c2.787-0.654,2.917-0.569,4.049-1.7c0.042,0.043,0.042,0.132,0.087,0.174c0.697,1.438,4.702,6.05,5.441,7.138
			c4.396,6.313,11.839,6.704,11.839,13.191c0.262,0.612,0.262,1.263,0,2.002c-1.435,3.571-9.227,7.793-15.844,7.793
			c-0.087,0-0.132,0-0.219,0c-8.4-2.874-33.126-22.331-39.091-28.032c0.132-0.697,0.349-1.568,0.567-2.525
			C63.294,439.061,63.337,438.976,63.381,438.844z"/>
		<path fill="#2B292F" d="M81.621,35.572c0.217,2.831-0.306,5.267-0.61,8.489c-0.304,3.743-2.177,6.617-0.045,14.277
			c-1.783-0.957-3.524-1.915-5.135-2.959c-0.827-3.003-1.566-6.094-2.176-7.792c-1.741-1.35-6.53,0.087-4.702,4.004
			c1.437,3.091,3.091,10.186,6.355,10.492c0.174,1.263,0.304,2.525,0.479,3.786l-0.262,0.044c-1.131-0.739-1.958-0.436-3.352-1.305
			c-0.565-1.698-1.392-3.223-2.436-4.833l-0.262,0.174c-5.877-8.184-10.753-16.192-16.15-25.9c-2.482-4.44-1.873-9.794,0.434-14.889
			C62.032,25.432,71.607,33.266,81.621,35.572z"/>
		<path fill="#11101F" d="M97.031,308.425l-1.395,132.812c-9.75,2.092-25.987,1.875-32.255-2.394
			c-0.044,0.132-0.087,0.217-0.087,0.306c-0.132-0.046-0.306-0.131-0.436-0.263c-0.652-0.349-1.22-0.782-1.741-1.174
			c0,0,1.828-11.58,1.915-23.202c0-0.043,0-0.043,0-0.043c-0.61-12.885-1.915-22.16-1.611-33.957l1.305,0.786l9.969,5.526v0.043
			l0.436-0.26l15.976-9.271l0.394-59.812v-8.881l0.652-0.302l6.878,0.043V308.425z"/>
		<path fill="#0F0D18" d="M78.921,201.6c1.698,13.669,1.218,32.823,6.311,47.144c0.655,1.871,1.437,3.613,2.308,5.31
			c0.13,0.349,0.304,0.655,0.523,1.004c-7.356,0.476-20.069-4.702-28.427-8.707c-0.87-0.434-1.696-0.828-2.48-1.22
			c0.217-2.699,0.436-5.396,0.652-8.096c0.478-6.749,0.914-13.321,0.61-19.023c-0.044-1.698-0.044-5.267,0-10.098
			c0.174-20.896,1.044-65.254,0.827-80.926c-0.959-2.394-1.96-4.7-2.961-6.921h-0.042c-0.132-0.304-0.261-0.565-0.436-0.871
			c0.043,0,0.043,0,0.043,0c0.436-0.043,0.784-0.087,1.045-0.13c0.61-0.087,0.914-0.217,1.046-0.262
			c-0.132,0.087-0.219,0.175-0.349,0.219c11.623,15.54,17.933,31.473,18.762,56.067c0.042,1.654,0.087,3.307,0.087,5.005
			C77.31,187.41,78.007,194.722,78.921,201.6z"/>
		<path fill="#F89C6A" d="M55.98,268.116c0.436,2.003,0.739,4.137,1.088,6.05c-1.046-0.523-2.221-0.999-3.613-1.395l-0.13-0.085
			c0.653-1.305,0.914-2.784,1.044-4.311C54.935,268.291,55.457,268.201,55.98,268.116z"/>
		<polygon fill="#C7C6C1" points="53.5,342.468 60.986,346.256 60.986,349.864 60.986,350.91 60.986,355.876 60.333,355.527 
			53.5,351.697 53.5,346.034 		"/>
		<path fill="#603A17" d="M57.068,274.166c0.391,0.217,0.74,0.438,1.088,0.697c6.659,4.264,5.571,12.103,4.918,20.46
			c-0.13,1.785-0.262,3.656-0.304,5.484H62.51c-0.349,1.305-1.479,1.395-2.567,1.003c-0.523-0.089-1.001-0.349-1.437-0.612
			c-1.437-0.697-1.569-1.437-1.569-2.873l0.262-0.043c0.044-0.957,0.044-3.176,0.044-5.79c0-4.09-0.044-9.14-0.044-11.58
			c-0.174,0.047-0.347,0.047-0.479,0.047c-1.305,0-2.002-1.263-3.09-1.96c-0.087-0.089-0.174-0.174-0.261-0.217
			c-1.699-1.568-1.741-3.354-0.436-4.876l-0.129-0.306c0.217-0.26,0.349-0.608,0.522-0.914l0.13,0.085
			C54.847,273.167,56.022,273.643,57.068,274.166z"/>
		<path fill="#13122C" d="M41.135,109.794c0,0,0.045,0,0.087,0c2.438-1.395,5.225-1.698,8.096-0.174
			c1.22,1.262,2.396,2.829,3.439,4.44c1.133,1.699,2.177,3.482,3.048,5.136c0.175,0.306,0.304,0.567,0.436,0.871h0.042
			c1.001,2.221,2.002,4.527,2.961,6.921c0.217,15.672-0.653,60.029-0.827,80.926c-0.044,4.831-0.044,8.4,0,10.098
			c0.304,5.703-0.132,12.275-0.61,19.023c-0.217,2.7-0.436,5.397-0.652,8.096c-0.219,2.784-0.436,5.573-0.565,8.272
			c-0.174,2.87-0.262,5.701-0.262,8.312c0.042,0.395,0.042,0.786,0.042,1.22c-0.436,0.48-0.956,0.956-1.611,1.305
			c-0.13,0.132-0.304,0.264-0.521,0.349c-1.046,0.655-2.308,1.089-3.613,1.395c-0.132,0.043-0.304,0.085-0.436,0.132
			c-5.79,1.216-12.362-0.217-16.935-3.439c-1.001-0.739-1.915-1.568-2.697-2.482c-0.174-0.217-0.349-0.434-0.48-0.607
			c0-3.613-0.087-7.27-0.174-10.973c-0.13-6.614-0.304-13.363-0.391-20.154c-0.174-15.365-0.13-76.396,0.61-88.977
			c0.042-1.305,0.13-2.612,0.262-3.875c0.129-1.263,0.261-2.436,0.478-3.698c0.523-3.788,1.305-7.576,2.525-11.276
			c0.217-0.695,0.436-1.392,0.74-2.089c0.042-0.129,0.13-0.261,0.174-0.436c0.304-0.653,0.61-1.348,1.001-1.958
			c0.175-0.349,0.392-0.697,0.61-1.001c0,0,0,0,0-0.044c0.042-0.13,0.129-0.217,0.217-0.349c0.044-0.172,0.087-0.347,0.129-0.521
			l0.132,0.042C37.305,111.447,39.003,110.143,41.135,109.794z"/>
		<path fill="#FBB686" d="M53.368,278.782c-7.444-0.174-15.627-1.046-21.634-5.008c0-0.174,0-0.391-0.045-0.565
			c-0.217-2.308-0.217-4.701,0.349-7.095c5.396,4.57,14.887,3.265,22.331,2.262c-0.13,1.526-0.391,3.006-1.044,4.311
			c-0.174,0.306-0.306,0.654-0.522,0.914l0.129,0.306C51.627,275.429,51.669,277.214,53.368,278.782z"/>
		<path fill="#15133A" d="M76.396,106.093c-6.226,4.266-11.58,8.707-18.327,12.668c-0.044,0.042-0.087,0.042-0.129,0.042
			c-0.132,0.045-0.436,0.175-1.046,0.262c-0.261,0.042-0.61,0.087-1.045,0.13c0,0,0,0-0.043,0c-0.871-1.654-1.915-3.437-3.048-5.136
			c-1.043-1.611-2.219-3.178-3.439-4.44c-2.872-1.524-5.658-1.22-8.096,0.174c-0.042,0-0.087,0-0.087,0
			c-2.132,0.349-3.83,1.653-4.744,4.482l-0.132-0.042c-0.042,0.174-0.085,0.348-0.129,0.521c-0.087,0.132-0.174,0.219-0.217,0.349
			c0,0.044,0,0.044,0,0.044c-0.219,0.304-0.436,0.653-0.61,1.001c0.175-0.436,0.304-0.827,0.479-1.22
			c0.436-1.088,0.872-2.089,1.437-3.09c0.175-0.304,0.349-0.695,0.565-1.001c0.394-0.695,0.827-1.392,1.263-2.002
			c0.349-0.522,0.784-1.001,1.133-1.437l0.262-0.262c0,0,0-0.042,0.042-0.042c7.052-10.012,17.848-19.459,27.294-28.425
			c-1.392,5.396,3.265,15.54,5.267,19.761C74.002,100.607,75.178,103.742,76.396,106.093z"/>
		<path fill="#BAE4FA" d="M54.369,268.376c-7.444,1.003-16.935,2.309-22.331-2.262c0.13-0.565,0.304-1.088,0.479-1.653
			c0.219-0.612,0.436-1.178,0.739-1.786c4.572,3.223,11.145,4.655,16.935,3.439c0.132-0.047,0.304-0.089,0.436-0.132
			c1.305-0.306,2.567-0.739,3.613-1.395l0.217,0.307C54.456,266.025,54.456,267.202,54.369,268.376z"/>
		<path fill="#F9A974" d="M31.734,273.774c6.007,3.962,14.19,4.834,21.634,5.008c0.087,0.043,0.174,0.128,0.261,0.217
			c1.088,0.697,1.786,1.96,3.09,1.96c0.132,0,0.304,0,0.479-0.047c-1.654,1.353-4.744,4.179-6.049,5.488
			c-5.79-1.526-12.625-4.136-18.327-6.878C32.429,277.821,31.994,275.909,31.734,273.774z"/>
		<path fill="#603A17" d="M28.382,285.963c-1.307,1.653-3.919,0-4.353-1.828h0.042c0-2.003-0.13-4.834-0.042-7.75
			c0.174-5.79,1.262-11.924,6.181-12.146c0.695-0.042,1.437,0,2.307,0.222c-0.175,0.565-0.349,1.088-0.479,1.653
			c-0.565,2.394-0.565,4.787-0.349,7.095c-0.391-0.217-0.697-0.263-0.957-0.132c-0.742,0.307-1.262,1.654-1.568,3.396v0.043
			c-0.13,0.697-0.217,1.479-0.304,2.266c-0.132,1.391-0.174,2.87-0.219,4.133C28.599,283.918,28.469,284.917,28.382,285.963z"/>
		<path fill="#764E2A" d="M88.192,309.254l-13.363,5.918l-0.087,0.042l-1.611,0.697l-0.129,0.09l-6.704-3.396l-5.921-2.959
			l-32.562-16.371L0.087,279.391l15.931-6.964c1.741,0.914,4.527,2.305,8.011,3.958c-0.087,2.916,0.042,5.747,0.042,7.75h-0.042
			c0.434,1.828,3.046,3.481,4.353,1.828c0.087-1.046,0.217-2.045,0.259-3.048c0.132-1.348,0.219-2.742,0.349-4.09
			c8.054,3.915,18.371,8.88,28.252,13.667c0,2.614,0,4.833-0.044,5.79l-0.262,0.043c0,1.437,0.132,2.176,1.569,2.873
			c0.436,0.264,0.914,0.523,1.437,0.612c1.088,0.392,2.219,0.302,2.567-1.003h0.262c0.042-1.828,0.174-3.699,0.304-5.484
			c1.786,0.871,3.526,1.696,5.225,2.568c3.743,1.742,7.182,3.396,10.272,4.875c3.788,1.871,7.008,3.397,9.272,4.485
			c0.61,0.302,1.175,0.565,1.656,0.782v0.607l-1.263,0.565L88.192,309.254z"/>
		<polygon fill="#C7C6C1" points="17.28,327.448 17.28,333.323 9.794,329.103 9.794,323.618 9.794,319.873 17.28,323.661 		"/>
		<polygon fill="#764E2A" points="73.131,356.05 73.131,386.606 72.695,386.866 72.695,386.823 62.727,381.297 61.421,380.511 
			57.243,378.16 22.46,358.571 0,345.992 0,318.61 9.794,323.618 9.794,329.103 17.28,333.323 17.28,327.448 24.724,331.279 
			53.5,346.034 53.5,351.697 60.333,355.527 60.986,355.876 60.986,350.91 60.986,349.864 61.118,349.954 62.161,350.477 
			65.904,352.348 72.87,355.961 		"/>
	</g>
</g>
</svg>
