<svg xmlns="http://www.w3.org/2000/svg" xmlns:xlink="http://www.w3.org/1999/xlink" width="350px" height="350px" viewBox="0 0 949.15 998.16">
    <defs>
        <style>
            .cls-1,.cls-22,.cls-23{fill:none;}.cls-2{isolation:isolate;}.cls-3{fill:#fff;}.cls-4{fill:#09bfff;}.cls-5{fill:#d6e7f7;}.cls-6{fill:#1a1383;}.cls-7{clip-path:url(#clip-path);}.cls-8{fill:url(#linear-gradient);}.cls-9{opacity:0.8;}.cls-10{clip-path:url(#clip-path-3);}.cls-11{clip-path:url(#clip-path-4);}.cls-12{fill:url(#linear-gradient-3);}.cls-13{opacity:0.7;}.cls-13,.cls-25{mix-blend-mode:color-dodge;}.cls-14{clip-path:url(#clip-path-5);}.cls-15{fill:#4e5fec;}.cls-16{fill:#ffcb29;}.cls-17{fill:#15b3fb;}.cls-18{clip-path:url(#clip-path-6);}.cls-19{clip-path:url(#clip-path-7);}.cls-20{mix-blend-mode:screen;}.cls-21{clip-path:url(#clip-path-8);}.cls-22{stroke:#09bfff;stroke-width:0.58px;}.cls-22,.cls-23{stroke-miterlimit:10;}.cls-23{stroke:#fff;stroke-width:2px;}.cls-24{clip-path:url(#clip-path-9);}.cls-26{opacity:0.6;}.cls-27{clip-path:url(#clip-path-11);}.cls-28{opacity:0.5;}.cls-29{clip-path:url(#clip-path-14);}.cls-30{clip-path:url(#clip-path-15);}.cls-31{fill:url(#linear-gradient-4);}.cls-32{clip-path:url(#clip-path-16);}.cls-33{fill:url(#linear-gradient-5);}.cls-34{clip-path:url(#clip-path-17);}.cls-35{fill:url(#linear-gradient-6);}.cls-36{clip-path:url(#clip-path-18);}.cls-37{fill:url(#linear-gradient-7);}.cls-38{fill:#11a7f6;}.cls-39{clip-path:url(#clip-path-19);}.cls-40{fill:url(#linear-gradient-8);}.cls-41{clip-path:url(#clip-path-20);}.cls-42{fill:url(#radial-gradient);}.cls-43{clip-path:url(#clip-path-21);}.cls-44{clip-path:url(#clip-path-22);}.cls-45{clip-path:url(#clip-path-23);}.cls-46{clip-path:url(#clip-path-24);}.cls-47{clip-path:url(#clip-path-25);}.cls-48{clip-path:url(#clip-path-26);}.cls-49{fill:url(#linear-gradient-9);}.cls-50{fill:url(#linear-gradient-10);}.cls-51{fill:url(#linear-gradient-11);}.cls-52{fill:url(#linear-gradient-12);}.cls-53{fill:url(#linear-gradient-13);}.cls-54{fill:url(#linear-gradient-14);}.cls-55{fill:url(#linear-gradient-15);}.cls-56{fill:url(#linear-gradient-16);}.cls-57{fill:url(#linear-gradient-17);}.cls-58{clip-path:url(#clip-path-27);}.cls-59{fill:url(#linear-gradient-18);}.cls-60{clip-path:url(#clip-path-28);}.cls-61{fill:url(#linear-gradient-19);}.cls-62{clip-path:url(#clip-path-29);}.cls-63{fill:url(#linear-gradient-20);}.cls-64{clip-path:url(#clip-path-30);}.cls-65{fill:url(#linear-gradient-21);}.cls-66{clip-path:url(#clip-path-31);}.cls-67{fill:url(#linear-gradient-22);}.cls-68{clip-path:url(#clip-path-32);}.cls-69{fill:url(#linear-gradient-23);}.cls-70{clip-path:url(#clip-path-33);}.cls-71{fill:url(#linear-gradient-24);}.cls-72{clip-path:url(#clip-path-34);}.cls-73{fill:url(#linear-gradient-25);}.cls-74{clip-path:url(#clip-path-35);}.cls-75{fill:url(#linear-gradient-26);}
        </style>
        <clipPath id="clip-path">
            <path class="cls-1"
                  d="M195.18,159l2.33,270.76a10.4,10.4,0,0,0,5.16,8.9L564.34,650.24a10.42,10.42,0,0,0,15.68-9V369.06a10.42,10.42,0,0,0-5.21-9l-364-210.15a10.33,10.33,0,0,0-5.19-1.41A10.44,10.44,0,0,0,195.18,159"/>
        </clipPath>
        <linearGradient id="linear-gradient" x1="-1156.41" y1="1292.45" x2="-1155.41" y2="1292.45"
                        gradientTransform="translate(-597505.81 668855.14) rotate(-180) scale(517.2)"
                        gradientUnits="userSpaceOnUse">
            <stop offset="0" stop-color="#5940e7"/>
            <stop offset="1" stop-color="#1baff8"/>
        </linearGradient>
        <clipPath id="clip-path-3">
            <rect class="cls-1" x="207.94" y="166.98" width="359.44" height="466.17"/>
        </clipPath>
        <clipPath id="clip-path-4">
            <path class="cls-1"
                  d="M564.53,368.7l-348-200.94a5.7,5.7,0,0,0-8.55,5l2.17,252.42a5.73,5.73,0,0,0,2.82,4.87L558.8,632.37a5.7,5.7,0,0,0,8.58-4.92V373.64a5.71,5.71,0,0,0-2.85-4.94"/>
        </clipPath>
        <linearGradient id="linear-gradient-3" x1="-1156.41" y1="1292.45" x2="-1155.41" y2="1292.45"
                        gradientTransform="matrix(-1043.92, 0, 0, 1043.92, -1206579.26, -1348823.44)"
                        gradientUnits="userSpaceOnUse">
            <stop offset="0" stop-color="#fff"/>
            <stop offset="1" stop-color="#1baff8"/>
        </linearGradient>
        <clipPath id="clip-path-5">
            <rect class="cls-1" x="110.78" y="177.46" width="412.4" height="578.19"/>
        </clipPath>
        <clipPath id="clip-path-6">
            <rect class="cls-1" x="257.87" y="383.69" width="265.31" height="371.97"/>
        </clipPath>
        <clipPath id="clip-path-7">
            <rect class="cls-1" x="214.57" y="408.69" width="265.31" height="371.97"/>
        </clipPath>
        <clipPath id="clip-path-8">
            <rect class="cls-1" x="252.76" y="468.82" width="199.88" height="233.73"/>
        </clipPath>
        <clipPath id="clip-path-9">
            <rect class="cls-1" x="172.72" y="521.43" width="220.56" height="309.22"/>
        </clipPath>
        <clipPath id="clip-path-11">
            <rect class="cls-1" x="171.72" y="519.7" width="222.56" height="312.69"/>
        </clipPath>
        <clipPath id="clip-path-14">
            <rect class="cls-1" x="69.02" y="598.43" width="192.19" height="269.45"/>
        </clipPath>
        <clipPath id="clip-path-15">
            <path class="cls-1"
                  d="M386.37,352.89c13.9-5.26,31.74-2.95,51.21,8.29C482,386.81,518,449.17,518,500.43c0,21.65-6.41,37.86-17.17,47.43,18.78-8.8,31.72-28.63,31.72-55.82,0-51.27-36-113.62-80.39-139.25-11.72-6.77-23.48-9.9-34.46-9.9a52.67,52.67,0,0,0-31.3,10"/>
        </clipPath>
        <linearGradient id="linear-gradient-4" x1="-1156.41" y1="1292.39" x2="-1155.41" y2="1292.39"
                        gradientTransform="matrix(0, 330.65, 330.65, 0, -426876.94, 382689.66)"
                        xlink:href="#linear-gradient"/>
        <clipPath id="clip-path-16">
            <path class="cls-1"
                  d="M437.58,535c-38.72-22.37-70.11-76.73-70.11-121.44,0-25.4,10.13-42.22,26-47.91,12.05-4.34,27.42-2.23,44.16,7.43,38.71,22.35,70.1,76.72,70.1,121.44,0,17.94-5.05,31.6-13.6,40.09-6.57,6.5-15.2,10-25.2,10-9.42,0-20.05-3.07-31.31-9.57M386.37,352.89c-17.82,6.72-29.19,25.91-29.18,54.71,0,51.27,36,113.62,80.39,139.25,25.65,14.82,48.5,14.12,63.22,1,10.76-9.57,17.17-25.78,17.17-47.43,0-51.26-36-113.62-80.39-139.25-12.9-7.45-25.1-11-35.9-11a43.09,43.09,0,0,0-15.31,2.69"/>
        </clipPath>
        <linearGradient id="linear-gradient-5" x1="-1156.41" y1="1292.46" x2="-1155.41" y2="1292.46"
                        gradientTransform="matrix(0, -226.8, -226.8, 0, 293561.59, -261700.4)"
                        xlink:href="#linear-gradient"/>
        <clipPath id="clip-path-17">
            <path class="cls-1"
                  d="M367.47,413.54c0,44.71,31.39,99.07,70.11,121.44,23.19,13.38,43.74,12.25,56.51-.39-10.09,4.67-24.21,2.24-42-8C413.41,504.22,382,449.85,382,405.15c0-18.49,4-31.82,11.41-39.52-15.83,5.69-26,22.51-26,47.91"/>
        </clipPath>
        <linearGradient id="linear-gradient-6" x1="-1156.41" y1="1292.5" x2="-1155.41" y2="1292.5"
                        gradientTransform="matrix(0, 284.29, 284.29, 0, -367020.53, 329089.19)"
                        xlink:href="#linear-gradient"/>
        <clipPath id="clip-path-18">
            <path class="cls-1"
                  d="M527.41,493.83a15,15,0,0,0-6.8,11.77c0,2.37.91,4,2.35,4.57l66.73,38.56,10-16.38-67.18-38.81h0a3.5,3.5,0,0,0-2.08-.65,6.12,6.12,0,0,0-3,.93"/>
        </clipPath>
        <linearGradient id="linear-gradient-7" x1="-1156.41" y1="1292.41" x2="-1155.41" y2="1292.41"
                        gradientTransform="matrix(38.85, 0, 0, -38.85, 45472.69, 50727.3)"
                        gradientUnits="userSpaceOnUse">
            <stop offset="0" stop-color="#5940e7"/>
            <stop offset="1" stop-color="#062636"/>
        </linearGradient>
        <clipPath id="clip-path-19">
            <path class="cls-1"
                  d="M603.45,522.16c-11.2,6.47-20.28,22.2-20.28,35.13,0,5.79,1.83,10,4.85,12.37h0l.12.07a10,10,0,0,0,2,1.19L804.37,694.7l26-51.07L618.47,521.17l0,0a10.34,10.34,0,0,0-6-1.78,18.32,18.32,0,0,0-9,2.75"/>
        </clipPath>
        <linearGradient id="linear-gradient-8" x1="-1156.41" y1="1292.36" x2="-1155.41" y2="1292.36"
                        gradientTransform="matrix(46.21, 0, 0, -46.21, 54105.99, 60327.35)"
                        xlink:href="#linear-gradient"/>
        <clipPath id="clip-path-20">
            <path class="cls-1"
                  d="M817.26,645.6c-11.2,6.47-20.28,22.19-20.28,35.13s9.08,18.18,20.28,11.71,20.28-22.2,20.28-35.13c0-9.18-4.57-14.48-11.22-14.48a18.37,18.37,0,0,0-9.06,2.77"/>
        </clipPath>
        <radialGradient id="radial-gradient" cx="-1156.41" cy="1292.45" r="1"
                        gradientTransform="matrix(-44.09, 0, 0, 44.09, -50147.92, -56303.4)"
                        gradientUnits="userSpaceOnUse">
            <stop offset="0" stop-color="#fff"/>
            <stop offset="1" stop-color="#11a7f6"/>
        </radialGradient>
        <clipPath id="clip-path-21">
            <rect class="cls-1" x="189.49" y="612.82" width="64.26" height="66.23"/>
        </clipPath>
        <clipPath id="clip-path-22">
            <rect class="cls-1" x="189.49" y="572.41" width="64.26" height="66.23"/>
        </clipPath>
        <clipPath id="clip-path-23">
            <rect class="cls-1" x="268.96" y="656.08" width="32.13" height="41.5"/>
        </clipPath>
        <clipPath id="clip-path-24">
            <rect class="cls-1" x="268.96" y="615.67" width="64.27" height="66.23"/>
        </clipPath>
        <clipPath id="clip-path-25">
            <rect class="cls-1" x="312.53" y="738.15" width="64.27" height="66.23"/>
        </clipPath>
        <clipPath id="clip-path-26">
            <rect class="cls-1" x="312.53" y="697.74" width="64.27" height="66.23"/>
        </clipPath>
        <linearGradient id="linear-gradient-9" x1="-1156.41" y1="1292.45" x2="-1155.41" y2="1292.45"
                        gradientTransform="matrix(-138.24, -211.46, -211.46, 138.24, 114270.9, -422342.27)"
                        xlink:href="#linear-gradient"/>
        <linearGradient id="linear-gradient-10" x1="-1156.41" y1="1292.45" x2="-1155.41" y2="1292.45"
                        gradientTransform="matrix(27.56, -334.73, -334.73, -27.56, 465207.88, -350512.91)"
                        xlink:href="#linear-gradient"/>
        <linearGradient id="linear-gradient-11" x1="-1156.41" y1="1292.45" x2="-1155.41" y2="1292.45"
                        gradientTransform="matrix(-146, -223.33, -223.33, 146, 120693.87, -446101.36)"
                        xlink:href="#linear-gradient"/>
        <linearGradient id="linear-gradient-12" x1="-1156.41" y1="1292.45" x2="-1155.41" y2="1292.45"
                        gradientTransform="matrix(164.77, 0, 0, -164.77, 191080.52, 213747.18)"
                        xlink:href="#linear-gradient"/>
        <linearGradient id="linear-gradient-13" x1="-1156.41" y1="1292.45" x2="-1155.41" y2="1292.45"
                        gradientTransform="matrix(163.86, 0, 0, -163.86, 189951.32, 212716.84)"
                        xlink:href="#linear-gradient"/>
        <linearGradient id="linear-gradient-14" x1="-1156.41" y1="1292.45" x2="-1155.41" y2="1292.45"
                        gradientTransform="matrix(362.56, 0, 0, -362.56, 419589.1, 469376.23)"
                        xlink:href="#linear-gradient"/>
        <linearGradient id="linear-gradient-15" x1="-1156.41" y1="1292.45" x2="-1155.41" y2="1292.45"
                        gradientTransform="matrix(297.68, 0, 0, -297.68, 344573.03, 385454.18)"
                        xlink:href="#linear-gradient"/>
        <linearGradient id="linear-gradient-16" x1="-1156.41" y1="1292.45" x2="-1155.41" y2="1292.45"
                        gradientTransform="matrix(356.92, 0, 0, -356.92, 413030.1, 462041.22)"
                        xlink:href="#linear-gradient"/>
        <linearGradient id="linear-gradient-17" x1="-1156.41" y1="1292.45" x2="-1155.41" y2="1292.45"
                        gradientTransform="matrix(392.89, 0, 0, -392.89, 454604.54, 508543.88)"
                        xlink:href="#linear-gradient"/>
        <clipPath id="clip-path-27">
            <path class="cls-1"
                  d="M314.88,959c-5.43,3.13-5.43,8.21,0,11.34s14.22,3.13,19.64,0,5.43-8.21,0-11.34a21.69,21.69,0,0,0-19.64,0"/>
        </clipPath>
        <linearGradient id="linear-gradient-18" x1="-1156.41" y1="1292.45" x2="-1155.41" y2="1292.45"
                        gradientTransform="matrix(0, 69.03, 69.03, 0, -88891.97, 80741.18)"
                        gradientUnits="userSpaceOnUse">
            <stop offset="0" stop-color="#5940e7"/>
            <stop offset="0.5" stop-color="#15b3fb"/>
            <stop offset="0.63" stop-color="#4cc5fc"/>
            <stop offset="0.92" stop-color="#d5f1fe"/>
            <stop offset="1" stop-color="#fff"/>
        </linearGradient>
        <clipPath id="clip-path-28">
            <path class="cls-1"
                  d="M261,922.76c-5.42,3.13-5.42,8.21,0,11.34s14.22,3.13,19.65,0,5.42-8.21,0-11.34a21.71,21.71,0,0,0-19.65,0"/>
        </clipPath>
        <linearGradient id="linear-gradient-19" x1="-1156.41" y1="1292.45" x2="-1155.41" y2="1292.45"
                        gradientTransform="matrix(0, 69.03, 69.03, 0, -88945.86, 80704.99)"
                        xlink:href="#linear-gradient-18"/>
        <clipPath id="clip-path-29">
            <path class="cls-1"
                  d="M282.35,814.59c-5.43,3.13-5.43,8.21,0,11.34s14.22,3.13,19.64,0,5.43-8.21,0-11.34a21.69,21.69,0,0,0-19.64,0"/>
        </clipPath>
        <linearGradient id="linear-gradient-20" x1="-1156.41" y1="1292.45" x2="-1155.41" y2="1292.45"
                        gradientTransform="matrix(0, 69.03, 69.03, 0, -88924.48, 80596.85)"
                        xlink:href="#linear-gradient-18"/>
        <clipPath id="clip-path-30">
            <path class="cls-1"
                  d="M324.88,814.59c-5.42,3.13-5.42,8.21,0,11.34s14.22,3.13,19.65,0,5.42-8.21,0-11.34a21.71,21.71,0,0,0-19.65,0"/>
        </clipPath>
        <linearGradient id="linear-gradient-21" x1="-1156.41" y1="1292.45" x2="-1155.41" y2="1292.45"
                        gradientTransform="matrix(0, 69.03, 69.03, 0, -88881.95, 80596.84)"
                        xlink:href="#linear-gradient-18"/>
        <clipPath id="clip-path-31">
            <path class="cls-1"
                  d="M510.36,982.4c-5.43,3.13-5.43,8.21,0,11.34s14.22,3.13,19.64,0,5.43-8.21,0-11.34a21.69,21.69,0,0,0-19.64,0"/>
        </clipPath>
        <linearGradient id="linear-gradient-22" x1="-1156.41" y1="1292.45" x2="-1155.41" y2="1292.45"
                        gradientTransform="matrix(0, 69.03, 69.03, 0, -88696.46, 80764.68)"
                        xlink:href="#linear-gradient-18"/>
        <clipPath id="clip-path-32">
            <path class="cls-1"
                  d="M847.19,949.92c-5.43,3.13-5.43,8.21,0,11.34s14.22,3.13,19.64,0,5.43-8.21,0-11.34a21.69,21.69,0,0,0-19.64,0"/>
        </clipPath>
        <linearGradient id="linear-gradient-23" x1="-1156.41" y1="1292.45" x2="-1155.41" y2="1292.45"
                        gradientTransform="matrix(0, 69.03, 69.03, 0, -88359.62, 80732.2)"
                        xlink:href="#linear-gradient-18"/>
        <clipPath id="clip-path-33">
            <path class="cls-1"
                  d="M667.38,937.44c-5.43,3.14-5.43,8.21,0,11.35s14.22,3.13,19.64,0,5.43-8.21,0-11.35a21.69,21.69,0,0,0-19.64,0"/>
        </clipPath>
        <linearGradient id="linear-gradient-24" x1="-1156.41" y1="1292.45" x2="-1155.41" y2="1292.45"
                        gradientTransform="matrix(0, 69.03, 69.03, 0, -88539.5, 80719.65)"
                        xlink:href="#linear-gradient-18"/>
        <clipPath id="clip-path-34">
            <path class="cls-1"
                  d="M864.48,825.22c-5.42,3.14-5.42,8.21,0,11.35s14.22,3.13,19.65,0,5.42-8.21,0-11.35a21.71,21.71,0,0,0-19.65,0"/>
        </clipPath>
        <linearGradient id="linear-gradient-25" x1="-1156.41" y1="1292.45" x2="-1155.41" y2="1292.45"
                        gradientTransform="matrix(0, 69.03, 69.03, 0, -88342.35, 80607.47)"
                        xlink:href="#linear-gradient-18"/>
        <clipPath id="clip-path-35">
            <path class="cls-1"
                  d="M895,837.29c-5.42,3.13-5.42,8.21,0,11.34s14.22,3.13,19.65,0,5.42-8.21,0-11.34a21.71,21.71,0,0,0-19.65,0"/>
        </clipPath>
        <linearGradient id="linear-gradient-26" x1="-1156.41" y1="1292.45" x2="-1155.41" y2="1292.45"
                        gradientTransform="matrix(0, 69.03, 69.03, 0, -88311.85, 80619.58)"
                        xlink:href="#linear-gradient-18"/>
    </defs>
    <title>Asset 1</title>
    <g class="cls-2">
        <g id="Layer_2" data-name="Layer 2">
            <g id="Layer_1-2" data-name="Layer 1">
                <polygon class="cls-3" points="163.34 778.58 87.21 734.62 87.21 732.01 163.34 775.96 163.34 778.58"/>
                <polygon class="cls-3" points="88.54 674.01 88.54 734.08 87.92 733.72 87.92 673.65 88.54 674.01"/>
                <polygon class="cls-3" points="99.44 740.38 92.4 736.31 92.4 696.37 99.44 700.43 99.44 740.38"/>
                <polygon class="cls-3" points="109 744.59 101.96 740.52 101.96 669.5 109 673.57 109 744.59"/>
                <polygon class="cls-3" points="118.56 750.11 111.52 746.04 111.52 692.74 118.56 696.8 118.56 750.11"/>
                <polygon class="cls-3" points="128.12 755.63 121.08 751.56 121.08 690.12 128.12 694.19 128.12 755.63"/>
                <polygon class="cls-3" points="137.68 761.15 130.64 757.08 130.64 724.11 137.68 728.18 137.68 761.15"/>
                <polygon class="cls-3" points="147.24 766.66 140.2 762.6 140.2 709.29 147.24 713.36 147.24 766.66"/>
                <polygon class="cls-3" points="156.8 772.18 149.76 768.12 149.76 686.62 156.8 690.68 156.8 772.18"/>
                <path class="cls-4" d="M173.32,745.59v.08c0,19.75,13.86,43.76,31,53.65V763.47Z"/>
                <path class="cls-3" d="M237.12,784.55v.08c0,9.9-3.48,16.85-9.11,20.07l-21.89-37.91v-.13Z"/>
                <path class="cls-3" d="M228,804.7c-5.6,3.22-13.33,2.74-21.87-2.19h0V766.79Z"/>
                <path class="cls-3"
                      d="M179.54,720.62c-5.6,3.22-9.08,10.15-9.09,20l31,17.87v-35.7c-8.54-4.92-16.27-5.39-21.87-2.17"/>
                <path class="cls-4" d="M204.3,727.78h0v35.7l31,17.9c0-19.74-13.89-43.72-31-53.59"/>
                <polygon class="cls-5" points="223.53 756.73 210.6 749.27 210.6 747.88 223.53 755.34 223.53 756.73"/>
                <polygon class="cls-5" points="223.53 759.92 210.6 752.45 210.6 751.06 223.53 758.53 223.53 759.92"/>
                <polygon class="cls-5" points="223.53 763.11 210.6 755.64 210.6 754.25 223.53 761.71 223.53 763.11"/>
                <polygon class="cls-5" points="195.27 738.2 182.34 730.74 182.34 729.34 195.27 736.81 195.27 738.2"/>
                <polygon class="cls-5" points="195.27 741.39 182.34 733.92 182.34 732.53 195.27 739.99 195.27 741.39"/>
                <polygon class="cls-5" points="195.27 744.57 182.34 737.11 182.34 735.71 195.27 743.18 195.27 744.57"/>
                <polygon class="cls-5" points="197.79 767.71 184.86 760.25 184.86 758.85 197.79 766.32 197.79 767.71"/>
                <polygon class="cls-5" points="197.79 770.9 184.86 763.43 184.86 762.04 197.79 769.5 197.79 770.9"/>
                <polygon class="cls-5" points="197.79 774.08 184.86 766.62 184.86 765.22 197.79 772.69 197.79 774.08"/>
                <polygon class="cls-5" points="224.54 784.54 211.61 777.08 211.61 775.69 224.54 783.15 224.54 784.54"/>
                <polygon class="cls-5" points="224.54 787.73 211.61 780.26 211.61 778.87 224.54 786.34 224.54 787.73"/>
                <polygon class="cls-5" points="224.54 790.92 211.61 783.45 211.61 782.06 224.54 789.52 224.54 790.92"/>
                <path class="cls-6"
                      d="M592.55,349.8l-364-210.15c-4.71-2.73-21.65,7.16-27.64,10l14.34,269.91a10.4,10.4,0,0,0,5.16,8.9L574.64,650.36c13.11-5.3,23.12-11.31,23.12-19.36V358.82a10.42,10.42,0,0,0-5.21-9"/>
                <g class="cls-7">
                    <rect class="cls-8" x="105.64" y="90.56" width="563.86" height="621.67"
                          transform="translate(-134.18 203.64) rotate(-25.25)"/>
                </g>
                <g class="cls-7">
                    <rect class="cls-8" x="105.64" y="90.56" width="563.86" height="621.67"
                          transform="translate(-134.18 203.64) rotate(-25.25)"/>
                </g>
                <g class="cls-9">
                    <g class="cls-10">
                        <g class="cls-11">
                            <rect class="cls-12" x="194.18" y="155.21" width="386.93" height="489.72"
                                  transform="translate(-23.27 23.93) rotate(-3.43)"/>
                        </g>
                    </g>
                </g>
                <g class="cls-13">
                    <g class="cls-14">
                        <polygon class="cls-15"
                                 points="523.18 755.65 110.79 517.55 110.79 177.46 523.18 415.56 523.18 755.65"/>
                    </g>
                </g>
                <path class="cls-3"
                      d="M112.79,180.93,521.18,416.72V752.19L112.79,516.4Zm-2-3.47V517.55l412.39,238.1V415.56Z"/>
                <polygon class="cls-3"
                         points="153.29 503.11 148.75 511.06 144.22 497.87 144.22 469.21 153.29 474.45 153.29 503.11"/>
                <polygon class="cls-3"
                         points="169.44 512.43 164.9 520.38 160.36 507.19 160.36 468.79 169.44 474.03 169.44 512.43"/>
                <polygon class="cls-3"
                         points="185.58 521.75 181.04 529.7 176.5 516.51 176.5 441.53 185.58 446.77 185.58 521.75"/>
                <polygon class="cls-3"
                         points="201.72 531.07 197.18 539.02 192.65 525.83 192.65 473.94 201.72 479.18 201.72 531.07"/>
                <polygon class="cls-3"
                         points="217.86 540.39 213.33 548.34 208.79 535.15 208.79 465.72 217.86 470.96 217.86 540.39"/>
                <path class="cls-3"
                      d="M150.09,514.68c0,.85-.6,1.19-1.33.77a3,3,0,0,1-1.34-2.32c0-.85.6-1.19,1.34-.77a3,3,0,0,1,1.33,2.32"/>
                <path class="cls-3"
                      d="M166.23,524c0,.85-.59,1.19-1.33.77a3,3,0,0,1-1.34-2.32c0-.85.6-1.19,1.34-.77a3,3,0,0,1,1.33,2.32"/>
                <path class="cls-3"
                      d="M182.38,533.32c0,.85-.6,1.19-1.34.77a3,3,0,0,1-1.34-2.32c0-.85.6-1.19,1.34-.77a3,3,0,0,1,1.34,2.32"/>
                <path class="cls-3"
                      d="M198.52,542.64c0,.85-.6,1.19-1.34.77a3,3,0,0,1-1.33-2.32c0-.85.59-1.2,1.33-.77a3,3,0,0,1,1.34,2.32"/>
                <path class="cls-3"
                      d="M214.66,552c0,.85-.6,1.19-1.33.77a3,3,0,0,1-1.34-2.32c0-.85.6-1.19,1.34-.77a3,3,0,0,1,1.33,2.32"/>
                <path class="cls-5"
                      d="M187.35,280.48c0,.42,0,.84,0,1.25l-21.27-12.28V243.59c11.76,6.79,21.29,23.31,21.29,36.89"/>
                <path class="cls-5"
                      d="M166.06,243.59v25.86l-21.27-12.28c0-.43,0-.86,0-1.28,0-13.58,9.53-19.09,21.3-12.3"/>
                <path class="cls-16" d="M145.57,263.1c2.54,11.77,10.74,24,20.49,29.68V269.45l-.53-.3Z"/>
                <path class="cls-5" d="M144.79,257.17a35.21,35.21,0,0,0,.78,5.93l20,6Z"/>
                <path class="cls-5" d="M187.33,281.73c-.57,12.67-9.88,17.63-21.27,11V269.45Z"/>
                <path class="cls-16" d="M229.29,280.1v25.54l12.85-13.13a41.34,41.34,0,0,0-12.85-12.41"/>
                <path class="cls-5"
                      d="M242.14,292.5l-12.85,13.14V306l21.27,12.28c0-.41,0-.83,0-1.25,0-8-3.32-17-8.45-24.49"/>
                <path class="cls-16" d="M229.29,280.1V306L208,293.68c0-.43,0-.86,0-1.28,0-13.58,9.53-19.1,21.3-12.3"/>
                <path class="cls-16" d="M229.29,306v23.33c-11.4-6.59-20.7-22.28-21.27-35.61Z"/>
                <path class="cls-5" d="M250.56,318.24c-.57,12.67-9.87,17.63-21.27,11.05V306Z"/>
                <path class="cls-16"
                      d="M313.82,353.5c0,.42,0,.84,0,1.25l-21.27-12.28V316.61c11.76,6.79,21.3,23.31,21.3,36.89"/>
                <path class="cls-16"
                      d="M292.52,316.61v25.86l-21.27-12.28c0-.44,0-.86,0-1.29,0-13.58,9.53-19.09,21.3-12.29"/>
                <path class="cls-16" d="M292.52,342.47v23.32c-11.4-6.58-20.7-22.28-21.27-35.6Z"/>
                <path class="cls-16" d="M313.79,354.75l-21.27-12.28v.11l19.37,20a19,19,0,0,0,1.9-7.87"/>
                <path class="cls-5" d="M292.52,342.58v23.21c8.6,5,16,3.36,19.37-3.17Z"/>
                <path class="cls-16"
                      d="M377.06,390c0,.42,0,.84,0,1.25L355.76,379V353.11c11.76,6.79,21.3,23.31,21.3,36.9"/>
                <path class="cls-16"
                      d="M355.76,353.11V379L334.49,366.7c0-.44,0-.87,0-1.29,0-13.58,9.53-19.09,21.3-12.3"/>
                <path class="cls-16" d="M355.76,379V402.3c-11.41-6.58-20.7-22.28-21.27-35.6Z"/>
                <path class="cls-5" d="M355.76,379V402.3a19.9,19.9,0,0,0,8.74,2.88L355.8,379Z"/>
                <path class="cls-16" d="M377,391.26,355.8,379l8.7,26.18c7.09.41,12.11-4.72,12.53-13.92"/>
                <path class="cls-17"
                      d="M462.87,462.6s-8.63,5.51-19.28-.64-19.29-21.63-19.29-21.63,8.63-5.5,19.29.65,19.28,21.62,19.28,21.62"/>
                <path class="cls-17"
                      d="M421.49,432.5l-1.05-1.68,1,1.68h0l-1.05-1.68,1,1.68a10.44,10.44,0,0,1,1.58-.83,17.75,17.75,0,0,1,7.61-1.38,23.3,23.3,0,0,1,5.82.94,31.49,31.49,0,0,1,7,3,40.7,40.7,0,0,1,8.51,6.56,46,46,0,0,1,8.41,11.68c.41.82.71,1.49.9,1.94.1.22.16.39.2.49l.05.11v0h0l.54,0-.54,0h0l.54,0-.54,0h0l1.17-.06-1.18.05h0l1.17-.06-1.18.05,2.66-.1c0-.09-.4-1.09-1.17-2.69-.58-1.19-1.38-2.73-2.44-4.46a53.82,53.82,0,0,0-6.6-8.65,46.47,46.47,0,0,0-10.52-8.38,32.9,32.9,0,0,0-10.08-3.94,24,24,0,0,0-5.95-.42,19,19,0,0,0-6,1.33,11.05,11.05,0,0,0-2.18,1.13Z"/>
                <path class="cls-3"
                      d="M449.76,455c0,3.94-2.76,5.54-6.17,3.57a13.66,13.66,0,0,1-6.18-10.69c0-3.94,2.77-5.54,6.18-3.57A13.65,13.65,0,0,1,449.76,455"/>
                <polygon class="cls-4"
                         points="155.04 334 157.8 342.06 163.98 346.67 159.51 349.12 160.56 356.84 155.04 350.29 149.51 350.45 150.56 343.96 146.09 336.34 152.27 338.87 155.04 334"/>
                <polygon class="cls-4"
                         points="189.98 354.18 192.75 362.24 198.93 366.85 194.46 369.3 195.51 377.01 189.98 370.47 184.46 370.63 185.51 364.13 181.04 356.52 187.22 359.05 189.98 354.18"/>
                <polygon class="cls-4"
                         points="224.93 374.36 227.69 382.42 233.87 387.02 229.4 389.47 230.46 397.19 224.93 390.64 219.4 390.81 220.46 384.31 215.99 376.69 222.17 379.23 224.93 374.36"/>
                <polygon class="cls-4"
                         points="259.88 394.53 262.64 402.59 268.82 407.2 264.35 409.65 265.4 417.37 259.88 410.82 254.35 410.98 255.41 404.49 250.94 396.87 257.11 399.4 259.88 394.53"/>
                <polygon class="cls-4"
                         points="294.83 414.71 297.59 422.77 303.77 427.38 299.3 429.83 300.35 437.54 294.83 431 289.3 431.16 290.35 424.66 285.88 417.05 292.06 419.58 294.83 414.71"/>
                <polygon class="cls-3" points="191.13 319.11 152.66 296.9 152.66 295.98 191.13 318.19 191.13 319.11"/>
                <polygon class="cls-3" points="191.13 321.75 144.04 294.56 144.04 293.64 191.13 320.83 191.13 321.75"/>
                <polygon class="cls-3" points="191.13 324.4 144.04 297.21 144.04 296.29 191.13 323.48 191.13 324.4"/>
                <polygon class="cls-3" points="191.13 327.04 144.04 299.85 144.04 298.93 191.13 326.12 191.13 327.04"/>
                <polygon class="cls-3" points="191.13 329.69 144.04 302.5 144.04 301.58 191.13 328.76 191.13 329.69"/>
                <polygon class="cls-3" points="166.97 318.38 144.04 305.14 144.04 304.22 166.97 317.46 166.97 318.38"/>
                <polygon class="cls-3" points="252.83 354.73 213.42 331.98 213.42 331.06 252.83 353.81 252.83 354.73"/>
                <polygon class="cls-3" points="252.83 357.38 205.74 330.19 205.74 329.27 252.83 356.46 252.83 357.38"/>
                <polygon class="cls-3" points="252.83 360.02 205.74 332.83 205.74 331.91 252.83 359.1 252.83 360.02"/>
                <polygon class="cls-3" points="252.83 362.67 205.74 335.48 205.74 334.56 252.83 361.75 252.83 362.67"/>
                <polygon class="cls-3" points="252.83 365.31 205.74 338.13 205.74 337.2 252.83 364.39 252.83 365.31"/>
                <polygon class="cls-3" points="239.71 360.38 205.74 340.77 205.74 339.85 239.71 359.46 239.71 360.38"/>
                <polygon class="cls-3" points="314.54 390.36 273.98 366.94 273.98 366.02 314.54 389.44 314.54 390.36"/>
                <polygon class="cls-3" points="314.54 393 267.45 365.82 267.45 364.89 314.54 392.08 314.54 393"/>
                <polygon class="cls-3" points="314.54 395.65 267.45 368.46 267.45 367.54 314.54 394.73 314.54 395.65"/>
                <polygon class="cls-3" points="314.54 398.29 267.45 371.11 267.45 370.18 314.54 397.37 314.54 398.29"/>
                <polygon class="cls-3" points="314.54 400.94 267.45 373.75 267.45 372.83 314.54 400.02 314.54 400.94"/>
                <polygon class="cls-3" points="300.83 395.67 267.45 376.4 267.45 375.47 300.83 394.75 300.83 395.67"/>
                <polygon class="cls-3" points="376.25 425.99 336.22 402.88 336.22 401.95 376.25 425.06 376.25 425.99"/>
                <polygon class="cls-3" points="376.25 428.63 329.16 401.44 329.16 400.52 376.25 427.71 376.25 428.63"/>
                <polygon class="cls-3" points="376.25 431.28 329.16 404.09 329.16 403.17 376.25 430.35 376.25 431.28"/>
                <polygon class="cls-3" points="376.25 433.92 329.16 406.73 329.16 405.81 376.25 433 376.25 433.92"/>
                <polygon class="cls-3" points="376.25 436.57 329.16 409.38 329.16 408.46 376.25 435.64 376.25 436.57"/>
                <polygon class="cls-3" points="338.32 417.31 329.16 412.02 329.16 411.1 338.32 416.39 338.32 417.31"/>
                <g class="cls-13">
                    <g class="cls-18">
                        <polygon class="cls-15"
                                 points="523.18 755.65 257.88 602.48 257.88 383.69 523.18 536.86 523.18 755.65"/>
                    </g>
                </g>
                <g class="cls-13">
                    <g class="cls-19">
                        <polygon class="cls-15"
                                 points="479.88 780.65 214.57 627.48 214.57 408.69 479.88 561.86 479.88 780.65"/>
                    </g>
                </g>
                <g class="cls-20">
                    <g class="cls-21">
                        <path class="cls-4"
                              d="M452.5,663.51l-13.8-9.08L437,650.76l-3.54.73-2-2s-4.14-1.11-4.38-1.24-5.23-5.31-5.23-5.31l-63.6-34.71-17.17-12.82-8-9.49-9.6-59.73-3.48,31.11-2.28-5.34-3.48,10.19-2-9.36-5,10.12-2.64-9-.84,5.48-1.8-4.51-7.15,7.38L286.21,554l-4.86-14-2.88-20-1.8,13.93-3.6-9.56-3.42,9.46-3.24-1-5.76-12.48L258,536.84l-1.8-11-3.24-11.29v52L452.5,681.8Z"/>
                        <polygon class="cls-5"
                                 points="401.01 588.26 452.5 617.99 452.5 598.86 401.01 569.13 401.01 588.26"/>
                        <polygon class="cls-4"
                                 points="442.16 691.01 452.5 696.98 452.5 691.57 442.16 685.6 442.16 691.01"/>
                        <polygon class="cls-4"
                                 points="423.24 680.08 433.57 686.05 433.57 680.65 423.24 674.68 423.24 680.08"/>
                        <polygon class="cls-4"
                                 points="404.31 669.15 414.65 675.12 414.65 669.72 404.31 663.75 404.31 669.15"/>
                        <polygon class="cls-4"
                                 points="385.38 658.23 395.72 664.2 395.72 658.79 385.38 652.83 385.38 658.23"/>
                        <polygon class="cls-4"
                                 points="366.46 647.3 376.8 653.27 376.8 647.87 366.46 641.9 366.46 647.3"/>
                        <polygon class="cls-4"
                                 points="347.54 636.38 357.87 642.35 357.87 636.94 347.54 630.97 347.54 636.38"/>
                        <polygon class="cls-4"
                                 points="328.61 625.45 338.95 631.42 338.95 626.01 328.61 620.04 328.61 625.45"/>
                        <polygon class="cls-4"
                                 points="309.68 614.52 320.02 620.49 320.02 615.09 309.68 609.12 309.68 614.52"/>
                        <polygon class="cls-4"
                                 points="290.76 603.6 301.1 609.57 301.1 604.16 290.76 598.19 290.76 603.6"/>
                        <polygon class="cls-4"
                                 points="271.83 592.67 282.17 598.64 282.17 593.23 271.83 587.26 271.83 592.67"/>
                        <polygon class="cls-4"
                                 points="252.91 581.74 263.25 587.71 263.25 582.31 252.91 576.34 252.91 581.74"/>
                        <line class="cls-5" x1="452.5" y1="584.31" x2="252.91" y2="469.07"/>
                        <line class="cls-22" x1="452.5" y1="584.31" x2="252.91" y2="469.07"/>
                        <line class="cls-5" x1="452.5" y1="596.5" x2="252.91" y2="481.27"/>
                        <line class="cls-22" x1="452.5" y1="596.5" x2="252.91" y2="481.27"/>
                        <line class="cls-5" x1="452.5" y1="608.7" x2="252.91" y2="493.46"/>
                        <line class="cls-22" x1="452.5" y1="608.7" x2="252.91" y2="493.46"/>
                        <line class="cls-5" x1="452.5" y1="620.89" x2="252.91" y2="505.66"/>
                        <line class="cls-22" x1="452.5" y1="620.89" x2="252.91" y2="505.66"/>
                        <line class="cls-5" x1="452.5" y1="633.09" x2="252.91" y2="517.86"/>
                        <line class="cls-22" x1="452.5" y1="633.09" x2="252.91" y2="517.86"/>
                        <line class="cls-5" x1="452.5" y1="702.3" x2="252.91" y2="587.06"/>
                        <line class="cls-22" x1="452.5" y1="702.3" x2="252.91" y2="587.06"/>
                        <line class="cls-5" x1="452.5" y1="645.29" x2="252.91" y2="530.05"/>
                        <line class="cls-22" x1="452.5" y1="645.29" x2="252.91" y2="530.05"/>
                        <line class="cls-5" x1="452.5" y1="657.48" x2="252.91" y2="542.25"/>
                        <line class="cls-22" x1="452.5" y1="657.48" x2="252.91" y2="542.25"/>
                        <line class="cls-5" x1="452.5" y1="669.68" x2="252.91" y2="554.44"/>
                        <line class="cls-22" x1="452.5" y1="669.68" x2="252.91" y2="554.44"/>
                    </g>
                </g>
                <polygon class="cls-23" points="479.88 780.65 214.57 627.48 214.57 408.69 479.88 561.86 479.88 780.65"/>
                <g class="cls-13">
                    <g class="cls-24">
                        <g class="cls-25">
                            <g class="cls-24">
                                <polygon class="cls-15"
                                         points="393.28 830.65 172.73 703.32 172.73 521.43 393.28 648.77 393.28 830.65"/>
                            </g>
                        </g>
                    </g>
                </g>
                <polygon class="cls-4" points="276.17 749.82 188.5 699.21 188.5 654.77 276.17 705.38 276.17 749.82"/>
                <g class="cls-26">
                    <g class="cls-27">
                        <g class="cls-25">
                            <g class="cls-27">
                                <polygon class="cls-23"
                                         points="393.28 830.65 172.73 703.32 172.73 521.43 393.28 648.77 393.28 830.65"/>
                            </g>
                        </g>
                        <g class="cls-28">
                            <g class="cls-27">
                                <polygon class="cls-23"
                                         points="393.28 830.65 172.73 703.32 172.73 521.43 393.28 648.77 393.28 830.65"/>
                            </g>
                        </g>
                    </g>
                </g>
                <g class="cls-13">
                    <g class="cls-29">
                        <polygon class="cls-15"
                                 points="261.21 867.88 69.03 756.92 69.03 598.43 261.21 709.39 261.21 867.88"/>
                    </g>
                </g>
                <g class="cls-30">
                    <rect class="cls-31" x="342.64" y="319.66" width="233.62" height="251.44"
                          transform="translate(-167.64 318.06) rotate(-32.63)"/>
                </g>
                <g class="cls-32">
                    <rect class="cls-33" x="311.02" y="323.2" width="253.11" height="265.46"
                          transform="translate(-182.53 334.21) rotate(-35.07)"/>
                </g>
                <g class="cls-34">
                    <rect class="cls-35" x="333.99" y="347.18" width="193.59" height="219.64"
                          transform="translate(-156.09 233.4) rotate(-25.83)"/>
                </g>
                <g class="cls-36">
                    <rect class="cls-37" x="516.94" y="472.8" width="86.42" height="96.04"
                          transform="translate(-162.67 770.93) rotate(-62)"/>
                </g>
                <path class="cls-38"
                      d="M594.49,532.55c3.75-2.16,6.79-.41,6.79,3.93a15,15,0,0,1-6.79,11.77c-3.76,2.17-6.8.41-6.8-3.92a15,15,0,0,1,6.8-11.78"/>
                <g class="cls-39">
                    <rect class="cls-40" x="569.9" y="456.36" width="273.79" height="301.38"
                          transform="translate(-168.31 926.83) rotate(-60.73)"/>
                </g>
                <g class="cls-41">
                    <rect class="cls-42" x="782.66" y="638.14" width="69.21" height="65.46"
                          transform="matrix(0.58, -0.82, 0.82, 0.58, -201.92, 952.39)"/>
                </g>
                <g class="cls-25">
                    <g class="cls-43">
                        <polygon class="cls-4"
                                 points="200.2 622.89 189.49 616.71 189.49 612.82 200.2 619.01 200.2 622.89"/>
                        <polygon class="cls-4"
                                 points="210.91 629.07 200.2 622.89 200.2 619.01 210.91 625.19 210.91 629.07"/>
                        <polygon class="cls-4"
                                 points="221.62 635.26 210.91 629.07 210.91 625.19 221.62 631.37 221.62 635.26"/>
                        <polygon class="cls-4"
                                 points="243.04 647.62 232.33 641.44 232.33 637.56 243.04 643.74 243.04 647.62"/>
                        <polygon class="cls-4"
                                 points="253.75 653.81 243.04 647.62 243.04 643.74 253.75 649.92 253.75 653.81"/>
                        <polygon class="cls-4"
                                 points="200.2 631.31 189.49 625.12 189.49 621.24 200.2 627.42 200.2 631.31"/>
                        <polygon class="cls-4"
                                 points="221.62 643.67 210.91 637.49 210.91 633.61 221.62 639.79 221.62 643.67"/>
                        <polygon class="cls-4"
                                 points="232.33 649.86 221.62 643.67 221.62 639.79 232.33 645.97 232.33 649.86"/>
                        <polygon class="cls-4"
                                 points="253.75 662.22 243.04 656.04 243.04 652.16 253.75 658.34 253.75 662.22"/>
                        <polygon class="cls-4"
                                 points="200.2 639.72 189.49 633.54 189.49 629.66 200.2 635.84 200.2 639.72"/>
                        <polygon class="cls-4"
                                 points="210.91 645.9 200.2 639.72 200.2 635.84 210.91 642.02 210.91 645.9"/>
                        <polygon class="cls-4"
                                 points="232.33 658.27 221.62 652.09 221.62 648.21 232.33 654.39 232.33 658.27"/>
                        <polygon class="cls-4"
                                 points="253.75 670.64 243.04 664.46 243.04 660.58 253.75 666.76 253.75 670.64"/>
                        <polygon class="cls-4"
                                 points="200.2 648.14 189.49 641.96 189.49 638.07 200.2 644.26 200.2 648.14"/>
                        <polygon class="cls-4"
                                 points="210.91 654.32 200.2 648.14 200.2 644.26 210.91 650.44 210.91 654.32"/>
                        <polygon class="cls-4"
                                 points="232.33 666.69 221.62 660.5 221.62 656.62 232.33 662.81 232.33 666.69"/>
                        <polygon class="cls-4"
                                 points="253.75 679.06 243.04 672.87 243.04 668.99 253.75 675.17 253.75 679.06"/>
                    </g>
                </g>
                <g class="cls-25">
                    <g class="cls-44">
                        <polygon class="cls-4"
                                 points="200.2 582.47 189.49 576.29 189.49 572.41 200.2 578.59 200.2 582.47"/>
                        <polygon class="cls-4"
                                 points="221.62 594.84 210.91 588.65 210.91 584.77 221.62 590.96 221.62 594.84"/>
                        <polygon class="cls-4"
                                 points="243.04 607.21 232.33 601.02 232.33 597.14 243.04 603.32 243.04 607.21"/>
                        <polygon class="cls-4"
                                 points="253.75 613.39 243.04 607.21 243.04 603.33 253.75 609.51 253.75 613.39"/>
                        <polygon class="cls-4"
                                 points="200.2 590.89 189.49 584.71 189.49 580.82 200.2 587.01 200.2 590.89"/>
                        <polygon class="cls-4"
                                 points="221.62 603.26 210.91 597.07 210.91 593.19 221.62 599.37 221.62 603.26"/>
                        <polygon class="cls-4"
                                 points="232.33 609.44 221.62 603.25 221.62 599.38 232.33 605.56 232.33 609.44"/>
                        <polygon class="cls-4"
                                 points="253.75 621.81 243.04 615.62 243.04 611.74 253.75 617.92 253.75 621.81"/>
                        <polygon class="cls-4"
                                 points="200.2 599.3 189.49 593.12 189.49 589.24 200.2 595.42 200.2 599.3"/>
                        <polygon class="cls-4"
                                 points="210.91 605.49 200.2 599.3 200.2 595.42 210.91 601.61 210.91 605.49"/>
                        <polygon class="cls-4"
                                 points="232.33 617.86 221.62 611.67 221.62 607.79 232.33 613.97 232.33 617.86"/>
                        <polygon class="cls-4"
                                 points="253.75 630.22 243.04 624.04 243.04 620.16 253.75 626.34 253.75 630.22"/>
                        <polygon class="cls-4"
                                 points="200.2 607.72 189.49 601.54 189.49 597.66 200.2 603.84 200.2 607.72"/>
                        <polygon class="cls-4"
                                 points="210.91 613.9 200.2 607.72 200.2 603.84 210.91 610.02 210.91 613.9"/>
                        <polygon class="cls-4"
                                 points="232.33 626.27 221.62 620.09 221.62 616.21 232.33 622.39 232.33 626.27"/>
                        <polygon class="cls-4"
                                 points="253.75 638.64 243.04 632.46 243.04 628.58 253.75 634.76 253.75 638.64"/>
                    </g>
                </g>
                <g class="cls-25">
                    <g class="cls-45">
                        <polygon class="cls-4"
                                 points="279.68 666.15 268.97 659.96 268.97 656.08 279.68 662.26 279.68 666.15"/>
                        <polygon class="cls-4"
                                 points="290.39 672.33 279.68 666.15 279.68 662.27 290.39 668.45 290.39 672.33"/>
                        <polygon class="cls-4"
                                 points="301.1 678.52 290.39 672.33 290.39 668.45 301.1 674.63 301.1 678.52"/>
                        <polygon class="cls-4"
                                 points="279.68 674.56 268.97 668.38 268.97 664.5 279.68 670.68 279.68 674.56"/>
                        <polygon class="cls-4"
                                 points="301.1 686.93 290.39 680.75 290.39 676.87 301.1 683.05 301.1 686.93"/>
                        <polygon class="cls-4"
                                 points="279.68 682.98 268.97 676.8 268.97 672.91 279.68 679.1 279.68 682.98"/>
                        <polygon class="cls-4"
                                 points="290.39 689.16 279.68 682.98 279.68 679.1 290.39 685.28 290.39 689.16"/>
                        <polygon class="cls-4"
                                 points="279.68 691.4 268.97 685.21 268.97 681.33 279.68 687.51 279.68 691.4"/>
                        <polygon class="cls-4"
                                 points="290.39 697.58 279.68 691.4 279.68 687.52 290.39 693.7 290.39 697.58"/>
                    </g>
                </g>
                <g class="cls-25">
                    <g class="cls-46">
                        <polygon class="cls-4"
                                 points="279.68 625.73 268.97 619.55 268.97 615.66 279.68 621.85 279.68 625.73"/>
                        <polygon class="cls-4"
                                 points="301.1 638.1 290.39 631.91 290.39 628.03 301.1 634.22 301.1 638.1"/>
                        <polygon class="cls-4"
                                 points="322.52 650.47 311.81 644.28 311.81 640.4 322.52 646.58 322.52 650.47"/>
                        <polygon class="cls-4"
                                 points="333.23 656.65 322.52 650.47 322.52 646.58 333.23 652.77 333.23 656.65"/>
                        <polygon class="cls-4"
                                 points="279.68 634.15 268.97 627.96 268.97 624.08 279.68 630.26 279.68 634.15"/>
                        <polygon class="cls-4"
                                 points="301.1 646.52 290.39 640.33 290.39 636.45 301.1 642.63 301.1 646.52"/>
                        <polygon class="cls-4"
                                 points="311.81 652.7 301.1 646.51 301.1 642.63 311.81 648.82 311.81 652.7"/>
                        <polygon class="cls-4"
                                 points="333.23 665.07 322.52 658.88 322.52 655 333.23 661.18 333.23 665.07"/>
                        <polygon class="cls-4"
                                 points="279.68 642.56 268.97 636.38 268.97 632.5 279.68 638.68 279.68 642.56"/>
                        <polygon class="cls-4"
                                 points="290.39 648.75 279.68 642.56 279.68 638.68 290.39 644.87 290.39 648.75"/>
                        <polygon class="cls-4"
                                 points="311.81 661.12 301.1 654.93 301.1 651.05 311.81 657.23 311.81 661.12"/>
                        <polygon class="cls-4"
                                 points="333.23 673.48 322.52 667.3 322.52 663.42 333.23 669.6 333.23 673.48"/>
                        <polygon class="cls-4"
                                 points="279.68 650.98 268.97 644.8 268.97 640.91 279.68 647.1 279.68 650.98"/>
                        <polygon class="cls-4"
                                 points="290.39 657.16 279.68 650.98 279.68 647.1 290.39 653.28 290.39 657.16"/>
                        <polygon class="cls-4"
                                 points="311.81 669.53 301.1 663.35 301.1 659.47 311.81 665.65 311.81 669.53"/>
                        <polygon class="cls-4"
                                 points="333.23 681.9 322.52 675.72 322.52 671.83 333.23 678.02 333.23 681.9"/>
                    </g>
                </g>
                <g class="cls-25">
                    <g class="cls-47">
                        <polygon class="cls-4"
                                 points="323.25 748.22 312.54 742.03 312.54 738.15 323.25 744.34 323.25 748.22"/>
                        <polygon class="cls-4"
                                 points="333.96 754.4 323.25 748.22 323.25 744.34 333.96 750.52 333.96 754.4"/>
                        <polygon class="cls-4"
                                 points="344.67 760.59 333.96 754.4 333.96 750.52 344.67 756.7 344.67 760.59"/>
                        <polygon class="cls-4"
                                 points="366.09 772.95 355.38 766.77 355.38 762.89 366.09 769.07 366.09 772.95"/>
                        <polygon class="cls-4"
                                 points="376.8 779.14 366.09 772.95 366.09 769.07 376.8 775.25 376.8 779.14"/>
                        <polygon class="cls-4"
                                 points="323.25 756.63 312.54 750.45 312.54 746.57 323.25 752.75 323.25 756.63"/>
                        <polygon class="cls-4"
                                 points="344.67 769 333.96 762.82 333.96 758.94 344.67 765.12 344.67 769"/>
                        <polygon class="cls-4"
                                 points="355.38 775.19 344.67 769 344.67 765.12 355.38 771.3 355.38 775.19"/>
                        <polygon class="cls-4"
                                 points="376.8 787.55 366.09 781.37 366.09 777.49 376.8 783.67 376.8 787.55"/>
                        <polygon class="cls-4"
                                 points="323.25 765.05 312.54 758.87 312.54 754.99 323.25 761.17 323.25 765.05"/>
                        <polygon class="cls-4"
                                 points="333.96 771.24 323.25 765.05 323.25 761.17 333.96 767.35 333.96 771.24"/>
                        <polygon class="cls-4"
                                 points="355.38 783.6 344.67 777.42 344.67 773.54 355.38 779.72 355.38 783.6"/>
                        <polygon class="cls-4"
                                 points="376.8 795.97 366.09 789.79 366.09 785.9 376.8 792.09 376.8 795.97"/>
                        <polygon class="cls-4"
                                 points="323.25 773.47 312.54 767.28 312.54 763.4 323.25 769.59 323.25 773.47"/>
                        <polygon class="cls-4"
                                 points="333.96 779.65 323.25 773.47 323.25 769.59 333.96 775.77 333.96 779.65"/>
                        <polygon class="cls-4"
                                 points="355.38 792.02 344.67 785.84 344.67 781.95 355.38 788.14 355.38 792.02"/>
                        <polygon class="cls-4"
                                 points="376.8 804.39 366.09 798.2 366.09 794.32 376.8 800.5 376.8 804.39"/>
                    </g>
                </g>
                <g class="cls-25">
                    <g class="cls-48">
                        <polygon class="cls-4"
                                 points="323.25 707.8 312.54 701.62 312.54 697.74 323.25 703.92 323.25 707.8"/>
                        <polygon class="cls-4"
                                 points="344.67 720.17 333.96 713.99 333.96 710.1 344.67 716.29 344.67 720.17"/>
                        <polygon class="cls-4"
                                 points="366.09 732.54 355.38 726.35 355.38 722.47 366.09 728.65 366.09 732.54"/>
                        <polygon class="cls-4"
                                 points="376.8 738.72 366.09 732.54 366.09 728.65 376.8 734.84 376.8 738.72"/>
                        <polygon class="cls-4"
                                 points="323.25 716.22 312.54 710.03 312.54 706.15 323.25 712.34 323.25 716.22"/>
                        <polygon class="cls-4"
                                 points="344.67 728.59 333.96 722.4 333.96 718.52 344.67 724.7 344.67 728.59"/>
                        <polygon class="cls-4"
                                 points="355.38 734.77 344.67 728.59 344.67 724.7 355.38 730.89 355.38 734.77"/>
                        <polygon class="cls-4"
                                 points="376.8 747.14 366.09 740.95 366.09 737.07 376.8 743.25 376.8 747.14"/>
                        <polygon class="cls-4"
                                 points="323.25 724.63 312.54 718.45 312.54 714.57 323.25 720.75 323.25 724.63"/>
                        <polygon class="cls-4"
                                 points="333.96 730.82 323.25 724.63 323.25 720.75 333.96 726.93 333.96 730.82"/>
                        <polygon class="cls-4"
                                 points="355.38 743.19 344.67 737 344.67 733.12 355.38 739.3 355.38 743.19"/>
                        <polygon class="cls-4"
                                 points="376.8 755.55 366.09 749.37 366.09 745.49 376.8 751.67 376.8 755.55"/>
                        <polygon class="cls-4"
                                 points="323.25 733.05 312.54 726.87 312.54 722.99 323.25 729.17 323.25 733.05"/>
                        <polygon class="cls-4"
                                 points="333.96 739.23 323.25 733.05 323.25 729.17 333.96 735.35 333.96 739.23"/>
                        <polygon class="cls-4"
                                 points="355.38 751.6 344.67 745.42 344.67 741.54 355.38 747.72 355.38 751.6"/>
                        <polygon class="cls-4"
                                 points="376.8 763.97 366.09 757.78 366.09 753.9 376.8 760.09 376.8 763.97"/>
                    </g>
                </g>
                <polygon class="cls-4" points="377.91 716.99 343.21 696.95 343.21 656.88 377.91 676.91 377.91 716.99"/>
                <path class="cls-49"
                      d="M875.48,834.31l-14.72-9.23L823.1,846.82,723.71,790V637.93s.39-9.65,10-9.81c.28,0,.56,0,.84,0l-.23,4-.61,0c-5.85-.16-5.92,6-6,6l-2-.07h2v149.7l95.38,54.5,37.75-21.8,16.77,10.52-2.13,3.38Z"/>
                <path class="cls-50"
                      d="M858.21,958l-38.78-22.88-45,24.88-24.29-14,20.32-11.73-16.33-9.43L718.61,944.8,678,921l-40.61,23.35-65-37.46,35.91-19.81L579,870.58l129.62-70.8V630.14h2l-2,.08V630c0-1.1.71-10,10.85-10.46l.21,4c-7.2.43-6.87,5.73-7.06,6.47h0V802.16L587.26,870.64l29.23,16.52-36,19.85,56.87,32.76L678,916.41l40.64,23.78,35.54-19.94,24.3,14L758.17,946l16.34,9.43,45-24.9,40.76,24-2,3.45Z"/>
                <path class="cls-51"
                      d="M903.4,842.78l37.73-21.66L884.2,788.25l-40.62,23.46-24.31-14,40.62-23.46-16.31-9.41-39.76,23-54.54-31.16-10.67,5.66V647.58h2l-2,.26a7.14,7.14,0,0,1,0-.92c-.22-2.35,1.39-9.95,11.11-10.73l.38,4c-7.41.85-7.27,5.09-7.49,6.75,0,.32,0,.41,0,.41V755.6l6.74-3.57,54.46,31.11,39.77-23,24.31,14-40.62,23.46,16.31,9.42,40.62-23.46,64.95,37.5L905.4,846.25l-2-3.47Z"/>
                <path class="cls-52"
                      d="M680.53,943.91l-38.7,22.34-101.45-58,32-18-29.68-17.14L693.8,787.71V621.57h2l-1.93.53a6.16,6.16,0,0,1-.17-1.49c-.11-2.54,2.2-7.48,10.22-7.59l.19,4c-6.76.6-6.16,2.67-6.41,3.6,0,.34.06.43,0,.44l.07.26V790l-147,83.14,29.7,17.14-32,18,93.33,53.32,36.71-21.2,2,3.47Z"/>
                <polygon class="cls-53"
                         points="519.18 985.55 545.97 970.09 586.6 993.54 619.72 974.41 537.29 926.28 504.72 945.08 465.82 922.86 523.76 888.51 508.88 881.42 510.6 877.81 532.26 888.12 473.77 922.8 504.71 940.47 537.3 921.65 627.69 974.43 586.6 998.16 545.97 974.7 521.18 989.02 519.18 985.55 519.18 985.55"/>
                <path class="cls-54"
                      d="M323.7,962.42l31.45-18.15,18.92,10.46,304.9-174V612.06h2l-1.92.55a5.63,5.63,0,0,1-.19-1.49,5.09,5.09,0,0,1,1.41-3.62,7.3,7.3,0,0,1,5.45-1.85H686l-.06,4h-.21c-3.47.29-2.56.85-2.86,1.47,0,.28.06.37,0,.38l.08.27V783.08L374.1,959.32l-18.91-10.46-29.49,17-2-3.47Z"/>
                <path class="cls-55"
                      d="M333.79,818.52l54.72,31.34,23.16-14.17,28.13,16.23L621.71,748.16v-170a7.13,7.13,0,0,1,7.49-6.44h0l0,4h0c-3.76,0-3.31,2.59-3.49,2.59l-2-.08h2v172.3L439.79,856.54l-28.06-16.2-23.15,14.17L331.8,822l2-3.47Z"/>
                <path class="cls-56"
                      d="M293.18,818.53,352,852.71l-24.38,13.5-13.81-7.77-15.93,9.2,54.41,31.65,63.17-37.6,21.36,12L637.94,757.54V588.24h2l-2,.11v-.16c0-.77.84-6.71,7.86-6.72v4c-4.34.13-3.6,2.44-3.86,2.72h-1l1-.05v.05h-1l1-.05V759.85L436.83,878.27l-21.33-12-63.21,37.62-62.41-36.3,23.89-13.8,13.85,7.79,16.25-9L291.17,822l2-3.46Z"/>
                <path class="cls-57"
                      d="M269.89,923.12l49.8-26,32.67,18.67L390.08,894l22,12.63,242.17-139.9-.52-169.63h2l-2,.08v-.1a7.35,7.35,0,0,1,7.82-6.89c.32,0,.64,0,1,0l-.28,4-.7,0c-4.24.07-3.59,2.73-3.82,2.89h-1.49l1.49-.05v.05h-1.49l1.49,0,.53,172L412.07,911.28l-22-12.62-37.71,21.77L319.6,901.7l-47.86,25-1.85-3.55Z"/>
                <g class="cls-58">
                    <rect class="cls-59" x="315.66" y="949.43" width="18.07" height="31.16"
                          transform="translate(-652.9 1249.57) rotate(-87.63)"/>
                </g>
                <g class="cls-60">
                    <rect class="cls-61" x="261.78" y="913.24" width="18.07" height="31.16"
                          transform="translate(-668.4 1161.04) rotate(-87.63)"/>
                </g>
                <g class="cls-62">
                    <rect class="cls-63" x="283.14" y="805.07" width="18.07" height="31.16"
                          transform="translate(-539.85 1078.67) rotate(-87.63)"/>
                </g>
                <g class="cls-64">
                    <rect class="cls-65" x="325.67" y="805.07" width="18.07" height="31.16"
                          transform="translate(-499.07 1121.17) rotate(-87.63)"/>
                </g>
                <g class="cls-66">
                    <rect class="cls-67" x="511.15" y="972.88" width="18.07" height="31.16"
                          transform="translate(-488.93 1467.37) rotate(-87.63)"/>
                </g>
                <g class="cls-68">
                    <rect class="cls-69" x="847.98" y="940.4" width="18.07" height="31.16"
                          transform="translate(-133.55 1772.77) rotate(-87.63)"/>
                </g>
                <g class="cls-70">
                    <rect class="cls-71" x="668.17" y="927.92" width="18.07" height="31.17"
                          transform="translate(-293.47 1581.15) rotate(-87.63)"/>
                </g>
                <g class="cls-72">
                    <rect class="cls-73" x="865.27" y="815.7" width="18.07" height="31.16"
                          transform="translate(7.61 1670.51) rotate(-87.63)"/>
                </g>
                <g class="cls-74">
                    <rect class="cls-75" x="895.74" y="827.77" width="18.07" height="31.16"
                          transform="translate(24.77 1712.51) rotate(-87.63)"/>
                </g>
            </g>
        </g>
    </g>
</svg>
