<?xml version="1.0" encoding="utf-8"?>
<!-- Generator: Adobe Illustrator 16.0.0, SVG Export Plug-In . SVG Version: 6.00 Build 0)  -->
<!DOCTYPE svg PUBLIC "-//W3C//DTD SVG 1.1//EN" "http://www.w3.org/Graphics/SVG/1.1/DTD/svg11.dtd">
<svg version="1.1" id="Layer_1" xmlns="http://www.w3.org/2000/svg" xmlns:xlink="http://www.w3.org/1999/xlink" x="0px" y="0px"
	 width="124.995px" height="324.11px" viewBox="0 0 124.995 324.11" enable-background="new 0 0 124.995 324.11"
	 xml:space="preserve">
<g>
	<path fill="#2C4257" stroke="#2C4257" stroke-miterlimit="10" d="M124.495,74.688c0-9.419-6.677-20.938-14.884-25.676L29.331,2.661
		c-2.453-1.416-4.832-2.134-7.071-2.134c-8.282-0.52-21.69,6.41-21.69,17.079l1.412,0.92c0.314-8.454,6.533-11.779,14.135-7.39
		l80.281,46.351c7.803,4.504,14.15,15.453,14.15,24.406v230.21c0,6.64-3.493,10.342-8.479,9.977l0.667,1.494
		c7.995,0.517,21.75-4.404,21.75-18.105l-0.009-0.009c0.005-0.188,0.019-0.37,0.019-0.562V74.688z"/>
	<path fill="none" stroke="#2C4257" stroke-miterlimit="10" d="M115.217,316.369c-2.239,0-4.619-0.719-7.071-2.134l-80.281-46.351
		c-8.207-4.739-14.883-16.257-14.883-25.677V11.998c0-6.968,3.642-11.471,9.278-11.471c2.239,0,4.619,0.718,7.071,2.134
		l80.281,46.351c8.207,4.738,14.884,16.256,14.884,25.676v230.21C124.495,311.866,120.854,316.369,115.217,316.369z"/>
	<path fill="#2ABBD4" stroke="#2C4257" stroke-miterlimit="10" d="M119.928,141.351l-0.257,0.148
		c-0.951,0.549-1.723-0.034-1.723-1.302v-25.631c0-1.269,0.771-2.742,1.723-3.291l0.257-0.148c0.951-0.549,1.723,0.034,1.723,1.302
		v25.631C121.65,139.329,120.879,140.802,119.928,141.351z"/>
	<path fill="#2ABBD4" stroke="#2C4257" stroke-miterlimit="10" d="M119.928,177.179l-0.257,0.148
		c-0.951,0.549-1.723-0.034-1.723-1.303v-25.631c0-1.268,0.771-2.741,1.723-3.291l0.257-0.148c0.951-0.549,1.723,0.034,1.723,1.302
		v25.631C121.65,175.156,120.879,176.629,119.928,177.179z"/>
	<g>
		<g>
			<g>
				<path fill="#2C4257" d="M102.735,323.574c-2.239,0-4.618-0.718-7.071-2.133l-80.281-46.351
					C7.177,270.352,0.5,258.834,0.5,249.414V19.204c0-6.968,3.642-11.471,9.278-11.471c2.239,0,4.619,0.718,7.071,2.134
					l80.281,46.351c8.206,4.738,14.883,16.256,14.883,25.676v230.21C112.014,319.071,108.372,323.574,102.735,323.574z"/>
				<path fill="none" stroke="#2C4257" stroke-miterlimit="10" d="M102.735,323.574c-2.239,0-4.618-0.718-7.071-2.133
					l-80.281-46.351C7.177,270.352,0.5,258.834,0.5,249.414V19.204c0-6.968,3.642-11.471,9.278-11.471
					c2.239,0,4.619,0.718,7.071,2.134l80.281,46.351c8.206,4.738,14.883,16.256,14.883,25.676v230.21
					C112.014,319.071,108.372,323.574,102.735,323.574z"/>
			</g>
			<path fill="#60CCF6" d="M16.116,273.82c-7.802-4.504-14.15-15.453-14.15-24.406V19.204c0-8.953,6.348-12.572,14.15-8.067
				l80.281,46.351c7.803,4.504,14.15,15.453,14.15,24.406v230.21c0,8.953-6.348,12.572-14.15,8.067L16.116,273.82z"/>
			<path fill="#2ABBD4" stroke="#2C4257" stroke-miterlimit="10" d="M64.182,287.646c0,5.022-3.548,7.045-7.925,4.519
				c-4.376-2.527-7.924-8.646-7.924-13.669c0-5.021,3.548-7.045,7.924-4.518C60.634,276.504,64.182,282.624,64.182,287.646z"/>
			<g>
				<path fill="#2C4257" stroke="#2C4257" stroke-miterlimit="10" d="M44.574,43.732c0,0.782-0.553,1.098-1.235,0.704
					c-0.682-0.394-1.234-1.347-1.234-2.129c0-0.782,0.553-1.098,1.234-0.704C44.021,41.996,44.574,42.949,44.574,43.732z"/>
				<path fill="#2C4257" stroke="#2C4257" stroke-miterlimit="10" d="M69.446,58.833L51.13,48.259
					c-0.199-0.115-0.321-0.327-0.321-0.556l0,0c0-0.495,0.535-0.804,0.963-0.557l18.315,10.575c0.199,0.115,0.321,0.327,0.321,0.557
					l0,0C70.409,58.771,69.874,59.081,69.446,58.833z"/>
			</g>
		</g>
		<g>
			<polygon fill="#FEFFFF" points="105.82,296.304 6.694,239.073 6.694,37.486 105.82,94.717 			"/>
			<g>
				<text transform="matrix(0.8715 0.5031 0 1 36.0127 148.5747)" fill="#2C4257" font-family="'Lato-Bold'" font-size="80.2779">$</text>
			</g>
			<g>
				<g>
					<path fill="#E44C3C" d="M68.255,214.76c0,7.604-5.372,10.666-11.998,6.841c-6.626-3.826-11.998-13.092-11.998-20.695
						s5.372-10.666,11.998-6.84C62.883,197.891,68.255,207.156,68.255,214.76z"/>
					<path fill="#FEFFFF" d="M64.415,212.543c0,5.17-3.652,7.252-8.158,4.65c-4.505-2.601-8.158-8.9-8.158-14.07
						s3.652-7.253,8.158-4.651C60.763,201.072,64.415,207.373,64.415,212.543z"/>
					<path fill="#E44C3C" d="M62.975,211.711c0,4.258-3.008,5.973-6.718,3.831c-3.71-2.143-6.718-7.33-6.718-11.588
						s3.008-5.973,6.718-3.83C59.967,202.266,62.975,207.454,62.975,211.711z"/>
				</g>
				<g>
					<g>
						
							<line fill="none" stroke="#2C4257" stroke-linecap="round" stroke-miterlimit="10" x1="56.257" y1="191.826" x2="56.257" y2="182.465"/>
						
							<line fill="none" stroke="#2C4257" stroke-linecap="round" stroke-miterlimit="10" x1="44.177" y1="192.855" x2="37.112" y2="184.096"/>
						
							<line fill="none" stroke="#2C4257" stroke-linecap="round" stroke-miterlimit="10" x1="44.177" y1="208.861" x2="37.112" y2="209.463"/>
						
							<line fill="none" stroke="#2C4257" stroke-linecap="round" stroke-miterlimit="10" x1="56.257" y1="223.839" x2="56.257" y2="233.2"/>
						
							<line fill="none" stroke="#2C4257" stroke-linecap="round" stroke-miterlimit="10" x1="68.337" y1="222.811" x2="75.402" y2="231.569"/>
						
							<line fill="none" stroke="#2C4257" stroke-linecap="round" stroke-miterlimit="10" x1="68.337" y1="206.804" x2="75.402" y2="206.202"/>
					</g>
					<g>
						
							<line fill="none" stroke="#2C4257" stroke-linecap="round" stroke-miterlimit="10" x1="51.261" y1="195.019" x2="48.339" y2="187.525"/>
						
							<line fill="none" stroke="#2C4257" stroke-linecap="round" stroke-miterlimit="10" x1="46.265" y1="202.063" x2="40.422" y2="198.69"/>
						
							<line fill="none" stroke="#2C4257" stroke-linecap="round" stroke-miterlimit="10" x1="51.261" y1="214.878" x2="48.339" y2="218.998"/>
						
							<line fill="none" stroke="#2C4257" stroke-linecap="round" stroke-miterlimit="10" x1="61.253" y1="220.646" x2="64.175" y2="228.141"/>
						
							<line fill="none" stroke="#2C4257" stroke-linecap="round" stroke-miterlimit="10" x1="66.249" y1="213.602" x2="72.092" y2="216.976"/>
						
							<line fill="none" stroke="#2C4257" stroke-linecap="round" stroke-miterlimit="10" x1="61.253" y1="200.788" x2="64.175" y2="196.667"/>
					</g>
				</g>
			</g>
			<polygon fill="#2ABBD4" points="105.82,99.159 6.694,41.929 6.694,37.486 105.82,94.717 			"/>
			<g>
				<polygon fill="#2ABBD4" points="105.82,296.304 6.694,239.073 6.694,219.314 105.82,276.546 				"/>
				
					<line fill="none" stroke="#FEFFFF" stroke-width="0.68" stroke-miterlimit="10" x1="31.475" y1="233.622" x2="31.475" y2="253.381"/>
				
					<line fill="none" stroke="#FEFFFF" stroke-width="0.68" stroke-miterlimit="10" x1="56.257" y1="247.931" x2="56.257" y2="267.688"/>
				
					<line fill="none" stroke="#FEFFFF" stroke-width="0.68" stroke-miterlimit="10" x1="81.039" y1="262.238" x2="81.039" y2="281.996"/>
			</g>
			<polygon fill="#2C4257" points="7.694,238.073 7.694,38.063 6.694,37.486 6.694,239.073 105.82,296.304 105.82,294.727 			"/>
		</g>
	</g>
</g>
</svg>
